<svg width="24" height="24" viewBox="0 0 24 24" fill="none" xmlns="http://www.w3.org/2000/svg">
<path d="M18.0663 9.87461L20.0597 6.56212C20.233 6.2392 20.103 5.84336 19.778 5.6767C19.6254 5.60021 19.4486 5.58132 19.2822 5.62371C19.1159 5.66611 18.972 5.76674 18.8788 5.90586L16.8422 9.28086C15.3102 8.65687 13.6634 8.33533 11.9997 8.33533C10.3359 8.33533 8.68915 8.65687 7.15718 9.28086L5.12051 5.90586C5.02203 5.76057 4.86877 5.65766 4.69298 5.61881C4.5172 5.57995 4.33259 5.60817 4.17801 5.69753C3.87467 5.88503 3.77717 6.26003 3.93967 6.56212L5.93301 9.87461C4.27915 10.7831 2.88147 12.0667 1.86182 13.6136C0.842166 15.1605 0.231485 16.9237 0.0830078 18.7496H23.9163C23.7679 16.9237 23.1572 15.1605 22.1375 13.6136C21.1179 12.0667 19.7202 10.7831 18.0663 9.87461ZM6.58301 15.885C6.22386 15.885 5.87942 15.7478 5.62547 15.5037C5.37151 15.2595 5.22884 14.9283 5.22884 14.5829C5.22884 14.2376 5.37151 13.9064 5.62547 13.6622C5.87942 13.418 6.22386 13.2809 6.58301 13.2809C6.94216 13.2809 7.28659 13.418 7.54055 13.6622C7.7945 13.9064 7.93717 14.2376 7.93717 14.5829C7.93717 14.9283 7.7945 15.2595 7.54055 15.5037C7.28659 15.7478 6.94216 15.885 6.58301 15.885ZM17.4163 15.885C17.0572 15.885 16.7128 15.7478 16.4588 15.5037C16.2048 15.2595 16.0622 14.9283 16.0622 14.5829C16.0622 14.2376 16.2048 13.9064 16.4588 13.6622C16.7128 13.418 17.0572 13.2809 17.4163 13.2809C17.7755 13.2809 18.1199 13.418 18.3739 13.6622C18.6278 13.9064 18.7705 14.2376 18.7705 14.5829C18.7705 14.9283 18.6278 15.2595 18.3739 15.5037C18.1199 15.7478 17.7755 15.885 17.4163 15.885Z" fill="#B4B4C6"/>
</svg>
