<svg width="21" height="20" viewBox="0 0 21 20" fill="none" xmlns="http://www.w3.org/2000/svg">
<path d="M10.6981 4.67916C11.4377 4.67916 12.3647 4.17058 12.9168 3.49247C13.4168 2.87793 13.7814 2.0197 13.7814 1.16147C13.7814 1.04492 13.771 0.928367 13.7502 0.833008C12.9272 0.864794 11.9377 1.39457 11.3439 2.10446C10.8752 2.64483 10.4481 3.49247 10.4481 4.3613C10.4481 4.48844 10.4689 4.61559 10.4793 4.65797C10.5314 4.66857 10.6147 4.67916 10.6981 4.67916ZM8.09391 17.4997C9.10433 17.4997 9.55225 16.811 10.8127 16.811C12.0939 16.811 12.3752 17.4785 13.5002 17.4785C14.6043 17.4785 15.3439 16.4401 16.0418 15.423C16.8231 14.2575 17.146 13.1132 17.1668 13.0602C17.0939 13.039 14.9793 12.1596 14.9793 9.69082C14.9793 7.55053 16.646 6.58634 16.7397 6.51218C15.6356 4.90167 13.9585 4.85928 13.5002 4.85928C12.2606 4.85928 11.2502 5.62216 10.6147 5.62216C9.92725 5.62216 9.021 4.90167 7.94808 4.90167C5.90641 4.90167 3.8335 6.61813 3.8335 9.86034C3.8335 11.8735 4.60433 14.0032 5.55225 15.3806C6.36475 16.5461 7.07308 17.4997 8.09391 17.4997Z" fill="#DCDCF2"/>
</svg>
