<svg width="46" height="59" viewBox="0 0 46 59" fill="none" xmlns="http://www.w3.org/2000/svg">
<path d="M17 11.8325V8.83252C17 7.24122 17.6321 5.7151 18.7574 4.58988C19.8826 3.46466 21.4087 2.83252 23 2.83252C24.5913 2.83252 26.1174 3.46466 27.2426 4.58988C28.3679 5.7151 29 7.24122 29 8.83252V11.8325M2 47.8325V29.8325C2 25.0586 3.89642 20.4803 7.27208 17.1046C10.6477 13.7289 15.2261 11.8325 20 11.8325H26C30.7739 11.8325 35.3523 13.7289 38.7279 17.1046C42.1036 20.4803 44 25.0586 44 29.8325V47.8325C44 50.2195 43.0518 52.5087 41.364 54.1965C39.6761 55.8843 37.3869 56.8325 35 56.8325H11C8.61305 56.8325 6.32387 55.8843 4.63604 54.1965C2.94821 52.5087 2 50.2195 2 47.8325Z" stroke="white" stroke-width="4" stroke-linecap="round" stroke-linejoin="round"/>
<path d="M13.999 56.8325V44.8325C13.999 43.2412 14.6312 41.7151 15.7564 40.5899C16.8816 39.4647 18.4077 38.8325 19.999 38.8325H25.999C27.5903 38.8325 29.1164 39.4647 30.2417 40.5899C31.3669 41.7151 31.999 43.2412 31.999 44.8325V56.8325M19.999 23.8325H25.999" stroke="white" stroke-width="4" stroke-linecap="round" stroke-linejoin="round"/>
</svg>
