<svg width="32" height="32" viewBox="0 0 32 32" fill="none" xmlns="http://www.w3.org/2000/svg">
<path fill-rule="evenodd" clip-rule="evenodd" d="M15.9993 29.3307C8.63555 29.3307 2.66602 23.3612 2.66602 15.9974C2.66602 8.6336 8.63555 2.66406 15.9993 2.66406C23.3631 2.66406 29.3327 8.6336 29.3327 15.9974C29.3327 23.3612 23.3631 29.3307 15.9993 29.3307ZM22.9422 13.6069C23.4629 13.0862 23.4629 12.242 22.9422 11.7213C22.4215 11.2006 21.5772 11.2006 21.0565 11.7213L13.9993 18.7784L10.9422 15.7213C10.4215 15.2006 9.57724 15.2006 9.05654 15.7213C8.53584 16.242 8.53584 17.0862 9.05654 17.6069L13.0565 21.6069C13.5772 22.1276 14.4215 22.1276 14.9422 21.6069L22.9422 13.6069Z" fill="white"/>
</svg>
