<svg width="40" height="40" viewBox="0 0 40 40" fill="none" xmlns="http://www.w3.org/2000/svg">
<path fill-rule="evenodd" clip-rule="evenodd" d="M19.9997 36.6667C29.2044 36.6667 36.6663 29.2048 36.6663 20C36.6663 10.7953 29.2044 3.33337 19.9997 3.33337C10.7949 3.33337 3.33301 10.7953 3.33301 20C3.33301 29.2048 10.7949 36.6667 19.9997 36.6667ZM27.4282 12.5715C26.7773 11.9207 25.722 11.9207 25.0712 12.5715L19.9997 17.643L14.9282 12.5715C14.2773 11.9207 13.222 11.9207 12.5712 12.5715C11.9203 13.2224 11.9203 14.2777 12.5712 14.9286L17.6427 20L12.5712 25.0715C11.9203 25.7224 11.9203 26.7777 12.5712 27.4286C13.222 28.0794 14.2773 28.0794 14.9282 27.4286L19.9997 22.3571L25.0712 27.4286C25.722 28.0794 26.7773 28.0794 27.4282 27.4286C28.0791 26.7777 28.0791 25.7224 27.4282 25.0715L22.3567 20L27.4282 14.9286C28.0791 14.2777 28.0791 13.2224 27.4282 12.5715Z" fill="white"/>
</svg>
