<svg width="66" height="43" viewBox="0 0 66 43" fill="none" xmlns="http://www.w3.org/2000/svg">
<path d="M47.498 2.16113C50.5503 2.16113 53.0861 4.45382 53.415 7.42773C56.3892 7.74643 58.7256 10.2483 58.7256 13.3164V15.2773C61.6822 15.6126 64 18.1057 64 21.1611C63.9998 24.2164 61.6821 26.7087 58.7256 27.0439V29.0078C58.7256 32.0759 56.3891 34.5778 53.415 34.8965C53.085 37.8692 50.5495 40.1611 47.498 40.1611C44.2247 40.1609 41.5439 37.5234 41.5439 34.2373V27.084H24.4541V34.2383C24.454 37.5245 21.7724 40.1611 18.499 40.1611C15.4471 40.161 12.9104 37.869 12.5811 34.8955C9.60726 34.5765 7.27054 32.0756 7.27051 29.0078V27.043C4.31593 26.7059 2.0002 24.215 2 21.1611C2 18.107 4.31574 15.6143 7.27051 15.2773V13.3154C7.27062 10.2476 9.60725 7.74568 12.5811 7.42676C12.9105 4.4535 15.4472 2.16122 18.499 2.16113C21.7725 2.16113 24.4541 4.79871 24.4541 8.08496V15.2373H41.5439V8.08398C41.544 4.79794 44.2248 2.16134 47.498 2.16113Z" stroke="white" stroke-width="4"/>
</svg>
