<svg width="47" height="46" viewBox="0 0 47 46" fill="none" xmlns="http://www.w3.org/2000/svg">
<path fill-rule="evenodd" clip-rule="evenodd" d="M14.1628 0C17.9462 0 21.3667 2.64339 23.8209 6.90368C26.275 2.64339 29.6955 0 33.4789 0C40.9464 0 47 10.2975 47 23C47 35.7025 40.9464 46 33.4789 46C29.6955 46 26.275 43.3566 23.8209 39.0963C21.3667 43.3566 17.9462 46 14.1628 46C-4.58074 46 -4.86058 0 14.1628 0ZM21.3873 12.6964C20.9084 11.3402 20.3442 10.1174 19.7193 9.05435C17.6881 5.59926 15.5632 4.6 14.1628 4.6C12.7623 4.6 10.6374 5.59926 8.60624 9.05435C8.23434 9.68697 7.88397 10.3761 7.56029 11.1163C7.82577 11.067 8.09525 11.0418 8.36802 11.0418C12.6352 11.0418 16.0943 17.2203 16.0943 24.8418C16.0943 31.7043 13.2898 37.3969 9.61622 38.4626C11.3193 40.7034 12.9935 41.4 14.1628 41.4C15.5632 41.4 17.6881 40.4007 19.7193 36.9457C20.3442 35.8826 20.9084 34.6598 21.3873 33.3036C21.2091 32.6999 21.0462 32.0811 20.8992 31.4485C19.1575 25.7542 19.7608 18.2088 21.3873 12.6964ZM28.9324 38.4627C32.606 37.3969 35.4106 31.7043 35.4106 24.8418C35.4106 17.2203 31.9514 11.0418 27.6842 11.0418C27.4114 11.0418 27.142 11.067 26.8765 11.1163C27.2001 10.3761 27.5505 9.68697 27.9224 9.05435C29.9536 5.59926 32.0785 4.6 33.4789 4.6C34.8794 4.6 37.0043 5.59926 39.0355 9.05435C41.0002 12.3965 42.3642 17.3168 42.3642 23C42.3642 28.6832 41.0002 33.6035 39.0355 36.9457C37.0043 40.4007 34.8794 41.4 33.4789 41.4C32.3097 41.4 30.6355 40.7035 28.9324 38.4627Z" fill="white"/>
</svg>
