<svg width="24" height="24" viewBox="0 0 24 24" fill="none" xmlns="http://www.w3.org/2000/svg">
<path d="M22.0176 13.2978L18.0986 15.5158L14.5836 12.0228L18.1266 8.50178L22.0176 10.7038C22.2473 10.8336 22.4383 11.0221 22.5712 11.25C22.7042 11.4779 22.7742 11.737 22.7742 12.0008C22.7742 12.2646 22.7042 12.5237 22.5712 12.7515C22.4383 12.9794 22.2473 13.1679 22.0176 13.2978ZM1.33661 0.923776C1.26275 1.10404 1.2247 1.29697 1.22461 1.49178V22.5088C1.22461 22.7258 1.26961 22.9278 1.34861 23.1088L12.5036 12.0218L1.33661 0.923776ZM13.5436 10.9888L16.8016 7.75078L3.44961 0.194776C3.16331 0.0306085 2.8301 -0.0324416 2.50361 0.0157761L13.5436 10.9888ZM13.5436 13.0558L2.54361 23.9888C2.84161 24.0248 3.15561 23.9728 3.44961 23.8058L16.7736 16.2658L13.5436 13.0558Z" fill="white"/>
</svg>
