<svg width="169" height="156" viewBox="0 0 169 156" fill="none" xmlns="http://www.w3.org/2000/svg">
<path d="M131.62 61.3036C126.607 52.4451 143.217 33.7765 152.148 25.5495C140.89 34.0193 114.582 50.6511 99.4092 49.4196C84.2368 48.1882 75.256 15.8213 74.5979 12.207C73.7116 17.441 72.6913 53.4775 60.214 56.4301C47.7367 59.3827 17.5124 52.4767 3.95991 48.6546C13.9266 54.9542 34.1338 69.3093 35.2288 76.3327C36.3239 83.3561 20.3252 89.9272 12.189 92.3349C19.5753 91.1832 35.2688 91.1464 38.9521 100.212C42.6353 109.278 26.2295 127.795 17.5661 135.92C30.8153 128.699 60.0836 113.824 71.1631 112.096C82.2425 110.369 92.8323 139.468 95.1866 144.256C94.8989 139.985 94.6258 110.452 108.279 106.309C121.933 102.166 152.285 108.92 165.754 112.815C155.937 105.653 136.061 89.7835 135.097 83.6029C134.133 77.4223 150.625 71.5896 158.992 69.4458C151.957 70.4228 136.633 70.1622 131.62 61.3036Z" fill="#AFF26D" stroke="white" stroke-width="2"/>
<path d="M80.3011 28.6837C80.6904 27.5225 81.3941 26.4622 82.6074 25.9595C83.8686 25.4371 85.0381 25.7828 85.972 26.5079C86.8627 27.1995 87.601 28.2696 88.2033 29.4077C88.4622 29.897 88.7033 30.4167 88.9289 30.9497C89.0763 30.5652 89.2686 30.1965 89.5247 29.8683C90.1297 29.0932 91.0205 28.6194 92.1798 28.6116C93.5199 28.6027 94.5256 29.4123 95.3822 30.635C96.231 31.8465 97.081 33.668 98.0857 36.1242C99.0973 38.5972 100.302 41.8073 101.841 45.8378C103.144 49.2485 104.693 53.2619 106.58 57.9505C107.701 54.7422 109.475 51.8486 112.902 49.5916C115.734 47.727 118.225 47.9462 119.793 49.2589C120.537 49.8821 121.026 50.7242 121.189 51.5867C121.351 52.4466 121.196 53.4118 120.519 54.129C116.453 58.4409 116.458 62.826 117.067 67.1079C117.364 69.1979 117.846 71.4498 117.981 73.4486C118.106 75.3056 117.956 77.1577 117.068 78.8604C117.865 80.2007 118.605 81.26 119.586 82.2195C120.682 83.2912 122.124 84.2818 124.365 85.3645L125.136 85.7369L124.887 86.556C122.201 95.3969 115.35 102.104 106.431 104.506L106.113 104.591L105.807 104.471C90.9201 98.6617 80.5748 84.9277 74.7239 72.3205C71.7929 66.0049 69.9604 59.9127 69.2494 55.1431C68.8947 52.7637 68.812 50.6661 69.0352 49.0163C69.2492 47.4355 69.7867 45.9618 70.9747 45.2759C71.4844 44.9816 72.0383 44.9748 72.5328 45.1758C72.9762 45.356 73.3367 45.6864 73.6221 46.0196C73.7985 46.2256 73.9689 46.463 74.1364 46.7229C73.9792 45.1072 73.8833 43.5598 73.8519 42.1285C73.8059 40.0295 73.8968 38.1486 74.1438 36.6556C74.2672 35.9096 74.434 35.2334 74.656 34.6639C74.8728 34.1078 75.173 33.5717 75.6122 33.195C76.0241 32.8418 76.4899 32.6043 77.0018 32.5258C77.5144 32.4472 77.9994 32.5396 78.4311 32.7279C78.9712 32.9635 79.4505 33.3604 79.8712 33.8179C79.8416 33.4055 79.8216 32.9946 79.815 32.5897C79.7926 31.2143 79.9135 29.8401 80.3011 28.6837Z" fill="url(#paint0_linear_0_5017)" stroke="white" stroke-width="2"/>
<path d="M81.7231 38.8191C81.9075 39.5419 82.714 48.1972 85.7275 58.6584" stroke="black"/>
<path d="M89.6148 36.2881C90.1648 40.0406 91.834 49.1914 94.1107 55.7745" stroke="black"/>
<path d="M106.573 61.3101C102.213 62.5575 93.5954 67.3308 94.0081 76.4448" stroke="black"/>
<path d="M78.7682 67.3716C80.4563 64.1562 86.9996 57.2413 99.6686 55.3047" stroke="black"/>
<path d="M31.0698 66.7C31.374 66.0499 31.9485 65.6121 32.6365 65.3297C33.904 64.8095 35.3539 64.7608 36.797 64.9675C38.2478 65.1754 39.7639 65.6517 41.2155 66.2572C41.4529 66.3563 41.6889 66.4603 41.924 66.5665C41.646 66.0621 41.4457 65.5284 41.4286 64.9975C41.4122 64.4848 41.5649 63.9677 41.9556 63.5431C42.3236 63.1432 42.8278 62.9064 43.3703 62.7669C44.5375 62.4668 45.9684 62.6793 47.3811 63.0888C48.8279 63.5082 50.407 64.1801 51.945 64.9565C53.3634 65.6726 54.7736 66.4921 56.0457 67.3092C56.0381 67.285 56.0294 67.2613 56.0222 67.2371C55.8327 66.6015 55.6731 65.5634 56.4576 64.841C56.8253 64.5026 57.2939 64.3478 57.7631 64.2936C58.232 64.2395 58.772 64.2763 59.3759 64.3819C62.3101 64.8949 67.3681 67.0369 72.6803 70.1544C78.0181 73.2869 83.7435 77.481 87.9882 82.1957C98.1851 93.5219 100.239 102.557 99.6136 107.775L99.5714 108.13L99.3133 108.378C94.0614 113.413 88.324 115.832 83.5217 116.778C81.1229 117.25 78.9484 117.356 77.1749 117.234C75.436 117.114 73.9784 116.768 73.0823 116.249L72.8991 116.143L72.7742 115.971C69.1672 111.001 65.559 108.277 61.8333 106.847C58.0913 105.412 54.1321 105.242 49.7436 105.554C48.0115 105.677 46.4731 105.652 45.1808 105.489C43.9043 105.327 42.7979 105.022 41.9814 104.537C41.1502 104.043 40.4947 103.271 40.4989 102.215C40.5029 101.24 41.0782 100.333 41.8931 99.5305C44.1054 97.3518 47.5009 96.4242 50.6149 96.1391C52.0028 96.012 53.3818 96.0088 54.6431 96.0946C53.7681 95.4584 52.7517 94.7373 51.6294 93.951C48.7457 91.9304 45.2418 89.5243 41.942 87.1445C38.647 84.7682 35.5071 82.3847 33.348 80.398C32.2774 79.4128 31.3918 78.4744 30.8566 77.6472C30.5911 77.2368 30.3649 76.7835 30.2849 76.3152C30.199 75.8117 30.281 75.2502 30.6878 74.7903L30.8343 74.6358C31.5836 73.8901 32.5854 73.6019 33.573 73.5474C34.0977 73.5184 34.6469 73.5533 35.2017 73.6321C34.5933 73.1277 34.0162 72.6166 33.4967 72.1086C32.3655 71.0026 31.3709 69.7924 31.0055 68.6394C30.814 68.0353 30.7655 67.3502 31.0698 66.7Z" fill="#FFA9A9" stroke="white" stroke-width="2"/>
<path d="M58.1943 69.7231C58.1943 69.7231 66.5367 76.4274 70.5111 80.7005" stroke="black"/>
<path d="M47.0049 70.6597C51.3284 73.6449 61.0133 80.8289 65.1655 85.6837" stroke="black"/>
<path d="M40.7812 76.6772C43.964 78.5993 52.0257 83.9939 58.8107 90.1957" stroke="black"/>
<path d="M75.7138 52.4402C75.8951 53.7582 77.2913 59.5121 78.4599 62.6316" stroke="black"/>
<path d="M45.2181 65.358C43.7086 66.2294 46.6536 68.3478 48.047 69.3088C48.4798 68.5922 49.3318 67.5402 49.9714 67.093C49.1803 66.1815 46.7275 64.4865 45.2181 65.358Z" stroke="black"/>
<path d="M34.597 67.7823C35.824 66.5583 39.1284 68.2814 40.6273 69.2959L38.5535 72.4872L38.5152 72.4614C36.7452 71.2677 33.3789 68.9976 34.597 67.7823Z" stroke="black"/>
<path d="M33.3151 76.5131C32.4231 77.2747 34.8735 78.9631 36.2102 79.7121C36.454 78.6819 37.4602 77.4279 37.9328 76.9297C36.7652 76.4735 34.2071 75.7516 33.3151 76.5131Z" stroke="black"/>
<path d="M47.6115 104.455L47.8659 101.602C46.3804 101.677 43.433 101.847 42.8996 104.031" stroke="black"/>
<defs>
<linearGradient id="paint0_linear_0_5017" x1="81.3178" y1="63.3306" x2="57.6934" y2="100.169" gradientUnits="userSpaceOnUse">
<stop stop-color="#EEA795"/>
<stop offset="1" stop-color="#886055"/>
</linearGradient>
</defs>
</svg>
