<svg width="106" height="120" viewBox="0 0 106 120" fill="none" xmlns="http://www.w3.org/2000/svg">
<path d="M86.212 3.10144C86.5707 2.92364 87.0005 2.97704 87.305 3.237C90.6413 6.08545 92.7096 8.96473 93.6811 11.7978C94.6586 14.6488 94.5039 17.3925 93.4957 19.891C91.5023 24.8309 86.2436 28.6856 80.1704 30.8584C75.6293 32.4831 73.5702 34.8027 72.6866 37.1514C72.035 38.8836 71.9843 40.73 72.1854 42.5146C72.8752 41.9772 73.7087 41.5324 74.6622 41.1368C76.4995 40.3744 78.9418 39.7302 81.9959 38.9867C85.2272 38.2001 89.1937 38.2004 92.992 39.0023C96.7872 39.8037 100.512 41.4263 103.197 43.9775C103.471 44.2377 103.575 44.6301 103.466 44.9917C103.356 45.3532 103.053 45.6224 102.681 45.6875C94.3472 47.1447 89.0362 50.7547 85.5125 54.9926C82.4164 58.7162 80.6613 62.971 79.4887 66.8051C87.6805 65.0468 94.5559 66.1507 97.8391 67.1804C98.1141 67.2667 98.3382 67.4681 98.4544 67.732C98.5706 67.9958 98.5672 68.297 98.4453 68.5581C87.2367 92.5595 64.7763 105.029 44.455 105.102C39.5486 108.913 34.9181 111.835 31.5827 113.518C31.2121 113.705 30.7649 113.643 30.4584 113.363C25.3486 108.695 20.8105 102.508 17.26 95.7997C2.74236 83.5067 -0.632868 62.2442 4.4978 44.0404C9.65019 25.7596 23.5048 10.162 43.8204 9.69009C44.3042 9.67907 44.7263 10.0158 44.823 10.4899C44.9196 10.9643 44.6627 11.4401 44.2129 11.619C40.0643 13.2685 37.3095 17.3673 35.78 21.9959C34.9973 24.3645 34.561 26.8045 34.4138 29.0112C35.3279 27.4131 36.5792 25.9927 38.0696 24.7404C41.0987 22.1951 45.1496 20.308 49.5055 18.9534C58.214 16.2454 68.4142 15.5823 74.887 16.2437C77.2647 16.4867 79.0967 16.1111 80.5113 15.3958C81.9279 14.6795 82.991 13.5895 83.7778 12.3025C85.3704 9.69727 85.7869 6.35016 85.6572 4.0537C85.6346 3.65393 85.8532 3.27931 86.212 3.10144Z" stroke="white" stroke-width="2" stroke-linejoin="round"/>
<path d="M78.0611 68.1728C86.7876 65.917 94.1998 67.0839 97.5504 68.1348C86.4418 91.9225 64.1419 104.172 44.1222 104.104C32.9461 104.126 26.3768 102.128 18.0639 95.1624C-10.4429 71.2742 4.39244 11.6063 43.854 10.6896C36.1846 13.739 33.2248 24.061 33.3959 30.9668C33.4102 31.5435 34.2863 31.5564 34.4857 31.0152C38.9057 19.0199 63.127 16.0456 74.7965 17.2381C84.9498 18.2757 86.9404 8.84309 86.6666 3.99706C99.6417 15.0747 91.7317 25.6644 79.8439 29.9173C70.3337 33.3197 70.5662 39.9186 71.5449 44.7632C72.7741 42.4697 76.1126 41.4505 82.2427 39.9581C88.3729 38.4657 97.4953 39.9283 102.519 44.7027C85.3947 47.697 80.4236 59.6207 78.0611 68.1728Z" fill="#F7D083"/>
<path d="M34.1614 99.6645C25.632 93.8618 8.66609 77.9552 9.03729 60.7496C9.40849 43.544 21.8043 33.9897 27.9558 31.3632C26.7847 36.257 25.407 47.6622 29.2653 54.1318C32.3698 45.945 42.1706 29.0583 56.5377 27.0062C70.5343 25.0069 75.7427 23.345 76.7028 22.7134C76.7254 22.6973 76.7478 22.6813 76.7702 22.6654C76.7507 22.6807 76.7283 22.6967 76.7028 22.7134C70.3693 27.2367 58.5462 39.7544 61.3978 54.069C65.9482 52.1204 76.7696 48.2197 83.6515 48.2063C79.866 53.1896 71.6414 65.2828 69.0267 73.7891L81.6812 75.7885C72.5093 86.5173 50.1646 106.313 34.1614 99.6645Z" fill="#FF915A"/>
<path d="M69.534 68.6815C66.4959 88.649 41.809 107.239 31.1326 112.625C12.5075 95.6105 1.29331 57.6714 19.5388 48.9225C35.3684 41.3321 39.2375 58.589 37.9355 65.6548C45.8904 46.252 73.3315 43.7221 69.534 68.6815Z" fill="#E12727"/>
<path d="M51.6531 51.9189C56.8171 50.2808 67.5748 49.6793 69.2944 60.3781C71.0139 71.0769 64.5241 82.4005 61.0643 86.7249" stroke="black"/>
<path d="M36.0738 77.6139C35.001 71.1373 37.3413 63.2404 43.9741 56.5035" stroke="black"/>
<path d="M18.5117 53.2402C20.5972 50.291 25.663 49.6055 27.6941 50.2773C29.7252 50.949 28.1711 53.2213 23.9323 54.1719C19.6935 55.1226 17.3076 54.943 18.5117 53.2402Z" fill="white"/>
</svg>
