<svg width="64" height="64" viewBox="0 0 64 64" fill="none" xmlns="http://www.w3.org/2000/svg">
<path fill-rule="evenodd" clip-rule="evenodd" d="M58.6491 21.2793C58.6491 32.53 46.5135 42.3933 36.7389 45.4844L40.2728 38.8919L7.45508 61.2793L28.1829 31.7852L18.3939 36.9902L25.2767 23.8021L8.60612 38.8919C14.3678 25.9583 27.3118 4.75195 42.1217 4.75195C51.2494 4.75195 58.6491 12.1517 58.6491 21.2793ZM43.4551 29.2793C48.61 29.2793 52.7884 25.1009 52.7884 19.946C52.7884 14.791 48.61 10.6126 43.4551 10.6126C38.3001 10.6126 34.1217 14.791 34.1217 19.946C34.1217 25.1009 38.3001 29.2793 43.4551 29.2793Z" fill="white"/>
</svg>
