<svg width="102" height="125" viewBox="0 0 102 125" fill="none" xmlns="http://www.w3.org/2000/svg">
<mask id="path-1-outside-1_0_5035" maskUnits="userSpaceOnUse" x="0.731445" y="-0.682129" width="101" height="126" fill="black">
<rect fill="white" x="0.731445" y="-0.682129" width="101" height="126"/>
<path d="M40.1847 21.4557C45.6808 8.4187 59.2412 0.691128 73.2589 2.60802C76.7572 3.08642 79.967 4.21293 82.8058 5.83654C84.0215 4.9134 85.3609 4.4608 86.9855 4.359C88.4037 4.36947 89.6715 4.71833 90.8273 5.47911C94.3793 6.11499 95.7551 9.63183 96.7238 12.6402C96.9536 13.194 97.1105 13.7849 97.1808 14.4068C97.3985 16.3355 96.7577 17.8018 95.6251 19.2789C99.8021 26.2846 100.763 35.1891 97.1036 43.4752L86.9181 66.5377C85.5037 69.7399 83.4051 72.5948 80.7706 74.9V75.357C80.7706 76.6972 80.4336 78.0169 79.7911 79.193L62.4298 110.967C57.6311 119.75 47.4826 124.155 37.7902 121.663C37.1115 121.488 36.4477 121.258 35.8068 120.974L13.3976 111.062C12.262 110.56 11.2119 109.89 10.2794 109.081C8.13431 107.303 6.43141 105.08 5.21106 103.107C4.37187 101.988 3.74516 100.758 3.33118 99.4733C3.30487 99.4039 3.27563 99.3347 3.25012 99.2643C3.27105 99.3192 3.29521 99.3757 3.31848 99.4342C2.16883 95.8249 2.70102 91.7861 4.97473 88.5377L25.8722 58.6842C26.925 57.1803 28.4635 56.084 30.2286 55.5797L30.3595 55.5416C28.9037 52.1125 28.8958 48.2334 30.3468 44.7916L40.1847 21.4557Z"/>
</mask>
<path d="M40.1847 21.4557C45.6808 8.4187 59.2412 0.691128 73.2589 2.60802C76.7572 3.08642 79.967 4.21293 82.8058 5.83654C84.0215 4.9134 85.3609 4.4608 86.9855 4.359C88.4037 4.36947 89.6715 4.71833 90.8273 5.47911C94.3793 6.11499 95.7551 9.63183 96.7238 12.6402C96.9536 13.194 97.1105 13.7849 97.1808 14.4068C97.3985 16.3355 96.7577 17.8018 95.6251 19.2789C99.8021 26.2846 100.763 35.1891 97.1036 43.4752L86.9181 66.5377C85.5037 69.7399 83.4051 72.5948 80.7706 74.9V75.357C80.7706 76.6972 80.4336 78.0169 79.7911 79.193L62.4298 110.967C57.6311 119.75 47.4826 124.155 37.7902 121.663C37.1115 121.488 36.4477 121.258 35.8068 120.974L13.3976 111.062C12.262 110.56 11.2119 109.89 10.2794 109.081C8.13431 107.303 6.43141 105.08 5.21106 103.107C4.37187 101.988 3.74516 100.758 3.33118 99.4733C3.30487 99.4039 3.27563 99.3347 3.25012 99.2643C3.27105 99.3192 3.29521 99.3757 3.31848 99.4342C2.16883 95.8249 2.70102 91.7861 4.97473 88.5377L25.8722 58.6842C26.925 57.1803 28.4635 56.084 30.2286 55.5797L30.3595 55.5416C28.9037 52.1125 28.8958 48.2334 30.3468 44.7916L40.1847 21.4557Z" fill="#FF985B"/>
<path d="M40.1847 21.4557L38.3418 20.6787L38.3418 20.6787L40.1847 21.4557ZM73.2589 2.60802L73.5299 0.626463L73.5299 0.626462L73.2589 2.60802ZM82.8058 5.83654L81.8128 7.57263L82.9615 8.22959L84.0153 7.42935L82.8058 5.83654ZM86.9855 4.359L87.0003 2.35905L86.9303 2.35853L86.8604 2.36291L86.9855 4.359ZM90.8273 5.47911L89.7276 7.14966L90.0706 7.37545L90.4748 7.44782L90.8273 5.47911ZM96.7238 12.6402L94.82 13.2532L94.8451 13.3312L94.8765 13.4068L96.7238 12.6402ZM97.1808 14.4068L99.1682 14.1825L99.1681 14.1822L97.1808 14.4068ZM95.6251 19.2789L94.038 18.062L93.2128 19.1382L93.9073 20.3031L95.6251 19.2789ZM97.1036 43.4752L98.9332 44.2832L98.9332 44.2832L97.1036 43.4752ZM86.9181 66.5377L88.7476 67.3458L88.7476 67.3457L86.9181 66.5377ZM80.7706 74.9L79.4536 73.3949L78.7706 73.9925V74.9H80.7706ZM80.7706 75.357L82.7706 75.3571V75.357H80.7706ZM79.7911 79.193L81.5462 80.152L81.5463 80.1518L79.7911 79.193ZM62.4298 110.967L64.1849 111.926L64.1849 111.926L62.4298 110.967ZM37.7902 121.663L37.292 123.6L37.2921 123.6L37.7902 121.663ZM35.8068 120.974L34.9977 122.803L34.9978 122.803L35.8068 120.974ZM13.3976 111.062L12.5885 112.891L12.5885 112.891L13.3976 111.062ZM10.2794 109.081L11.5905 107.57L11.5732 107.555L11.5556 107.541L10.2794 109.081ZM5.21106 103.107L6.91189 102.055L6.86488 101.979L6.81128 101.907L5.21106 103.107ZM3.33118 99.4733L5.23482 98.8599L5.21924 98.8116L5.20123 98.7641L3.33118 99.4733ZM3.25012 99.2643L5.11911 98.5523L1.36953 99.945L3.25012 99.2643ZM3.31848 99.4342L1.46 100.173L5.22414 98.8272L3.31848 99.4342ZM4.97473 88.5377L3.33627 87.3908L3.33623 87.3908L4.97473 88.5377ZM25.8722 58.6842L24.2337 57.5372L24.2337 57.5373L25.8722 58.6842ZM30.2286 55.5797L30.7781 57.5028L30.7875 57.5L30.2286 55.5797ZM30.3595 55.5416L30.9184 57.4619L33.0804 56.8327L32.2005 54.7601L30.3595 55.5416ZM30.3468 44.7916L28.5039 44.0147L28.5039 44.0147L30.3468 44.7916ZM40.1847 21.4557L42.0276 22.2326C47.1725 10.0289 59.8662 2.7952 72.9879 4.58958L73.2589 2.60802L73.5299 0.626462C58.6162 -1.41295 44.1892 6.80852 38.3418 20.6787L40.1847 21.4557ZM73.2589 2.60802L72.9879 4.58958C76.2287 5.03276 79.1938 6.07468 81.8128 7.57263L82.8058 5.83654L83.7987 4.10044C80.7403 2.35117 77.2858 1.14009 73.5299 0.626463L73.2589 2.60802ZM82.8058 5.83654L84.0153 7.42935C84.8751 6.77648 85.823 6.43576 87.1105 6.35508L86.9855 4.359L86.8604 2.36291C84.8987 2.48584 83.1679 3.05031 81.5963 4.24372L82.8058 5.83654ZM86.9855 4.359L86.9707 6.35894C88.0453 6.36688 88.9277 6.62314 89.7276 7.14966L90.8273 5.47911L91.9269 3.80856C90.4153 2.81351 88.762 2.37207 87.0003 2.35905L86.9855 4.359ZM90.8273 5.47911L90.4748 7.44782C91.5834 7.64626 92.3954 8.27402 93.0912 9.29578C93.8236 10.3711 94.3383 11.7573 94.82 13.2532L96.7238 12.6402L98.6275 12.0272C98.1405 10.5148 97.483 8.63832 96.3973 7.04417C95.2751 5.39645 93.6232 3.94785 91.1797 3.51041L90.8273 5.47911ZM96.7238 12.6402L94.8765 13.4068C95.0363 13.7919 95.1447 14.2007 95.1934 14.6315L97.1808 14.4068L99.1681 14.1822C99.0762 13.3692 98.8708 12.5961 98.571 11.8736L96.7238 12.6402ZM97.1808 14.4068L95.1934 14.6312C95.3345 15.8806 94.974 16.8412 94.038 18.062L95.6251 19.2789L97.2123 20.4958C98.5414 18.7623 99.4626 16.7905 99.1682 14.1825L97.1808 14.4068ZM95.6251 19.2789L93.9073 20.3031C97.7721 26.7854 98.6566 35.0083 95.2741 42.6672L97.1036 43.4752L98.9332 44.2832C102.87 35.3699 101.832 25.7839 97.343 18.2547L95.6251 19.2789ZM97.1036 43.4752L95.2741 42.6672L85.0886 65.7297L86.9181 66.5377L88.7476 67.3457L98.9332 44.2832L97.1036 43.4752ZM86.9181 66.5377L85.0886 65.7296C83.7921 68.6649 81.8684 71.2819 79.4536 73.3949L80.7706 74.9L82.0877 76.4051C84.9418 73.9077 87.2153 70.8149 88.7476 67.3458L86.9181 66.5377ZM80.7706 74.9H78.7706V75.357H80.7706H82.7706V74.9H80.7706ZM80.7706 75.357L78.7706 75.3569C78.7706 76.3622 78.5178 77.3521 78.036 78.2341L79.7911 79.193L81.5463 80.1518C82.3495 78.6816 82.7706 77.0323 82.7706 75.3571L80.7706 75.357ZM79.7911 79.193L78.036 78.234L60.6747 110.008L62.4298 110.967L64.1849 111.926L81.5462 80.152L79.7911 79.193ZM62.4298 110.967L60.6747 110.008C56.3148 117.988 47.0942 121.99 38.2882 119.726L37.7902 121.663L37.2921 123.6C47.8709 126.32 58.9474 121.512 64.1849 111.926L62.4298 110.967ZM37.7902 121.663L38.2883 119.726C37.7161 119.579 37.1563 119.384 36.6158 119.145L35.8068 120.974L34.9978 122.803C35.739 123.131 36.5068 123.398 37.292 123.6L37.7902 121.663ZM35.8068 120.974L36.6158 119.145L14.2066 109.233L13.3976 111.062L12.5885 112.891L34.9977 122.803L35.8068 120.974ZM13.3976 111.062L14.2066 109.233C13.2554 108.812 12.3741 108.251 11.5905 107.57L10.2794 109.081L8.96834 110.591C10.0497 111.53 11.2687 112.307 12.5885 112.891L13.3976 111.062ZM10.2794 109.081L11.5556 107.541C9.62728 105.943 8.0579 103.907 6.91189 102.055L5.21106 103.107L3.51023 104.159C4.80491 106.252 6.64133 108.663 9.00321 110.621L10.2794 109.081ZM5.21106 103.107L6.81128 101.907C6.10759 100.969 5.58218 99.9381 5.23482 98.8599L3.33118 99.4733L1.42753 100.087C1.90815 101.578 2.63615 103.007 3.61083 104.307L5.21106 103.107ZM3.33118 99.4733L5.20123 98.7641C5.12504 98.5632 5.16297 98.6727 5.13071 98.5836L3.25012 99.2643L1.36953 99.945C1.39331 100.011 1.41657 100.07 1.4312 100.106C1.44903 100.151 1.45489 100.166 1.46112 100.182L3.33118 99.4733ZM3.25012 99.2643L1.38113 99.9762C1.40073 100.028 1.41975 100.074 1.43208 100.105C1.44694 100.141 1.453 100.156 1.46 100.173L3.31848 99.4342L5.17696 98.6952C5.1216 98.556 5.13912 98.6048 5.11911 98.5523L3.25012 99.2643ZM3.31848 99.4342L5.22414 98.8272C4.25864 95.796 4.7068 92.4082 6.61323 89.6846L4.97473 88.5377L3.33623 87.3908C0.69523 91.164 0.0790238 95.8538 1.41282 100.041L3.31848 99.4342ZM4.97473 88.5377L6.61319 89.6846L27.5107 59.8311L25.8722 58.6842L24.2337 57.5373L3.33627 87.3908L4.97473 88.5377ZM25.8722 58.6842L27.5106 59.8311C28.3001 58.7033 29.4541 57.881 30.7781 57.5027L30.2286 55.5797L29.6792 53.6567C27.4729 54.2871 25.5498 55.6572 24.2337 57.5372L25.8722 58.6842ZM30.2286 55.5797L30.7875 57.5L30.9184 57.4619L30.3595 55.5416L29.8006 53.6213L29.6697 53.6594L30.2286 55.5797ZM30.3595 55.5416L32.2005 54.7601C30.9559 51.8284 30.949 48.5116 32.1897 45.5685L30.3468 44.7916L28.5039 44.0147C26.8426 47.9553 26.8516 52.3966 28.5185 56.3232L30.3595 55.5416ZM30.3468 44.7916L32.1897 45.5685L42.0276 22.2326L40.1847 21.4557L38.3418 20.6787L28.5039 44.0147L30.3468 44.7916Z" fill="white" mask="url(#path-1-outside-1_0_5035)"/>
<path d="M90.2555 8.3999C91.3758 8.40818 92.4023 8.62719 93.3538 9.09387C93.0655 8.08088 92.3737 6.94666 90.7822 5.4707C94.3712 6.08543 95.7567 9.62492 96.7296 12.6479C96.9574 13.1993 97.1106 13.7875 97.1805 14.4063C97.3986 16.3358 96.7591 17.8029 95.6259 19.2806C99.8023 26.2862 100.763 35.1895 97.1038 43.4752L86.9177 66.538C85.5033 69.7405 83.4051 72.5946 80.7703 74.9V75.3569C80.7703 76.6975 80.4335 78.0165 79.7907 79.1928L62.4293 110.968C57.6307 119.75 47.483 124.155 37.7904 121.662C37.1115 121.488 36.4482 121.257 35.8071 120.974L13.3971 111.062C12.2512 110.555 11.1921 109.879 10.2535 109.06C7.52141 106.788 5.50936 103.794 4.30112 101.526C5.13865 102.97 6.15051 104.095 7.17418 104.976C5.32023 101.023 5.65034 96.2857 8.24548 92.5783L29.1429 62.7249C30.1957 61.2209 31.7338 60.1247 33.499 59.6204L33.6309 59.5827C32.1748 56.1534 32.1662 52.275 33.6172 48.8329L43.455 25.4967C48.9511 12.4595 62.5114 4.73209 76.5293 6.64906C80.0276 7.12746 83.2377 8.25296 86.0765 9.87657C87.292 8.95388 88.6312 8.50162 90.2555 8.3999Z" fill="#B47652"/>
<path d="M3.25 99.2649C3.47121 99.8456 3.82331 100.629 4.30112 101.526C3.90634 100.846 3.55029 100.094 3.25 99.2649Z" fill="#B47652"/>
<path d="M39.8473 68.9466C43.5815 68.5322 48.5044 70.0902 51.4168 72.4336C53.037 73.7372 54.5808 75.5854 54.7898 77.7326C54.9295 79.1693 54.4148 80.4192 53.5106 81.5166C51.451 84.0162 48.1673 84.8268 45.0799 85.1322C40.7302 85.3874 36.2965 84.2259 32.9017 81.4053C31.4225 80.1762 30.1081 78.4585 29.9404 76.4786C29.8122 74.9651 30.3974 73.4441 31.3719 72.2996C33.3845 69.9356 36.901 69.1656 39.8473 68.9466Z" fill="#120101"/>
<path d="M39.289 69.6732C39.3103 69.6697 39.3312 69.6655 39.3526 69.6627C40.0151 69.5782 40.7752 69.6124 41.4415 69.6466C44.6999 69.8135 47.9472 70.7711 50.5991 72.7175C52.1589 73.8622 53.7343 75.616 54.0128 77.6046C54.1845 78.831 53.7984 80.0633 53.0471 81.0349C51.3393 83.2439 48.2116 84.0492 45.5809 84.4017C41.3558 84.6611 37.1437 83.8582 33.7498 81.1717C32.2651 79.9964 30.8811 78.3478 30.6736 76.3967C30.5379 75.1203 30.9812 73.8619 31.791 72.8787C33.5575 70.7344 36.6494 69.9302 39.289 69.6732Z" fill="#FDF8F0"/>
<path d="M42.7074 72.1476C43.7345 72.0843 44.8529 72.402 45.6928 72.9977C45.7494 73.0377 45.805 73.0792 45.8595 73.1221C45.9141 73.165 45.9676 73.2093 46.0199 73.2549C46.0721 73.3005 46.1233 73.3474 46.1732 73.3956C46.2232 73.4437 46.2719 73.4932 46.3193 73.5439C46.3667 73.5945 46.4129 73.6463 46.4577 73.6993C46.5025 73.7523 46.546 73.8063 46.5881 73.8615C46.6301 73.9167 46.6707 73.973 46.71 74.0302C46.7492 74.0874 46.787 74.1456 46.8234 74.2048C46.8596 74.264 46.8944 74.324 46.9275 74.3849C46.9608 74.4459 46.9925 74.5075 47.0227 74.57C47.0528 74.6326 47.0813 74.6958 47.1083 74.7598C47.1352 74.8237 47.1605 74.8883 47.1842 74.9536C47.2078 75.0188 47.2298 75.0845 47.2501 75.1509C47.2705 75.2172 47.2892 75.2841 47.3062 75.3514C47.323 75.4187 47.3383 75.4864 47.3518 75.5544C47.3653 75.6225 47.3771 75.6909 47.3872 75.7596C47.5966 77.1203 47.0864 78.4894 46.2621 79.5593C45.0634 81.1156 43.3911 81.8943 41.4751 82.1495C40.2676 82.1738 39.0604 81.884 38.106 81.1128C38.0547 81.0715 38.0044 81.0289 37.9551 80.9852C37.9058 80.9413 37.8577 80.8963 37.8107 80.8502C37.7638 80.804 37.718 80.7566 37.6734 80.7081C37.6287 80.6596 37.5853 80.6101 37.5431 80.5594C37.501 80.5088 37.4602 80.4571 37.4206 80.4043C37.381 80.3516 37.3428 80.298 37.306 80.2434C37.2691 80.1888 37.2336 80.1333 37.1996 80.0769C37.1655 80.0206 37.1328 79.9634 37.1015 79.9054C37.0703 79.8473 37.0405 79.7885 37.0122 79.729C36.9839 79.6695 36.957 79.6093 36.9317 79.5484C36.9064 79.4876 36.8826 79.4262 36.8604 79.3642C36.8382 79.3021 36.8175 79.2396 36.7984 79.1765C36.7793 79.1135 36.7618 79.05 36.7459 78.986C36.73 78.9221 36.7156 78.8578 36.7028 78.7931C36.6901 78.7285 36.6791 78.6635 36.6697 78.5983C36.6602 78.5331 36.6523 78.4677 36.6461 78.4021C36.5048 76.9782 37.0874 75.6024 37.9817 74.5189C39.2405 72.9939 40.7711 72.341 42.7074 72.1476Z" fill="#120101"/>
<path d="M42.5052 72.8738C43.3717 72.783 44.3712 72.9994 45.0996 73.4714C45.1481 73.5032 45.1958 73.5362 45.2428 73.5704C45.2897 73.6045 45.3357 73.6398 45.3808 73.6761C45.426 73.7126 45.4702 73.7502 45.5136 73.7888C45.5568 73.8275 45.5991 73.8672 45.6404 73.9079C45.6818 73.9487 45.722 73.9904 45.7612 74.0332C45.8005 74.0759 45.8387 74.1196 45.8757 74.1643C45.9128 74.2089 45.9487 74.2545 45.9834 74.301C46.0182 74.3473 46.0519 74.3946 46.0844 74.4427C46.1168 74.4908 46.148 74.5397 46.1779 74.5894C46.208 74.639 46.2368 74.6894 46.2644 74.7405C46.2918 74.7916 46.318 74.8433 46.3429 74.8956C46.3679 74.9481 46.3915 75.0011 46.4138 75.0547C46.4361 75.1082 46.4571 75.1623 46.4767 75.2169C46.4963 75.2715 46.5145 75.3266 46.5314 75.3821C46.5483 75.4377 46.5637 75.4936 46.5778 75.5499C46.592 75.6061 46.6047 75.6627 46.6159 75.7197C46.8428 76.8452 46.496 78.023 45.8487 78.9501C44.8468 80.3845 43.3693 81.1179 41.6881 81.429C40.6677 81.4685 39.6611 81.3597 38.8138 80.7259C38.0325 80.1415 37.5385 79.2133 37.4266 78.2492C37.2851 77.0284 37.8651 75.7811 38.6252 74.8555C39.6163 73.6488 40.9741 73.0345 42.5052 72.8738Z" fill="#8CE096"/>
<path d="M49.0305 92.4458C51.4946 92.2192 55.1519 92.543 57.2464 93.9492C57.8051 94.3244 58.261 94.8187 58.3762 95.501C58.4726 96.0717 58.2894 96.5977 57.939 97.0472C56.3896 99.0339 51.9756 99.8908 49.5232 100.14C47.941 100.326 41.3468 100.44 40.3075 99.7254C40.1465 99.6148 40.0757 99.4764 40.0557 99.2812C39.9764 98.505 41.4861 96.5897 41.9833 95.9925C44.083 93.4709 45.8441 92.7265 49.0305 92.4458Z" fill="#120101"/>
<path d="M49.9173 93.1023C52.0254 92.954 55.3074 93.294 57.017 94.6907C57.3266 94.9437 57.579 95.2682 57.6154 95.6784C57.6546 96.1187 57.4351 96.5413 57.1473 96.8595C55.4983 98.6829 50.96 99.3538 48.5367 99.4853C45.9656 99.6938 43.3011 99.5152 40.7529 99.1463C41.3179 98.0697 41.9538 97.0452 42.7647 96.1347C44.9437 93.688 46.7709 93.2797 49.9173 93.1023Z" fill="#FDF8F0"/>
<path d="M16.4733 80.5055C18.8528 80.3558 21.3819 81.9308 23.1166 83.4093C24.6365 84.7044 26.9334 87.2322 27.0488 89.3412C27.1322 90.8666 25.3673 92.4439 24.4029 93.4917C24.2398 93.6107 24.1059 93.6958 23.9053 93.7364C23.0082 93.9177 21.9801 93.2625 21.2628 92.7884C18.6065 91.0329 14.8008 86.9496 14.1856 83.7841C14.0391 83.0301 14.1025 82.2049 14.5555 81.5612C15.0134 80.9105 15.7193 80.6386 16.4733 80.5055Z" fill="#120101"/>
<path d="M16.3667 81.2259C16.4387 81.2197 16.5109 81.2131 16.5832 81.21C18.9582 81.1104 21.4697 82.8952 23.1252 84.4224C24.2807 85.4884 26.327 87.8288 26.3453 89.4815C26.358 90.6128 24.9511 91.8081 24.2321 92.5828C24.0374 92.8003 23.7949 92.9792 23.5696 93.1643C23.3214 93.0933 23.0787 93.0167 22.8453 92.9053C19.7847 91.4433 16.1972 87.4251 15.0714 84.2388C14.8419 83.5894 14.6765 82.8115 15.0142 82.1695C15.3088 81.6093 15.7915 81.3988 16.3667 81.2259Z" fill="#FDF8F0"/>
<path d="M38.8132 103.11C41.1563 103.118 48.6167 103.938 50.602 104.814C51.4635 105.194 51.887 105.637 52.2291 106.511C52.1618 106.767 52.0838 107.022 51.9564 107.256C51.0986 108.831 48.5039 109.465 46.8985 109.976C45.9325 110.25 44.9663 110.497 43.9729 110.655C41.4233 111.063 38.6043 111.001 36.1134 110.276C35.6651 110.146 35.0812 109.986 34.711 109.696C34.5693 109.585 34.5316 109.53 34.5248 109.347C34.4835 108.241 37.8488 103.909 38.8132 103.11Z" fill="#120101"/>
<path d="M39.0265 103.858C41.2331 103.866 48.1794 104.613 50.1097 105.393C50.5727 105.58 51.2793 105.9 51.438 106.415C51.4881 106.578 51.4645 106.745 51.3916 106.896C50.77 108.188 48.1968 108.823 46.927 109.229C43.056 110.356 39.1119 110.625 35.2578 109.261C36.0248 107.717 37.6955 104.845 39.0265 103.858Z" fill="#FDF8F0"/>
<path d="M10.1359 90.9131C12.8576 91.06 16.3489 93.6632 18.4435 95.3634C19.2635 96.029 20.8197 97.1542 20.8964 98.2885C20.9928 99.7128 19.2029 102.023 18.2728 103.028C17.9335 103.376 17.5703 103.762 17.0743 103.863C16.3981 104.002 15.6431 103.569 15.0957 103.207C12.2997 101.36 9.11675 97.0398 8.46036 93.7719C8.32184 93.0817 8.30277 92.3076 8.72897 91.7092C9.06829 91.2323 9.57815 91.0192 10.1359 90.9131Z" fill="#120101"/>
<path d="M10.0239 91.6223C11.7235 91.4763 14.9049 93.6312 16.3467 94.6489C17.2483 95.2853 20.0151 97.2607 20.1446 98.2767C20.2726 99.2794 18.8796 101.218 18.2757 101.988C17.8546 102.485 17.3962 102.873 16.863 103.245C14.4629 102.425 12.4929 100.08 11.1711 98.0082C10.3876 96.78 8.8069 94.0846 9.18697 92.5614C9.30905 92.0721 9.60705 91.8673 10.0239 91.6223Z" fill="#FDF8F0"/>
<path d="M63.6559 77.3818C64.3268 77.3636 65.0672 77.6066 65.5743 78.0507C66.2327 78.6271 66.4741 79.501 66.523 80.346C66.6571 82.6686 65.4081 84.9362 63.8989 86.6178C62.7674 87.8785 61.2844 88.9916 59.5393 89.0853C58.8666 88.9971 58.2552 88.8192 57.7027 88.4026C57.0078 87.8786 56.6588 87.1025 56.5647 86.2514C56.3454 84.2673 57.469 82.0884 58.6732 80.5884C59.9101 79.0474 61.637 77.6037 63.6559 77.3818Z" fill="#120101"/>
<path d="M63.6605 78.1113C64.1964 78.1336 64.6441 78.2218 65.0755 78.5637C65.5387 78.9307 65.753 79.4816 65.825 80.0544C66.0724 82.0214 65.0354 84.0549 63.8649 85.5628C62.7484 87.0011 61.4083 88.1 59.5589 88.3285C58.9831 88.2646 58.5364 88.1332 58.0776 87.7639C57.5629 87.3493 57.3056 86.7446 57.2475 86.097C57.0778 84.2032 58.2831 82.0245 59.4607 80.6285C60.5447 79.3432 61.9416 78.2654 63.6605 78.1113Z" fill="#8CE096"/>
<path d="M62.4111 81.3447C62.5982 81.4282 62.7401 81.5333 62.8405 81.7166C63.0051 82.0173 62.9345 82.4618 62.8401 82.7707C62.5131 83.8393 61.7383 84.9683 60.7328 85.4761C60.5076 85.3626 60.3519 85.2432 60.2487 85.0082C60.0952 84.6591 60.213 84.1692 60.3366 83.8312C60.6996 82.8366 61.4395 81.7974 62.4111 81.3447Z" fill="#120101"/>
<path d="M25.2342 99.1572C25.9997 99.2479 27.5642 100.04 28.3762 100.343C30.2999 101.043 32.23 101.725 34.1664 102.389C33.9487 103.091 30.5181 108.741 29.9925 109.27C28.4377 109.241 23.5063 107.49 22.1445 106.65C21.7949 106.434 21.2396 106.077 21.1599 105.646C21.1111 105.382 21.2589 105.259 21.4141 105.068C22.368 103.898 23.3938 102.676 24.1339 101.354C24.534 100.639 24.7954 99.851 25.2342 99.1572Z" fill="#120101"/>
<path d="M25.547 100.009C26.5662 100.326 27.5708 100.808 28.5804 101.172C30.111 101.724 31.7038 102.174 33.1976 102.817C32.7466 103.726 32.1174 104.582 31.5874 105.45C30.9551 106.484 30.3846 107.567 29.7062 108.571C28.9617 108.414 28.2225 108.163 27.4913 107.947C25.5285 107.369 23.6426 106.82 21.9092 105.687C23.2994 103.943 24.6843 102.079 25.547 100.009Z" fill="#FDF8F0"/>
<path d="M28.0242 64.4985C28.4722 64.4785 28.8977 64.5214 29.2903 64.7573C29.6958 65.0009 29.9439 65.3879 30.0551 65.8428C30.5461 67.8531 29.2952 70.4967 28.2807 72.1616C27.0681 74.1519 25.243 76.2554 22.8913 76.8341C22.4154 76.8627 21.9977 76.8429 21.575 76.5982C21.1732 76.3655 20.9366 75.9836 20.8253 75.5396C20.3478 73.6343 21.8385 70.5191 22.8147 68.9488C23.9216 67.1687 25.9041 64.9856 28.0242 64.4985Z" fill="#120101"/>
<path d="M27.847 65.2962C28.1343 65.2546 28.3946 65.2364 28.6671 65.3566C28.974 65.4921 29.1845 65.7401 29.2858 66.0581C29.7088 67.3855 28.8404 69.5552 28.2403 70.7311C27.1061 72.9536 25.388 75.3296 22.9146 76.1291C22.6722 76.1728 22.4624 76.1933 22.2264 76.1043C21.9531 76.0011 21.7402 75.83 21.6209 75.5598C21.1291 74.4466 21.8809 72.4879 22.3198 71.4423C23.3939 68.8838 25.2123 66.3799 27.847 65.2962Z" fill="#DDDEDD"/>
<path d="M26.7753 68.1016C26.926 68.2049 27.0202 68.2915 27.0928 68.4615C27.261 68.8565 27.0736 69.4164 26.918 69.7836C26.4149 70.9721 25.3045 72.8678 24.0578 73.3642C23.8813 73.3221 23.85 73.3052 23.716 73.1829C23.5486 72.6567 23.7659 72.0926 23.9625 71.6005C24.4701 70.3291 25.4712 68.6551 26.7753 68.1016Z" fill="#120101"/>
<path d="M32.1936 89.4238C33.254 89.7787 34.2756 90.3123 35.3264 90.7068C36.4553 91.1306 37.6365 91.4272 38.755 91.8736C39.0158 91.9776 39.6674 92.2279 39.7727 92.4757C39.3343 93.3987 38.5609 94.2724 38.0022 95.1373C37.4884 95.9281 36.9826 96.7239 36.4845 97.5246C36.1776 98.0232 35.8933 98.5741 35.5393 99.0378C35.3932 99.2293 35.313 99.2395 35.0799 99.2677C32.6641 98.867 29.0299 97.4106 27.2939 95.7261C27.8875 94.9671 28.6284 94.3283 29.219 93.5536C30.244 92.2094 31.1057 90.713 32.1936 89.4238Z" fill="#120101"/>
<path d="M32.4031 90.3066C33.5197 90.6802 34.6094 91.1873 35.7119 91.6063C36.7359 91.9954 37.7906 92.2976 38.8396 92.6108C37.887 94.1334 36.8544 95.6023 35.8934 97.1189C35.7372 97.3651 35.1987 98.4183 35.033 98.5396C34.9986 98.5647 34.9527 98.5674 34.9125 98.5814C32.5251 97.8479 30.3144 97.1289 28.2676 95.6471C29.8823 94.0171 31.0279 92.1194 32.4031 90.3066Z" fill="#949CC0"/>
<path d="M67.53 8.7816C71.2685 8.68323 75.1602 9.59877 78.4742 11.3035C82.8555 13.5572 87.0131 17.5217 88.531 22.3021C88.6443 22.6587 88.7466 23.0185 88.8379 23.3814C88.9293 23.7443 89.0095 24.1097 89.0784 24.4774C89.1474 24.8452 89.205 25.2148 89.2513 25.5862C89.2977 25.9575 89.3326 26.3299 89.3562 26.7032C89.3798 27.0767 89.392 27.4506 89.3927 27.8248C89.3934 28.1991 89.3827 28.573 89.3606 28.9465C89.3384 29.32 89.3048 29.6925 89.2599 30.064C89.215 30.4356 89.1587 30.8054 89.0911 31.1734C88.5737 33.9025 87.3847 36.4153 86.3139 38.9588L82.4616 48.0011C81.2748 50.8805 80.0695 53.7521 78.8457 56.6159C78.1713 58.2165 77.5503 59.8871 76.7468 61.4261C76.5079 61.0798 76.24 60.7443 75.9249 60.4639C75.2779 59.888 74.491 59.6176 73.6265 59.6771C71.7387 59.8073 70.1861 61.3039 69.0251 62.6619C66.5094 62.0668 64.0218 61.191 61.5559 60.4175C57.3795 58.9957 53.1532 57.6953 48.9534 56.3427L39.6509 53.2753C39.7204 52.4624 39.8161 51.6208 39.7317 50.8058C39.6345 49.8677 39.292 48.9174 38.5237 48.3225C37.7324 47.71 36.7853 47.7062 35.8408 47.8067C37.6998 42.7868 39.8558 37.8634 41.8238 32.8843L44.4248 26.3808C45.103 24.6466 45.6888 22.8973 46.5607 21.2449C47.4681 19.5252 48.6579 17.8946 49.9771 16.465C54.4746 11.5905 60.9813 9.03609 67.53 8.7816Z" fill="#FDF8F0"/>
<path d="M50.5599 24.7148C51.1835 24.7925 51.8498 24.7714 52.4796 24.8008C53.6019 24.8512 54.72 24.95 55.8338 25.0974C56.3442 25.1671 56.8536 25.243 57.3622 25.325C57.8708 25.4069 58.3784 25.495 58.8848 25.5891C59.3913 25.6831 59.8965 25.7832 60.4006 25.8894C60.9046 25.9955 61.4074 26.1076 61.9088 26.2258C62.4101 26.344 62.91 26.4682 63.4084 26.5983C63.9068 26.7285 64.4036 26.8646 64.8988 27.0066C65.3939 27.1486 65.8873 27.2965 66.3789 27.4503C66.8705 27.6041 67.3603 27.7638 67.8481 27.9293C68.336 28.0948 68.8217 28.2661 69.3054 28.4432C69.7891 28.6203 70.2707 28.8032 70.75 28.9919C71.2294 29.1805 71.7064 29.3748 72.1811 29.575C72.6557 29.775 73.1279 29.9806 73.5977 30.1919C74.0675 30.4033 74.5347 30.6202 74.9993 30.8428C75.4639 31.0653 75.9258 31.2933 76.3849 31.5268C76.8441 31.7604 77.3003 31.9994 77.7537 32.2439C78.2071 32.4883 78.6576 32.7382 79.1051 32.9934C80.2637 33.6685 81.4495 34.3539 82.5356 35.1424C82.0468 36.5665 81.4124 37.959 80.8341 39.35L77.2049 47.9442L75.2105 52.8044C74.9617 53.3942 74.7371 54.1102 74.399 54.6505C74.2994 54.8098 74.2835 54.8193 74.1096 54.8584C73.7528 54.8642 73.396 54.8663 73.0391 54.8647C72.6822 54.8632 72.3254 54.8582 71.9688 54.8496C71.612 54.8409 71.2553 54.8288 70.8988 54.813C70.5423 54.7972 70.186 54.7779 69.8299 54.755C69.4738 54.7321 69.118 54.7056 68.7623 54.6755C68.4067 54.6455 68.0515 54.6119 67.6966 54.5747C67.3417 54.5375 66.9871 54.4969 66.633 54.4526C66.2789 54.4083 65.9253 54.3605 65.5722 54.3091C65.219 54.2577 64.8664 54.2028 64.5144 54.1444C64.1624 54.086 63.811 54.0241 63.4602 53.9586C63.1094 53.8931 62.7593 53.8242 62.4099 53.7517C62.0604 53.6791 61.7117 53.6031 61.3638 53.5237C61.016 53.4443 60.6689 53.3613 60.3227 53.2749C59.9764 53.1884 59.6311 53.0986 59.2867 53.0053C58.9422 52.9118 58.5988 52.815 58.2564 52.7148C57.9138 52.6146 57.5724 52.511 57.232 52.4039C56.8916 52.2968 56.5523 52.1863 56.214 52.0724C55.8759 51.9585 55.5389 51.8413 55.203 51.7207C54.8671 51.6 54.5325 51.476 54.1992 51.3486C53.8658 51.2214 53.5337 51.0908 53.203 50.9568C52.8722 50.8227 52.5429 50.6854 52.2149 50.5449C51.8869 50.4043 51.5603 50.2604 51.2352 50.1133C50.9101 49.9661 50.5865 49.8157 50.2645 49.6621C49.9423 49.5085 49.6218 49.3517 49.3028 49.1916C48.9839 49.0316 48.6666 48.8683 48.3509 48.7019C48.0353 48.5355 47.7212 48.3659 47.4089 48.1932C47.0966 48.0205 46.7861 47.8447 46.4773 47.6658C46.1686 47.4869 45.8617 47.3048 45.5566 47.1197C45.2515 46.9347 44.9483 46.7466 44.6469 46.5555C44.3456 46.3643 44.0462 46.1701 43.7488 45.973C43.4513 45.7759 43.1558 45.5758 42.8623 45.3726C42.5689 45.1696 42.2776 44.9636 41.9883 44.7547C43.3687 41.4011 44.9395 38.1221 46.3155 34.7625C47.1763 32.6378 48.055 30.5205 48.9517 28.4106C49.4623 27.1846 49.9201 25.8769 50.5599 24.7148Z" fill="#120101"/>
<path d="M50.949 25.4648C53.7819 25.5287 56.4279 25.9053 59.2096 26.4421C67.1481 27.974 75.0004 30.9115 81.6934 35.5088C81.1674 36.869 80.5409 38.1959 79.9637 39.5352L77.766 44.7581C76.6096 47.4825 75.5617 50.2572 74.3874 52.9739C74.2476 53.2972 74.0596 53.9191 73.7927 54.1419C73.2218 54.1465 72.651 54.142 72.0802 54.1283C71.5096 54.1148 70.9392 54.092 70.3692 54.0601C69.7992 54.0282 69.2298 53.9872 68.6611 53.9371C68.0924 53.887 67.5247 53.8278 66.9579 53.7596C66.3911 53.6913 65.8255 53.614 65.2611 53.5277C64.6969 53.4413 64.1341 53.346 63.5728 53.2416C63.0115 53.1373 62.4521 53.024 61.8944 52.9017C61.3367 52.7795 60.7811 52.6484 60.2277 52.5084C59.6742 52.3683 59.1231 52.2195 58.5745 52.0618C58.0257 51.9042 57.4797 51.7378 56.9363 51.5627C56.3929 51.3876 55.8524 51.2039 55.3149 51.0116C54.7774 50.8191 54.2432 50.6182 53.7122 50.4087C53.1811 50.1992 52.6535 49.9813 52.1293 49.7549C51.6052 49.5285 51.0849 49.2938 50.5683 49.0508C50.0518 48.8078 49.5392 48.5566 49.0306 48.2972C48.522 48.0378 48.0177 47.7703 47.5177 47.4948C45.9352 46.6056 44.3657 45.6574 42.9355 44.5354L49.051 30.0267C49.6771 28.5028 50.3879 27.0147 50.949 25.4648Z" fill="#949CC0"/>
<path d="M77.9182 16.8519C77.9377 16.8486 77.9569 16.844 77.9764 16.8419C80.5046 16.5535 83.2708 17.5707 85.2493 19.1074C86.5641 20.1286 87.7112 21.5394 87.9003 23.25C88.0145 24.2846 87.7403 25.2355 87.0798 26.0432C85.953 27.4212 84.0579 28.1489 82.3304 28.3149C79.7564 28.6174 76.983 27.9227 74.8903 26.3831C73.5525 25.3989 72.4066 23.9313 72.1575 22.252C72.1476 22.1855 72.1394 22.1189 72.1328 22.0521C72.1262 21.9851 72.1212 21.9182 72.1179 21.8511C72.1147 21.784 72.1132 21.7168 72.1133 21.6496C72.1134 21.5824 72.1151 21.5152 72.1185 21.4482C72.122 21.3811 72.1272 21.3141 72.1339 21.2473C72.1407 21.1804 72.1492 21.1138 72.1593 21.0473C72.1694 20.9809 72.1811 20.9148 72.1946 20.849C72.208 20.7831 72.223 20.7177 72.2397 20.6526C72.2564 20.5875 72.2747 20.5228 72.2946 20.4586C72.3145 20.3945 72.336 20.3309 72.359 20.2677C72.3821 20.2047 72.4068 20.1422 72.433 20.0803C72.4592 20.0184 72.4869 19.9572 72.5161 19.8968C72.5453 19.8363 72.5761 19.7765 72.6083 19.7175C72.6405 19.6587 72.6742 19.6005 72.7093 19.5432C72.7445 19.486 72.7811 19.4296 72.819 19.3741C72.8569 19.3187 72.8962 19.2642 72.9369 19.2107C74.1283 17.6494 76.0536 17.0852 77.9182 16.8519Z" fill="#120101"/>
<path d="M82.2843 18.415C82.7425 18.5702 83.1764 18.7788 83.5966 19.0172C85.0568 19.8451 86.5648 21.2839 86.988 22.9638C87.0007 23.0132 87.0121 23.063 87.0221 23.1131C87.0322 23.1632 87.041 23.2136 87.0485 23.2641C87.056 23.3146 87.0621 23.3653 87.0668 23.4162C87.0717 23.467 87.0752 23.518 87.0773 23.5691C87.0794 23.6201 87.0802 23.6711 87.0796 23.7222C87.0791 23.7733 87.0773 23.8244 87.0741 23.8754C87.0708 23.9263 87.0662 23.9771 87.0604 24.0279C87.0545 24.0786 87.0473 24.1292 87.0389 24.1796C87.0303 24.23 87.0205 24.2801 87.0093 24.3299C86.9982 24.3798 86.9857 24.4293 86.9719 24.4785C86.9583 24.5278 86.9433 24.5766 86.927 24.625C86.9107 24.6734 86.8931 24.7214 86.8743 24.7689C86.8555 24.8164 86.8355 24.8633 86.8142 24.9098C86.793 24.9563 86.7705 25.0021 86.7468 25.0474C86.7232 25.0927 86.6983 25.1374 86.6723 25.1813C86.6463 25.2253 86.6192 25.2685 86.591 25.3111C85.8528 26.442 84.4675 27.0716 83.1937 27.3571C81.7498 27.5927 80.0584 27.7353 78.665 27.1777C79.8646 24.2559 81.0287 21.3125 82.2843 18.415Z" fill="white"/>
<path d="M60.602 11.3246C63.1397 11.1204 65.8611 12.017 67.8205 13.6327C69.0338 14.6332 70.0036 15.9813 70.1426 17.5888C70.2326 18.6309 69.9106 19.5671 69.2323 20.3569C67.9129 21.8929 66.0132 22.39 64.0688 22.5392C63.9112 22.5518 63.7534 22.5605 63.5954 22.5654C63.4375 22.5704 63.2795 22.5715 63.1213 22.5689C62.9633 22.5664 62.8055 22.5601 62.6477 22.5499C62.49 22.5398 62.3326 22.526 62.1755 22.5084C62.0185 22.4907 61.8619 22.4694 61.7059 22.4442C61.5499 22.4192 61.3945 22.3904 61.2398 22.3579C61.0851 22.3253 60.9313 22.2892 60.7784 22.2494C60.6254 22.2095 60.4735 22.1661 60.3227 22.119C60.1717 22.0719 60.022 22.0212 59.8736 21.967C59.7251 21.9127 59.578 21.855 59.4323 21.7938C59.2866 21.7326 59.1424 21.6679 58.9998 21.5998C58.8572 21.5316 58.7163 21.4602 58.5771 21.3854C58.4378 21.3105 58.3005 21.2323 58.1651 21.151C58.0295 21.0696 57.8961 20.985 57.7646 20.8973C57.6332 20.8095 57.5039 20.7187 57.3767 20.6248C57.2496 20.5309 57.1248 20.434 57.0023 20.3341C55.7613 19.3382 54.7175 17.9809 54.5565 16.3514C54.4595 15.3725 54.7481 14.4547 55.3754 13.6982C56.6483 12.1629 58.6861 11.5128 60.602 11.3246Z" fill="#120101"/>
<path d="M64.6289 12.7744C65.0529 12.887 65.4449 13.049 65.8334 13.2521C67.3039 14.0207 68.6662 15.3175 69.1487 16.9438C69.4004 17.7927 69.3461 18.6388 68.9071 19.4163C68.2599 20.5626 67.0148 21.1721 65.7974 21.5142C64.3698 21.9254 62.7661 21.8922 61.3193 21.6111C62.4827 18.6925 63.5396 15.7217 64.6289 12.7744Z" fill="white"/>
<path d="M73.5912 60.4246C74.1253 60.3888 74.6118 60.4606 75.0877 60.7143C75.7442 61.0646 76.1143 61.7151 76.3063 62.4126C77.0157 64.987 75.8691 68.0111 74.6064 70.224C73.504 72.1561 71.8002 74.1996 69.5751 74.8062C68.8642 74.8718 68.2359 74.8646 67.63 74.428C66.9992 73.9736 66.7312 73.2029 66.6162 72.4632C66.1635 69.5508 67.7024 65.6941 69.4023 63.3815C70.4416 61.9675 71.7985 60.6934 73.5912 60.4246Z" fill="#FFB362"/>
<path d="M36.3387 48.4895C36.8516 48.4577 37.3067 48.492 37.7696 48.736C38.3534 49.0438 38.692 49.5789 38.857 50.2058C39.4701 52.5361 38.3317 55.4052 37.1913 57.3951C36.0268 59.4269 34.255 61.6066 31.9093 62.2492C31.3188 62.3454 30.7231 62.2783 30.2174 61.9378C29.6642 61.5653 29.3912 60.9206 29.2548 60.2912C28.6895 57.6856 30.0406 54.2973 31.4652 52.1699C32.5911 50.4882 34.2989 48.8975 36.3387 48.4895Z" fill="#FFB362"/>
<path d="M40.1846 21.4557C45.6807 8.41864 59.2411 0.69111 73.2588 2.60803C76.7572 3.08644 79.9669 4.21291 82.8057 5.83654C84.0214 4.91338 85.3607 4.46081 86.9854 4.359C88.6002 4.37094 90.0205 4.82082 91.3018 5.81897C92.7563 6.95233 93.7031 8.52371 93.9112 10.3658C94.1291 12.2953 93.4878 13.7612 92.3545 15.2389C96.5313 22.2447 97.4927 31.1481 93.833 39.4342L83.6475 62.4967C82.2331 65.6991 80.1347 68.5536 77.5 70.859V71.316C77.5 72.6565 77.1632 73.9757 76.5205 75.152L59.1592 106.926C54.3606 115.709 44.2121 120.114 34.5196 117.622C33.8408 117.447 33.1771 117.217 32.5362 116.933L10.127 107.021C8.39867 106.257 6.86676 105.107 5.64944 103.662C2.02367 99.3557 1.74664 93.1495 4.97464 88.5377L25.8721 58.6842C26.9249 57.1803 28.4634 56.0841 30.2285 55.5797L30.3594 55.5416C28.9036 52.1125 28.8957 48.2335 30.3467 44.7916L40.1846 21.4557Z" fill="#FF985B"/>
<path d="M95.5023 23.2622C96.1472 25.0758 97.0502 29.9603 95.5023 34.99C93.9544 40.0197 88.167 52.884 85.4668 58.6874" stroke="black"/>
<path d="M46.9118 21.339L34 51.3589L76 64.8589L87.4156 38.9836C93.1099 26.0764 85.4113 11.2117 71.5838 8.41515C61.3378 6.34294 51.042 11.7361 46.9118 21.339Z" fill="white"/>
<path d="M62.0489 12.6962C64.0465 13.1859 65.6939 14.1967 66.7489 15.4099C67.805 16.6244 68.2407 18.0033 67.9288 19.2756C67.6169 20.5478 66.5927 21.569 65.0948 22.1574C63.5984 22.745 61.6703 22.8784 59.6729 22.3887C57.6754 21.8991 56.0276 20.8892 54.9726 19.676C53.9167 18.4616 53.4809 17.0825 53.7927 15.8103C54.1046 14.538 55.1287 13.5169 56.6267 12.9285C58.1232 12.3408 60.0513 12.2066 62.0489 12.6962Z" fill="white" stroke="black"/>
<path d="M79.3116 18.2875C81.3092 18.7772 82.9566 19.788 84.0116 21.0012C85.0676 22.2157 85.5034 23.5946 85.1915 24.8669C84.8796 26.1391 83.8554 27.1603 82.3575 27.7487C80.8611 28.3363 78.933 28.4697 76.9356 27.98C74.9381 27.4904 73.2903 26.4805 72.2353 25.2673C71.1794 24.0529 70.7436 22.6738 71.0554 21.4016C71.3673 20.1293 72.3914 19.1082 73.8894 18.5198C75.3859 17.9321 77.314 17.7979 79.3116 18.2875Z" fill="white" stroke="black"/>
<path d="M58.7623 21.9501L62.2623 12.9501C59.7623 12.2834 54.5623 11.8501 53.7623 15.4501C52.9623 19.0501 56.7623 21.2834 58.7623 21.9501Z" fill="black"/>
<path d="M76.025 27.5409L79.525 18.5409C77.025 17.8742 71.825 17.4409 71.025 21.0409C70.225 24.6409 74.025 26.8742 76.025 27.5409Z" fill="black"/>
<ellipse cx="35.2386" cy="55.4858" rx="4.89972" ry="8.33797" transform="rotate(27.9787 35.2386 55.4858)" fill="#F7D083"/>
<ellipse cx="69.2386" cy="67.021" rx="4.89972" ry="8.33797" transform="rotate(27.9787 69.2386 67.021)" fill="#F7D083"/>
<path d="M49.9036 26.3126L43.1523 42.769C42.7772 43.6833 43.1261 44.7346 43.9736 45.2431L46.0946 46.5156C51.9688 50.0402 58.5047 52.32 65.2967 53.2137L72.4877 54.1599C73.3809 54.2774 74.2423 53.7833 74.5919 52.9531L81.2918 37.0409C81.693 36.0881 81.3019 34.9866 80.3897 34.5001L74.5637 31.3929C69.5577 28.723 64.1339 26.9246 58.5245 26.0747L52.0536 25.0943C51.1417 24.9561 50.2536 25.4594 49.9036 26.3126Z" fill="#518FC0"/>
<path d="M41 59.8589L62 66.8589" stroke="black"/>
<g filter="url(#filter0_d_0_5035)">
<ellipse cx="42.0614" cy="76.8228" rx="12.0369" ry="7.74791" transform="rotate(8.61688 42.0614 76.8228)" fill="white"/>
<path d="M43.1476 69.6567C46.3531 70.1425 49.1054 71.416 50.9668 73.0561C52.8329 74.7005 53.755 76.6611 53.4685 78.5515C53.182 80.4419 51.7206 82.0404 49.4511 83.0581C47.1874 84.0732 44.1814 84.4749 40.9757 83.9892C37.7699 83.5034 35.0171 82.229 33.1557 80.5887C31.2898 78.9444 30.3684 76.9847 30.6548 75.0944C30.9413 73.204 32.4019 71.6044 34.6714 70.5867C36.9352 69.5716 39.9418 69.1709 43.1476 69.6567Z" stroke="black"/>
</g>
<ellipse cx="26.1942" cy="70.6302" rx="3.30395" ry="6.5" transform="rotate(31.2084 26.1942 70.6302)" fill="#518FC0"/>
<ellipse cx="61.1942" cy="83.6302" rx="3.30395" ry="6.5" transform="rotate(31.2084 61.1942 83.6302)" fill="#518FC0"/>
<path d="M40.5 99.359L44.5 93.859C60.5 88.3589 65.5 102.359 40.5 99.359Z" fill="white"/>
<path d="M34.2842 109.266L38.2842 103.766C54.2842 98.2656 59.2842 112.266 34.2842 109.266Z" fill="white"/>
<path d="M23.5001 93.8589L26.9999 88.3588C19.5 73.3589 4.50032 79.3588 23.5001 93.8589Z" fill="white"/>
<path d="M17.2843 103.766L20.7841 98.2656C13.2842 83.2656 -1.7155 89.2655 17.2843 103.766Z" fill="white"/>
<path d="M27.1592 114.636C32.1239 117.302 43.7634 121.283 50.6035 115.877C57.4436 110.471 61.6359 102.776 62.8771 99.604" stroke="black"/>
<path d="M35.0359 90.8709L34.8988 90.8252C33.2008 90.2592 31.3366 90.9369 30.3985 92.4613C29.1457 94.4972 30.0297 97.1707 32.2492 98.0586L32.3834 98.1122C34.1702 98.827 36.2106 98.1154 37.1654 96.4444C38.3732 94.3308 37.3454 91.6407 35.0359 90.8709Z" fill="#518FC0"/>
<path d="M28.8201 100.778L28.683 100.732C26.985 100.166 25.1208 100.844 24.1827 102.368C22.9299 104.404 23.8138 107.077 26.0334 107.965L26.1675 108.019C27.9544 108.734 29.9948 108.022 30.9496 106.351C32.1573 104.238 31.1295 101.547 28.8201 100.778Z" fill="#518FC0"/>
<path d="M85 7.35889C86.1667 8.19222 88.8283 9.5103 91.5 13.3589" stroke="black"/>
<path d="M69.5 59.8589C67.5 61.1922 63.5 65.2589 63.5 70.8589" stroke="black"/>
<path d="M35.125 48.3589C33.125 49.6922 29.125 53.7589 29.125 59.3589" stroke="black"/>
<defs>
<filter id="filter0_d_0_5035" x="30.1035" y="68.9512" width="23.916" height="16.7432" filterUnits="userSpaceOnUse" color-interpolation-filters="sRGB">
<feFlood flood-opacity="0" result="BackgroundImageFix"/>
<feColorMatrix in="SourceAlpha" type="matrix" values="0 0 0 0 0 0 0 0 0 0 0 0 0 0 0 0 0 0 127 0" result="hardAlpha"/>
<feOffset dy="1"/>
<feComposite in2="hardAlpha" operator="out"/>
<feColorMatrix type="matrix" values="0 0 0 0 0 0 0 0 0 0 0 0 0 0 0 0 0 0 1 0"/>
<feBlend mode="normal" in2="BackgroundImageFix" result="effect1_dropShadow_0_5035"/>
<feBlend mode="normal" in="SourceGraphic" in2="effect1_dropShadow_0_5035" result="shape"/>
</filter>
</defs>
</svg>
