<svg width="132" height="119" viewBox="0 0 132 119" fill="none" xmlns="http://www.w3.org/2000/svg">
<mask id="path-1-outside-1_2019_10536" maskUnits="userSpaceOnUse" x="-0.5" y="-0.169434" width="133" height="119" fill="black">
<rect fill="white" x="-0.5" y="-0.169434" width="133" height="119"/>
<path d="M53.7748 2.89519C42.476 2.34803 30.9141 5.24334 19.8901 12.8112C14.464 16.5362 10.558 20.6625 7.96428 25.0563C-22.9817 68.7121 85.1702 142.366 117.936 107.515C119.611 105.734 121.037 103.823 122.231 101.803C125.294 97.4781 127.165 92.5709 127.99 87.3093C137.96 53.9694 96.9036 0.719622 53.7748 2.89519Z"/>
</mask>
<path d="M53.7748 2.89519C42.476 2.34803 30.9141 5.24334 19.8901 12.8112C14.464 16.5362 10.558 20.6625 7.96428 25.0563C-22.9817 68.7121 85.1702 142.366 117.936 107.515C119.611 105.734 121.037 103.823 122.231 101.803C125.294 97.4781 127.165 92.5709 127.99 87.3093C137.96 53.9694 96.9036 0.719622 53.7748 2.89519Z" fill="#FFCE0E"/>
<path d="M53.7748 2.89519L53.8756 4.89266L53.7768 4.89764L53.6781 4.89285L53.7748 2.89519ZM19.8901 12.8112L18.7581 11.1624L18.7581 11.1623L19.8901 12.8112ZM7.96428 25.0563L9.68659 26.073L9.64417 26.1449L9.59592 26.2129L7.96428 25.0563ZM117.936 107.515L119.393 108.885L119.393 108.885L117.936 107.515ZM122.231 101.803L120.509 100.786L120.551 100.715L120.599 100.648L122.231 101.803ZM127.99 87.3093L126.014 86.9995L126.035 86.8658L126.074 86.7362L127.99 87.3093ZM53.7748 2.89519L53.6781 4.89285C42.8107 4.36659 31.6814 7.14255 21.022 14.4601L19.8901 12.8112L18.7581 11.1623C30.1469 3.34413 42.1412 0.329477 53.8716 0.897536L53.7748 2.89519ZM19.8901 12.8112L21.022 14.4601C15.7957 18.0479 12.1087 21.9698 9.68659 26.073L7.96428 25.0563L6.24197 24.0396C9.00722 19.3551 13.1323 15.0245 18.7581 11.1624L19.8901 12.8112ZM7.96428 25.0563L9.59592 26.2129C2.42913 36.3232 3.1774 48.2687 9.27032 60.3586C15.3801 72.482 26.7593 84.4639 40.2222 94.0994C53.6775 103.73 69.0349 110.887 82.9482 113.507C96.9123 116.137 108.965 114.137 116.479 106.145L117.936 107.515L119.393 108.885C110.524 118.319 96.7706 120.181 82.2079 117.438C67.5943 114.686 51.7043 107.236 37.8942 97.3521C24.0916 87.4735 12.1873 75.0347 5.6983 62.1588C-0.807617 49.2495 -1.97359 35.6174 6.33263 23.8997L7.96428 25.0563ZM117.936 107.515L116.479 106.145C118.052 104.472 119.39 102.679 120.509 100.786L122.231 101.803L123.953 102.821C122.685 104.967 121.169 106.996 119.393 108.885L117.936 107.515ZM122.231 101.803L120.599 100.648C123.466 96.5983 125.232 91.9873 126.014 86.9995L127.99 87.3093L129.966 87.619C129.098 93.1545 127.122 98.3578 123.863 102.959L122.231 101.803ZM127.99 87.3093L126.074 86.7362C130.781 70.9954 123.473 50.0405 109.261 33.0679C95.0929 16.1476 74.5985 3.84732 53.8756 4.89266L53.7748 2.89519L53.6741 0.897735C76.0799 -0.232498 97.6781 13.0044 112.328 30.5C126.934 47.9433 135.169 70.2833 129.906 87.8823L127.99 87.3093Z" fill="white" mask="url(#path-1-outside-1_2019_10536)"/>
<mask id="path-3-inside-2_2019_10536" fill="white">
<path d="M117.935 107.516C153.378 69.8177 78.0572 -25.8877 18.4491 15.0324C-41.158 55.9525 82.4928 145.214 117.935 107.516Z"/>
</mask>
<path d="M117.935 107.516C153.378 69.8177 78.0572 -25.8877 18.4491 15.0324C-41.158 55.9525 82.4928 145.214 117.935 107.516Z" fill="#120101"/>
<path d="M117.935 107.516L118.436 107.986H118.436L117.935 107.516ZM18.4491 15.0324L18.0605 14.4663V14.4663L18.4491 15.0324ZM117.935 107.516L117.435 107.045C126.092 97.8376 128.032 85.0469 125.055 71.5549C122.077 58.0608 114.191 43.9486 103.333 32.2596C81.5899 8.85168 48.2334 -4.58122 18.8378 15.5984L18.4491 15.0324L18.0605 14.4663C48.273 -6.27416 82.381 7.68561 104.339 31.3249C115.332 43.1595 123.357 57.4846 126.396 71.259C129.436 85.0357 127.5 98.3448 118.436 107.986L117.935 107.516ZM18.4491 15.0324L18.8378 15.5984C11.4829 20.6475 6.99981 26.4092 4.80277 32.5329C2.60528 38.6579 2.67302 45.2059 4.52451 51.8634C8.23472 65.2043 19.0908 78.9089 32.9822 90.2234C46.8632 101.529 63.6877 110.377 79.2144 114.055C94.7686 117.74 108.826 116.202 117.435 107.045L117.935 107.516L118.436 107.986C109.323 117.678 94.6336 119.119 78.8978 115.392C63.1344 111.657 46.1262 102.7 32.115 91.2882C18.1143 79.8847 7.01885 65.9577 3.20145 52.2313C1.28915 45.3552 1.19908 38.5108 3.51017 32.0691C5.82171 25.6263 10.5136 19.6472 18.0605 14.4663L18.4491 15.0324Z" fill="#120101" mask="url(#path-3-inside-2_2019_10536)"/>
<path d="M119.376 105.295C154.819 67.5965 79.4977 -28.1089 19.8896 12.8112C-39.7176 53.7314 83.9332 142.992 119.376 105.295Z" fill="#894B27"/>
<path d="M100.952 112.084C90.5793 113.18 78.3933 110.591 66.243 105.509" stroke="#120101" stroke-width="0.686638" stroke-linecap="round"/>
<path d="M93.8876 110.66C90.3236 110.736 86.4855 110.112 82.544 108.921" stroke="#120101" stroke-width="0.686638" stroke-linecap="round"/>
<mask id="path-8-inside-3_2019_10536" fill="white">
<path d="M120.885 99.7046C154.394 64.0632 83.1823 -26.4215 26.8261 12.2661C-1.48004 31.6979 13.9253 62.6578 40.5175 84.1489C42.8521 86.6082 44.9084 89.0035 46.2978 91.5132C47.7971 94.2215 50.4451 94.5145 52.0097 94.4185C52.727 94.3745 53.4562 94.7562 53.7509 95.4116C54.5121 97.1049 56.1254 100.102 58.2548 100.793C58.8746 101 59.332 100.895 59.6688 100.61C60.6147 99.8086 62.3677 98.9742 63.1249 99.9556C63.3079 100.193 63.3991 100.488 63.3876 100.788C63.3079 102.865 63.1402 111.205 65.581 111.206C67.5079 111.206 67.9116 106.004 67.9882 103.156C68.0127 102.246 68.8758 101.569 69.7577 101.795L69.9804 101.852C89.8826 110.168 109.88 111.409 120.885 99.7046Z"/>
</mask>
<path d="M120.885 99.7046C154.394 64.0632 83.1823 -26.4215 26.8261 12.2661C-1.48004 31.6979 13.9253 62.6578 40.5175 84.1489C42.8521 86.6082 44.9084 89.0035 46.2978 91.5132C47.7971 94.2215 50.4451 94.5145 52.0097 94.4185C52.727 94.3745 53.4562 94.7562 53.7509 95.4116C54.5121 97.1049 56.1254 100.102 58.2548 100.793C58.8746 101 59.332 100.895 59.6688 100.61C60.6147 99.8086 62.3677 98.9742 63.1249 99.9556C63.3079 100.193 63.3991 100.488 63.3876 100.788C63.3079 102.865 63.1402 111.205 65.581 111.206C67.5079 111.206 67.9116 106.004 67.9882 103.156C68.0127 102.246 68.8758 101.569 69.7577 101.795L69.9804 101.852C89.8826 110.168 109.88 111.409 120.885 99.7046Z" fill="#FFED87"/>
<path d="M120.885 99.7046L121.385 100.175H121.385L120.885 99.7046ZM26.8261 12.2661L26.4375 11.7001V11.7L26.8261 12.2661ZM40.5175 84.1489L40.9491 83.6149L40.9843 83.6434L41.0155 83.6762L40.5175 84.1489ZM46.2978 91.5132L45.697 91.8458L45.697 91.8458L46.2978 91.5132ZM52.0097 94.4185L51.9676 93.7331H51.9676L52.0097 94.4185ZM53.7509 95.4116L54.3771 95.1301V95.1301L53.7509 95.4116ZM58.2548 100.793L58.4666 100.139L58.473 100.141L58.2548 100.793ZM59.6688 100.61L59.225 100.086L59.225 100.086L59.6688 100.61ZM63.1249 99.9556L63.6685 99.5361L63.6687 99.5364L63.1249 99.9556ZM63.3876 100.788L64.0737 100.814V100.814L63.3876 100.788ZM65.581 111.206V111.892H65.5808L65.581 111.206ZM67.9882 103.156L68.6746 103.174L67.9882 103.156ZM69.7577 101.795L69.5884 102.461L69.5869 102.46L69.7577 101.795ZM69.9804 101.852L70.1497 101.187L70.1985 101.199L70.2451 101.219L69.9804 101.852ZM120.885 99.7046L120.384 99.2343C128.558 90.5406 130.392 78.4618 127.579 65.7136C124.766 52.9633 117.314 39.6268 107.052 28.5793C86.5005 6.45462 54.9843 -6.23119 27.2147 12.8322L26.8261 12.2661L26.4375 11.7C55.024 -7.92413 87.2917 5.28856 108.058 27.6447C118.455 38.8376 126.045 52.387 128.92 65.4177C131.796 78.4506 129.966 91.0478 121.385 100.175L120.885 99.7046ZM26.8261 12.2661L27.2147 12.8322C20.2347 17.6239 15.995 23.0929 13.9312 28.9032C11.867 34.7149 11.9579 40.9297 13.7456 47.2483C17.3283 59.9115 27.7079 72.9137 40.9491 83.6149L40.5175 84.1489L40.0859 84.683C26.7349 73.8931 16.1157 60.6697 12.4242 47.6222C10.5748 41.0855 10.4598 34.5736 12.6372 28.4436C14.815 22.3121 19.2644 16.6243 26.4375 11.7001L26.8261 12.2661ZM40.5175 84.1489L41.0155 83.6762C43.3573 86.1431 45.4647 88.5906 46.8985 91.1807L46.2978 91.5132L45.697 91.8458C44.3522 89.4164 42.3469 87.0733 40.0195 84.6217L40.5175 84.1489ZM46.2978 91.5132L46.8985 91.1806C48.2059 93.5422 50.5044 93.823 51.9676 93.7331L52.0097 94.4185L52.0517 95.1038C50.3859 95.2061 47.3883 94.9008 45.697 91.8458L46.2978 91.5132ZM52.0097 94.4185L51.9676 93.7331C52.9294 93.6741 53.9495 94.1789 54.3771 95.1301L53.7509 95.4116L53.1246 95.6932C52.9629 95.3335 52.5246 95.0748 52.0517 95.1038L52.0097 94.4185ZM53.7509 95.4116L54.3771 95.1301C54.7481 95.9552 55.3192 97.08 56.0443 98.0732C56.7831 99.0849 57.6114 99.862 58.4666 100.139L58.2548 100.793L58.0429 101.446C56.7688 101.032 55.7258 99.9657 54.9352 98.883C54.1311 97.7817 53.5149 96.5613 53.1246 95.6932L53.7509 95.4116ZM58.2548 100.793L58.473 100.141C58.9034 100.286 59.1003 100.192 59.225 100.086L59.6688 100.61L60.1127 101.134C59.5638 101.599 58.8459 101.715 58.0365 101.444L58.2548 100.793ZM59.6688 100.61L59.225 100.086C59.7528 99.6389 60.5122 99.1732 61.2789 98.954C62.0192 98.7425 63.0265 98.704 63.6685 99.5361L63.1249 99.9556L62.5813 100.375C62.4661 100.226 62.2183 100.114 61.6563 100.274C61.1208 100.427 60.5308 100.78 60.1127 101.134L59.6688 100.61ZM63.1249 99.9556L63.6687 99.5364C63.9528 99.9049 64.0912 100.359 64.0737 100.814L63.3876 100.788L62.7015 100.761C62.707 100.617 62.663 100.481 62.5811 100.375L63.1249 99.9556ZM63.3876 100.788L64.0737 100.814C64.0342 101.845 63.9741 104.409 64.2218 106.702C64.3464 107.856 64.5439 108.888 64.8347 109.614C65.1492 110.399 65.4367 110.519 65.5811 110.519L65.581 111.206L65.5808 111.892C64.5048 111.892 63.898 110.969 63.5599 110.125C63.1982 109.222 62.985 108.04 62.8564 106.849C62.5977 104.453 62.6613 101.808 62.7015 100.761L63.3876 100.788ZM65.581 111.206V110.519C65.7006 110.519 65.9051 110.45 66.1659 110.003C66.4213 109.564 66.6365 108.909 66.8067 108.106C67.1447 106.513 67.2638 104.551 67.3018 103.137L67.9882 103.156L68.6746 103.174C68.636 104.608 68.5149 106.672 68.1501 108.391C67.969 109.245 67.7172 110.068 67.3525 110.694C66.9933 111.311 66.4247 111.892 65.581 111.892V111.206ZM67.9882 103.156L67.3018 103.137C67.3376 101.804 68.6021 100.79 69.9285 101.13L69.7577 101.795L69.5869 102.46C69.1494 102.348 68.6877 102.687 68.6746 103.174L67.9882 103.156ZM69.7577 101.795L69.927 101.13L70.1497 101.187L69.9804 101.852L69.8111 102.518L69.5884 102.461L69.7577 101.795ZM69.9804 101.852L70.2451 101.219C80.1396 105.353 90.0194 107.711 98.7605 107.599C107.496 107.488 115.045 104.913 120.384 99.2343L120.885 99.7046L121.385 100.175C115.72 106.201 107.768 108.858 98.778 108.972C89.7936 109.087 79.7233 106.667 69.7157 102.486L69.9804 101.852Z" fill="#120101" mask="url(#path-8-inside-3_2019_10536)"/>
<path d="M63.612 17.4107C74.4989 9.93701 88.2554 27.4167 81.7822 34.3019C75.3089 41.1871 52.7252 24.8843 63.612 17.4107Z" fill="#FA4E62"/>
<path d="M63.6121 17.4106C52.7253 24.8843 75.309 41.1871 81.7822 34.3019" stroke="#120101" stroke-width="0.686638" stroke-linecap="round"/>
<path d="M81.4231 29.5341C81.8177 27.4706 75.7707 27.0024 75.7707 27.0024C75.7707 27.0024 81.0286 31.5975 81.4231 29.5341Z" fill="#120101"/>
<path d="M64.9764 19.6069C63.8414 21.3747 70.0662 23.4502 70.0662 23.4502C70.0662 23.4502 66.1115 17.839 64.9764 19.6069Z" fill="#120101"/>
<path d="M71.6665 18.0318C70.0149 18.2896 72.0662 23.0905 72.0662 23.0905C72.0662 23.0905 73.318 17.774 71.6665 18.0318Z" fill="#120101"/>
<path d="M64.5146 25.3122C64.4883 26.9835 69.5677 25.7772 69.5677 25.7772C69.5677 25.7772 64.541 23.6408 64.5146 25.3122Z" fill="#120101"/>
<path d="M75.3446 33.3307C76.882 32.6745 73.7128 28.5257 73.7128 28.5257C73.7128 28.5257 73.8072 33.9868 75.3446 33.3307Z" fill="#120101"/>
<path d="M77.5595 21.1303C75.7976 19.9862 74.179 24.5672 74.179 24.5672C74.179 24.5672 79.3215 22.2745 77.5595 21.1303Z" fill="#120101"/>
<path d="M68.2574 30.8232C70.1717 31.6886 71.1864 27.2757 71.1864 27.2757C71.1864 27.2757 66.3431 29.9577 68.2574 30.8232Z" fill="#120101"/>
<path d="M96.0799 36.1304C101.674 32.5968 108.227 41.6125 104.854 44.936C101.481 48.2594 90.4856 39.6639 96.0799 36.1304Z" fill="#FA4E62"/>
<path d="M96.0797 36.1302C91.9415 38.744 96.8812 44.1279 101.098 45.408" stroke="#120101" stroke-width="0.686638" stroke-linecap="round"/>
<path d="M104.766 42.5417C105.003 41.5161 101.984 41.1658 101.984 41.1658C101.984 41.1658 104.529 43.5673 104.766 42.5417Z" fill="#120101"/>
<path d="M96.7208 37.2565C96.1186 38.1199 99.1956 39.2783 99.1956 39.2783C99.1956 39.2783 97.3229 36.393 96.7208 37.2565Z" fill="#120101"/>
<path d="M100.1 36.5956C99.2686 36.693 100.204 39.1362 100.204 39.1362C100.204 39.1362 100.932 36.4981 100.1 36.5956Z" fill="#120101"/>
<path d="M96.3795 40.1036C96.3342 40.94 98.9007 40.4333 98.9007 40.4333C98.9007 40.4333 96.4247 39.2673 96.3795 40.1036Z" fill="#120101"/>
<path d="M101.649 44.3263C102.431 44.0272 100.924 41.8892 100.924 41.8892C100.924 41.8892 100.867 44.6254 101.649 44.3263Z" fill="#120101"/>
<path d="M92.208 63.8484C96.4242 52.2532 113.524 57.1308 111.721 67.2226C110.393 74.6482 88.1861 73.5914 92.208 63.8484Z" fill="#FA4E62"/>
<path d="M92.2073 63.8485C89.277 70.9472 100.271 73.4348 106.967 71.3901" stroke="#120101" stroke-width="0.686638" stroke-linecap="round"/>
<path d="M109.724 62.9477C109.088 61.396 104.841 63.7187 104.841 63.7187C104.841 63.7187 110.36 64.4995 109.724 62.9477Z" fill="#120101"/>
<path d="M94.0363 64.1471C94.0479 65.8239 99.1149 64.4983 99.1149 64.4983C99.1149 64.4983 94.0246 62.4702 94.0363 64.1471Z" fill="#120101"/>
<path d="M98.1856 59.5098C97.1936 60.4021 100.658 62.7182 100.658 62.7182C100.658 62.7182 99.1775 58.6175 98.1856 59.5098Z" fill="#120101"/>
<path d="M96.2137 68.1632C96.9246 69.2922 99.7952 66.2715 99.7952 66.2715C99.7952 66.2715 95.5027 67.0342 96.2137 68.1632Z" fill="#120101"/>
<path d="M106.951 68.8041C107.693 67.6953 103.765 66.3025 103.765 66.3025C103.765 66.3025 106.209 69.913 106.951 68.8041Z" fill="#120101"/>
<path d="M103.477 59.0125C101.8 59.0155 102.715 62.7842 102.715 62.7842C102.715 62.7842 105.154 59.0095 103.477 59.0125Z" fill="#120101"/>
<path d="M101.119 70.2168C102.776 69.9611 101.531 66.568 101.531 66.568C101.531 66.568 99.4616 70.4726 101.119 70.2168Z" fill="#120101"/>
<path d="M33.296 25.7954C39.7478 19.9438 48.819 28.6216 44.3689 34.3291C41.0945 38.5287 27.5757 30.5546 33.296 25.7954Z" fill="#FA4E62"/>
<path d="M33.2959 25.7956C27.5755 30.5547 41.0943 38.5289 44.3688 34.3293" stroke="#120101" stroke-width="0.686638" stroke-linecap="round"/>
<path d="M44.5303 31.0019C44.6445 29.8236 41.2272 29.875 41.2272 29.875C41.2272 29.875 44.4161 32.1802 44.5303 31.0019Z" fill="#120101"/>
<path d="M34.3398 26.5842C33.7948 27.6351 37.3953 28.4762 37.3953 28.4762C37.3953 28.4762 34.8848 25.5333 34.3398 26.5842Z" fill="#120101"/>
<path d="M38.4577 25.0554C37.5444 25.2858 38.9447 27.8731 38.9447 27.8731C38.9447 27.8731 39.3709 24.8249 38.4577 25.0554Z" fill="#120101"/>
<path d="M34.3759 29.809C34.448 30.7482 37.2354 29.8074 37.2354 29.8074C37.2354 29.8074 34.3039 28.8699 34.3759 29.809Z" fill="#120101"/>
<path d="M40.8698 33.7457C41.6983 33.2977 39.7045 31.1344 39.7045 31.1344C39.7045 31.1344 40.0413 34.1938 40.8698 33.7457Z" fill="#120101"/>
<path d="M41.9258 26.4875C40.8777 25.937 40.2075 28.5916 40.2075 28.5916C40.2075 28.5916 42.9739 27.0379 41.9258 26.4875Z" fill="#120101"/>
<path d="M36.7637 32.7071C37.8828 33.0932 38.2228 30.5644 38.2228 30.5644C38.2228 30.5644 35.6446 32.3209 36.7637 32.7071Z" fill="#120101"/>
<path d="M84.3234 84.0376C90.7751 78.1859 99.8464 86.8638 95.3962 92.5713C92.1218 96.7709 78.603 88.7967 84.3234 84.0376Z" fill="#FA4E62"/>
<path d="M84.3232 84.0378C78.6029 88.7969 92.1217 96.7711 95.3961 92.5715" stroke="#120101" stroke-width="0.686638" stroke-linecap="round"/>
<path d="M95.5577 89.2441C95.6718 88.0658 92.2545 88.1172 92.2545 88.1172C92.2545 88.1172 95.4435 90.4224 95.5577 89.2441Z" fill="#120101"/>
<path d="M85.3671 84.8264C84.8221 85.8773 88.4227 86.7184 88.4227 86.7184C88.4227 86.7184 85.9121 83.7755 85.3671 84.8264Z" fill="#120101"/>
<path d="M89.485 83.2976C88.5717 83.528 89.9721 86.1152 89.9721 86.1152C89.9721 86.1152 90.3983 83.0671 89.485 83.2976Z" fill="#120101"/>
<path d="M85.4033 88.0512C85.4753 88.9904 88.2628 88.0496 88.2628 88.0496C88.2628 88.0496 85.3312 87.1121 85.4033 88.0512Z" fill="#120101"/>
<path d="M91.8971 91.9879C92.7257 91.5399 90.7319 89.3766 90.7319 89.3766C90.7319 89.3766 91.0686 92.436 91.8971 91.9879Z" fill="#120101"/>
<path d="M92.9532 84.7296C91.9051 84.1792 91.2349 86.8337 91.2349 86.8337C91.2349 86.8337 94.0012 85.2801 92.9532 84.7296Z" fill="#120101"/>
<path d="M87.79 90.9493C88.9091 91.3354 89.2492 88.8066 89.2492 88.8066C89.2492 88.8066 86.671 90.5631 87.79 90.9493Z" fill="#120101"/>
<path d="M120.885 99.7046C154.394 64.0631 83.1823 -26.4214 26.8261 12.2661C-1.47998 31.6978 13.9254 62.6578 40.5175 84.1489C42.8521 86.6081 44.9085 89.0034 46.2978 91.5132C47.7971 94.2214 50.4452 94.5145 52.0097 94.4184C52.727 94.3745 53.4563 94.7562 53.7509 95.4116C54.5122 97.1049 56.1255 100.102 58.2548 100.792C58.8746 101 59.3321 100.895 59.6689 100.61C60.6148 99.8086 62.3677 98.9741 63.125 99.9555C63.3079 100.193 63.3991 100.488 63.3877 100.788C63.308 102.865 63.1402 111.205 65.581 111.206C67.5079 111.205 67.9116 106.004 67.9882 103.156C68.0127 102.245 68.8758 101.569 69.7578 101.795L69.9804 101.852C89.8826 110.168 109.88 111.409 120.885 99.7046ZM60.8632 7.45749C66.7928 6.25144 68.6021 9.25413 75.0341 11.5317C81.4664 13.8093 82.3004 13.4398 87.3964 16.101C92.4924 18.7623 90.2764 21.8306 95.5371 25.8501C100.798 29.8696 103.362 28.2219 107.396 31.9809C111.43 35.7398 109.028 41.3463 112.924 45.9507C116.82 50.5551 121.959 53.2049 122.372 60.6411C122.785 68.0774 120.02 69.8496 120.764 74.394C121.507 78.9382 122.806 82.8002 117.849 88.4184C112.891 94.0369 115.865 95.8401 114.394 98.3188C112.924 100.797 108.913 101.898 101.064 99.4194C93.2151 96.9407 88.9539 100.406 84.0791 100.324C79.2044 100.241 77.1237 95.2646 71.0136 93.9917C64.9037 92.7189 63.308 95.4316 56.9433 89.0669C50.5786 82.7023 47.9983 85.047 44.7822 76.4038C41.5661 67.7604 34.5546 68.8526 29.707 61.6294C24.8594 54.4062 29.6062 51.7802 26.0888 46.4536C22.5712 41.1269 19.931 36.6035 21.9677 32.7846C24.0045 28.9658 27.9979 24.3424 30.2089 18.7143C30.5806 17.7684 31.0154 16.8965 31.4804 16.1001C34.1711 11.4923 39.6278 9.72031 44.958 9.96628C45.5418 9.99322 46.154 10.0276 46.7929 10.0708C53.0726 10.495 54.9336 8.6636 60.8632 7.45749Z" fill="#FF985B"/>
<path d="M46.256 56.1696C57.0339 48.0721 69.7754 62.7401 62.1028 70.901C56.4572 76.9059 33.0958 66.0568 46.256 56.1696Z" fill="#FA4E62"/>
<path d="M44.874 67.7118C41.6245 64.5497 40.7893 60.2767 46.2559 56.1696C52.7131 51.3183 59.875 54.6383 62.9297 59.8348" stroke="#120101" stroke-width="0.686638" stroke-linecap="round"/>
<path d="M62.247 65.6178C62.4563 63.7976 57.1667 63.7827 57.1667 63.7827C57.1667 63.7827 62.0378 67.438 62.247 65.6178Z" fill="#120101"/>
<path d="M47.7517 57.5342C46.7618 59.076 52.1906 60.886 52.1906 60.886C52.1906 60.886 48.7416 55.9924 47.7517 57.5342Z" fill="#120101"/>
<path d="M54.3161 55.7653C52.8757 55.9901 54.6646 60.1772 54.6646 60.1772C54.6646 60.1772 55.7564 55.5405 54.3161 55.7653Z" fill="#120101"/>
<path d="M45.3991 62.6427C45.3762 64.1003 49.8062 63.0483 49.8062 63.0483C49.8062 63.0483 45.4221 61.1851 45.3991 62.6427Z" fill="#120101"/>
<path d="M56.9701 70.1117C58.3109 69.5395 55.5469 65.9211 55.5469 65.9211C55.5469 65.9211 55.6293 70.684 56.9701 70.1117Z" fill="#120101"/>
<path d="M59.457 58.4674C57.9204 57.4695 56.5087 61.4648 56.5087 61.4648C56.5087 61.4648 60.9937 59.4652 59.457 58.4674Z" fill="#120101"/>
<path d="M49.3258 68.0147C50.9953 68.7695 51.8802 64.9209 51.8802 64.9209C51.8802 64.9209 47.6563 67.2599 49.3258 68.0147Z" fill="#120101"/>
<path d="M117.878 102.359L38.1076 8.58105" stroke="#120101" stroke-width="0.686638" stroke-linecap="round"/>
<path d="M111.138 33.9937L39.4473 77.6474" stroke="#120101" stroke-width="0.686638" stroke-linecap="round"/>
<path d="M127.087 72.5155L12.257 32.0308" stroke="#120101" stroke-width="0.686638" stroke-linecap="round"/>
<path d="M77.0929 104.427L78.0141 8.84392" stroke="#120101" stroke-width="0.686638" stroke-linecap="round"/>
<path d="M122.372 60.641C122.785 68.0773 120.02 69.849 120.763 74.3934C121.507 78.9378 122.806 82.8001 117.849 88.4186C112.891 94.0371 115.865 95.8394 114.395 98.3181C112.924 100.797 108.914 101.898 101.065 99.4189C93.2152 96.9401 88.9543 100.406 84.0795 100.323C79.2046 100.241 77.1241 95.2646 71.0139 93.9917M21.968 32.7847C24.0047 28.9658 27.9982 24.3424 30.2093 18.7141C30.5809 17.7681 31.0151 16.8959 31.4802 16.0994C34.1709 11.4917 39.6274 9.72027 44.9576 9.96624C45.5415 9.99318 46.1536 10.0276 46.7927 10.0708C53.0726 10.4951 54.9335 8.66372 60.8632 7.45759C66.793 6.25146 68.602 9.25426 75.0343 11.5319" stroke="#120101" stroke-width="0.686638" stroke-linecap="round"/>
<path d="M58.9743 38.5362C61.4807 40.4926 57.6568 43.2152 56.2138 40.9647C55.0595 39.1643 56.4679 36.5797 58.9743 38.5362Z" stroke="#120101" stroke-width="0.686638" stroke-linecap="round"/>
<path d="M113.079 59.4445C114.271 57.7119 116.221 60.1277 114.793 61.1699C113.65 62.0037 111.888 61.177 113.079 59.4445Z" stroke="#120101" stroke-width="0.686638" stroke-linecap="round"/>
<path d="M65.5763 84.0639C68.5738 85.1244 65.8107 88.9192 63.7285 87.2425C62.0628 85.9011 62.5788 83.0033 65.5763 84.0639Z" stroke="#120101" stroke-width="0.686638" stroke-linecap="round"/>
<path d="M85.0507 44.0854C87.0699 44.7999 85.2086 47.3562 83.8059 46.2267C82.6838 45.3231 83.0314 43.371 85.0507 44.0854Z" stroke="#120101" stroke-width="0.686638" stroke-linecap="round"/>
<path d="M111.203 50.6292C112.561 51.1097 111.309 52.8289 110.365 52.0693C109.611 51.4616 109.845 50.1487 111.203 50.6292Z" stroke="#120101" stroke-width="0.686638" stroke-linecap="round"/>
<path d="M72.5083 63.3792C73.8664 63.8597 72.6145 65.5789 71.6711 64.8193C70.9164 64.2116 71.1502 62.8987 72.5083 63.3792Z" stroke="#120101" stroke-width="0.686638" stroke-linecap="round"/>
<path d="M111.203 84.241C112.561 84.7215 111.309 86.4408 110.365 85.6811C109.611 85.0734 109.845 83.7605 111.203 84.241Z" stroke="#120101" stroke-width="0.686638" stroke-linecap="round"/>
<path d="M110.879 74.8882C113.171 75.6993 111.058 78.6014 109.466 77.3191C108.192 76.2933 108.587 74.0771 110.879 74.8882Z" stroke="#120101" stroke-width="0.686638" stroke-linecap="round"/>
<path d="M88.6889 35.6785C90.047 36.159 88.7952 37.8783 87.8518 37.1186C87.0971 36.5109 87.3309 35.198 88.6889 35.6785Z" stroke="#120101" stroke-width="0.686638" stroke-linecap="round"/>
<path d="M83.2143 78.8948C84.5724 79.3753 83.3206 81.0946 82.3772 80.3349C81.6225 79.7272 81.8563 78.4143 83.2143 78.8948Z" stroke="#120101" stroke-width="0.686638"/>
<path d="M59.3598 77.3026C60.7179 77.7831 59.4661 79.5023 58.5227 78.7426C57.768 78.1349 58.0018 76.8221 59.3598 77.3026Z" stroke="#120101" stroke-width="0.686638" stroke-linecap="round"/>
<path d="M43.311 50.6287C44.6691 51.1092 43.4172 52.8285 42.4739 52.0688C41.7192 51.4611 41.9529 50.1482 43.311 50.6287Z" stroke="#120101" stroke-width="0.686638" stroke-linecap="round"/>
<path d="M57.0229 14.3318C58.381 14.8124 57.1292 16.5316 56.1858 15.7719C55.4311 15.1642 55.6648 13.8513 57.0229 14.3318Z" stroke="#120101" stroke-width="0.686638"/>
<path d="M84.9013 21.2378C86.9205 21.9522 85.0592 24.5085 83.6565 23.379C82.5344 22.4754 82.882 20.5234 84.9013 21.2378Z" stroke="#120101" stroke-width="0.686638" stroke-linecap="round"/>
<path d="M87.6386 71.2168C89.6578 71.9312 87.7965 74.4875 86.3938 73.358C85.2717 72.4544 85.6193 70.5024 87.6386 71.2168Z" stroke="#120101" stroke-width="0.686638" stroke-linecap="round"/>
<path d="M38.3095 46.5435C40.3287 47.2579 38.4674 49.8142 37.0647 48.6847C35.9426 47.7811 36.2902 45.829 38.3095 46.5435Z" stroke="#120101" stroke-width="0.686638" stroke-linecap="round"/>
<path d="M26.8262 12.2661C-1.48509 31.7014 13.9296 62.6711 40.5308 84.1627C42.86 86.6171 44.9117 89.0077 46.2984 91.5127C47.7977 94.2211 50.4452 94.5144 52.0098 94.4183C52.7271 94.3743 53.4564 94.756 53.7511 95.4116C54.5124 97.1049 56.1256 100.102 58.255 100.792C58.8748 101 59.3322 100.895 59.6691 100.61C60.6149 99.8087 62.3675 98.9736 63.1247 99.9551C63.308 100.193 63.3995 100.488 63.388 100.788C63.3083 102.865 63.1404 111.206 65.5814 111.206C67.5083 111.206 67.912 106.003 67.9886 103.156C68.0131 102.245 68.8755 101.568 69.7575 101.795L69.9755 101.851C89.8792 110.168 109.88 111.41 120.885 99.7043" stroke="#120101" stroke-width="0.686638" stroke-linecap="round"/>
<path d="M97.6283 30.306C97.6283 30.306 99.29 27.4098 100.343 24.1109" stroke="#120101" stroke-width="0.686638" stroke-linecap="round"/>
<path d="M96.447 29.3483C96.447 29.3483 97.6228 27.2991 98.368 24.9648" stroke="#120101" stroke-width="0.686638" stroke-linecap="round"/>
<path d="M122.966 77.3149C123.954 82.0886 123.542 83.8168 121.649 86.6975" stroke="#120101" stroke-width="0.686638" stroke-linecap="round"/>
<path d="M75.209 98.3416C70.0341 96.2295 69.6119 95.3848 64.0146 95.2791C58.4173 95.1734 57.7836 91.794 53.7705 88.837C49.7575 85.88 46.6948 85.7744 44.2659 82.0781" stroke="#120101" stroke-width="0.686638" stroke-linecap="round"/>
</svg>
