<svg width="120" height="120" viewBox="0 0 120 120" fill="none" xmlns="http://www.w3.org/2000/svg">
<path d="M57.3682 9.16992C66.7142 1.98063 80.3625 6.25697 83.9346 17.4941L87.9775 30.2139C88.9896 33.3979 91.0363 36.1529 93.792 38.042L104.8 45.5889C114.525 52.2558 114.676 66.557 105.093 73.4268L94.2451 81.2031C91.5297 83.1496 89.5417 85.9468 88.5967 89.1514L84.8213 101.953C81.4858 113.263 67.9304 117.824 58.4355 110.833L47.6875 102.919C44.9973 100.938 41.7224 99.9125 38.3828 100.004L25.041 100.369C13.2543 100.692 4.72711 89.2091 8.44238 78.0186L12.6475 65.3516C13.7 62.1809 13.6639 58.7494 12.5449 55.6016L8.07422 43.0254C4.12536 31.9154 12.4104 20.2569 24.2012 20.332L37.5479 20.418C40.8886 20.4393 44.141 19.3445 46.7891 17.3076L57.3682 9.16992Z" fill="#FDBCFF" stroke="white" stroke-width="2"/>
<path d="M87.3679 75.04C84.1011 74.0164 82.3843 78.2229 81.9343 80.4541C76.4747 74.1592 69.098 85.0343 78.2022 86.4012C77.966 87.9503 77.4163 91.2333 80.7843 92.888C84.1523 94.5427 87.2574 92.2965 87.6527 89.3626C90.5597 90.0238 97.2951 90.5862 96.5865 86.1691C95.8779 81.752 90.8335 81.8693 88.3999 82.4801C89.417 80.4266 90.6347 76.0637 87.3679 75.04Z" fill="#C7E3FF" stroke="#2F95DE" stroke-width="2" stroke-linecap="round" stroke-linejoin="round"/>
<path d="M39.9561 47.6079C41.2424 49.0027 44.0251 52.488 46.3725 56.7449C47.0708 58.0111 46.1353 59.5288 44.6955 59.6633C41.6762 59.9454 37.8047 60.6011 35.4708 61.9216" stroke="black" stroke-width="2" stroke-linecap="round" stroke-linejoin="round"/>
<path d="M77.4707 58.3154C75.6184 58.7267 71.3444 60.0008 66.9874 62.1567C65.6914 62.7981 65.5935 64.5782 66.699 65.5103C69.0174 67.465 71.8225 70.2128 72.9854 72.6291" stroke="black" stroke-width="2" stroke-linecap="round" stroke-linejoin="round"/>
<path d="M52.6981 67.4864C56.9725 66.7416 60.5361 68.0696 62.3049 70.497C64.0736 72.9244 55.8307 72.7595 53.5847 73.0157C55.1193 73.9077 61.9289 77.3562 60.1182 78.8774C58.3074 80.3986 54.6613 79.7348 53.0645 79.2127" stroke="black" stroke-width="2" stroke-linecap="round" stroke-linejoin="round"/>
<path d="M85.4016 24.6461C66.3655 21.9728 51.3033 15.09 51.3033 15.09C45.4179 19.3857 44.9588 20.4918 37.4365 21.4099C37.4365 21.4099 67.807 43.5178 90.9783 36.9506C87.2382 32.5723 86.9124 30.7805 85.4016 24.6461Z" fill="#DE3131"/>
</svg>
