<svg width="42" height="52" viewBox="0 0 42 52" fill="none" xmlns="http://www.w3.org/2000/svg">
<path d="M23.583 23.4165C23.583 21.9898 22.4264 20.8332 20.9997 20.8332C19.5729 20.8332 18.4163 21.9898 18.4163 23.4165V32.2366L24.3397 38.1599C25.3485 39.1687 26.9842 39.1687 27.993 38.1599C29.0019 37.151 29.0019 35.5153 27.993 34.5065L23.583 30.0965V23.4165Z" fill="white"/>
<path fill-rule="evenodd" clip-rule="evenodd" d="M31.333 2.74984C31.333 4.17657 30.1764 5.33317 28.7497 5.33317L23.583 5.33317V10.6597C33.7776 11.931 41.6663 20.6275 41.6663 31.1665C41.6663 42.5804 32.4136 51.8332 20.9997 51.8332C9.58579 51.8332 0.333008 42.5804 0.333008 31.1665C0.333008 20.6275 8.2217 11.931 18.4163 10.6597V5.33317L13.2497 5.33317C11.8229 5.33317 10.6663 4.17657 10.6663 2.74984C10.6663 1.3231 11.8229 0.166504 13.2497 0.166504H28.7497C30.1764 0.166504 31.333 1.3231 31.333 2.74984ZM21.0041 15.6665L20.9953 15.6665C12.4369 15.6689 5.49967 22.6076 5.49967 31.1665C5.49967 39.7269 12.4393 46.6665 20.9997 46.6665C29.5601 46.6665 36.4997 39.7269 36.4997 31.1665C36.4997 22.6076 29.5625 15.6689 21.0041 15.6665Z" fill="white"/>
</svg>
