<svg width="180" height="181" viewBox="0 0 180 181" fill="none" xmlns="http://www.w3.org/2000/svg">
<path d="M90 7.83301C135.785 7.83301 172.901 44.9492 172.901 90.7344C172.901 136.52 135.785 173.636 90 173.636C44.2148 173.636 7.09863 136.52 7.09863 90.7344C7.09863 44.9492 44.2148 7.83301 90 7.83301Z" stroke="white" stroke-width="2"/>
<path d="M171.901 90.7344C171.901 135.967 135.233 172.636 90 172.636C44.7671 172.636 8.09863 135.967 8.09863 90.7344C8.09863 45.5015 44.7671 8.83301 90 8.83301C135.233 8.83301 171.901 45.5015 171.901 90.7344ZM21.2029 90.7344C21.2029 128.73 52.0044 159.532 90 159.532C127.996 159.532 158.797 128.73 158.797 90.7344C158.797 52.7388 127.996 21.9372 90 21.9372C52.0044 21.9372 21.2029 52.7388 21.2029 90.7344Z" fill="#4B4B55"/>
<path d="M90 15.3851C90 11.7665 92.9383 8.80575 96.5453 9.09489C112.118 10.3432 127.059 16.0258 139.568 25.5357C152.077 35.0455 161.548 47.9229 166.915 62.5942C168.159 65.9925 166.092 69.6156 162.605 70.5833C159.118 71.5511 155.536 69.4938 154.241 66.1148C149.675 54.1983 141.864 43.7429 131.637 35.9675C121.409 28.192 109.246 23.4624 96.5425 22.2489C92.9403 21.9049 90 19.0037 90 15.3851Z" fill="#AFF26D"/>
<path d="M147.331 90.7338C147.331 122.397 121.663 148.065 89.9999 148.065C58.3369 148.065 32.6689 122.397 32.6689 90.7338C32.6689 59.0708 58.3369 33.4028 89.9999 33.4028C121.663 33.4028 147.331 59.0708 147.331 90.7338ZM47.575 90.7338C47.575 114.164 66.5693 133.159 89.9999 133.159C113.431 133.159 132.425 114.164 132.425 90.7338C132.425 67.3032 113.431 48.3089 89.9999 48.3089C66.5693 48.3089 47.575 67.3032 47.575 90.7338Z" fill="#4B4B55"/>
<path d="M89.9999 40.8559C89.9999 36.7397 93.3506 33.353 97.432 33.8866C102.406 34.537 107.285 35.8388 111.94 37.7669C118.895 40.648 125.215 44.871 130.539 50.1947C135.863 55.5184 140.086 61.8385 142.967 68.7942C145.848 75.7499 147.331 83.205 147.331 90.7338C147.331 98.2626 145.848 105.718 142.967 112.673C140.086 119.629 135.863 125.949 130.539 131.273C125.215 136.597 118.895 140.82 111.939 143.701C107.285 145.629 102.406 146.931 97.432 147.581C93.3505 148.115 89.9999 144.728 89.9999 140.612C89.9999 136.496 93.3618 133.225 97.4147 132.506C100.432 131.97 103.39 131.108 106.235 129.929C111.382 127.797 116.059 124.672 119.999 120.733C123.938 116.793 127.063 112.116 129.195 106.969C131.327 101.822 132.425 96.3051 132.425 90.7338C132.425 85.1625 131.327 79.6457 129.195 74.4985C127.063 69.3513 123.938 64.6744 119.999 60.7348C116.059 56.7953 111.382 53.6703 106.235 51.5383C103.39 50.3598 100.432 49.4975 97.4147 48.9619C93.3619 48.2425 89.9999 44.972 89.9999 40.8559Z" fill="#FDBCFF"/>
<path d="M122.759 90.7347C122.759 108.828 108.092 123.495 89.9988 123.495C71.9057 123.495 57.2383 108.828 57.2383 90.7347C57.2383 72.6415 71.9057 57.9741 89.9988 57.9741C108.092 57.9741 122.759 72.6415 122.759 90.7347ZM71.6529 90.7347C71.6529 100.867 79.8667 109.081 89.9988 109.081C100.131 109.081 108.345 100.867 108.345 90.7347C108.345 80.6025 100.131 72.3888 89.9988 72.3888C79.8667 72.3888 71.6529 80.6025 71.6529 90.7347Z" fill="#4B4B55"/>
<path d="M89.9988 65.1814C89.9988 61.2009 93.2639 57.8949 97.1484 58.7637C102.679 60.0007 107.837 62.6616 112.084 66.5376C118.12 72.0468 121.879 79.6131 122.623 87.7513C123.367 95.8895 121.043 104.012 116.107 110.525C112.633 115.107 108.043 118.659 102.829 120.879C99.1661 122.437 95.3556 119.779 94.6336 115.864C93.9116 111.95 96.64 108.293 99.9799 106.128C101.75 104.98 103.323 103.527 104.619 101.817C107.384 98.17 108.685 93.6214 108.269 89.064C107.852 84.5066 105.747 80.2695 102.367 77.1843C100.782 75.7381 98.9709 74.5939 97.0223 73.7864C93.3451 72.2626 89.9988 69.1619 89.9988 65.1814Z" fill="#4224DE"/>
</svg>
