<svg width="180" height="181" viewBox="0 0 180 181" fill="none" xmlns="http://www.w3.org/2000/svg">
<path fill-rule="evenodd" clip-rule="evenodd" d="M126.177 79.8694L156.739 105.949L149.636 144.712L111.824 158.203L81.2628 132.122L88.3652 93.3594L126.177 79.8694ZM152.017 107.607L125.281 84.7587L92.1906 96.5909L85.984 130.465L112.72 153.313L145.811 141.481L152.017 107.607Z" fill="#84C9F3"/>
<path d="M129.437 114.987L117.122 129.28L111.083 111.608L120.844 108.968L129.437 114.987Z" fill="url(#paint0_linear_0_5469)"/>
<path d="M111.083 111.608L92.1906 96.5909L85.984 130.465L112.697 153.439L117.124 129.278L117.122 129.28L111.083 111.608Z" fill="url(#paint1_linear_0_5469)"/>
<path d="M145.811 141.481L112.697 153.439L117.124 129.278L129.437 114.987L152.017 107.607L145.811 141.481Z" fill="url(#paint2_linear_0_5469)"/>
<path d="M152.017 107.607L125.304 84.633L92.1906 96.5909L111.083 111.608L120.844 108.968L129.437 114.987L152.017 107.607Z" fill="url(#paint3_linear_0_5469)"/>
<path d="M150.515 145.461L149.973 145.654L112.16 159.145L111.616 159.34L111.176 158.964L80.6141 132.883L80.1753 132.509L87.4857 92.6108L88.0285 92.4169L125.841 78.9277L126.385 78.7332L126.825 79.109L157.387 105.188L157.826 105.562L150.515 145.461Z" stroke="white" stroke-width="2"/>
<path d="M92.3975 97.2168L107.789 109.789" stroke="black"/>
<path d="M112.942 153.002L117.201 133.433" stroke="black"/>
<path d="M32.6608 31.3376C33.4921 29.8669 35.1398 28.9103 37.182 29.065C45.4086 29.6886 57.1008 31.9467 68.2053 36.6222C79.2974 41.2924 89.9242 48.4271 95.841 58.8785C101.469 68.8203 102.695 78.414 100.78 86.8427C98.8676 95.26 93.8398 102.439 87.0915 107.598C73.6084 117.907 53.1357 120.238 36.5064 108.246C21.0897 97.1277 22.7272 78.8626 25.5383 67.8988C26.032 65.9736 27.8525 65.2256 29.4471 65.2299C31.0448 65.2342 32.8585 65.9633 33.7831 67.4997C35.6577 70.6152 38.0981 72.7518 40.3628 73.6897C42.6151 74.6223 44.5299 74.336 45.7744 72.9386C46.1028 72.5697 46.3745 71.9796 46.5261 71.106C46.6768 70.2376 46.6971 69.1548 46.5796 67.8785C46.3446 65.3255 45.5704 62.1298 44.3557 58.591C41.9285 51.5194 37.7975 43.237 32.9645 36.27C31.8633 34.6825 31.8359 32.7973 32.6608 31.3376ZM62.0808 63.8718C61.9067 63.7849 61.7484 63.8196 61.6446 63.8984C61.5922 63.9383 61.5645 63.9823 61.553 64.0144C61.5439 64.04 61.538 64.0757 61.556 64.1339C63.1901 69.3927 64.6006 74.7272 65.2805 79.1261C65.6201 81.3228 65.7844 83.326 65.6892 84.9882C65.5963 86.6087 65.2484 88.0987 64.3794 89.0745C62.9033 90.7318 60.4592 90.9553 58.3173 90.4989C56.1374 90.0344 53.8991 88.8031 52.5612 87.034C52.1847 86.5362 51.7292 86.1636 51.3713 86.0252C51.2043 85.9607 51.1162 85.9686 51.086 85.9755C51.073 85.9785 51.0129 85.991 50.918 86.1214C49.8407 87.6023 49.2213 90.406 49.735 93.5042C50.2417 96.5592 51.8319 99.7614 54.9787 102.048C59.622 105.421 66.9999 105.188 73.1374 102.119C79.2404 99.0671 83.7397 93.4039 82.9774 86.3175C82.3749 80.7183 78.7549 75.884 74.3945 72.0155C70.0499 68.161 65.0966 65.3786 62.0808 63.8718Z" fill="url(#paint4_linear_0_5469)" stroke="white" stroke-width="2"/>
<path fill-rule="evenodd" clip-rule="evenodd" d="M126.175 79.8699L156.737 105.949L149.634 144.712L111.822 158.203L81.2608 132.123L88.3632 93.3599L126.175 79.8699ZM152.015 107.607L125.279 84.7592L92.1886 96.5914L85.9821 130.465L112.718 153.314L145.809 141.481L152.015 107.607Z" fill="#84C9F3"/>
<path d="M129.435 114.988L117.12 129.281L111.081 111.608L120.842 108.969L129.435 114.988Z" fill="url(#paint5_linear_0_5469)"/>
<path d="M111.081 111.608L92.1886 96.5914L85.9821 130.465L112.695 153.44L117.122 129.279L117.12 129.281L111.081 111.608Z" fill="url(#paint6_linear_0_5469)"/>
<path d="M145.809 141.481L112.695 153.44L117.122 129.279L129.435 114.988L152.015 107.607L145.809 141.481Z" fill="url(#paint7_linear_0_5469)"/>
<path d="M152.015 107.607L125.302 84.6334L92.1886 96.5914L111.081 111.608L120.842 108.969L129.435 114.988L152.015 107.607Z" fill="url(#paint8_linear_0_5469)"/>
<path d="M94.6689 98.6426L107.458 109.068" stroke="black"/>
<path d="M112.686 148.875L116.217 132.657" stroke="black"/>
<defs>
<linearGradient id="paint0_linear_0_5469" x1="130.787" y1="109.667" x2="74.8321" y2="142.91" gradientUnits="userSpaceOnUse">
<stop stop-color="#88CAF3"/>
<stop offset="1" stop-color="white"/>
</linearGradient>
<linearGradient id="paint1_linear_0_5469" x1="125.458" y1="116.942" x2="95.0329" y2="134.87" gradientUnits="userSpaceOnUse">
<stop stop-color="#5CADE0"/>
<stop offset="1" stop-color="#B1E0FD"/>
</linearGradient>
<linearGradient id="paint2_linear_0_5469" x1="97.3561" y1="106.285" x2="135.604" y2="153.914" gradientUnits="userSpaceOnUse">
<stop stop-color="#49A5DF"/>
<stop offset="1" stop-color="#7ECBFB"/>
</linearGradient>
<linearGradient id="paint3_linear_0_5469" x1="126.177" y1="79.8695" x2="120.915" y2="108.446" gradientUnits="userSpaceOnUse">
<stop stop-color="#B1E0FD"/>
<stop offset="1" stop-color="#DEF2FE"/>
</linearGradient>
<linearGradient id="paint4_linear_0_5469" x1="34.0503" y1="30.3151" x2="89.4708" y2="112.402" gradientUnits="userSpaceOnUse">
<stop stop-color="#E38EE6"/>
<stop offset="1" stop-color="#ED63F1"/>
</linearGradient>
<linearGradient id="paint5_linear_0_5469" x1="130.785" y1="109.668" x2="74.8301" y2="142.911" gradientUnits="userSpaceOnUse">
<stop stop-color="#88CAF3"/>
<stop offset="1" stop-color="white"/>
</linearGradient>
<linearGradient id="paint6_linear_0_5469" x1="125.456" y1="116.943" x2="95.0309" y2="134.87" gradientUnits="userSpaceOnUse">
<stop stop-color="#5CADE0"/>
<stop offset="1" stop-color="#B1E0FD"/>
</linearGradient>
<linearGradient id="paint7_linear_0_5469" x1="97.3542" y1="106.286" x2="135.602" y2="153.915" gradientUnits="userSpaceOnUse">
<stop stop-color="#49A5DF"/>
<stop offset="1" stop-color="#7ECBFB"/>
</linearGradient>
<linearGradient id="paint8_linear_0_5469" x1="126.175" y1="79.8699" x2="120.913" y2="108.446" gradientUnits="userSpaceOnUse">
<stop stop-color="#B1E0FD"/>
<stop offset="1" stop-color="#DEF2FE"/>
</linearGradient>
</defs>
</svg>
