<svg width="180" height="181" viewBox="0 0 180 181" fill="none" xmlns="http://www.w3.org/2000/svg">
<mask id="path-1-outside-1_324_2870" maskUnits="userSpaceOnUse" x="4.2348" y="62.903" width="114.095" height="107.287" fill="black">
<rect fill="white" x="4.2348" y="62.903" width="114.095" height="107.287"/>
<path fill-rule="evenodd" clip-rule="evenodd" d="M55.9305 145.887C57.9056 146.241 59.8004 146.46 61.616 146.562L64.8265 150.36L64.5783 150.657C62.9853 152.56 63.1745 155.38 65.0075 157.054C66.1479 158.095 67.8604 158.198 69.1178 157.302L76.6639 151.922C79.3338 150.019 80.2206 146.545 78.9632 143.654C87.5972 139.981 92.5233 133.98 94.1241 132.03C94.2661 131.857 94.382 131.716 94.472 131.611C94.6509 131.403 94.8409 131.179 95.0363 130.943C96.5889 129.544 99.3273 129.933 103.312 130.499C103.556 130.534 103.804 130.569 104.057 130.605C105.122 130.754 106.24 130.8 107.319 130.784C109.227 130.755 109.526 128.41 107.887 127.433C105.291 125.886 102.979 123.197 102.979 123.197C102.979 123.197 107.656 120.96 108.508 118.96C109.359 116.959 109.147 108.565 109.147 108.565L103.393 108.945L108.739 106.014L109.706 88.0913C109.837 85.6638 107.083 84.5754 105.821 86.6535C103.614 90.2887 100.96 95.8649 98.307 104.547C94.3366 117.541 94.6069 122.073 94.7295 124.129C94.7717 124.838 94.7965 125.252 94.6239 125.618C93.0948 126.431 91.0608 127.094 88.2742 125.286C85.1231 123.242 84.3249 119.892 82.8552 113.722C82.7144 113.131 82.5674 112.514 82.4116 111.87C87.6797 109.104 96.4034 104.344 97.0065 102.837C97.8745 100.668 92.2645 95.5599 85.6998 90.6518C81.1915 87.2812 74.8994 84.0039 71.3997 82.2815C66.2392 73.9801 59.2757 69.0927 48.3283 70.0181C36.3021 71.0347 30.4577 83.5387 28.4548 95.0717C27.147 94.1979 25.808 93.4251 24.5418 92.7878C25.8814 91.386 27.0427 89.717 26.9344 88.2157C26.6872 84.7875 21.6915 89.6697 21.6915 89.6697C21.6915 89.6697 18.2358 83.5992 17.0528 86.8263C16.5845 88.1036 17.0754 89.7985 17.8394 91.3804C17.2235 92.6403 17.7125 95.7197 20.9166 101.867C23.125 106.104 26.1474 109.732 28.1116 111.775C28.9159 119.174 30.835 128.348 36.7681 135.435L36.3005 135.288L35.9911 149.28L35.607 149.325C33.1414 149.609 31.3377 151.786 31.516 154.261C31.6269 155.801 32.7982 157.055 34.3273 157.27L43.5042 158.56C47.2343 159.085 50.6833 156.486 51.2077 152.756L52.2888 145.068C53.4461 145.385 54.6591 145.659 55.9305 145.887Z"/>
</mask>
<path d="M61.616 146.562L63.1433 145.271L62.5876 144.614L61.7281 144.565L61.616 146.562ZM55.9305 145.887L56.2836 143.918L56.2836 143.918L55.9305 145.887ZM64.8265 150.36L66.3601 151.644L67.44 150.354L66.3539 149.069L64.8265 150.36ZM64.5783 150.657L63.0447 149.373L63.0446 149.373L64.5783 150.657ZM65.0075 157.054L66.356 155.576L66.356 155.576L65.0075 157.054ZM69.1178 157.302L70.2787 158.93L69.1178 157.302ZM76.6639 151.922L75.5029 150.294L76.6639 151.922ZM78.9632 143.654L78.1802 141.814L76.3251 142.603L77.1292 144.452L78.9632 143.654ZM94.1241 132.03L95.6699 133.299L95.6699 133.299L94.1241 132.03ZM94.472 131.611L95.9895 132.914L95.9896 132.914L94.472 131.611ZM95.0363 130.943L93.6974 129.457L93.5897 129.554L93.4972 129.666L95.0363 130.943ZM103.312 130.499L103.031 132.479L103.031 132.479L103.312 130.499ZM107.319 130.784L107.349 132.783L107.349 132.783L107.319 130.784ZM107.887 127.433L106.863 129.151L106.863 129.151L107.887 127.433ZM102.979 123.197L102.116 121.392L99.7593 122.519L101.462 124.5L102.979 123.197ZM108.508 118.96L106.667 118.176L106.667 118.176L108.508 118.96ZM109.147 108.565L111.147 108.515L111.094 106.432L109.016 106.569L109.147 108.565ZM103.393 108.945L102.431 107.192L103.525 110.941L103.393 108.945ZM108.739 106.014L109.7 107.768L110.676 107.233L110.736 106.122L108.739 106.014ZM109.706 88.0913L111.703 88.1991L111.703 88.1991L109.706 88.0913ZM105.821 86.6535L104.111 85.6156L104.111 85.6156L105.821 86.6535ZM98.307 104.547L96.3943 103.963L96.3943 103.963L98.307 104.547ZM94.7295 124.129L96.7259 124.01L96.7259 124.01L94.7295 124.129ZM94.6239 125.618L95.5628 127.384L96.1491 127.072L96.4325 126.471L94.6239 125.618ZM88.2742 125.286L89.3626 123.609L88.2742 125.286ZM82.8552 113.722L80.9096 114.186L80.9096 114.186L82.8552 113.722ZM82.4116 111.87L81.4821 110.099L80.1009 110.824L80.4676 112.34L82.4116 111.87ZM97.0065 102.837L95.1497 102.094L95.1497 102.094L97.0065 102.837ZM85.6998 90.6518L86.8974 89.05L85.6998 90.6518ZM71.3997 82.2815L69.7011 83.3374L70.0032 83.8233L70.5165 84.0759L71.3997 82.2815ZM48.3283 70.0181L48.4967 72.011L48.3283 70.0181ZM28.4548 95.0717L27.3437 96.7347L29.8993 98.4422L30.4253 95.4139L28.4548 95.0717ZM24.5418 92.7878L23.0958 91.4061L21.229 93.3596L23.6427 94.5744L24.5418 92.7878ZM26.9344 88.2157L28.9292 88.0719L28.9292 88.0719L26.9344 88.2157ZM21.6915 89.6697L19.9533 90.6591L21.2356 92.9116L23.0893 91.1001L21.6915 89.6697ZM17.0528 86.8263L18.9306 87.5147L17.0528 86.8263ZM17.8394 91.3804L19.6362 92.2587L20.063 91.3856L19.6403 90.5105L17.8394 91.3804ZM20.9166 101.867L22.6901 100.942L22.6901 100.942L20.9166 101.867ZM28.1116 111.775L30.0999 111.559L30.0261 110.881L29.5535 110.389L28.1116 111.775ZM36.7681 135.435L36.1676 137.343L42.6935 139.397L38.3016 134.151L36.7681 135.435ZM36.3005 135.288L36.901 133.38L34.3599 132.58L34.301 135.243L36.3005 135.288ZM35.9911 149.28L36.2204 151.267L37.952 151.067L37.9906 149.325L35.9911 149.28ZM35.607 149.325L35.8362 151.312L35.8363 151.312L35.607 149.325ZM31.516 154.261L33.5108 154.118L31.516 154.261ZM52.2888 145.068L52.8171 143.139L50.6248 142.538L50.3083 144.789L52.2888 145.068ZM61.7281 144.565C59.995 144.468 58.1807 144.259 56.2836 143.918L55.5774 147.856C57.6305 148.224 59.6058 148.452 61.5038 148.559L61.7281 144.565ZM66.3539 149.069L63.1433 145.271L60.0886 147.853L63.2991 151.651L66.3539 149.069ZM66.112 151.94L66.3601 151.644L63.2928 149.076L63.0447 149.373L66.112 151.94ZM66.356 155.576C65.314 154.625 65.2065 153.022 66.112 151.94L63.0446 149.373C60.7641 152.097 61.035 156.135 63.6591 158.531L66.356 155.576ZM67.9568 155.673C67.4671 156.022 66.8001 155.982 66.356 155.576L63.6591 158.531C65.4957 160.207 68.2537 160.374 70.2787 158.93L67.9568 155.673ZM75.5029 150.294L67.9568 155.673L70.2787 158.93L77.8248 153.551L75.5029 150.294ZM77.1292 144.452C78.0176 146.494 77.388 148.95 75.5029 150.294L77.8248 153.551C81.2797 151.088 82.4236 146.596 80.7973 142.857L77.1292 144.452ZM92.5782 130.761C91.0261 132.652 86.3531 138.336 78.1802 141.814L79.7463 145.495C88.8413 141.625 94.0205 135.308 95.6699 133.299L92.5782 130.761ZM92.9545 130.308C92.8468 130.434 92.7145 130.595 92.5782 130.761L95.6699 133.299C95.8178 133.119 95.9173 132.998 95.9895 132.914L92.9545 130.308ZM93.4972 129.666C93.3104 129.891 93.1279 130.106 92.9544 130.308L95.9896 132.914C96.1739 132.699 96.3713 132.466 96.5754 132.22L93.4972 129.666ZM96.3752 132.429C96.6114 132.216 97.0837 131.99 98.2721 131.984C99.4698 131.978 100.986 132.189 103.031 132.479L103.594 128.519C101.654 128.244 99.8081 127.976 98.2522 127.984C96.687 127.992 95.0138 128.271 93.6974 129.457L96.3752 132.429ZM103.031 132.479C103.274 132.514 103.524 132.549 103.779 132.585L104.336 128.624C104.084 128.589 103.838 128.554 103.594 128.519L103.031 132.479ZM103.779 132.585C104.973 132.753 106.199 132.801 107.349 132.783L107.288 128.784C106.281 128.799 105.271 128.756 104.336 128.624L103.779 132.585ZM107.349 132.783C109.3 132.754 110.658 131.422 110.91 129.765C111.145 128.222 110.405 126.606 108.911 125.715L106.863 129.151C107.008 129.238 106.937 129.283 106.956 129.163C106.965 129.1 107.005 128.986 107.119 128.886C107.173 128.838 107.228 128.809 107.27 128.794C107.31 128.779 107.321 128.783 107.288 128.784L107.349 132.783ZM108.911 125.715C107.8 125.053 106.699 124.111 105.844 123.291C105.425 122.889 105.081 122.532 104.844 122.278C104.726 122.151 104.635 122.051 104.576 121.984C104.546 121.95 104.524 121.925 104.511 121.91C104.504 121.902 104.499 121.897 104.497 121.894C104.495 121.892 104.495 121.892 104.494 121.891C104.494 121.891 104.494 121.891 104.495 121.892C104.495 121.892 104.495 121.892 104.495 121.892C104.495 121.892 104.495 121.892 104.495 121.892C104.495 121.892 104.495 121.893 102.979 123.197C101.462 124.5 101.463 124.501 101.463 124.501C101.463 124.501 101.463 124.501 101.463 124.501C101.463 124.502 101.464 124.502 101.464 124.502C101.465 124.503 101.466 124.504 101.467 124.506C101.469 124.508 101.472 124.511 101.475 124.515C101.481 124.522 101.49 124.532 101.501 124.544C101.522 124.569 101.552 124.603 101.591 124.646C101.668 124.733 101.778 124.854 101.917 125.004C102.195 125.302 102.592 125.714 103.075 126.178C104.026 127.09 105.378 128.266 106.863 129.151L108.911 125.715ZM102.979 123.197C103.842 125.001 103.842 125.001 103.842 125C103.843 125 103.843 125 103.843 125C103.844 125 103.844 125 103.845 124.999C103.846 124.999 103.847 124.998 103.849 124.997C103.853 124.995 103.858 124.993 103.863 124.99C103.875 124.985 103.891 124.977 103.911 124.967C103.951 124.947 104.008 124.919 104.079 124.884C104.222 124.812 104.422 124.709 104.664 124.58C105.146 124.323 105.803 123.956 106.495 123.517C107.18 123.082 107.939 122.553 108.605 121.967C109.232 121.415 109.957 120.661 110.348 119.743L106.667 118.176C106.632 118.258 106.453 118.533 105.963 118.964C105.513 119.36 104.943 119.765 104.352 120.139C103.769 120.509 103.204 120.826 102.782 121.051C102.572 121.163 102.401 121.251 102.284 121.309C102.225 121.339 102.181 121.361 102.152 121.375C102.138 121.382 102.128 121.387 102.121 121.39C102.118 121.391 102.116 121.392 102.115 121.393C102.115 121.393 102.115 121.393 102.115 121.393C102.115 121.393 102.115 121.393 102.115 121.393C102.115 121.393 102.115 121.393 102.116 121.392C102.116 121.392 102.116 121.392 102.979 123.197ZM110.348 119.743C110.699 118.918 110.861 117.722 110.958 116.678C111.064 115.543 111.119 114.253 111.146 113.058C111.174 111.857 111.174 110.723 111.167 109.892C111.164 109.476 111.159 109.133 111.155 108.894C111.152 108.775 111.151 108.681 111.149 108.616C111.148 108.584 111.148 108.559 111.147 108.542C111.147 108.534 111.147 108.527 111.147 108.522C111.147 108.52 111.147 108.518 111.147 108.517C111.147 108.516 111.147 108.516 111.147 108.515C111.147 108.515 111.147 108.515 111.147 108.515C111.147 108.515 111.147 108.515 109.147 108.565C107.148 108.616 107.148 108.616 107.148 108.616C107.148 108.616 107.148 108.616 107.148 108.616C107.148 108.616 107.148 108.616 107.148 108.616C107.148 108.617 107.148 108.618 107.148 108.62C107.148 108.623 107.148 108.629 107.149 108.636C107.149 108.651 107.149 108.674 107.15 108.703C107.151 108.763 107.153 108.851 107.155 108.965C107.159 109.193 107.164 109.522 107.167 109.924C107.174 110.729 107.174 111.819 107.147 112.967C107.121 114.12 107.069 115.304 106.976 116.305C106.873 117.398 106.742 118 106.667 118.176L110.348 119.743ZM109.016 106.569L103.261 106.95L103.525 110.941L109.279 110.561L109.016 106.569ZM104.354 110.699L109.7 107.768L107.777 104.261L102.431 107.192L104.354 110.699ZM110.736 106.122L111.703 88.1991L107.709 87.9835L106.742 105.906L110.736 106.122ZM111.703 88.1991C111.813 86.1612 110.681 84.4541 108.997 83.8135C107.243 83.1462 105.231 83.7723 104.111 85.6156L107.531 87.6914C107.584 87.6037 107.626 87.5643 107.642 87.5509C107.657 87.538 107.657 87.5416 107.641 87.5472C107.626 87.5524 107.609 87.555 107.594 87.5547C107.58 87.5543 107.574 87.5517 107.575 87.5521C107.577 87.5531 107.608 87.5665 107.641 87.6183C107.669 87.6621 107.721 87.771 107.709 87.9835L111.703 88.1991ZM104.111 85.6156C101.802 89.4197 99.0859 95.1545 96.3943 103.963L100.22 105.132C102.834 96.5753 105.426 91.1577 107.531 87.6914L104.111 85.6156ZM96.3943 103.963C92.3692 117.136 92.5935 121.909 92.733 124.248L96.7259 124.01C96.6202 122.237 96.3041 117.946 100.22 105.132L96.3943 103.963ZM92.733 124.248C92.7439 124.431 92.752 124.567 92.7566 124.686C92.7611 124.804 92.7609 124.874 92.7591 124.917C92.7559 124.991 92.7509 124.9 92.8153 124.764L96.4325 126.471C96.8715 125.542 96.7569 124.53 96.7259 124.01L92.733 124.248ZM87.1858 126.964C88.8786 128.062 90.486 128.493 91.9998 128.433C93.4796 128.375 94.6806 127.853 95.5628 127.384L93.6851 123.852C93.0382 124.196 92.4576 124.412 91.8414 124.436C91.2593 124.459 90.4564 124.318 89.3626 123.609L87.1858 126.964ZM80.9096 114.186C81.6304 117.211 82.2348 119.774 83.0881 121.821C83.9797 123.96 85.1928 125.672 87.1858 126.964L89.3626 123.609C88.2045 122.857 87.4429 121.872 86.7802 120.282C86.0792 118.6 85.5496 116.402 84.8008 113.259L80.9096 114.186ZM80.4676 112.34C80.6225 112.98 80.7687 113.594 80.9096 114.186L84.8008 113.259C84.66 112.668 84.5123 112.048 84.3555 111.399L80.4676 112.34ZM95.1497 102.094C95.2581 101.823 95.3681 101.799 95.074 102.067C94.8517 102.27 94.5135 102.538 94.0523 102.866C93.1354 103.519 91.88 104.308 90.4402 105.16C87.5696 106.858 84.1073 108.721 81.4821 110.099L83.3411 113.641C85.984 112.253 89.5176 110.353 92.4767 108.603C93.9518 107.73 95.3196 106.874 96.3726 106.124C96.8964 105.751 97.3798 105.378 97.7706 105.022C98.0897 104.73 98.6041 104.228 98.8633 103.58L95.1497 102.094ZM84.5022 92.2536C87.7551 94.6856 90.7031 97.1178 92.7107 99.1702C93.723 100.205 94.4191 101.066 94.8055 101.723C95.264 102.502 94.9944 102.482 95.1497 102.094L98.8633 103.58C99.4526 102.108 98.8072 100.636 98.2529 99.6939C97.6264 98.6294 96.6724 97.4999 95.5701 96.3731C93.3486 94.1021 90.2092 91.5261 86.8974 89.05L84.5022 92.2536ZM70.5165 84.0759C74.0054 85.7931 80.1534 89.0022 84.5022 92.2536L86.8974 89.05C82.2297 85.5602 75.7933 82.2148 72.2828 80.4871L70.5165 84.0759ZM48.4967 72.011C53.6198 71.5779 57.6834 72.5085 61.0423 74.4265C64.424 76.3576 67.2367 79.3731 69.7011 83.3374L73.0982 81.2256C70.4021 76.8886 67.1529 73.3097 63.0258 70.953C58.876 68.5833 53.9842 67.5328 48.1598 68.0252L48.4967 72.011ZM30.4253 95.4139C31.3974 89.8164 33.2847 84.1098 36.283 79.7312C39.2556 75.3902 43.2346 72.4558 48.4967 72.011L48.1598 68.0252C41.3958 68.597 36.4395 72.4229 32.9826 77.4713C29.5514 82.4821 27.5151 88.794 26.4843 94.7295L30.4253 95.4139ZM23.6427 94.5744C24.8371 95.1755 26.1052 95.9072 27.3437 96.7347L29.5658 93.4087C28.1887 92.4886 26.7789 91.6747 25.4408 91.0013L23.6427 94.5744ZM24.9396 88.3596C24.9539 88.5579 24.8877 88.9443 24.5431 89.5494C24.2093 90.1356 23.703 90.7707 23.0958 91.4061L25.9877 94.1696C26.7202 93.4031 27.4644 92.5028 28.019 91.5287C28.5629 90.5736 29.0232 89.3749 28.9292 88.0719L24.9396 88.3596ZM21.6915 89.6697C23.0893 91.1001 23.0891 91.1003 23.0889 91.1005C23.0888 91.1006 23.0886 91.1008 23.0885 91.1009C23.0883 91.1011 23.0882 91.1012 23.0881 91.1012C23.088 91.1013 23.0882 91.1012 23.0887 91.1007C23.0896 91.0998 23.0917 91.0977 23.0949 91.0946C23.1014 91.0884 23.1122 91.078 23.1273 91.0636C23.1574 91.035 23.2039 90.991 23.2647 90.9348C23.3865 90.8221 23.5632 90.6623 23.7763 90.4799C24.2138 90.1055 24.7577 89.6765 25.2727 89.3578C25.5298 89.1987 25.7388 89.0928 25.8925 89.0329C26.0664 88.9652 26.0557 89.0012 25.914 88.9943C25.7048 88.9841 25.3528 88.8792 25.0943 88.5654C24.8904 88.3178 24.9246 88.1523 24.9396 88.3596L28.9292 88.0719C28.8824 87.4221 28.7064 86.6592 28.182 86.0225C27.603 85.3195 26.8201 85.0335 26.1077 84.999C25.463 84.9677 24.8769 85.1359 24.4412 85.3055C23.9853 85.483 23.5506 85.7195 23.1678 85.9564C22.4029 86.4298 21.6824 87.0071 21.1755 87.4409C20.9164 87.6626 20.7009 87.8575 20.5485 87.9984C20.4722 88.069 20.4112 88.1266 20.368 88.1677C20.3464 88.1883 20.3292 88.2049 20.3167 88.2169C20.3104 88.2229 20.3054 88.2279 20.3015 88.2316C20.2996 88.2335 20.2979 88.2351 20.2966 88.2363C20.296 88.237 20.2954 88.2376 20.2949 88.2381C20.2946 88.2383 20.2943 88.2386 20.2942 88.2387C20.2939 88.239 20.2936 88.2393 21.6915 89.6697ZM18.9306 87.5147C19.0021 87.3195 18.9893 87.4881 18.7251 87.6698C18.3901 87.9002 18.0228 87.904 17.8189 87.856C17.6808 87.8236 17.6804 87.7861 17.8289 87.8991C17.9601 87.999 18.1319 88.1585 18.3351 88.3823C18.7422 88.8307 19.1467 89.393 19.464 89.8735C19.6186 90.1077 19.7443 90.31 19.8304 90.4519C19.8732 90.5226 19.9059 90.5778 19.9269 90.6136C19.9374 90.6316 19.945 90.6446 19.9495 90.6524C19.9517 90.6562 19.9531 90.6588 19.9538 90.6599C19.9541 90.6605 19.9543 90.6607 19.9542 90.6606C19.9541 90.6605 19.9541 90.6604 19.9539 90.6601C19.9538 90.66 19.9537 90.6597 19.9537 90.6597C19.9535 90.6594 19.9533 90.6591 21.6915 89.6697C23.4296 88.6803 23.4294 88.6799 23.4292 88.6795C23.4291 88.6794 23.4289 88.679 23.4287 88.6787C23.4283 88.6781 23.4279 88.6774 23.4275 88.6766C23.4266 88.675 23.4254 88.673 23.4241 88.6707C23.4214 88.666 23.4179 88.6599 23.4136 88.6524C23.4049 88.6373 23.3929 88.6167 23.3778 88.5909C23.3476 88.5395 23.3049 88.4673 23.251 88.3784C23.1434 88.2009 22.9899 87.9542 22.8021 87.6696C22.4344 87.1128 21.9011 86.3592 21.2964 85.6933C20.9937 85.36 20.6411 85.0128 20.2518 84.7164C19.8799 84.4333 19.3628 84.11 18.7345 83.9622C18.0401 83.799 17.2088 83.858 16.4584 84.374C15.7787 84.8415 15.3992 85.5263 15.175 86.1379L18.9306 87.5147ZM19.6403 90.5105C19.3004 89.8068 19.0585 89.1514 18.9434 88.5885C18.8258 88.0132 18.8701 87.6796 18.9306 87.5147L15.175 86.1379C14.7672 87.2502 14.8227 88.4028 15.0245 89.3897C15.2288 90.3891 15.6143 91.3721 16.0385 92.2503L19.6403 90.5105ZM22.6901 100.942C21.1231 97.9359 20.2727 95.777 19.8798 94.2824C19.4598 92.6846 19.6604 92.2094 19.6362 92.2587L16.0426 90.5021C15.4026 91.8113 15.5397 93.5057 16.0112 95.2994C16.5099 97.1962 17.506 99.6505 19.1431 102.791L22.6901 100.942ZM29.5535 110.389C27.6738 108.434 24.7836 104.959 22.6901 100.942L19.1431 102.791C21.4663 107.248 24.6211 111.03 26.6697 113.161L29.5535 110.389ZM38.3016 134.151C32.7605 127.533 30.893 118.854 30.0999 111.559L26.1233 111.991C26.9388 119.493 28.9095 129.164 35.2346 136.719L38.3016 134.151ZM35.7001 137.195L36.1676 137.343L37.3686 133.527L36.901 133.38L35.7001 137.195ZM37.9906 149.325L38.3 135.332L34.301 135.243L33.9916 149.236L37.9906 149.325ZM35.8363 151.312L36.2204 151.267L35.7618 147.294L35.3777 147.338L35.8363 151.312ZM33.5108 154.118C33.4095 152.71 34.4347 151.473 35.8362 151.312L35.3777 147.338C31.848 147.745 29.2659 150.861 29.5211 154.405L33.5108 154.118ZM34.6058 155.289C34.0102 155.206 33.554 154.717 33.5108 154.118L29.5211 154.405C29.6998 156.885 31.5862 158.904 34.0488 159.25L34.6058 155.289ZM43.7827 156.58L34.6058 155.289L34.0488 159.25L43.2257 160.541L43.7827 156.58ZM49.2272 152.478C48.8565 155.114 46.4189 156.95 43.7827 156.58L43.2257 160.541C48.0496 161.219 52.51 157.858 53.1883 153.035L49.2272 152.478ZM50.3083 144.789L49.2272 152.478L53.1883 153.035L54.2693 145.346L50.3083 144.789ZM56.2836 143.918C55.069 143.7 53.9146 143.439 52.8171 143.139L51.7605 146.997C52.9777 147.33 54.2492 147.617 55.5774 147.856L56.2836 143.918Z" fill="white" mask="url(#path-1-outside-1_324_2870)"/>
<path d="M51.2059 152.757L52.9263 140.522L36.2283 135.589L35.9893 149.281L35.6052 149.325C33.1396 149.61 31.3359 151.786 31.5142 154.262C31.6251 155.802 32.7964 157.056 34.3255 157.271L43.5024 158.561C47.2325 159.086 50.6814 156.487 51.2059 152.757Z" fill="#B4B4C6"/>
<path d="M20.915 101.867C23.6633 107.14 27.6724 111.47 29.3334 112.976C32.5976 110.393 38.8914 104.9 37.9535 103.592C36.7812 101.957 34.374 99.3055 29.4692 95.7766C24.5644 92.2477 18.8103 90.0598 17.9879 91.1359C17.1654 92.2121 17.4795 95.2763 20.915 101.867Z" fill="#9DA9F7"/>
<path d="M29.3344 112.976C27.6734 111.47 23.6643 107.14 20.916 101.867C17.4806 95.2763 17.1664 92.2121 17.9889 91.1359C18.8113 90.0597 24.5654 92.2476 29.4702 95.7765C34.3751 99.3055 36.7822 101.957 37.9546 103.592" stroke="#19191C" stroke-linecap="round"/>
<path d="M85.6989 90.6523C79.1342 85.7442 68.787 81.0341 68.787 81.0341L78.4497 113.914C78.4497 113.914 96.1376 105.006 97.0056 102.838C97.8735 100.669 92.2635 95.5604 85.6989 90.6523Z" fill="#9DA9F7"/>
<path fill-rule="evenodd" clip-rule="evenodd" d="M94.1219 132.031C91.4266 135.314 79.3041 150.081 55.9283 145.888C31.3202 141.473 28.6055 119.721 27.7225 107.375C26.8395 95.0282 31.6137 71.4314 48.3261 70.0187C65.0385 68.6059 72.4662 80.7402 78.3685 97.8866C80.6809 104.604 81.9063 109.748 82.853 113.723C84.3227 119.892 85.1209 123.243 88.272 125.287C91.0593 127.095 93.0937 126.431 94.6229 125.618C94.7951 125.252 94.7704 124.838 94.7282 124.13C94.6056 122.074 94.3353 117.542 98.3057 104.548C100.959 95.8655 103.613 90.2893 105.82 86.6541C107.081 84.576 109.836 85.6643 109.705 88.0918L108.738 106.015L103.392 108.946L109.146 108.566C109.146 108.566 109.358 116.96 108.506 118.96C107.654 120.96 102.978 123.197 102.978 123.197C102.978 123.197 105.29 125.887 107.885 127.434C109.525 128.411 109.225 130.755 107.317 130.784C106.239 130.8 105.121 130.755 104.056 130.605C103.803 130.57 103.555 130.534 103.311 130.5C99.323 129.933 96.5835 129.544 95.0315 130.947C94.837 131.181 94.6479 131.404 94.4698 131.612C94.3798 131.716 94.2639 131.858 94.1219 132.031Z" fill="#9DA9F7"/>
<path d="M50.0839 79.5206C32.5314 74.185 30.2699 92.9433 28.5194 105.393C28.2881 107.038 28.1116 108.727 27.9767 110.445C29.1695 123.031 33.2529 141.82 55.9283 145.887C71.6923 148.715 82.3384 142.92 88.4269 137.84C84.8853 138.132 79.0454 136.732 69.4713 130.843C47.5242 117.344 67.6366 84.8566 50.0839 79.5206Z" fill="#F9F9F9"/>
<path d="M30.3838 94.8555C32.7108 86.1554 42.956 87.9315 47.0588 89.3495C51.1616 90.7676 56.2679 94.889 57.6918 100.051C58.3766 89.8794 57.283 82.7179 50.3713 79.6536C37.936 74.1404 33.3433 83.7906 30.3838 94.8555Z" fill="#19191C"/>
<path fill-rule="evenodd" clip-rule="evenodd" d="M51.3898 80.1681C50.5208 80.9885 49.1534 82.1175 48.0047 82.5556C46.7752 83.0244 47.2739 80.5795 47.8491 78.7348C48.6578 78.9624 49.4979 79.2667 50.3706 79.6537C50.7253 79.8109 51.0648 79.9826 51.3898 80.1681ZM52.0512 80.578C50.9049 82.1843 49.4446 84.6782 50.8501 84.5718C52.0812 84.4786 53.7266 83.7897 54.8049 83.2528C54.0465 82.2081 53.1385 81.3076 52.0512 80.578ZM55.0205 83.5596C53.6189 84.9479 51.5214 87.4067 52.9977 87.519C54.0932 87.6023 55.5872 87.2709 56.7148 86.9385C56.2632 85.7015 55.7067 84.5679 55.0205 83.5596ZM56.8945 87.4522C55.1426 88.395 52.8376 89.9223 54.1195 90.424C55.1216 90.8162 56.6129 90.9416 57.7841 90.9598C57.5532 89.7245 57.2621 88.5506 56.8945 87.4522ZM33.0262 86.3099C34.4177 87.2845 35.8911 88.0317 35.8819 86.965C35.8726 85.8751 35.3873 84.4124 34.9432 83.3329C34.2486 84.2417 33.6115 85.2422 33.0262 86.3099ZM39.0547 79.5877C40.1831 81.2047 41.8955 83.2207 42.282 81.9647C42.5918 80.9581 42.5806 79.4919 42.4897 78.351C41.2492 78.5579 40.1071 78.9829 39.0547 79.5877ZM43.4787 78.2344C43.5339 80.1749 43.8587 82.7124 44.877 81.8766C45.81 81.1107 46.724 79.6339 47.2784 78.5856C45.9236 78.2588 44.6591 78.1515 43.4787 78.2344ZM38.5218 79.9141C37.5055 80.5759 36.5765 81.409 35.7265 82.376C37.0735 83.7328 38.8295 85.1578 38.999 83.9456C39.1642 82.7646 38.8294 81.0622 38.5218 79.9141Z" fill="#F9F9F9"/>
<path d="M58.1502 100.349C58.2643 90.593 58.3644 82.0364 50.0857 79.5198C37.2646 75.6223 32.602 84.5797 30.3376 94.544" stroke="#19191C" stroke-linecap="round"/>
<circle cx="6.22593" cy="6.22593" r="5.72593" transform="matrix(-0.990259 -0.13924 -0.13924 0.990259 73.2402 94.6099)" fill="#F9F9F9" stroke="#19191C"/>
<path d="M68.1724 94.9524C66.7024 93.6669 64.0577 94.0234 62.2696 96.0682C60.4814 98.113 60.4809 100.782 61.9509 102.067C63.4209 103.353 66.0655 102.996 67.8537 100.951C69.6417 98.9064 69.6424 96.2379 68.1724 94.9524Z" fill="black" stroke="#19191C"/>
<ellipse cx="2.09598" cy="2.60234" rx="2.09598" ry="2.60234" transform="matrix(0.0419958 0.999118 0.999118 -0.0419958 66.1201 97.0518)" fill="#F9F9F9"/>
<ellipse cx="1.13846" cy="1.41349" rx="1.13846" ry="1.41349" transform="matrix(0.485235 0.874384 0.874384 -0.485235 61.9502 99.8198)" fill="#F9F9F9"/>
<ellipse cx="0.631652" cy="0.784248" rx="0.631652" ry="0.784248" transform="matrix(0.485235 0.874384 0.874384 -0.485235 63.124 96.8384)" fill="#F9F9F9"/>
<path opacity="0.4" d="M68.273 107.702C71.7099 107.808 74.5822 105.108 74.6885 101.671" stroke="#6043AF" stroke-linecap="round"/>
<path opacity="0.4" d="M71.1103 109.021C73.7711 109.103 75.9948 107.013 76.0771 104.352" stroke="#6043AF" stroke-linecap="round"/>
<path d="M59.7119 105.18C65.0623 107.774 69.5072 111.655 71.0608 113.272C68.5739 116.609 63.2662 123.06 61.9316 122.161C60.2633 121.037 57.5427 118.708 53.8726 113.908C50.2025 109.107 47.8482 103.419 48.9 102.566C49.9518 101.713 53.0238 101.937 59.7119 105.18Z" fill="#9DA9F7"/>
<path d="M78.2578 142.41L71.0859 132.35L56.2272 140.813L64.8257 150.361L64.5776 150.657C62.9845 152.56 63.1738 155.381 65.0068 157.054C66.1471 158.095 67.8597 158.199 69.117 157.302L76.6631 151.923C79.7303 149.737 80.4442 145.478 78.2578 142.41Z" fill="#F9F9F9"/>
<path d="M71.0854 132.35L78.2573 142.41C80.4438 145.477 79.7298 149.736 76.6626 151.923L69.1165 157.302C67.8592 158.198 66.1466 158.095 65.0063 157.054C63.1733 155.381 62.984 152.56 64.5771 150.657L64.8252 150.36L54.4706 138.111" stroke="#19191C" stroke-linecap="round"/>
<path d="M21.69 89.6701C21.69 89.6701 18.2344 83.5996 17.0513 86.8267C15.8683 90.0538 20.8074 95.9469 20.8074 95.9469L21.69 89.6701Z" fill="#FF5B97"/>
<path d="M21.69 89.6701C21.69 89.6701 26.6857 84.7879 26.933 88.2162C27.1802 91.6444 20.8074 95.9469 20.8074 95.9469L21.69 89.6701Z" fill="#FF5B97"/>
<path d="M29.0439 119.588C29.8125 126.092 35.7223 140.32 53.2128 145.203" stroke="black"/>
<path d="M79.4853 66.0891C84.134 66.7428 87.3726 71.0412 86.7189 75.6898C86.0653 80.3385 81.7669 83.5772 77.1182 82.9235C72.4695 82.2699 69.2309 77.9715 69.8846 73.3228C70.5382 68.6741 74.8366 65.4355 79.4853 66.0891ZM79.0676 69.0599C76.0596 68.6369 73.2783 70.7325 72.8553 73.7405C72.4324 76.7485 74.528 79.5298 77.5359 79.9527C80.5439 80.3757 83.3252 78.2801 83.7482 75.2721C84.1711 72.2641 82.0755 69.4828 79.0676 69.0599Z" fill="#B4B4C6" stroke="white"/>
<path d="M69.2661 113.629C67.8709 111.582 62.9856 106.586 54.6055 102.984" stroke="black"/>
<path fill-rule="evenodd" clip-rule="evenodd" d="M120.062 63.4695C129.841 61.6783 136.316 52.2993 134.525 42.5209C132.733 32.7425 123.354 26.2675 113.576 28.0586C103.798 29.8497 97.3225 39.2287 99.1137 49.0072C100.905 58.7856 110.284 65.2606 120.062 63.4695ZM121.143 69.3713C134.181 66.9831 142.815 54.4778 140.426 41.4399C138.038 28.4019 125.533 19.7686 112.495 22.1568C99.457 24.545 90.8237 37.0503 93.2119 50.0882C95.6 63.1261 108.105 71.7594 121.143 69.3713Z" fill="#B4B4C6" stroke="white" stroke-width="2"/>
<path d="M93.6612 53.3974C95.9652 51.6404 98.4955 50.6701 100.707 50.5016C102.924 50.3328 104.751 50.9681 105.786 52.3256C106.947 53.8487 107.159 56.6219 105.524 58.817C104.584 58.0784 103.65 57.1161 103.138 56.4931C103.294 56.252 103.46 55.9683 103.566 55.6715C103.725 55.2273 103.789 54.6542 103.4 54.1448C103.191 53.8709 102.54 53.3705 100.934 53.4929C99.3813 53.6112 97.3921 54.3251 95.4804 55.7829C93.5686 57.2408 92.354 58.9703 91.8289 60.4368C91.2861 61.9526 91.5963 62.7133 91.8052 62.9872C92.0141 63.2611 92.6656 63.7615 94.271 63.6392C94.8608 63.5942 95.7041 63.3357 96.5267 63.0219C97.2215 62.7568 97.94 62.434 98.5483 62.125C98.8919 62.5215 99.3406 63.0205 99.7889 63.4828C100.075 63.7779 100.366 64.0627 100.632 64.298C100.673 64.3349 100.716 64.3713 100.758 64.4069C98.475 66.0112 96.1833 66.7369 94.219 66.7774C92.0933 66.8211 90.3827 66.0692 89.4197 64.8064C88.3844 63.4488 88.255 61.5191 89.0045 59.4258C89.752 57.3379 91.3571 55.1545 93.6612 53.3974Z" fill="#B4B4C6" stroke="white"/>
<path d="M133.16 62.832C131.783 60.2825 129.876 58.3569 127.93 57.2934C125.979 56.2272 124.053 56.0544 122.551 56.8657C120.865 57.7758 119.531 60.2162 120.118 62.8897C121.279 62.6035 122.526 62.1107 123.249 61.7536C123.206 61.4698 123.172 61.1429 123.197 60.8285C123.235 60.3582 123.412 59.8098 123.976 59.5053C124.279 59.3417 125.079 59.1538 126.492 59.9259C127.859 60.6729 129.378 62.1421 130.52 64.2575C131.663 66.3729 132.058 68.4491 131.933 70.0017C131.804 71.6066 131.208 72.1723 130.905 72.336C130.602 72.4996 129.802 72.6876 128.39 71.9154C127.871 71.6317 127.208 71.049 126.588 70.4245C126.064 69.897 125.542 69.3072 125.114 68.7752C124.638 68.9951 124.024 69.2653 123.425 69.5022C123.043 69.6534 122.661 69.7934 122.321 69.8983C122.268 69.9148 122.215 69.9305 122.162 69.9458C123.582 72.3472 125.372 73.9517 127.145 74.797C129.065 75.7115 130.933 75.7302 132.331 74.9756C133.833 74.1643 134.745 72.4588 134.923 70.2426C135.101 68.032 134.537 65.3816 133.16 62.832Z" fill="#B4B4C6" stroke="white"/>
<path d="M95.8966 60.3409C96.7887 61.5299 96.7888 63.3438 95.8622 65.4237C94.9432 67.486 93.1535 69.6978 90.6941 71.5433C88.2344 73.3889 85.61 74.4895 83.3729 74.7952C81.117 75.1034 79.3761 74.5956 78.4839 73.4066C78.0628 72.8453 77.8419 72.1535 77.8206 71.3576C77.8102 70.9694 77.848 70.5567 77.933 70.1244L78.118 69.4483C78.1288 69.4462 78.1399 69.4433 78.1518 69.4413C78.2741 69.4204 78.4331 69.4071 78.626 69.4029C79.0117 69.3945 79.4967 69.4247 80.0242 69.4879C80.4201 69.5354 80.7855 69.6746 81.0747 69.8303C81.2231 69.9102 81.3414 69.9883 81.4267 70.0521C81.4211 70.0687 81.417 70.0872 81.4099 70.1062C81.3796 70.188 81.2943 70.3892 81.2536 70.5177C81.2096 70.6565 81.1441 70.908 81.2405 71.1673C81.3517 71.4665 81.6105 71.617 81.8609 71.6883C82.2158 71.7892 82.7565 71.8396 83.4978 71.7383C84.9997 71.5331 86.9916 70.7467 88.9779 69.2562C90.9642 67.7657 92.2762 66.0731 92.8931 64.6885C93.1976 64.005 93.3004 63.4718 93.3027 63.1028C93.3043 62.8381 93.2559 62.6594 93.1914 62.5331L93.122 62.4228C92.9555 62.201 92.72 62.1005 92.5255 62.0524C92.3297 62.0041 92.1236 61.9954 91.945 61.9996C91.8068 62.0029 91.6684 62.0143 91.545 62.0263C91.5576 61.7481 91.5976 61.3741 91.6789 60.9747C91.7683 60.5359 91.9023 60.0855 92.0902 59.7053C92.254 59.3738 92.4429 59.1267 92.6486 58.9737L93.5167 58.9803C94.5612 59.1814 95.3715 59.6413 95.8966 60.3409ZM88.9713 59.4523C88.8598 59.8382 88.7559 60.2697 88.6789 60.7107C88.5641 61.3681 88.5003 62.0826 88.5549 62.7145C87.671 63.1437 86.1897 63.902 85.4032 64.4922C84.4205 65.2295 83.6052 66.0144 82.9578 66.7849L82.6684 67.1266C82.0993 66.8346 81.4375 66.5484 80.803 66.3409C80.421 66.216 80.0396 66.1154 79.6889 66.0585C80.7566 64.5616 82.1521 63.3568 83.687 62.2051C85.355 60.9535 87.1019 60.0431 88.7544 59.4918L88.9713 59.4523Z" fill="#B4B4C6" stroke="white"/>
<mask id="path-30-outside-2_324_2870" maskUnits="userSpaceOnUse" x="114.507" y="78.0337" width="59" height="59" fill="black">
<rect fill="white" x="114.507" y="78.0337" width="59" height="59"/>
<path d="M126.233 87.4552C125.839 87.8686 125.52 88.3217 125.22 88.8056C124.23 90.6021 123.821 92.6211 124.402 94.6277C124.47 94.855 124.547 95.0794 124.632 95.3011C124.716 95.5227 124.809 95.7409 124.91 95.9556C125.011 96.1702 125.12 96.3808 125.237 96.5874C125.353 96.794 125.478 96.9959 125.609 97.1933C125.671 97.2878 125.751 97.384 125.831 97.4804C125.938 97.6096 126.046 97.7394 126.112 97.8662C126.185 98.008 126.16 98.0783 126.116 98.1981C126.109 98.2185 126.101 98.2404 126.093 98.2642C125.643 98.4029 125.113 98.3586 124.6 98.3156C124.344 98.2942 124.092 98.2732 123.856 98.2754C120.991 98.3023 118.673 99.5937 117.31 102.136C116.461 103.719 116.277 105.738 116.797 107.455C117.377 109.372 118.619 110.904 120.39 111.84C120.766 112.038 121.447 112.185 122.117 112.318C122.523 112.728 122.982 113.091 123.489 113.401C123.374 113.505 123.251 113.606 123.129 113.705C122.925 113.873 122.728 114.035 122.593 114.189C120.575 116.499 119.934 119.795 121.178 122.636C121.228 122.746 121.279 122.854 121.334 122.961C121.388 123.068 121.445 123.173 121.505 123.278C121.564 123.382 121.626 123.484 121.691 123.586C121.755 123.687 121.823 123.786 121.892 123.884C121.962 123.982 122.033 124.078 122.108 124.172C122.182 124.266 122.258 124.359 122.337 124.449C122.416 124.54 122.497 124.629 122.58 124.715C122.663 124.802 122.748 124.886 122.835 124.969C122.922 125.051 123.012 125.131 123.103 125.209C123.194 125.287 123.287 125.363 123.382 125.437C123.477 125.51 123.573 125.581 123.672 125.65C123.77 125.719 123.87 125.785 123.972 125.849C124.073 125.913 124.176 125.974 124.281 126.033C124.386 126.092 124.492 126.148 124.599 126.201C124.706 126.255 124.815 126.306 124.925 126.354C125.035 126.402 125.146 126.448 125.258 126.491C125.632 126.632 126.018 126.743 126.411 126.823C126.479 126.886 126.549 126.948 126.62 127.009C126.711 127.087 126.804 127.163 126.899 127.236C126.994 127.31 127.09 127.381 127.189 127.45C127.287 127.518 127.387 127.585 127.489 127.648C127.59 127.712 127.693 127.774 127.798 127.833C127.903 127.891 128.009 127.947 128.116 128.001C128.223 128.055 128.332 128.106 128.442 128.154C128.552 128.202 128.663 128.248 128.775 128.29C130.435 128.919 132.331 128.944 133.986 128.293C134.334 129.271 134.911 130.135 135.689 130.875C136.889 132.215 140.066 134.751 143.716 134.735C144.148 134.771 144.588 134.77 145.034 134.729C146.914 134.556 148.767 133.509 149.953 132.055C150.942 130.844 151.563 129.171 151.578 127.604C151.58 127.419 151.557 127.226 151.534 127.033L151.524 126.946C153.188 128.076 156.085 129.612 158.568 129.522L158.544 129.471C160.094 129.446 161.77 128.918 162.953 127.953C164.469 126.595 165.524 124.802 165.625 122.735C165.631 122.633 165.634 122.531 165.635 122.429C165.636 122.327 165.634 122.225 165.631 122.123C165.627 122.021 165.622 121.919 165.614 121.817C165.605 121.715 165.595 121.614 165.583 121.512C165.57 121.411 165.555 121.31 165.538 121.209C165.521 121.109 165.502 121.009 165.48 120.909C165.459 120.809 165.435 120.71 165.409 120.611C165.383 120.512 165.355 120.414 165.325 120.316C165.295 120.219 165.262 120.122 165.228 120.026C165.193 119.93 165.156 119.835 165.117 119.74C165.079 119.646 165.038 119.552 164.995 119.46C164.952 119.367 164.907 119.276 164.86 119.185C164.813 119.094 164.763 119.005 164.712 118.917C164.661 118.828 164.608 118.741 164.553 118.655C164.499 118.569 164.442 118.484 164.383 118.4C164.324 118.317 164.264 118.235 164.202 118.154C164.05 117.959 163.886 117.772 163.721 117.584C163.489 117.32 163.258 117.056 163.062 116.773C163.374 116.523 164.049 116.456 164.648 116.397C164.942 116.367 165.218 116.34 165.422 116.293C168.529 115.587 170.719 113.047 171.083 109.892C171.097 109.77 171.107 109.647 171.114 109.525C171.122 109.402 171.126 109.279 171.127 109.156C171.129 109.034 171.127 108.911 171.122 108.788C171.117 108.665 171.109 108.543 171.098 108.42C171.087 108.298 171.073 108.176 171.056 108.054C171.039 107.932 171.019 107.811 170.996 107.69C170.973 107.57 170.947 107.45 170.918 107.33C170.889 107.211 170.857 107.092 170.822 106.974C170.787 106.857 170.749 106.74 170.709 106.624C170.668 106.508 170.625 106.393 170.578 106.279C170.532 106.165 170.483 106.053 170.431 105.941C170.379 105.83 170.324 105.72 170.266 105.611C170.209 105.503 170.149 105.396 170.086 105.29C170.023 105.184 169.958 105.08 169.89 104.978C169.822 104.876 169.751 104.775 169.679 104.676C169.606 104.577 169.53 104.48 169.453 104.385C169.129 103.985 168.756 103.615 168.346 103.287C167.872 102.864 167.404 102.493 166.948 102.169C164.86 100.684 166.764 98.5558 166.726 98.558C167.857 96.2171 167.662 93.3118 166.107 91.1786C165.835 90.8056 165.525 90.4529 165.184 90.1282C163.211 87.8903 159.721 86.7101 158.182 86.3946C159.146 86.6167 159.973 87.0208 160.672 87.5201C159.773 86.9029 158.749 86.4697 157.688 86.3127C156.971 86.2064 156.175 86.2491 155.425 86.3917C155.055 85.362 154.449 84.4523 153.431 83.5662C153.343 83.4906 153.253 83.4173 153.162 83.3461C153.07 83.2748 152.977 83.2059 152.882 83.1392C152.787 83.0725 152.691 83.0081 152.593 82.9461C152.569 82.9311 152.545 82.9162 152.522 82.9014C149.991 81.0319 148.101 80.2688 146.462 80.135C147.386 80.2948 148.184 80.6095 148.867 81.0192C148.837 81.0018 148.808 80.9846 148.778 80.9676C148.677 80.9104 148.575 80.8557 148.471 80.8035C148.368 80.7513 148.263 80.7016 148.157 80.6545C148.051 80.6073 147.944 80.5627 147.836 80.5207C147.728 80.4786 147.619 80.4393 147.509 80.4027C147.399 80.366 147.288 80.3319 147.176 80.3006C147.065 80.2693 146.952 80.2407 146.839 80.2148C146.726 80.189 146.613 80.1658 146.498 80.1454C146.384 80.1251 146.27 80.1075 146.155 80.0926C146.04 80.0778 145.924 80.0658 145.809 80.0566C145.693 80.0473 145.577 80.0408 145.461 80.0372C145.345 80.0336 145.23 80.0328 145.114 80.0347C144.998 80.0367 144.882 80.0415 144.766 80.0491C142.825 80.1938 141.194 81.1302 139.942 82.6139C139.868 82.7033 139.796 82.7945 139.726 82.8873C139.657 82.9803 139.589 83.0748 139.524 83.171C139.459 83.2671 139.397 83.3648 139.337 83.4639C139.276 83.5633 139.219 83.6639 139.163 83.7658C139.108 83.8678 139.055 83.9711 139.005 84.0758C138.955 84.1803 138.907 84.2861 138.862 84.393C138.817 84.4999 138.774 84.6079 138.734 84.7169C138.694 84.8258 138.657 84.9356 138.622 85.0463C138.588 85.1572 138.556 85.2688 138.527 85.3811C138.498 85.4935 138.471 85.6065 138.448 85.72C138.424 85.8337 138.403 85.9478 138.385 86.0624C138.376 86.1204 138.367 86.1785 138.36 86.2368C132.049 84.7384 130.01 85.2453 129.552 85.4577C129.579 85.4577 129.606 85.4589 129.635 85.4612C128.35 85.7977 127.17 86.472 126.233 87.4552Z"/>
</mask>
<path d="M126.233 87.4552C125.839 87.8686 125.52 88.3217 125.22 88.8056C124.23 90.6021 123.821 92.6211 124.402 94.6277C124.47 94.855 124.547 95.0794 124.632 95.3011C124.716 95.5227 124.809 95.7409 124.91 95.9556C125.011 96.1702 125.12 96.3808 125.237 96.5874C125.353 96.794 125.478 96.9959 125.609 97.1933C125.671 97.2878 125.751 97.384 125.831 97.4804C125.938 97.6096 126.046 97.7394 126.112 97.8662C126.185 98.008 126.16 98.0783 126.116 98.1981C126.109 98.2185 126.101 98.2404 126.093 98.2642C125.643 98.4029 125.113 98.3586 124.6 98.3156C124.344 98.2942 124.092 98.2732 123.856 98.2754C120.991 98.3023 118.673 99.5937 117.31 102.136C116.461 103.719 116.277 105.738 116.797 107.455C117.377 109.372 118.619 110.904 120.39 111.84C120.766 112.038 121.447 112.185 122.117 112.318C122.523 112.728 122.982 113.091 123.489 113.401C123.374 113.505 123.251 113.606 123.129 113.705C122.925 113.873 122.728 114.035 122.593 114.189C120.575 116.499 119.934 119.795 121.178 122.636C121.228 122.746 121.279 122.854 121.334 122.961C121.388 123.068 121.445 123.173 121.505 123.278C121.564 123.382 121.626 123.484 121.691 123.586C121.755 123.687 121.823 123.786 121.892 123.884C121.962 123.982 122.033 124.078 122.108 124.172C122.182 124.266 122.258 124.359 122.337 124.449C122.416 124.54 122.497 124.629 122.58 124.715C122.663 124.802 122.748 124.886 122.835 124.969C122.922 125.051 123.012 125.131 123.103 125.209C123.194 125.287 123.287 125.363 123.382 125.437C123.477 125.51 123.573 125.581 123.672 125.65C123.77 125.719 123.87 125.785 123.972 125.849C124.073 125.913 124.176 125.974 124.281 126.033C124.386 126.092 124.492 126.148 124.599 126.201C124.706 126.255 124.815 126.306 124.925 126.354C125.035 126.402 125.146 126.448 125.258 126.491C125.632 126.632 126.018 126.743 126.411 126.823C126.479 126.886 126.549 126.948 126.62 127.009C126.711 127.087 126.804 127.163 126.899 127.236C126.994 127.31 127.09 127.381 127.189 127.45C127.287 127.518 127.387 127.585 127.489 127.648C127.59 127.712 127.693 127.774 127.798 127.833C127.903 127.891 128.009 127.947 128.116 128.001C128.223 128.055 128.332 128.106 128.442 128.154C128.552 128.202 128.663 128.248 128.775 128.29C130.435 128.919 132.331 128.944 133.986 128.293C134.334 129.271 134.911 130.135 135.689 130.875C136.889 132.215 140.066 134.751 143.716 134.735C144.148 134.771 144.588 134.77 145.034 134.729C146.914 134.556 148.767 133.509 149.953 132.055C150.942 130.844 151.563 129.171 151.578 127.604C151.58 127.419 151.557 127.226 151.534 127.033L151.524 126.946C153.188 128.076 156.085 129.612 158.568 129.522L158.544 129.471C160.094 129.446 161.77 128.918 162.953 127.953C164.469 126.595 165.524 124.802 165.625 122.735C165.631 122.633 165.634 122.531 165.635 122.429C165.636 122.327 165.634 122.225 165.631 122.123C165.627 122.021 165.622 121.919 165.614 121.817C165.605 121.715 165.595 121.614 165.583 121.512C165.57 121.411 165.555 121.31 165.538 121.209C165.521 121.109 165.502 121.009 165.48 120.909C165.459 120.809 165.435 120.71 165.409 120.611C165.383 120.512 165.355 120.414 165.325 120.316C165.295 120.219 165.262 120.122 165.228 120.026C165.193 119.93 165.156 119.835 165.117 119.74C165.079 119.646 165.038 119.552 164.995 119.46C164.952 119.367 164.907 119.276 164.86 119.185C164.813 119.094 164.763 119.005 164.712 118.917C164.661 118.828 164.608 118.741 164.553 118.655C164.499 118.569 164.442 118.484 164.383 118.4C164.324 118.317 164.264 118.235 164.202 118.154C164.05 117.959 163.886 117.772 163.721 117.584C163.489 117.32 163.258 117.056 163.062 116.773C163.374 116.523 164.049 116.456 164.648 116.397C164.942 116.367 165.218 116.34 165.422 116.293C168.529 115.587 170.719 113.047 171.083 109.892C171.097 109.77 171.107 109.647 171.114 109.525C171.122 109.402 171.126 109.279 171.127 109.156C171.129 109.034 171.127 108.911 171.122 108.788C171.117 108.665 171.109 108.543 171.098 108.42C171.087 108.298 171.073 108.176 171.056 108.054C171.039 107.932 171.019 107.811 170.996 107.69C170.973 107.57 170.947 107.45 170.918 107.33C170.889 107.211 170.857 107.092 170.822 106.974C170.787 106.857 170.749 106.74 170.709 106.624C170.668 106.508 170.625 106.393 170.578 106.279C170.532 106.165 170.483 106.053 170.431 105.941C170.379 105.83 170.324 105.72 170.266 105.611C170.209 105.503 170.149 105.396 170.086 105.29C170.023 105.184 169.958 105.08 169.89 104.978C169.822 104.876 169.751 104.775 169.679 104.676C169.606 104.577 169.53 104.48 169.453 104.385C169.129 103.985 168.756 103.615 168.346 103.287C167.872 102.864 167.404 102.493 166.948 102.169C164.86 100.684 166.764 98.5558 166.726 98.558C167.857 96.2171 167.662 93.3118 166.107 91.1786C165.835 90.8056 165.525 90.4529 165.184 90.1282C163.211 87.8903 159.721 86.7101 158.182 86.3946C159.146 86.6167 159.973 87.0208 160.672 87.5201C159.773 86.9029 158.749 86.4697 157.688 86.3127C156.971 86.2064 156.175 86.2491 155.425 86.3917C155.055 85.362 154.449 84.4523 153.431 83.5662C153.343 83.4906 153.253 83.4173 153.162 83.3461C153.07 83.2748 152.977 83.2059 152.882 83.1392C152.787 83.0725 152.691 83.0081 152.593 82.9461C152.569 82.9311 152.545 82.9162 152.522 82.9014C149.991 81.0319 148.101 80.2688 146.462 80.135C147.386 80.2948 148.184 80.6095 148.867 81.0192C148.837 81.0018 148.808 80.9846 148.778 80.9676C148.677 80.9104 148.575 80.8557 148.471 80.8035C148.368 80.7513 148.263 80.7016 148.157 80.6545C148.051 80.6073 147.944 80.5627 147.836 80.5207C147.728 80.4786 147.619 80.4393 147.509 80.4027C147.399 80.366 147.288 80.3319 147.176 80.3006C147.065 80.2693 146.952 80.2407 146.839 80.2148C146.726 80.189 146.613 80.1658 146.498 80.1454C146.384 80.1251 146.27 80.1075 146.155 80.0926C146.04 80.0778 145.924 80.0658 145.809 80.0566C145.693 80.0473 145.577 80.0408 145.461 80.0372C145.345 80.0336 145.23 80.0328 145.114 80.0347C144.998 80.0367 144.882 80.0415 144.766 80.0491C142.825 80.1938 141.194 81.1302 139.942 82.6139C139.868 82.7033 139.796 82.7945 139.726 82.8873C139.657 82.9803 139.589 83.0748 139.524 83.171C139.459 83.2671 139.397 83.3648 139.337 83.4639C139.276 83.5633 139.219 83.6639 139.163 83.7658C139.108 83.8678 139.055 83.9711 139.005 84.0758C138.955 84.1803 138.907 84.2861 138.862 84.393C138.817 84.4999 138.774 84.6079 138.734 84.7169C138.694 84.8258 138.657 84.9356 138.622 85.0463C138.588 85.1572 138.556 85.2688 138.527 85.3811C138.498 85.4935 138.471 85.6065 138.448 85.72C138.424 85.8337 138.403 85.9478 138.385 86.0624C138.376 86.1204 138.367 86.1785 138.36 86.2368C132.049 84.7384 130.01 85.2453 129.552 85.4577C129.579 85.4577 129.606 85.4589 129.635 85.4612C128.35 85.7977 127.17 86.472 126.233 87.4552Z" fill="#F587EF"/>
<path d="M126.233 87.4552C125.839 87.8686 125.52 88.3217 125.22 88.8056C124.23 90.6021 123.821 92.6211 124.402 94.6277C124.47 94.855 124.547 95.0794 124.632 95.3011C124.716 95.5227 124.809 95.7409 124.91 95.9556C125.011 96.1702 125.12 96.3808 125.237 96.5874C125.353 96.794 125.478 96.9959 125.609 97.1933C125.671 97.2878 125.751 97.384 125.831 97.4804C125.938 97.6096 126.046 97.7394 126.112 97.8662C126.185 98.008 126.16 98.0783 126.116 98.1981C126.109 98.2185 126.101 98.2404 126.093 98.2642C125.643 98.4029 125.113 98.3586 124.6 98.3156C124.344 98.2942 124.092 98.2732 123.856 98.2754C120.991 98.3023 118.673 99.5937 117.31 102.136C116.461 103.719 116.277 105.738 116.797 107.455C117.377 109.372 118.619 110.904 120.39 111.84C120.766 112.038 121.447 112.185 122.117 112.318C122.523 112.728 122.982 113.091 123.489 113.401C123.374 113.505 123.251 113.606 123.129 113.705C122.925 113.873 122.728 114.035 122.593 114.189C120.575 116.499 119.934 119.795 121.178 122.636C121.228 122.746 121.279 122.854 121.334 122.961C121.388 123.068 121.445 123.173 121.505 123.278C121.564 123.382 121.626 123.484 121.691 123.586C121.755 123.687 121.823 123.786 121.892 123.884C121.962 123.982 122.033 124.078 122.108 124.172C122.182 124.266 122.258 124.359 122.337 124.449C122.416 124.54 122.497 124.629 122.58 124.715C122.663 124.802 122.748 124.886 122.835 124.969C122.922 125.051 123.012 125.131 123.103 125.209C123.194 125.287 123.287 125.363 123.382 125.437C123.477 125.51 123.573 125.581 123.672 125.65C123.77 125.719 123.87 125.785 123.972 125.849C124.073 125.913 124.176 125.974 124.281 126.033C124.386 126.092 124.492 126.148 124.599 126.201C124.706 126.255 124.815 126.306 124.925 126.354C125.035 126.402 125.146 126.448 125.258 126.491C125.632 126.632 126.018 126.743 126.411 126.823C126.479 126.886 126.549 126.948 126.62 127.009C126.711 127.087 126.804 127.163 126.899 127.236C126.994 127.31 127.09 127.381 127.189 127.45C127.287 127.518 127.387 127.585 127.489 127.648C127.59 127.712 127.693 127.774 127.798 127.833C127.903 127.891 128.009 127.947 128.116 128.001C128.223 128.055 128.332 128.106 128.442 128.154C128.552 128.202 128.663 128.248 128.775 128.29C130.435 128.919 132.331 128.944 133.986 128.293C134.334 129.271 134.911 130.135 135.689 130.875C136.889 132.215 140.066 134.751 143.716 134.735C144.148 134.771 144.588 134.77 145.034 134.729C146.914 134.556 148.767 133.509 149.953 132.055C150.942 130.844 151.563 129.171 151.578 127.604C151.58 127.419 151.557 127.226 151.534 127.033L151.524 126.946C153.188 128.076 156.085 129.612 158.568 129.522L158.544 129.471C160.094 129.446 161.77 128.918 162.953 127.953C164.469 126.595 165.524 124.802 165.625 122.735C165.631 122.633 165.634 122.531 165.635 122.429C165.636 122.327 165.634 122.225 165.631 122.123C165.627 122.021 165.622 121.919 165.614 121.817C165.605 121.715 165.595 121.614 165.583 121.512C165.57 121.411 165.555 121.31 165.538 121.209C165.521 121.109 165.502 121.009 165.48 120.909C165.459 120.809 165.435 120.71 165.409 120.611C165.383 120.512 165.355 120.414 165.325 120.316C165.295 120.219 165.262 120.122 165.228 120.026C165.193 119.93 165.156 119.835 165.117 119.74C165.079 119.646 165.038 119.552 164.995 119.46C164.952 119.367 164.907 119.276 164.86 119.185C164.813 119.094 164.763 119.005 164.712 118.917C164.661 118.828 164.608 118.741 164.553 118.655C164.499 118.569 164.442 118.484 164.383 118.4C164.324 118.317 164.264 118.235 164.202 118.154C164.05 117.959 163.886 117.772 163.721 117.584C163.489 117.32 163.258 117.056 163.062 116.773C163.374 116.523 164.049 116.456 164.648 116.397C164.942 116.367 165.218 116.34 165.422 116.293C168.529 115.587 170.719 113.047 171.083 109.892C171.097 109.77 171.107 109.647 171.114 109.525C171.122 109.402 171.126 109.279 171.127 109.156C171.129 109.034 171.127 108.911 171.122 108.788C171.117 108.665 171.109 108.543 171.098 108.42C171.087 108.298 171.073 108.176 171.056 108.054C171.039 107.932 171.019 107.811 170.996 107.69C170.973 107.57 170.947 107.45 170.918 107.33C170.889 107.211 170.857 107.092 170.822 106.974C170.787 106.857 170.749 106.74 170.709 106.624C170.668 106.508 170.625 106.393 170.578 106.279C170.532 106.165 170.483 106.053 170.431 105.941C170.379 105.83 170.324 105.72 170.266 105.611C170.209 105.503 170.149 105.396 170.086 105.29C170.023 105.184 169.958 105.08 169.89 104.978C169.822 104.876 169.751 104.775 169.679 104.676C169.606 104.577 169.53 104.48 169.453 104.385C169.129 103.985 168.756 103.615 168.346 103.287C167.872 102.864 167.404 102.493 166.948 102.169C164.86 100.684 166.764 98.5558 166.726 98.558C167.857 96.2171 167.662 93.3118 166.107 91.1786C165.835 90.8056 165.525 90.4529 165.184 90.1282C163.211 87.8903 159.721 86.7101 158.182 86.3946C159.146 86.6167 159.973 87.0208 160.672 87.5201C159.773 86.9029 158.749 86.4697 157.688 86.3127C156.971 86.2064 156.175 86.2491 155.425 86.3917C155.055 85.362 154.449 84.4523 153.431 83.5662C153.343 83.4906 153.253 83.4173 153.162 83.3461C153.07 83.2748 152.977 83.2059 152.882 83.1392C152.787 83.0725 152.691 83.0081 152.593 82.9461C152.569 82.9311 152.545 82.9162 152.522 82.9014C149.991 81.0319 148.101 80.2688 146.462 80.135C147.386 80.2948 148.184 80.6095 148.867 81.0192C148.837 81.0018 148.808 80.9846 148.778 80.9676C148.677 80.9104 148.575 80.8557 148.471 80.8035C148.368 80.7513 148.263 80.7016 148.157 80.6545C148.051 80.6073 147.944 80.5627 147.836 80.5207C147.728 80.4786 147.619 80.4393 147.509 80.4027C147.399 80.366 147.288 80.3319 147.176 80.3006C147.065 80.2693 146.952 80.2407 146.839 80.2148C146.726 80.189 146.613 80.1658 146.498 80.1454C146.384 80.1251 146.27 80.1075 146.155 80.0926C146.04 80.0778 145.924 80.0658 145.809 80.0566C145.693 80.0473 145.577 80.0408 145.461 80.0372C145.345 80.0336 145.23 80.0328 145.114 80.0347C144.998 80.0367 144.882 80.0415 144.766 80.0491C142.825 80.1938 141.194 81.1302 139.942 82.6139C139.868 82.7033 139.796 82.7945 139.726 82.8873C139.657 82.9803 139.589 83.0748 139.524 83.171C139.459 83.2671 139.397 83.3648 139.337 83.4639C139.276 83.5633 139.219 83.6639 139.163 83.7658C139.108 83.8678 139.055 83.9711 139.005 84.0758C138.955 84.1803 138.907 84.2861 138.862 84.393C138.817 84.4999 138.774 84.6079 138.734 84.7169C138.694 84.8258 138.657 84.9356 138.622 85.0463C138.588 85.1572 138.556 85.2688 138.527 85.3811C138.498 85.4935 138.471 85.6065 138.448 85.72C138.424 85.8337 138.403 85.9478 138.385 86.0624C138.376 86.1204 138.367 86.1785 138.36 86.2368C132.049 84.7384 130.01 85.2453 129.552 85.4577C129.579 85.4577 129.606 85.4589 129.635 85.4612C128.35 85.7977 127.17 86.472 126.233 87.4552Z" stroke="white" stroke-width="4" mask="url(#path-30-outside-2_324_2870)"/>
<path fill-rule="evenodd" clip-rule="evenodd" d="M150.015 81.8945C150.043 81.8995 150.07 81.9046 150.098 81.9098C149.203 81.0543 148.009 80.3521 146.462 80.0845C148.101 80.2183 149.991 80.9813 152.521 82.8509C152.545 82.8656 152.569 82.8805 152.593 82.8955C152.691 82.9575 152.787 83.0219 152.882 83.0887C152.977 83.1553 153.07 83.2243 153.161 83.2956C153.253 83.3667 153.343 83.4401 153.431 83.5156C155.291 85.1362 155.778 86.8355 155.956 89.2035C156.162 89.2741 156.787 88.9617 157.32 88.6958C157.608 88.5516 157.869 88.421 158.022 88.3725C159.003 88.0611 160.183 87.9105 161.205 88.0618C161.284 88.0735 161.363 88.0867 161.442 88.1015C160.604 87.3186 159.527 86.6539 158.181 86.3441C159.721 86.6596 163.211 87.8398 165.184 90.0776C165.524 90.4024 165.834 90.7551 166.106 91.1281C167.661 93.2613 167.857 96.1666 166.726 98.5074L166.747 98.5062C165.524 100.643 166.083 101.427 166.948 102.119C167.403 102.443 167.871 102.813 168.346 103.236C168.756 103.564 169.129 103.935 169.452 104.334C169.53 104.43 169.605 104.527 169.678 104.625C169.751 104.724 169.821 104.825 169.889 104.927C169.957 105.03 170.023 105.134 170.086 105.239C170.148 105.345 170.208 105.452 170.266 105.561C170.323 105.669 170.378 105.779 170.43 105.891C170.482 106.002 170.531 106.115 170.578 106.229C170.624 106.342 170.668 106.457 170.708 106.573C170.749 106.689 170.787 106.806 170.822 106.924C170.857 107.042 170.889 107.16 170.917 107.28C170.946 107.399 170.973 107.519 170.996 107.64C171.019 107.761 171.039 107.882 171.056 108.003C171.073 108.125 171.087 108.247 171.098 108.37C171.109 108.492 171.117 108.615 171.121 108.737C171.126 108.86 171.128 108.983 171.127 109.106C171.126 109.229 171.121 109.352 171.114 109.474C171.107 109.597 171.096 109.719 171.083 109.841C170.719 112.997 168.529 115.536 165.422 116.243C165.218 116.289 164.942 116.317 164.647 116.346C164.049 116.406 163.373 116.473 163.062 116.722C163.257 117.006 163.489 117.27 163.72 117.533C163.885 117.721 164.05 117.909 164.201 118.103C164.263 118.184 164.324 118.266 164.383 118.35C164.441 118.433 164.498 118.518 164.553 118.604C164.608 118.69 164.661 118.778 164.712 118.866C164.763 118.954 164.812 119.044 164.859 119.135C164.906 119.225 164.951 119.317 164.994 119.409C165.037 119.502 165.078 119.595 165.117 119.69C165.156 119.784 165.193 119.88 165.227 119.976C165.262 120.072 165.294 120.168 165.324 120.266C165.355 120.363 165.383 120.462 165.409 120.56C165.435 120.659 165.458 120.758 165.48 120.858C165.501 120.958 165.521 121.058 165.538 121.159C165.555 121.259 165.57 121.36 165.582 121.462C165.595 121.563 165.605 121.665 165.613 121.766C165.621 121.868 165.627 121.97 165.631 122.072C165.634 122.174 165.635 122.276 165.634 122.378C165.633 122.48 165.63 122.582 165.624 122.684C165.523 124.751 164.468 126.544 162.953 127.903C161.77 128.867 160.094 129.396 158.544 129.421L158.567 129.472C156.084 129.561 153.187 128.026 151.524 126.896L151.534 126.982C151.557 127.176 151.58 127.369 151.578 127.554C151.563 129.12 150.941 130.793 149.953 132.005C148.767 133.459 146.913 134.506 145.034 134.678C144.588 134.719 144.147 134.721 143.715 134.684C140 134.701 136.776 132.073 135.626 130.754C136.504 131.168 137.448 131.473 138.383 131.695C137.696 130.762 137.273 129.678 137.151 128.457C137.126 128.2 137.122 127.941 137.118 127.682C137.114 127.425 137.11 127.169 137.085 126.915C137.082 126.879 137.08 126.848 137.078 126.82C137.072 126.706 137.069 126.639 136.958 126.546C136.605 126.493 136.051 126.946 135.625 127.296C135.473 127.42 135.338 127.531 135.233 127.602C134.946 127.795 134.632 127.957 134.318 128.101C132.587 128.894 130.547 128.911 128.774 128.24C128.662 128.197 128.551 128.152 128.441 128.103C128.332 128.055 128.223 128.004 128.116 127.951C128.008 127.897 127.902 127.841 127.798 127.782C127.693 127.723 127.59 127.662 127.488 127.598C127.387 127.534 127.287 127.468 127.188 127.399C127.09 127.33 126.993 127.259 126.898 127.186C126.804 127.112 126.71 127.037 126.619 126.959C126.528 126.88 126.439 126.8 126.352 126.718C126.265 126.635 126.179 126.551 126.096 126.464C126.013 126.378 125.932 126.289 125.854 126.199C125.775 126.108 125.698 126.016 125.624 125.921C125.55 125.827 125.478 125.731 125.409 125.633C125.339 125.535 125.272 125.436 125.208 125.335C125.143 125.233 125.081 125.131 125.021 125.027C124.962 124.922 124.905 124.817 124.85 124.71C124.796 124.603 124.744 124.495 124.695 124.385C123.451 121.544 124.091 118.248 126.11 115.938C126.244 115.784 126.442 115.622 126.646 115.455C126.99 115.172 127.356 114.873 127.475 114.565C127.301 114.394 126.624 114.261 125.884 114.116C125.138 113.97 124.329 113.812 123.907 113.589C122.135 112.653 120.894 111.121 120.314 109.204C119.794 107.487 119.977 105.468 120.826 103.885C122.189 101.343 124.508 100.051 127.373 100.024C127.608 100.022 127.86 100.043 128.116 100.065C128.629 100.108 129.159 100.152 129.609 100.013C129.617 99.9895 129.625 99.9676 129.633 99.9472C129.676 99.8274 129.702 99.7572 129.628 99.6153C129.563 99.4885 129.455 99.3587 129.348 99.2295C129.268 99.1331 129.188 99.0369 129.126 98.9424C128.994 98.745 128.87 98.5431 128.753 98.3365C128.637 98.1299 128.528 97.9193 128.427 97.7047C128.326 97.49 128.233 97.2718 128.148 97.0502C128.063 96.8286 127.987 96.6041 127.919 96.3768C127.337 94.3702 127.746 92.3512 128.736 90.5547C129.037 90.0708 129.355 89.6177 129.749 89.2043C130.735 88.1704 131.989 87.4781 133.352 87.1609C131.716 86.1736 130.223 85.4071 129.552 85.4071C130.01 85.1945 132.054 84.6865 138.384 86.1922V87.8058C139.17 88.2167 139.873 88.7658 140.404 89.4258C140.588 89.6545 140.748 89.9085 140.909 90.1627C141.143 90.5345 141.378 90.9068 141.688 91.2012L141.812 91.1908C142.017 90.8811 141.941 90.3214 141.88 89.871C141.864 89.7533 141.849 89.643 141.841 89.5466C141.831 89.431 141.823 89.3152 141.819 89.1992C141.815 89.0832 141.813 88.9672 141.814 88.8512C141.815 88.7351 141.82 88.6192 141.826 88.5034C141.833 88.3875 141.843 88.2719 141.856 88.1566C141.868 88.0412 141.883 87.9262 141.901 87.8115C141.92 87.6969 141.941 87.5828 141.964 87.4691C141.988 87.3556 142.014 87.2426 142.043 87.1302C142.072 87.0179 142.104 86.9063 142.139 86.7954C142.173 86.6847 142.211 86.5749 142.251 86.466C142.291 86.357 142.333 86.249 142.378 86.1421C142.423 86.0352 142.471 85.9294 142.521 85.8249C142.572 85.7203 142.625 85.6169 142.68 85.5149C142.735 85.413 142.793 85.3124 142.853 85.2131C142.913 85.1139 142.976 85.0162 143.041 84.9201C143.106 84.8239 143.173 84.7294 143.243 84.6365C143.312 84.5436 143.384 84.4524 143.458 84.363C144.711 82.8793 146.341 81.9429 148.283 81.7983C148.399 81.7907 148.514 81.7858 148.63 81.7838C148.746 81.7819 148.862 81.7827 148.978 81.7863C149.094 81.7899 149.21 81.7964 149.325 81.8057C149.441 81.8149 149.556 81.827 149.671 81.8418C149.786 81.8566 149.901 81.8742 150.015 81.8945ZM151.501 126.666C152.144 126.922 152.761 127.099 153.34 127.215C153.195 127.037 153.062 126.847 152.929 126.657C152.732 126.376 152.535 126.094 152.298 125.853C152.215 125.768 152.11 125.668 151.987 125.675C151.706 125.693 151.544 125.916 151.506 126.178C151.484 126.335 151.487 126.499 151.501 126.666Z" fill="#A63AA0"/>
<path d="M125.219 88.7548C125.52 88.2708 125.838 87.8178 126.232 87.4043C127.59 85.9799 129.457 85.2039 131.418 85.1639C133.407 85.1233 135.63 86.0635 136.887 87.6259C137.34 88.1889 137.65 88.9056 138.171 89.4013L138.295 89.3908C138.554 89.0001 138.365 88.2116 138.323 87.7467C138.313 87.631 138.306 87.5152 138.302 87.3993C138.297 87.2833 138.296 87.1673 138.297 87.0513C138.298 86.9352 138.302 86.8192 138.309 86.7035C138.316 86.5876 138.326 86.472 138.338 86.3566C138.351 86.2413 138.366 86.1262 138.384 86.0115C138.403 85.897 138.423 85.7828 138.447 85.6692C138.471 85.5556 138.497 85.4426 138.526 85.3303C138.555 85.218 138.587 85.1064 138.622 84.9955C138.656 84.8848 138.694 84.775 138.734 84.666C138.774 84.557 138.816 84.4491 138.861 84.3421C138.906 84.2352 138.954 84.1295 139.004 84.0249C139.055 83.9203 139.107 83.817 139.163 83.715C139.218 83.6131 139.276 83.5124 139.336 83.4131C139.396 83.314 139.459 83.2163 139.524 83.1201C139.589 83.024 139.656 82.9294 139.726 82.8365C139.795 82.7436 139.867 82.6525 139.941 82.5631C141.194 81.0793 142.824 80.143 144.766 79.9983C144.881 79.9907 144.997 79.9859 145.113 79.9839C145.229 79.9819 145.345 79.9828 145.461 79.9864C145.577 79.99 145.693 79.9964 145.808 80.0058C145.924 80.015 146.039 80.027 146.154 80.0418C146.269 80.0566 146.384 80.0742 146.498 80.0946C146.612 80.115 146.726 80.1381 146.839 80.164C146.952 80.1899 147.064 80.2185 147.176 80.2498C147.287 80.2811 147.398 80.3152 147.508 80.3519C147.618 80.3885 147.727 80.4278 147.835 80.4698C147.943 80.5118 148.05 80.5565 148.156 80.6037C148.262 80.6508 148.367 80.7005 148.471 80.7527C148.574 80.8049 148.676 80.8596 148.777 80.9168C148.878 80.974 148.977 81.0336 149.075 81.0956C149.173 81.1576 149.27 81.222 149.365 81.2887C149.46 81.3554 149.553 81.4244 149.644 81.4956C149.736 81.5668 149.826 81.6402 149.914 81.7157C151.774 83.3363 152.261 85.0356 152.439 87.4035C152.757 87.5124 154.071 86.7104 154.505 86.5726C155.485 86.2612 156.666 86.1105 157.688 86.2619C159.626 86.5488 161.445 87.7583 162.589 89.3281C164.387 91.7953 164.368 95.2951 162.58 97.7601C162.306 98.1386 161.195 99.1905 161.086 99.4241C161.052 99.4972 161.062 99.5835 161.05 99.6632C161.228 100.025 162.133 100.107 162.511 100.215C163.842 100.597 165.067 101.462 165.935 102.534C166.013 102.63 166.088 102.727 166.161 102.825C166.234 102.924 166.304 103.025 166.372 103.128C166.44 103.23 166.506 103.334 166.568 103.439C166.631 103.545 166.691 103.652 166.749 103.761C166.806 103.87 166.861 103.98 166.913 104.091C166.965 104.202 167.014 104.315 167.061 104.429C167.107 104.542 167.15 104.657 167.191 104.773C167.232 104.889 167.27 105.006 167.305 105.124C167.339 105.242 167.371 105.36 167.4 105.48C167.429 105.599 167.455 105.719 167.478 105.84C167.502 105.961 167.522 106.082 167.539 106.203C167.556 106.325 167.57 106.447 167.581 106.57C167.591 106.692 167.599 106.815 167.604 106.937C167.609 107.06 167.611 107.183 167.61 107.306C167.609 107.429 167.604 107.552 167.597 107.674C167.589 107.797 167.579 107.919 167.566 108.042C167.202 111.197 165.011 113.736 161.905 114.443C161.286 114.584 160.01 114.55 159.545 114.922C159.879 115.408 160.32 115.836 160.684 116.303C160.746 116.384 160.807 116.466 160.865 116.55C160.924 116.633 160.981 116.718 161.036 116.804C161.091 116.89 161.144 116.978 161.195 117.066C161.246 117.154 161.295 117.244 161.342 117.335C161.389 117.425 161.434 117.517 161.477 117.609C161.52 117.702 161.561 117.795 161.6 117.89C161.639 117.984 161.675 118.08 161.71 118.176C161.745 118.272 161.777 118.369 161.807 118.466C161.838 118.564 161.866 118.662 161.892 118.76C161.918 118.859 161.941 118.958 161.963 119.058C161.984 119.158 162.004 119.258 162.021 119.359C162.038 119.46 162.053 119.561 162.065 119.662C162.078 119.763 162.088 119.865 162.096 119.967C162.104 120.068 162.11 120.17 162.113 120.272C162.117 120.374 162.118 120.476 162.117 120.578C162.116 120.681 162.113 120.783 162.107 120.884C162.006 122.952 160.951 124.744 159.436 126.103C158.114 127.18 156.177 127.713 154.489 127.609C152.924 127.511 151.03 126.751 149.96 125.575C149.531 125.103 149.227 124.507 148.781 124.053C148.698 123.968 148.593 123.868 148.47 123.875C148.188 123.893 148.027 124.116 147.989 124.378C147.926 124.814 148.065 125.306 148.061 125.754C148.046 127.32 147.424 128.993 146.436 130.205C145.25 131.659 143.396 132.706 141.517 132.878C139.486 133.065 137.572 132.435 136.022 131.123C134.649 129.961 133.814 128.458 133.634 126.657C133.583 126.145 133.618 125.626 133.568 125.115C133.55 124.938 133.579 124.863 133.441 124.746C132.962 124.674 132.115 125.533 131.716 125.802C131.429 125.995 131.114 126.157 130.801 126.301C129.07 127.094 127.029 127.111 125.257 126.44C125.145 126.397 125.034 126.352 124.924 126.303C124.814 126.255 124.706 126.204 124.598 126.151C124.491 126.097 124.385 126.041 124.28 125.982C124.176 125.923 124.073 125.862 123.971 125.798C123.869 125.734 123.769 125.668 123.671 125.599C123.573 125.531 123.476 125.459 123.381 125.386C123.286 125.312 123.193 125.237 123.102 125.159C123.011 125.081 122.922 125 122.835 124.918C122.747 124.835 122.662 124.751 122.579 124.664C122.496 124.578 122.415 124.489 122.336 124.399C122.258 124.308 122.181 124.216 122.107 124.121C122.033 124.027 121.961 123.931 121.892 123.833C121.822 123.735 121.755 123.636 121.69 123.535C121.626 123.433 121.564 123.331 121.504 123.227C121.445 123.123 121.388 123.017 121.333 122.91C121.279 122.803 121.227 122.695 121.178 122.585C119.933 119.744 120.574 116.448 122.593 114.138C122.954 113.724 123.767 113.255 123.958 112.766C123.608 112.421 121.232 112.233 120.39 111.789C118.618 110.853 117.377 109.321 116.796 107.404C116.277 105.687 116.46 103.668 117.309 102.085C118.672 99.5429 120.991 98.2514 123.856 98.2245C124.563 98.2179 125.418 98.4213 126.092 98.2134C126.148 98.0493 126.197 97.9814 126.111 97.8154C125.996 97.5939 125.754 97.3637 125.609 97.1425C125.477 96.9451 125.353 96.7431 125.236 96.5366C125.119 96.33 125.011 96.1194 124.91 95.9048C124.809 95.6901 124.716 95.4719 124.631 95.2503C124.546 95.0286 124.47 94.8041 124.402 94.5769C123.82 92.5703 124.229 90.5513 125.219 88.7548Z" fill="#F587EF"/>
<path d="M134.987 67.5869C139.664 68.4713 142.734 72.9412 142.122 77.2873C141.469 81.9358 137.17 85.1746 132.522 84.5209C127.873 83.8673 124.635 79.5688 125.288 74.9202C125.77 71.4955 127.745 68.6052 131.588 67.7736C131.671 67.8569 131.752 67.9859 131.816 68.1844C131.909 68.4721 131.95 68.8423 131.949 69.2475C131.948 69.9111 131.834 70.5814 131.736 70.9699C129.933 71.6635 128.547 73.2872 128.259 75.3379C127.836 78.3458 129.932 81.1272 132.939 81.5501C135.947 81.9731 138.729 79.8774 139.152 76.8695C139.349 75.4695 138.771 74.094 137.893 73.0003C137.118 72.0347 136.071 71.2399 134.991 70.7896C135.102 70.2165 135.12 69.5515 135.099 68.9428C135.081 68.4598 135.036 67.9884 134.987 67.5869Z" fill="#B4B4C6" stroke="white"/>
<path d="M132.178 102.087C132.489 101.454 132.887 100.956 133.547 100.663C134.226 100.361 134.965 100.383 135.647 100.665C137.843 101.571 139.247 104.221 140.089 106.296C141.154 108.921 142.016 112.175 140.869 114.898C140.56 115.533 140.136 116.147 139.485 116.469C138.917 116.75 138.288 116.71 137.707 116.488C135.515 115.648 133.983 113.183 133.073 111.147C131.879 108.474 131.098 104.917 132.178 102.087Z" fill="white"/>
<path d="M143.258 98.7656C143.564 98.1241 143.971 97.51 144.631 97.1925C145.234 96.9029 145.895 96.9497 146.513 97.1646C148.622 97.8984 150.24 100.462 151.135 102.376C152.353 104.979 153.033 108.221 152.018 111.003C151.729 111.678 151.283 112.326 150.631 112.694C150.089 113 149.491 113.04 148.902 112.854C146.945 112.239 145.466 110.014 144.588 108.288C143.188 105.534 142.261 101.795 143.258 98.7656Z" fill="white"/>
<path d="M142.869 100.14C143.075 99.7077 143.35 99.2934 143.796 99.0792C144.202 98.8839 144.648 98.9155 145.065 99.0604C146.488 99.5554 147.579 101.285 148.183 102.576C149.005 104.332 149.463 106.519 148.779 108.395C148.584 108.851 148.282 109.288 147.843 109.536C147.477 109.742 147.074 109.769 146.676 109.644C145.356 109.229 144.358 107.729 143.766 106.564C142.822 104.706 142.196 102.184 142.869 100.14Z" fill="black"/>
<path d="M131.724 103.358C131.931 102.925 132.206 102.511 132.651 102.297C133.057 102.102 133.504 102.133 133.921 102.278C135.343 102.773 136.434 104.503 137.038 105.794C137.86 107.549 138.319 109.737 137.634 111.613C137.439 112.069 137.138 112.506 136.698 112.754C136.333 112.96 135.929 112.987 135.532 112.862C134.212 112.447 133.214 110.946 132.622 109.782C131.677 107.924 131.052 105.402 131.724 103.358Z" fill="black"/>
<path d="M63.2075 26.6919L65.1572 38.8823L77.3477 40.832L65.1572 42.7818L63.2075 54.9722L61.2578 42.7818L49.0674 40.832L61.2578 38.8823L63.2075 26.6919Z" fill="white"/>
<path d="M161.654 55.7905L162.96 63.9575L171.127 65.2637L162.96 66.5699L161.654 74.7368L160.348 66.5699L152.181 65.2637L160.348 63.9575L161.654 55.7905Z" fill="white"/>
<path d="M75.3042 12.833L76.6104 20.9999L84.7773 22.3062L76.6104 23.6124L75.3042 31.7793L73.998 23.6124L65.8311 22.3062L73.998 20.9999L75.3042 12.833Z" fill="white"/>
<path d="M120.024 133.966L121.33 142.133L129.497 143.439L121.33 144.745L120.024 152.912L118.718 144.745L110.551 143.439L118.718 142.133L120.024 133.966Z" fill="white"/>
</svg>
