<svg width="180" height="181" viewBox="0 0 180 181" fill="none" xmlns="http://www.w3.org/2000/svg">
<mask id="path-1-outside-1_0_5366" maskUnits="userSpaceOnUse" x="77.1885" y="21.0874" width="87" height="104" fill="black">
<rect fill="white" x="77.1885" y="21.0874" width="87" height="104"/>
<path d="M90.4091 115.388C88.7136 115.026 87.151 114.376 85.7538 113.416C74.2298 105.497 78.2715 79.5995 94.7811 55.5712C111.286 31.5496 134.004 18.4906 145.531 26.3944L155.313 33.1073C160.09 36.4079 162.201 42.804 161.832 50.8808C161.586 56.4361 160.172 62.7908 157.65 69.4735C155.026 76.4435 151.213 83.7829 146.293 90.9579C139.077 101.474 130.652 109.879 122.514 115.352C116.036 119.719 109.721 122.221 104.309 122.426C104.145 122.446 103.981 122.446 103.817 122.446C101.46 122.487 99.2863 122.077 97.3593 121.175L95.535 120.15L85.7362 113.426C87.1432 114.38 88.7113 115.032 90.4091 115.388ZM90.5692 115.422C90.5156 115.411 90.4624 115.399 90.4091 115.388C90.4624 115.399 90.5156 115.411 90.5692 115.422Z"/>
</mask>
<path d="M90.4091 115.388C88.7136 115.026 87.151 114.376 85.7538 113.416C74.2298 105.497 78.2715 79.5995 94.7811 55.5712C111.286 31.5496 134.004 18.4906 145.531 26.3944L155.313 33.1073C160.09 36.4079 162.201 42.804 161.832 50.8808C161.586 56.4361 160.172 62.7908 157.65 69.4735C155.026 76.4435 151.213 83.7829 146.293 90.9579C139.077 101.474 130.652 109.879 122.514 115.352C116.036 119.719 109.721 122.221 104.309 122.426C104.145 122.446 103.981 122.446 103.817 122.446C101.46 122.487 99.2863 122.077 97.3593 121.175L95.535 120.15L85.7362 113.426C87.1432 114.38 88.7113 115.032 90.4091 115.388ZM90.5692 115.422C90.5156 115.411 90.4624 115.399 90.4091 115.388C90.4624 115.399 90.5156 115.411 90.5692 115.422Z" fill="#795EFF"/>
<path d="M85.7538 113.416L84.6211 115.064L84.6212 115.064L85.7538 113.416ZM94.7811 55.5712L93.1327 54.4386L93.1327 54.4386L94.7811 55.5712ZM145.531 26.3944L146.663 24.7454L146.662 24.7449L145.531 26.3944ZM155.313 33.1073L156.45 31.462L156.445 31.4583L155.313 33.1073ZM161.832 50.8808L159.834 50.7895L159.834 50.7923L161.832 50.8808ZM157.65 69.4735L155.779 68.7675L155.779 68.7689L157.65 69.4735ZM146.293 90.9579L147.942 92.0895L147.942 92.089L146.293 90.9579ZM122.514 115.352L121.397 113.693L121.396 113.694L122.514 115.352ZM104.309 122.426L104.234 120.427L104.147 120.43L104.061 120.441L104.309 122.426ZM103.817 122.446V120.446H103.8L103.782 120.447L103.817 122.446ZM97.3593 121.175L96.38 122.919L96.4444 122.955L96.5114 122.986L97.3593 121.175ZM95.535 120.15L94.4034 121.799L94.4774 121.85L94.5558 121.894L95.535 120.15ZM85.7362 113.426L86.8589 111.771L84.6045 115.075L85.7362 113.426ZM90.5692 115.422L90.1819 117.384L90.9638 113.461L90.5692 115.422ZM90.4091 115.388L90.8257 113.431C89.3682 113.121 88.0524 112.569 86.8864 111.768L85.7538 113.416L84.6212 115.064C86.2496 116.183 88.0589 116.932 89.9924 117.344L90.4091 115.388ZM85.7538 113.416L86.8864 111.768C82.1213 108.493 80.1281 101.114 81.7309 90.8431C83.309 80.7312 88.3061 68.5268 96.4295 56.7038L94.7811 55.5712L93.1327 54.4386C84.7466 66.6439 79.468 79.4026 77.7788 90.2263C76.1143 100.892 77.8622 110.42 84.6211 115.064L85.7538 113.416ZM94.7811 55.5712L96.4295 56.7038C104.551 44.8841 114.148 35.8447 123.019 30.7447C132.03 25.5648 139.633 24.7755 144.4 28.0439L145.531 26.3944L146.662 24.7449C139.902 20.1095 130.383 21.8978 121.026 27.2769C111.53 32.7358 101.517 42.2367 93.1327 54.4386L94.7811 55.5712ZM145.531 26.3944L144.399 28.0435L154.182 34.7564L155.313 33.1073L156.445 31.4583L146.663 24.7454L145.531 26.3944ZM155.313 33.1073L154.176 34.7527C158.123 37.4801 160.19 43.0072 159.834 50.7895L161.832 50.8808L163.83 50.972C164.212 42.6008 162.056 35.3357 156.45 31.462L155.313 33.1073ZM161.832 50.8808L159.834 50.7923C159.599 56.0902 158.244 62.2342 155.779 68.7675L157.65 69.4735L159.522 70.1796C162.099 63.3474 163.573 56.782 163.83 50.9693L161.832 50.8808ZM157.65 69.4735L155.779 68.7689C153.215 75.5786 149.478 82.7757 144.643 89.8269L146.293 90.9579L147.942 92.089C152.947 84.7901 156.838 77.3085 159.522 70.1782L157.65 69.4735ZM146.293 90.9579L144.644 89.8264C137.549 100.167 129.296 108.38 121.397 113.693L122.514 115.352L123.63 117.012C132.007 111.378 140.605 102.782 147.942 92.0895L146.293 90.9579ZM122.514 115.352L121.396 113.694C115.083 117.949 109.132 120.242 104.234 120.427L104.309 122.426L104.385 124.424C110.311 124.2 116.988 121.489 123.631 117.011L122.514 115.352ZM104.309 122.426L104.061 120.441C104.06 120.441 104.043 120.443 104.001 120.445C103.955 120.446 103.904 120.446 103.817 120.446V122.446V124.446C103.961 124.446 104.25 124.449 104.558 124.41L104.309 122.426ZM103.817 122.446L103.782 120.447C101.679 120.483 99.8158 120.116 98.2071 119.363L97.3593 121.175L96.5114 122.986C98.7567 124.037 101.24 124.491 103.852 124.446L103.817 122.446ZM97.3593 121.175L98.3385 119.431L96.5143 118.406L95.535 120.15L94.5558 121.894L96.38 122.919L97.3593 121.175ZM95.535 120.15L96.6667 118.501L86.8679 111.777L85.7362 113.426L84.6045 115.075L94.4034 121.799L95.535 120.15ZM85.7362 113.426L84.6136 115.081C86.2463 116.188 88.0587 116.939 89.9991 117.345L90.4091 115.388L90.819 113.43C89.364 113.125 88.04 112.572 86.8589 111.771L85.7362 113.426ZM90.5692 115.422L90.9638 113.461C90.9222 113.453 90.9143 113.45 90.8257 113.431L90.4091 115.388L89.9924 117.344C90.0104 117.348 90.1091 117.369 90.1747 117.382L90.5692 115.422ZM90.4091 115.388L89.9991 117.345C90.0147 117.348 90.0279 117.351 90.0622 117.359C90.091 117.365 90.1342 117.375 90.1819 117.384L90.5692 115.422L90.9565 113.46C90.9012 113.449 90.9492 113.457 90.819 113.43L90.4091 115.388Z" fill="white" mask="url(#path-1-outside-1_0_5366)"/>
<mask id="path-3-outside-2_0_5366" maskUnits="userSpaceOnUse" x="16.4473" y="55.3037" width="89" height="106" fill="black">
<rect fill="white" x="16.4473" y="55.3037" width="89" height="106"/>
<path d="M35.8875 61.5894C47.4398 53.7116 70.1205 66.8522 86.5457 90.939C102.971 115.026 106.921 140.938 95.3689 148.816C94.838 149.178 94.2831 149.495 93.7068 149.769C94.283 149.497 94.839 149.184 95.3709 148.823L85.5516 155.527L83.7273 156.551C81.8003 157.433 79.6268 157.843 77.2693 157.802C77.1056 157.802 76.9419 157.802 76.7781 157.782C71.3662 157.556 65.0724 155.035 58.5945 150.648C50.4765 145.154 42.0918 136.707 34.8963 126.17C29.9969 118.975 26.2039 111.636 23.6004 104.646C21.0994 97.9425 19.7058 91.5872 19.4803 86.0317C19.1523 77.9549 21.2635 71.5589 26.0603 68.2993L35.8631 61.606C35.8712 61.6004 35.8794 61.5949 35.8875 61.5894ZM86.5281 151.079C86.7161 151.088 86.9029 151.096 87.0887 151.099C87.0911 151.099 87.094 151.098 87.0965 151.098C86.9081 151.095 86.7187 151.087 86.5281 151.079ZM88.1902 151.08C88.2169 151.078 88.2437 151.078 88.2703 151.077C88.2436 151.078 88.2169 151.078 88.1902 151.08ZM85.9627 151.044C86.0142 151.048 86.0656 151.052 86.117 151.055C86.0656 151.052 86.0142 151.048 85.9627 151.044ZM92.5262 150.259C92.536 150.256 92.5457 150.252 92.5555 150.249C92.5457 150.252 92.536 150.256 92.5262 150.259ZM92.9607 150.094C92.9965 150.08 93.0326 150.067 93.0682 150.052C93.0326 150.067 92.9965 150.08 92.9607 150.094ZM93.4119 149.905C93.4918 149.87 93.5711 149.833 93.6502 149.796C93.5712 149.833 93.4917 149.869 93.4119 149.905ZM32.865 96.4019C32.9077 96.5237 32.9495 96.646 32.993 96.7681C32.9496 96.646 32.9076 96.5237 32.865 96.4019ZM31.9705 93.6939C30.5563 89.1207 29.687 84.7608 29.3855 80.7739C29.6835 84.7591 30.5522 89.1171 31.9705 93.6939ZM29.3309 79.936C29.3428 80.1526 29.3555 80.3705 29.3709 80.5894C29.3553 80.3705 29.343 80.1526 29.3309 79.936ZM29.283 78.8589C29.1203 73.4395 30.0849 68.8055 32.2449 65.3989C30.0807 68.8049 29.1124 73.4354 29.283 78.8589ZM32.5701 64.9106C32.4913 65.0242 32.4136 65.1389 32.3377 65.2554C32.4135 65.1388 32.4914 65.0242 32.5701 64.9106ZM32.823 64.5552C32.785 64.6064 32.7481 64.6586 32.7107 64.7105C32.7481 64.6585 32.7851 64.6065 32.823 64.5552ZM33.1297 64.1567C33.1198 64.169 33.1102 64.1815 33.1004 64.1939C33.1102 64.1815 33.1198 64.1691 33.1297 64.1567ZM35.032 62.23C35.0161 62.243 35.0001 62.2559 34.9842 62.269C35.0001 62.2559 35.0161 62.243 35.032 62.23ZM32.3416 94.8569C32.4358 95.1445 32.5312 95.4331 32.6297 95.7222C32.5315 95.433 32.4356 95.1446 32.3416 94.8569ZM31.9861 93.7437C31.981 93.727 31.9756 93.7105 31.9705 93.6939C31.9757 93.7105 31.981 93.727 31.9861 93.7437ZM29.2996 79.3286C29.3026 79.4017 29.307 79.4749 29.3103 79.5483C29.2995 79.3171 29.2899 79.0873 29.283 78.8589C29.2879 79.0147 29.2928 79.1716 29.2996 79.3286Z"/>
</mask>
<path d="M35.8875 61.5894C47.4398 53.7116 70.1205 66.8522 86.5457 90.939C102.971 115.026 106.921 140.938 95.3689 148.816C94.838 149.178 94.2831 149.495 93.7068 149.769C94.283 149.497 94.839 149.184 95.3709 148.823L85.5516 155.527L83.7273 156.551C81.8003 157.433 79.6268 157.843 77.2693 157.802C77.1056 157.802 76.9419 157.802 76.7781 157.782C71.3662 157.556 65.0724 155.035 58.5945 150.648C50.4765 145.154 42.0918 136.707 34.8963 126.17C29.9969 118.975 26.2039 111.636 23.6004 104.646C21.0994 97.9425 19.7058 91.5872 19.4803 86.0317C19.1523 77.9549 21.2635 71.5589 26.0603 68.2993L35.8631 61.606C35.8712 61.6004 35.8794 61.5949 35.8875 61.5894ZM86.5281 151.079C86.7161 151.088 86.9029 151.096 87.0887 151.099C87.0911 151.099 87.094 151.098 87.0965 151.098C86.9081 151.095 86.7187 151.087 86.5281 151.079ZM88.1902 151.08C88.2169 151.078 88.2437 151.078 88.2703 151.077C88.2436 151.078 88.2169 151.078 88.1902 151.08ZM85.9627 151.044C86.0142 151.048 86.0656 151.052 86.117 151.055C86.0656 151.052 86.0142 151.048 85.9627 151.044ZM92.5262 150.259C92.536 150.256 92.5457 150.252 92.5555 150.249C92.5457 150.252 92.536 150.256 92.5262 150.259ZM92.9607 150.094C92.9965 150.08 93.0326 150.067 93.0682 150.052C93.0326 150.067 92.9965 150.08 92.9607 150.094ZM93.4119 149.905C93.4918 149.87 93.5711 149.833 93.6502 149.796C93.5712 149.833 93.4917 149.869 93.4119 149.905ZM32.865 96.4019C32.9077 96.5237 32.9495 96.646 32.993 96.7681C32.9496 96.646 32.9076 96.5237 32.865 96.4019ZM31.9705 93.6939C30.5563 89.1207 29.687 84.7608 29.3855 80.7739C29.6835 84.7591 30.5522 89.1171 31.9705 93.6939ZM29.3309 79.936C29.3428 80.1526 29.3555 80.3705 29.3709 80.5894C29.3553 80.3705 29.343 80.1526 29.3309 79.936ZM29.283 78.8589C29.1203 73.4395 30.0849 68.8055 32.2449 65.3989C30.0807 68.8049 29.1124 73.4354 29.283 78.8589ZM32.5701 64.9106C32.4913 65.0242 32.4136 65.1389 32.3377 65.2554C32.4135 65.1388 32.4914 65.0242 32.5701 64.9106ZM32.823 64.5552C32.785 64.6064 32.7481 64.6586 32.7107 64.7105C32.7481 64.6585 32.7851 64.6065 32.823 64.5552ZM33.1297 64.1567C33.1198 64.169 33.1102 64.1815 33.1004 64.1939C33.1102 64.1815 33.1198 64.1691 33.1297 64.1567ZM35.032 62.23C35.0161 62.243 35.0001 62.2559 34.9842 62.269C35.0001 62.2559 35.0161 62.243 35.032 62.23ZM32.3416 94.8569C32.4358 95.1445 32.5312 95.4331 32.6297 95.7222C32.5315 95.433 32.4356 95.1446 32.3416 94.8569ZM31.9861 93.7437C31.981 93.727 31.9756 93.7105 31.9705 93.6939C31.9757 93.7105 31.981 93.727 31.9861 93.7437ZM29.2996 79.3286C29.3026 79.4017 29.307 79.4749 29.3103 79.5483C29.2995 79.3171 29.2899 79.0873 29.283 78.8589C29.2879 79.0147 29.2928 79.1716 29.2996 79.3286Z" fill="#699E34"/>
<path d="M35.8875 61.5894L34.1973 59.1108L34.1973 59.1108L35.8875 61.5894ZM86.5457 90.939L89.0243 89.2488V89.2488L86.5457 90.939ZM95.3689 148.816L97.0591 151.294L97.0591 151.294L95.3689 148.816ZM93.7068 149.769L92.4176 147.06L94.9892 152.481L93.7068 149.769ZM95.3709 148.823L97.0625 151.3L93.6869 146.34L95.3709 148.823ZM85.5516 155.527L87.0205 158.143L87.1348 158.078L87.2431 158.004L85.5516 155.527ZM83.7273 156.551L84.9753 159.279L85.0881 159.228L85.1963 159.167L83.7273 156.551ZM77.2693 157.802L77.3215 154.803L77.2954 154.802H77.2693V157.802ZM76.7781 157.782L77.1495 154.805L77.0267 154.789L76.903 154.784L76.7781 157.782ZM58.5945 150.648L60.2767 148.164L60.276 148.163L58.5945 150.648ZM34.8963 126.17L32.4166 127.859L32.4188 127.862L34.8963 126.17ZM23.6004 104.646L26.4117 103.599L26.4111 103.597L23.6004 104.646ZM19.4803 86.0317L22.4778 85.9101L22.4778 85.91L19.4803 86.0317ZM26.0603 68.2993L27.7465 70.7806L27.752 70.7769L26.0603 68.2993ZM35.8631 61.606L37.5548 64.0835L37.5591 64.0805L35.8631 61.606ZM86.5281 151.079L86.665 148.082L86.385 154.075L86.5281 151.079ZM87.0887 151.099L87.0328 154.099L87.041 154.099L87.0492 154.099L87.0887 151.099ZM87.0965 151.098L87.0582 154.098L87.1445 148.099L87.0965 151.098ZM88.1902 151.08L88.0507 148.083L88.3247 154.077L88.1902 151.08ZM88.2703 151.077L88.4235 154.073L88.1219 148.08L88.2703 151.077ZM85.9627 151.044L86.1841 148.053L85.7354 154.036L85.9627 151.044ZM86.117 151.055L85.9183 154.049L86.3217 148.062L86.117 151.055ZM92.5262 150.259L91.5135 147.435L93.5326 153.085L92.5262 150.259ZM92.5555 150.249L93.5749 153.07L91.5424 147.425L92.5555 150.249ZM92.9607 150.094L91.8476 147.308L94.0673 152.883L92.9607 150.094ZM93.0682 150.052L94.2063 152.828L91.9367 147.274L93.0682 150.052ZM93.4119 149.905L92.1928 147.164L94.6242 152.649L93.4119 149.905ZM93.6502 149.796L94.9258 152.512L92.3813 147.078L93.6502 149.796ZM32.865 96.4019L35.6961 95.4093L30.0332 97.3922L32.865 96.4019ZM32.993 96.7681L30.1667 97.7741L35.8201 95.7643L32.993 96.7681ZM29.3855 80.7739L32.377 80.5477L26.3939 80.9976L29.3855 80.7739ZM29.3309 79.936L32.3261 79.7676L26.3354 80.1016L29.3309 79.936ZM29.3709 80.5894L26.3785 80.8031L32.3635 80.3783L29.3709 80.5894ZM32.2449 65.3989L34.7785 67.0054L29.7128 63.79L32.2449 65.3989ZM32.5701 64.9106L35.0361 66.6191L30.1057 63.1999L32.5701 64.9106ZM32.3377 65.2554L29.8231 63.6193L34.8507 66.8939L32.3377 65.2554ZM32.823 64.5552L35.2345 66.3398L30.4132 62.7684L32.823 64.5552ZM32.7107 64.7105L30.2749 62.9593L35.145 66.4638L32.7107 64.7105ZM33.1297 64.1567L35.4736 66.0292L30.7873 62.2824L33.1297 64.1567ZM33.1004 64.1939L30.7499 62.3296L35.4493 66.06L33.1004 64.1939ZM35.032 62.23L36.9296 64.5536L33.1345 59.9063L35.032 62.23ZM32.3416 94.8569L35.1925 93.923L29.49 95.7889L32.3416 94.8569ZM32.6297 95.7222L29.7898 96.6892L35.4703 94.7573L32.6297 95.7222ZM31.9861 93.7437L29.1212 94.6337L34.8516 92.8553L31.9861 93.7437ZM29.2996 79.3286L32.2971 79.2069L32.2968 79.1993L29.2996 79.3286ZM29.3103 79.5483L26.3137 79.6891L32.3072 79.4106L29.3103 79.5483ZM35.8875 61.5894L37.5777 64.0679C41.8548 61.1513 48.9773 61.7123 57.8853 66.8733C66.5852 71.9137 76.0505 80.8732 84.0671 92.6291L86.5457 90.939L89.0243 89.2488C80.6157 76.918 70.5281 67.2638 60.8932 61.6817C51.4665 56.2201 41.4725 54.1497 34.1973 59.1108L35.8875 61.5894ZM86.5457 90.939L84.0671 92.6291C92.0837 104.385 96.9678 116.468 98.4831 126.408C100.035 136.585 97.9558 143.421 93.6787 146.337L95.3689 148.816L97.0591 151.294C104.334 146.333 106.056 136.274 104.415 125.504C102.736 114.496 97.4328 101.58 89.0243 89.2488L86.5457 90.939ZM95.3689 148.816L93.6788 146.337C93.2792 146.61 92.8587 146.85 92.4176 147.06L93.7068 149.769L94.996 152.478C95.7075 152.139 96.3969 151.746 97.0591 151.294L95.3689 148.816ZM93.7068 149.769L94.9892 152.481C95.6945 152.148 96.386 151.759 97.0549 151.306L95.3709 148.823L93.6869 146.34C93.292 146.608 92.8715 146.846 92.4244 147.057L93.7068 149.769ZM95.3709 148.823L93.6793 146.345L83.86 153.049L85.5516 155.527L87.2431 158.004L97.0625 151.3L95.3709 148.823ZM85.5516 155.527L84.0826 152.911L82.2584 153.936L83.7273 156.551L85.1963 159.167L87.0205 158.143L85.5516 155.527ZM83.7273 156.551L82.4794 153.823C81.0164 154.492 79.2972 154.837 77.3215 154.803L77.2693 157.802L77.2172 160.802C79.9564 160.849 82.5843 160.373 84.9753 159.279L83.7273 156.551ZM77.2693 157.802V154.802C77.2268 154.802 77.1976 154.802 77.1705 154.802C77.1446 154.802 77.1284 154.801 77.118 154.801C77.0962 154.8 77.1119 154.8 77.1495 154.805L76.7781 157.782L76.4067 160.759C76.7854 160.806 77.1345 160.802 77.2693 160.802L77.2693 157.802ZM76.7781 157.782L76.903 154.784C72.2616 154.591 66.5101 152.385 60.2767 148.164L58.5945 150.648L56.9123 153.132C63.6346 157.684 70.4708 160.522 76.6532 160.779L76.7781 157.782ZM58.5945 150.648L60.276 148.163C52.5195 142.914 44.3921 134.756 37.3737 124.479L34.8963 126.17L32.4188 127.862C39.7915 138.659 48.4335 147.394 56.9131 153.132L58.5945 150.648ZM34.8963 126.17L37.376 124.482C32.6021 117.471 28.9246 110.346 26.4117 103.599L23.6004 104.646L20.789 105.693C23.4831 112.927 27.3917 120.479 32.4166 127.859L34.8963 126.17ZM23.6004 104.646L26.4111 103.597C23.9933 97.1168 22.6876 91.0781 22.4778 85.9101L19.4803 86.0317L16.4827 86.1534C16.724 92.0963 18.2055 98.7683 20.7896 105.695L23.6004 104.646ZM19.4803 86.0317L22.4778 85.91C22.167 78.2575 24.2142 73.181 27.7465 70.7806L26.0603 68.2993L24.3742 65.818C18.3129 69.9368 16.1375 77.6523 16.4827 86.1535L19.4803 86.0317ZM26.0603 68.2993L27.752 70.7769L37.5548 64.0835L35.8631 61.606L34.1714 59.1284L24.3687 65.8218L26.0603 68.2993ZM35.8631 61.606L37.5591 64.0805C37.5566 64.0822 37.5554 64.083 37.5591 64.0805C37.5601 64.0798 37.5635 64.0776 37.5661 64.0758C37.5691 64.0738 37.5731 64.071 37.5777 64.0679L35.8875 61.5894L34.1973 59.1108C34.1973 59.1108 34.1976 59.1106 34.1915 59.1148C34.187 59.1178 34.1776 59.1241 34.167 59.1314L35.8631 61.606ZM86.5281 151.079L86.385 154.075C86.5783 154.084 86.8012 154.094 87.0328 154.099L87.0887 151.099L87.1445 148.1C87.0046 148.097 86.8539 148.091 86.6712 148.082L86.5281 151.079ZM87.0887 151.099L87.0492 154.099C87.1044 154.1 87.1553 154.099 87.2013 154.097C87.2473 154.095 87.2895 154.093 87.3271 154.09C87.3648 154.087 87.3989 154.083 87.429 154.08C87.4591 154.076 87.4861 154.073 87.5093 154.07C87.5325 154.066 87.5529 154.063 87.5698 154.06C87.5867 154.058 87.6011 154.055 87.6122 154.053C87.6231 154.051 87.632 154.05 87.6373 154.049C87.6401 154.048 87.6423 154.048 87.6437 154.048C87.6444 154.047 87.645 154.047 87.6454 154.047C87.6458 154.047 87.646 154.047 87.6461 154.047C87.6469 154.047 87.643 154.048 87.6385 154.049C87.6335 154.049 87.625 154.051 87.6144 154.053C87.6038 154.055 87.5898 154.057 87.5732 154.06C87.5567 154.063 87.5367 154.066 87.5138 154.069C87.491 154.072 87.4644 154.076 87.4347 154.079C87.405 154.082 87.3712 154.086 87.3339 154.089C87.2966 154.092 87.2548 154.094 87.2092 154.096C87.1635 154.098 87.113 154.099 87.0582 154.098L87.0965 151.098L87.1348 148.098C87.0797 148.098 87.0288 148.099 86.9828 148.1C86.9369 148.102 86.8948 148.105 86.8572 148.108C86.8196 148.111 86.7855 148.114 86.7554 148.118C86.7254 148.121 86.6985 148.124 86.6753 148.128C86.6522 148.131 86.6318 148.134 86.6149 148.137C86.5981 148.14 86.5837 148.142 86.5727 148.144C86.5618 148.146 86.553 148.148 86.5477 148.149C86.5449 148.149 86.5427 148.149 86.5413 148.15C86.5406 148.15 86.5401 148.15 86.5397 148.15C86.5395 148.15 86.5394 148.15 86.5393 148.15C86.5392 148.15 86.5391 148.15 86.5391 148.15C86.5383 148.15 86.5422 148.15 86.5468 148.149C86.5518 148.148 86.5604 148.146 86.571 148.144C86.5817 148.142 86.5958 148.14 86.6123 148.137C86.6289 148.135 86.649 148.132 86.6719 148.128C86.6948 148.125 86.7214 148.122 86.7512 148.118C86.7809 148.115 86.8148 148.111 86.8521 148.109C86.8894 148.106 86.9313 148.103 86.977 148.101C87.0227 148.1 87.0733 148.099 87.1281 148.099L87.0887 151.099ZM87.0965 151.098L87.1445 148.099C87.003 148.096 86.8506 148.09 86.665 148.082L86.5281 151.079L86.3912 154.075C86.5868 154.084 86.8132 154.094 87.0484 154.098L87.0965 151.098ZM88.1902 151.08L88.3298 154.076C88.3197 154.077 88.3129 154.077 88.312 154.077C88.3114 154.077 88.3116 154.077 88.3133 154.077C88.3155 154.077 88.3171 154.077 88.3216 154.077C88.3285 154.077 88.3427 154.076 88.3588 154.076C88.3754 154.075 88.3977 154.074 88.4235 154.073L88.2703 151.077L88.1171 148.081C88.1296 148.08 88.1385 148.08 88.1418 148.079C88.1445 148.079 88.1454 148.079 88.139 148.08C88.1349 148.08 88.1218 148.08 88.1086 148.081C88.0943 148.081 88.0741 148.082 88.0507 148.083L88.1902 151.08ZM88.2703 151.077L88.1219 148.08C88.132 148.08 88.139 148.08 88.1411 148.079C88.1428 148.079 88.1428 148.079 88.1365 148.08C88.1324 148.08 88.1201 148.08 88.108 148.081C88.0949 148.081 88.0768 148.082 88.0558 148.083L88.1902 151.08L88.3247 154.077C88.3207 154.077 88.3176 154.077 88.3156 154.077C88.3146 154.077 88.3138 154.077 88.3133 154.077C88.3128 154.077 88.3125 154.077 88.3125 154.077C88.3125 154.077 88.3127 154.077 88.3132 154.077C88.3137 154.077 88.3143 154.077 88.3153 154.077C88.3179 154.077 88.3196 154.077 88.3241 154.077C88.3363 154.076 88.3748 154.075 88.4187 154.073L88.2703 151.077ZM85.9627 151.044L85.7354 154.036C85.802 154.041 85.8764 154.046 85.9123 154.048L86.117 151.055L86.3217 148.062C86.2549 148.058 86.2264 148.056 86.1899 148.053L85.9627 151.044ZM86.117 151.055L86.3157 148.062C86.2681 148.059 86.225 148.056 86.1841 148.053L85.9627 151.044L85.7413 154.036C85.8034 154.041 85.8632 154.045 85.9183 154.049L86.117 151.055ZM92.5262 150.259L93.5326 153.085C93.5469 153.08 93.559 153.076 93.5675 153.073C93.5756 153.07 93.5827 153.067 93.5851 153.066C93.5889 153.065 93.5873 153.065 93.5854 153.066C93.583 153.067 93.5768 153.069 93.5686 153.072L92.5555 150.249L91.5424 147.425C91.5292 147.429 91.5182 147.434 91.5108 147.436C91.5071 147.438 91.5039 147.439 91.5016 147.44C91.4995 147.44 91.4972 147.441 91.4966 147.442C91.4941 147.442 91.4963 147.442 91.4995 147.44C91.5032 147.439 91.5104 147.436 91.5198 147.433L92.5262 150.259ZM92.5555 150.249L91.536 147.427C91.526 147.431 91.5175 147.434 91.5116 147.436C91.5063 147.438 91.5009 147.44 91.4997 147.44C91.4974 147.441 91.4985 147.441 91.5003 147.44C91.5025 147.439 91.5071 147.438 91.5135 147.435L92.5262 150.259L93.5389 153.083C93.5501 153.079 93.5597 153.076 93.5667 153.073C93.5734 153.071 93.5793 153.068 93.5819 153.067C93.5856 153.066 93.5851 153.066 93.5847 153.066C93.5837 153.067 93.5801 153.068 93.5749 153.07L92.5555 150.249ZM92.9607 150.094L94.0673 152.883C94.0653 152.884 94.0655 152.883 94.0702 152.882C94.0768 152.879 94.08 152.878 94.0933 152.873C94.1128 152.865 94.1535 152.849 94.1996 152.831L93.0682 150.052L91.9367 147.274C91.9472 147.27 91.952 147.268 91.9357 147.274C91.931 147.276 91.9164 147.281 91.905 147.286C91.8917 147.291 91.8741 147.298 91.8542 147.306L92.9607 150.094ZM93.0682 150.052L91.93 147.277C91.9396 147.273 91.9459 147.27 91.9471 147.27C91.9479 147.269 91.9466 147.27 91.939 147.273C91.9342 147.275 91.919 147.28 91.9058 147.286C91.891 147.291 91.8707 147.299 91.8476 147.308L92.9607 150.094L94.0739 152.88C94.0686 152.882 94.0663 152.883 94.0694 152.882C94.0741 152.88 94.0768 152.879 94.09 152.874C94.1087 152.867 94.1544 152.849 94.2063 152.828L93.0682 150.052ZM93.4119 149.905L94.6242 152.649C94.7261 152.604 94.8245 152.559 94.919 152.515L93.6502 149.796L92.3813 147.078C92.3177 147.108 92.2574 147.135 92.1996 147.161L93.4119 149.905ZM93.6502 149.796L92.3746 147.081C92.3232 147.105 92.2655 147.131 92.1928 147.164L93.4119 149.905L94.631 152.646C94.7179 152.607 94.8192 152.562 94.9258 152.512L93.6502 149.796ZM32.865 96.4019L30.034 97.3944C30.0636 97.4789 30.1223 97.6496 30.1667 97.7741L32.993 96.7681L35.8192 95.762C35.7767 95.6425 35.7518 95.5684 35.6961 95.4093L32.865 96.4019ZM32.993 96.7681L35.8201 95.7643C35.7791 95.6489 35.7479 95.5574 35.6969 95.4115L32.865 96.4019L30.0332 97.3922C30.0674 97.49 30.1201 97.6431 30.1659 97.7719L32.993 96.7681ZM31.9705 93.6939L34.8366 92.8075C33.4768 88.4105 32.6588 84.2737 32.377 80.5477L29.3855 80.7739L26.3941 81.0001C26.7153 85.2479 27.6357 89.8309 29.1044 94.5802L31.9705 93.6939ZM29.3855 80.7739L26.3939 80.9976C26.7115 85.2456 27.6318 89.8281 29.1049 94.5819L31.9705 93.6939L34.8361 92.8058C33.4726 88.4061 32.6555 84.2726 32.3772 80.5503L29.3855 80.7739ZM29.3309 79.936L26.3354 80.1016C26.3476 80.3221 26.3612 80.5582 26.3783 80.8005L29.3709 80.5894L32.3635 80.3783C32.3497 80.1827 32.338 79.9832 32.3263 79.7705L29.3309 79.936ZM29.3709 80.5894L32.3633 80.3757C32.3495 80.1832 32.3385 79.9881 32.3261 79.7676L29.3309 79.936L26.3356 80.1045C26.3475 80.3171 26.361 80.5577 26.3785 80.8031L29.3709 80.5894ZM29.283 78.8589L32.2817 78.7689C32.1296 73.7039 33.0496 69.7322 34.7785 67.0054L32.2449 65.3989L29.7113 63.7925C27.1203 67.8789 26.1111 73.1751 26.2844 78.9489L29.283 78.8589ZM32.2449 65.3989L29.7128 63.79C27.1164 67.8762 26.1026 73.1705 26.2845 78.9532L29.283 78.8589L32.2815 78.7646C32.1222 73.7002 33.045 69.7336 34.777 67.0078L32.2449 65.3989ZM32.5701 64.9106L30.1057 63.1999C30.0137 63.3324 29.9194 63.4716 29.8246 63.6169L32.3377 65.2554L34.8507 66.8939C34.9079 66.8062 34.9689 66.7159 35.0345 66.6214L32.5701 64.9106ZM32.3377 65.2554L34.8523 66.8915C34.9067 66.8078 34.9669 66.719 35.0361 66.6191L32.5701 64.9106L30.1041 63.2022C30.0159 63.3295 29.9203 63.4699 29.8231 63.6193L32.3377 65.2554ZM32.823 64.5552L30.4132 62.7684C30.3588 62.8418 30.2954 62.9309 30.2765 62.9571L32.7107 64.7105L35.145 66.4638C35.2009 66.3862 35.2113 66.3711 35.2329 66.342L32.823 64.5552ZM32.7107 64.7105L35.1466 66.4616C35.1962 66.3926 35.2128 66.3691 35.2345 66.3398L32.823 64.5552L30.4116 62.7705C30.3573 62.8438 30.2999 62.9244 30.2749 62.9593L32.7107 64.7105ZM33.1297 64.1567L30.7873 62.2824C30.7732 62.3 30.761 62.3156 30.7559 62.322C30.7524 62.3265 30.7516 62.3275 30.7503 62.3291C30.7495 62.3302 30.7501 62.3295 30.7514 62.3277L33.1004 64.1939L35.4493 66.06C35.4556 66.0521 35.4611 66.0451 35.4651 66.04C35.4687 66.0355 35.4728 66.0303 35.4741 66.0285C35.4762 66.0259 35.4766 66.0254 35.4765 66.0256C35.4762 66.0259 35.4746 66.0279 35.4721 66.0311L33.1297 64.1567ZM33.1004 64.1939L35.4508 66.0581C35.4564 66.0511 35.4613 66.0449 35.4649 66.0403C35.4681 66.0362 35.4721 66.0312 35.4734 66.0295C35.4779 66.0238 35.4765 66.0255 35.4736 66.0292L33.1297 64.1567L30.7858 62.2843C30.773 62.3003 30.7619 62.3144 30.7566 62.3211C30.7494 62.3303 30.7498 62.3298 30.7499 62.3296L33.1004 64.1939ZM35.032 62.23L33.1345 59.9063C33.1287 59.911 33.126 59.9133 33.114 59.923C33.1046 59.9307 33.0907 59.942 33.0751 59.9548L34.9842 62.269L36.8932 64.5833C36.8932 64.5833 36.8938 64.5828 36.8953 64.5815C36.8969 64.5802 36.899 64.5785 36.9021 64.576C36.9059 64.5729 36.9082 64.5711 36.9135 64.5667C36.918 64.5631 36.9236 64.5585 36.9296 64.5536L35.032 62.23ZM34.9842 62.269L36.8932 64.5833C36.8932 64.5833 36.8938 64.5827 36.8954 64.5815C36.8969 64.5802 36.899 64.5785 36.9021 64.576C36.9059 64.5729 36.9082 64.571 36.9135 64.5667C36.918 64.5631 36.9235 64.5586 36.9295 64.5537L35.032 62.23L33.1345 59.9063C33.1287 59.911 33.126 59.9132 33.114 59.923C33.1046 59.9307 33.0907 59.942 33.0751 59.9548L34.9842 62.269ZM32.3416 94.8569L29.4907 95.7908C29.5864 96.0832 29.686 96.3842 29.7898 96.6892L32.6297 95.7222L35.4696 94.7551C35.3765 94.4819 35.2852 94.2058 35.1925 93.923L32.3416 94.8569ZM32.6297 95.7222L35.4703 94.7573C35.3763 94.4805 35.2841 94.2032 35.1932 93.925L32.3416 94.8569L29.49 95.7889C29.5871 96.086 29.6867 96.3855 29.7891 96.6871L32.6297 95.7222ZM31.9861 93.7437L34.8516 92.8553C34.8462 92.8381 34.8411 92.8219 34.8391 92.8154C34.8362 92.8062 34.8361 92.8061 34.8366 92.8075L31.9705 93.6939L29.1044 94.5802C29.11 94.5983 29.1152 94.6148 29.1176 94.6221C29.1207 94.6322 29.1209 94.6326 29.1207 94.632L31.9861 93.7437ZM31.9705 93.6939L29.1049 94.5819C29.1101 94.5985 29.1149 94.6137 29.1173 94.6213C29.1187 94.6259 29.1195 94.6284 29.1203 94.6308C29.121 94.633 29.1212 94.6338 29.1212 94.6337L31.9861 93.7437L34.8511 92.8536C34.8462 92.8379 34.8415 92.823 34.8393 92.8162C34.838 92.812 34.8373 92.8096 34.8366 92.8077C34.8361 92.8058 34.8359 92.8054 34.8361 92.8058L31.9705 93.6939ZM29.2996 79.3286L26.3021 79.4503C26.3043 79.5047 26.3069 79.5556 26.3088 79.5932C26.311 79.6356 26.3123 79.6604 26.3135 79.6861L29.3103 79.5483L32.3072 79.4106C32.3001 79.2565 32.3007 79.2937 32.2971 79.2069L29.2996 79.3286ZM29.3103 79.5483L32.307 79.4076C32.2966 79.1857 32.2878 78.9742 32.2817 78.7689L29.283 78.8589L26.2844 78.9489C26.2919 79.2005 26.3024 79.4486 26.3137 79.6891L29.3103 79.5483ZM29.283 78.8589L26.2845 78.9532C26.2893 79.1059 26.2947 79.2804 26.3024 79.4579L29.2996 79.3286L32.2968 79.1993C32.2909 79.0627 32.2865 78.9234 32.2815 78.7646L29.283 78.8589Z" fill="white" mask="url(#path-3-outside-2_0_5366)"/>
<path d="M95.369 149.066C106.921 141.188 102.971 115.276 86.5458 91.1893C70.1206 67.1025 47.4403 53.9624 35.888 61.8401C24.3357 69.7178 28.286 95.6302 44.7112 119.717C61.1364 143.804 83.8167 156.944 95.369 149.066Z" fill="url(#paint0_linear_0_5366)"/>
<path d="M95.3713 149.073L85.5518 155.777L83.7273 156.802C81.8003 157.683 79.6273 158.093 77.2698 158.052C77.1058 158.052 76.9418 158.052 76.7778 158.032C71.3658 157.806 65.0723 155.285 58.5943 150.898C50.4763 145.404 42.0918 136.958 34.8963 126.421C29.9968 119.225 26.2043 111.886 23.6008 104.896C21.0998 98.1922 19.7058 91.8372 19.4803 86.2817C19.1523 78.2047 21.2638 71.8087 26.0608 68.5492L35.8803 61.8457C31.0833 65.1257 28.9513 71.5012 29.2998 79.5782C29.5253 85.1337 30.9193 91.4887 33.4203 98.1922C36.0238 105.183 39.8163 112.522 44.7158 119.717C51.9113 130.254 60.2753 138.7 68.4138 144.194C75.0763 148.704 81.5748 151.246 87.0893 151.349C90.2053 151.39 93.0138 150.672 95.3713 149.073Z" fill="#699E34"/>
<path d="M57.8564 81.2188L56.1959 116.13C56.1549 116.827 56.9339 117.237 57.5079 116.868L67.5734 110.001C68.0449 109.673 68.6804 109.919 68.8444 110.452L75.3224 132.12C75.5889 133.022 76.9009 132.858 76.9624 131.936L79.2174 93.0268C79.2584 92.3708 78.5614 91.9403 77.9874 92.2478L66.1794 98.6233C65.7284 98.8693 65.1544 98.6438 64.9904 98.1518L59.4759 80.9933C59.1889 80.1118 57.8974 80.2963 57.8564 81.2188Z" fill="#3E601C"/>
<path d="M68.4136 144.195L58.5941 150.898C50.4761 145.404 42.0916 136.958 34.8961 126.421C29.9966 119.226 26.2041 111.887 23.6006 104.896L33.4201 98.1929C36.0236 105.183 39.8161 112.522 44.7156 119.718C51.9111 130.255 60.2751 138.701 68.4136 144.195Z" fill="#537D28"/>
<path d="M87.0897 151.349L76.7782 158.032C71.6532 157.807 65.2572 155.429 58.5947 150.898L68.4142 144.195C75.0767 148.725 81.5752 151.247 87.0897 151.349Z" fill="#3E601C"/>
<path d="M95.3718 149.074L85.5523 155.777L83.7278 156.802C81.8008 157.684 79.6278 158.094 77.2703 158.053C77.1063 158.053 76.9423 158.053 76.7783 158.032L87.0898 151.349C90.2058 151.39 93.0143 150.673 95.3718 149.074Z" fill="#537D28"/>
<path d="M64.2931 141.181C64.2931 141.181 67.5936 143.662 68.3931 144.195L58.5736 150.898C58.5736 150.898 55.3141 148.561 54.3506 147.782L64.2931 141.181Z" fill="#48721E"/>
<path d="M29.2998 79.5787L19.4803 86.2822C19.1523 78.2052 21.2638 71.8092 26.0608 68.5497L35.8803 61.8462C31.0833 65.1057 28.9718 71.5017 29.2998 79.5787Z" fill="#9EDE60"/>
<path d="M31.9648 93.9287C31.9648 93.9287 39.2218 122.137 68.3933 144.195" stroke="black" stroke-miterlimit="10"/>
<path d="M136.514 85.0226C153.023 60.9941 157.065 35.0961 145.541 27.1779C134.016 19.2596 111.29 32.3195 94.7803 56.348C78.2705 80.3765 74.229 106.274 85.7534 114.193C97.2777 122.111 120.004 109.051 136.514 85.0226Z" fill="#795EFF"/>
<path d="M85.7354 114.203L95.5344 120.927L97.3588 121.952C99.2858 122.854 101.459 123.264 103.816 123.223C103.98 123.223 104.144 123.223 104.308 123.202C109.72 122.997 116.034 120.496 122.512 116.13C130.651 110.656 139.076 102.251 146.292 91.7347C151.212 84.5597 155.025 77.2207 157.649 70.2507C160.171 63.5677 161.585 57.2127 161.831 51.6572C162.2 43.5802 160.089 37.1842 155.312 33.8837L145.513 27.1597C150.31 30.4602 152.401 36.8562 152.032 44.9332C151.786 50.4887 150.351 56.8437 147.85 63.5267C145.226 70.4967 141.413 77.8357 136.493 85.0107C129.277 95.5272 120.852 103.932 112.713 109.406C106.03 113.895 99.5319 116.417 94.0174 116.478C90.9014 116.56 88.0929 115.802 85.7354 114.203Z" fill="#795EFF"/>
<path d="M112.714 109.426L122.513 116.15C130.651 110.677 139.077 102.272 146.293 91.7554C151.213 84.5804 155.026 77.2414 157.65 70.2714L147.851 63.5474C145.227 70.5174 141.414 77.8564 136.494 85.0314C129.278 95.5479 120.873 103.953 112.714 109.426Z" fill="#5735FF"/>
<path d="M94.0176 116.519L104.309 123.243C109.434 123.038 115.83 120.68 122.513 116.17L112.714 109.446C106.031 113.915 99.5321 116.437 94.0176 116.519Z" fill="#3015BC"/>
<path d="M85.7354 114.203L95.5343 120.927L97.3588 121.952C99.2858 122.854 101.459 123.264 103.816 123.223C103.98 123.223 104.144 123.223 104.308 123.202L94.0174 116.478C90.9014 116.56 88.0929 115.802 85.7354 114.203Z" fill="#4224DE"/>
<path d="M116.834 106.433C116.834 106.433 113.534 108.893 112.714 109.426L122.513 116.15C122.513 116.15 125.793 113.834 126.756 113.055L116.834 106.433Z" fill="#4224DE"/>
<path d="M152.033 44.1255L161.832 50.8495C162.201 42.7726 160.089 36.3766 155.313 33.0761L145.514 26.3521C150.29 29.6526 152.402 36.0485 152.033 44.1255Z" fill="#9984FF"/>
<path d="M149.327 59.3037C149.327 59.3037 141.967 87.4707 112.714 109.426" stroke="black" stroke-miterlimit="10"/>
<path d="M99.6146 60.5336L113.637 58.5246L125.629 42.2476L125.301 59.1191L137.376 62.4401L123.149 74.8631L118.618 93.2106L110.152 84.0061L95.2891 92.0216L104.268 73.8996L99.6146 60.5336Z" fill="white"/>
<path d="M151.13 41.9343C151.55 34.0843 148.153 19.7755 131.205 25.3403" stroke="black"/>
<defs>
<linearGradient id="paint0_linear_0_5366" x1="40.5982" y1="69.2276" x2="105.959" y2="145.747" gradientUnits="userSpaceOnUse">
<stop stop-color="#AFF26D"/>
<stop offset="1" stop-color="#578A25"/>
</linearGradient>
</defs>
</svg>
