<svg width="214" height="48" viewBox="0 0 214 48" fill="none" xmlns="http://www.w3.org/2000/svg">
<path fill-rule="evenodd" clip-rule="evenodd" d="M43.9873 15.9595C43.9873 24.3975 34.8856 31.795 27.5547 34.1133L30.2051 29.1689L5.5918 45.9595L21.1377 23.8389L13.7959 27.7427L18.958 17.8516L6.45508 29.1689C10.7764 19.4688 20.4844 3.56396 31.5918 3.56396C38.4375 3.56396 43.9873 9.11377 43.9873 15.9595ZM32.5918 21.9595C36.458 21.9595 39.5918 18.8257 39.5918 14.9595C39.5918 11.0933 36.458 7.95947 32.5918 7.95947C28.7256 7.95947 25.5918 11.0933 25.5918 14.9595C25.5918 18.8257 28.7256 21.9595 32.5918 21.9595Z" fill="white"/>
<path d="M132.099 32.6777V14.031H137.811V18.4519H137.866C138.701 15.2262 140.984 13.6201 144.221 13.6201C146.276 13.6201 147.974 14.2228 149.317 15.4281C150.659 16.6335 151.33 18.3867 151.33 20.6878V32.6777H145.454V22.0028C145.454 20.8248 145.125 19.9756 144.468 19.4551C143.838 18.9072 142.961 18.6333 141.838 18.6333C140.852 18.6333 139.962 18.9209 139.167 19.4962C138.373 20.0441 137.976 20.8522 137.976 21.9206V32.6777H132.099Z" fill="white"/>
<path d="M178.805 32.678L171.819 14.0312H177.983L182.731 27.2115H182.919L187.352 14.0312H193.392L186.407 32.678H178.805Z" fill="white"/>
<path d="M163.009 33.0886C159.886 33.0886 157.407 32.1572 155.571 30.2944C153.736 28.4042 152.818 26.8261 152.818 23.5662C152.818 20.3062 153.736 18.2497 155.571 16.4143C157.407 14.5515 159.886 13.6201 163.009 13.6201C166.187 13.6201 168.679 14.5515 170.487 16.4143C172.296 18.2497 173.2 20.3062 173.2 23.5662C173.2 26.8261 172.296 28.4042 170.487 30.2944C168.679 32.1572 166.187 33.0886 163.009 33.0886ZM163.009 28.2399C164.351 28.2399 165.42 27.7605 166.214 26.8017C167.008 25.8429 167.406 25.429 167.406 23.5662C167.406 21.7034 167.008 20.7974 166.214 19.866C165.42 18.9346 164.351 18.4689 163.009 18.4689C161.694 18.4689 160.626 18.9346 159.804 19.866C159.009 20.77 158.612 21.676 158.612 23.5662C158.612 25.429 159.009 25.8429 159.804 26.8017C160.626 27.7605 161.694 28.2399 163.009 28.2399Z" fill="white"/>
<path fill-rule="evenodd" clip-rule="evenodd" d="M201.134 32.6243C205.291 32.6243 206.843 30.2257 208.15 27.6942H208.366L208.288 32.0196H214V14.0027H208.288V18.2816H208.12C208.12 15.3634 204.817 13.4331 200.384 13.4331C195.951 13.4331 192.745 17.2336 192.745 22.7733C192.745 28.0613 195.702 32.6243 201.134 32.6243ZM202.936 27.7404C200.151 27.7404 198.539 25.3538 198.539 22.7733C198.539 20.314 200.395 18.2816 202.936 18.2816C205.471 18.2816 207.332 20.3097 207.332 22.7733C207.332 25.3622 205.725 27.7404 202.936 27.7404Z" fill="white"/>
<path d="M54 33.4268L54.0001 4.16211H59.8762L59.8762 22.1607H62.1773L66.6973 14.7798H73.1487L67.0671 23.9021L73.6827 33.4268H67.067L62.1362 25.4141H59.8762L59.8761 33.4268H54Z" fill="white"/>
<path d="M88.1778 33.4269V28.8246H88.0471C86.6756 32.2413 85.4718 33.8378 81.7265 33.8378C79.6445 33.8378 77.9598 33.2351 76.6722 32.0298C75.3847 30.8244 74.7409 29.0712 74.7409 26.7701L74.741 14.7799H80.6171L80.617 25.4141C80.617 26.5646 80.9183 27.4275 81.521 28.0028C82.1511 28.5507 83.0414 28.8246 84.192 28.8246C85.2877 28.8246 86.1918 28.5096 86.904 27.8795C87.6437 27.2495 88.0135 26.4687 88.0135 25.5373L88.0136 14.7799H93.8896L93.8895 33.4269H88.1778Z" fill="white"/>
<path d="M96.5381 33.4269L96.5382 14.7799H102.209V19.7501H102.357C102.949 16.8575 104.207 14.7799 107.551 14.7799L111.071 14.78V19.9575L107.181 19.9574C105.839 19.9574 104.702 20.2177 103.77 20.7382C102.866 21.2586 102.414 22.0531 102.414 23.1215L102.414 33.4269H96.5381Z" fill="white"/>
<path d="M111.624 27.0452L116.966 26.3878C117.158 27.2096 117.555 27.8397 118.157 28.278C119.425 29.1046 121.876 29.2257 123.212 28.4834C123.732 28.1821 123.992 27.7712 123.992 27.2507C123.992 25.2729 120.205 25.414 118.726 25.1491C116.754 24.7929 114.891 24.1931 113.823 23.2891C112.782 22.3577 112.24 21.4809 112.24 19.7551C112.24 17.6457 113.035 16.6185 114.623 15.5227C116.24 14.3996 118.308 13.838 120.828 13.838C123.157 13.838 125.102 14.3585 126.663 15.3995C128.225 16.4404 129.156 17.8923 129.457 19.7552L124.321 20.7824C124.157 20.0428 123.787 19.4401 123.212 18.9744C122.072 18.0058 119.672 17.9936 118.404 18.7279C117.911 19.0292 117.664 19.3596 117.664 19.7551C117.664 20.7608 119.617 21.0129 120.294 21.1522L122.883 21.6453C125.545 22.1491 129.499 23.4999 129.499 26.7576C129.499 28.73 128.732 30.3325 127.198 31.5653C125.691 32.7706 123.499 33.3733 120.623 33.3733C118.075 33.3733 116.021 32.8391 114.459 31.7707C112.898 30.675 111.953 29.0998 111.624 27.0452Z" fill="white"/>
</svg>
