<svg width="48" height="48" viewBox="0 0 48 48" fill="none" xmlns="http://www.w3.org/2000/svg">
<g clip-path="url(#clip0_431_3776)">
<rect width="48" height="48" rx="16" fill="#5735FF"/>
<path d="M9.53349 9.05226L14.0388 17.6942L23.7755 17.2749L40.6436 27.0137C42.55 28.1146 43.2091 30.549 42.1175 32.4609L24.0751 64.0588C23.5256 65.0211 22.2979 65.3533 21.3382 64.7993L3.23369 54.3466C1.64263 53.428 -0.178087 52.9823 -2.01347 53.0639L-3.31199 53.1216C-4.23159 53.1624 -5.14234 52.9547 -5.9548 52.5272L-5.9587 52.5339C-5.98806 52.517 -6.01572 52.4973 -6.0447 52.4798C-6.0743 52.4635 -6.1053 52.4493 -6.13461 52.4324L-6.13071 52.4256C-6.90703 51.9359 -7.54298 51.2516 -7.96736 50.4349L-8.56617 49.2807C-9.41316 47.6506 -10.7089 46.2969 -12.2998 45.3784L-30.4051 34.9252C-31.3647 34.371 -31.6909 33.1418 -31.1323 32.1847L-12.788 0.761163C-11.6781 -1.14025 -9.24041 -1.78686 -7.33371 -0.686024L9.53349 9.05226Z" fill="#BF2323"/>
<path d="M24.3496 60.1678C23.245 62.081 20.7987 62.7365 18.8855 61.6319L3.90071 52.9805C1.25496 51.453 -1.84259 50.9014 -4.853 51.4216L-5.37727 51.119L15.1926 15.4909L15.7169 15.7935C19.0652 14.6033 22.767 14.9412 25.8445 16.718L40.0735 24.9332C41.9867 26.0377 42.6422 28.4841 41.5376 30.3973L24.3496 60.1678Z" fill="url(#paint0_linear_431_3776)"/>
<path d="M-28.0773 29.8992C-29.1818 31.8124 -28.5263 34.2587 -26.6132 35.3633L-11.6284 44.0148C-8.98264 45.5423 -6.95616 47.949 -5.90154 50.8163L-5.37727 51.119L15.1926 15.4909L14.6684 15.1882C14.025 11.6933 11.8814 8.65644 8.80399 6.87967L-5.42511 -1.3355C-7.33828 -2.44007 -9.78463 -1.78457 -10.8892 0.128603L-28.0773 29.8992Z" fill="url(#paint1_linear_431_3776)"/>
<path d="M27.1875 18.9293C27.7398 17.9727 28.963 17.645 29.9196 18.1973L36.9408 22.251C37.8974 22.8033 38.2252 24.0265 37.6729 24.983L27.7005 42.2557L25.1063 34.6415L17.2151 36.202L27.1875 18.9293Z" fill="url(#paint2_linear_431_3776)"/>
</g>
<defs>
<linearGradient id="paint0_linear_431_3776" x1="33.1528" y1="41.9082" x2="4.46644" y2="34.0839" gradientUnits="userSpaceOnUse">
<stop stop-color="#F7F9FF"/>
<stop offset="1" stop-color="#8A90BB"/>
</linearGradient>
<linearGradient id="paint1_linear_431_3776" x1="-14.0613" y1="9.40644" x2="19.4549" y2="49.7278" gradientUnits="userSpaceOnUse">
<stop stop-color="#E1E4F4"/>
<stop offset="1" stop-color="#8A90BB"/>
</linearGradient>
<linearGradient id="paint2_linear_431_3776" x1="33.4302" y1="20.2241" x2="22.4578" y2="39.2289" gradientUnits="userSpaceOnUse">
<stop stop-color="#DE3131"/>
<stop offset="1" stop-color="#BC1F1F"/>
</linearGradient>
<clipPath id="clip0_431_3776">
<rect width="48" height="48" rx="16" fill="white"/>
</clipPath>
</defs>
</svg>
