<svg width="48" height="48" viewBox="0 0 48 48" fill="none" xmlns="http://www.w3.org/2000/svg">
<g clip-path="url(#clip0_431_3786)">
<rect width="48" height="48" rx="16" fill="#5735FF"/>
<circle cx="17.1752" cy="33.1772" r="24" transform="rotate(30 17.1752 33.1772)" fill="#96D559"/>
<g clip-path="url(#clip1_431_3786)">
<g filter="url(#filter0_di_431_3786)">
<path fill-rule="evenodd" clip-rule="evenodd" d="M24 36C26.1985 36 28.102 36.7895 29.6562 38.3438C31.2105 39.898 32 41.8015 32 44C32 46.1985 31.2105 48.102 29.6562 49.6562C28.199 51.1135 26.4348 51.898 24.4082 51.9902L24 52C21.8015 52 19.898 51.2105 18.3438 49.6562C16.7895 48.102 16 46.1985 16 44C16 41.8015 16.7895 39.898 18.3438 38.3438C19.898 36.7895 21.8015 36 24 36ZM23.9961 42C23.4251 41.9983 22.9761 42.1859 22.5879 42.5781C22.1931 42.9775 22.0029 43.435 22 44.0039C21.9973 44.5655 22.1842 45.0181 22.584 45.418C22.9838 45.8178 23.4349 46.0036 23.9941 46H24C24.5715 46 25.0255 45.8115 25.4199 45.418C25.8128 45.0259 26.0008 44.5737 26 44.002C25.9991 43.4274 25.809 42.975 25.418 42.584C25.0269 42.1929 24.573 42.0018 23.9961 42Z" fill="white"/>
<path d="M26.3184 19.4883C27.4888 18.5332 29.2155 18.6022 30.3066 19.6934L30.5117 19.9199C31.4659 21.0903 31.3973 22.8154 30.3066 23.9062L3.90625 50.3066C2.81539 51.3973 1.09027 51.4659 -0.0800781 50.5117L-0.306641 50.3066C-1.4703 49.143 -1.47017 47.2575 -0.306641 46.0938L26.0938 19.6934L26.3184 19.4883Z" fill="white"/>
<path fill-rule="evenodd" clip-rule="evenodd" d="M6 18C8.19846 18 10.102 18.7895 11.6562 20.3438C13.2105 21.898 14 23.8015 14 26C14 28.1985 13.2105 30.102 11.6562 31.6562C10.102 33.2105 8.19846 34 6 34C3.80154 34 1.89802 33.2105 0.34375 31.6562C-1.21052 30.102 -2 28.1985 -2 26C-2 23.8015 -1.21052 21.898 0.34375 20.3438C1.89802 18.7895 3.80154 18 6 18ZM5.99609 24C5.42511 23.9983 4.97608 24.1859 4.58789 24.5781C4.19309 24.9775 4.00294 25.435 4 26.0039C3.99729 26.5655 4.18415 27.0181 4.58398 27.418C4.98378 27.8178 5.43487 28.0036 5.99414 28H6C6.57153 28 7.02552 27.8115 7.41992 27.418C7.81282 27.0259 8.00084 26.5737 8 26.002C7.99908 25.4274 7.80898 24.975 7.41797 24.584C7.0269 24.1929 6.57297 24.0018 5.99609 24Z" fill="white"/>
</g>
</g>
</g>
<defs>
<filter id="filter0_di_431_3786" x="-10" y="14" width="50" height="50" filterUnits="userSpaceOnUse" color-interpolation-filters="sRGB">
<feFlood flood-opacity="0" result="BackgroundImageFix"/>
<feColorMatrix in="SourceAlpha" type="matrix" values="0 0 0 0 0 0 0 0 0 0 0 0 0 0 0 0 0 0 127 0" result="hardAlpha"/>
<feOffset dy="4"/>
<feGaussianBlur stdDeviation="4"/>
<feComposite in2="hardAlpha" operator="out"/>
<feColorMatrix type="matrix" values="0 0 0 0 0 0 0 0 0 0 0 0 0 0 0 0 0 0 0.25 0"/>
<feBlend mode="normal" in2="BackgroundImageFix" result="effect1_dropShadow_431_3786"/>
<feBlend mode="normal" in="SourceGraphic" in2="effect1_dropShadow_431_3786" result="shape"/>
<feColorMatrix in="SourceAlpha" type="matrix" values="0 0 0 0 0 0 0 0 0 0 0 0 0 0 0 0 0 0 127 0" result="hardAlpha"/>
<feOffset dy="-2"/>
<feGaussianBlur stdDeviation="1.3"/>
<feComposite in2="hardAlpha" operator="arithmetic" k2="-1" k3="1"/>
<feColorMatrix type="matrix" values="0 0 0 0 0.181946 0 0 0 0 0.4198 0 0 0 0 0.139972 0 0 0 0.34 0"/>
<feBlend mode="normal" in2="shape" result="effect2_innerShadow_431_3786"/>
</filter>
<clipPath id="clip0_431_3786">
<rect width="48" height="48" rx="16" fill="white"/>
</clipPath>
<clipPath id="clip1_431_3786">
<rect width="48" height="48" fill="white" transform="translate(-10 10)"/>
</clipPath>
</defs>
</svg>
