<svg width="48" height="48" viewBox="0 0 48 48" fill="none" xmlns="http://www.w3.org/2000/svg">
<g clip-path="url(#clip0_431_3795)">
<rect width="48" height="48" rx="16" fill="#D36600"/>
<g filter="url(#filter0_i_431_3795)">
<path d="M23.5783 12.064C26.2554 10.4935 29.6235 12.4381 29.602 15.5418L29.3487 52.2339C29.3275 55.3008 26.0049 57.2039 23.3488 55.6704L-8.04754 37.5437C-10.7036 36.0103 -10.7168 32.1812 -8.07141 30.6294L23.5783 12.064Z" fill="url(#paint0_linear_431_3795)"/>
</g>
<g filter="url(#filter1_di_431_3795)">
<path d="M13.6489 36.2135C15.0837 37.0419 15.5754 38.8767 14.7469 40.3115C13.9185 41.7464 12.0837 42.238 10.6489 41.4096C9.21425 40.5811 8.72244 38.7463 9.55078 37.3115C10.3791 35.8768 12.214 35.3853 13.6489 36.2135ZM22.6497 20.6255C24.0842 21.454 24.576 23.2888 23.7478 24.7236L18.7478 33.3838C17.9194 34.8186 16.0845 35.31 14.6497 34.4819C13.2148 33.6535 12.7232 31.8187 13.5516 30.3838L18.5516 21.7236C19.3801 20.2888 21.2149 19.7971 22.6497 20.6255Z" fill="black"/>
</g>
</g>
<defs>
<filter id="filter0_i_431_3795" x="-10.0469" y="11.5078" width="39.6484" height="50.7051" filterUnits="userSpaceOnUse" color-interpolation-filters="sRGB">
<feFlood flood-opacity="0" result="BackgroundImageFix"/>
<feBlend mode="normal" in="SourceGraphic" in2="BackgroundImageFix" result="shape"/>
<feColorMatrix in="SourceAlpha" type="matrix" values="0 0 0 0 0 0 0 0 0 0 0 0 0 0 0 0 0 0 127 0" result="hardAlpha"/>
<feOffset dy="6"/>
<feGaussianBlur stdDeviation="4"/>
<feComposite in2="hardAlpha" operator="arithmetic" k2="-1" k3="1"/>
<feColorMatrix type="matrix" values="0 0 0 0 1 0 0 0 0 1 0 0 0 0 1 0 0 0 0.25 0"/>
<feBlend mode="normal" in2="shape" result="effect1_innerShadow_431_3795"/>
</filter>
<filter id="filter1_di_431_3795" x="1.14844" y="16.2227" width="31.002" height="37.5898" filterUnits="userSpaceOnUse" color-interpolation-filters="sRGB">
<feFlood flood-opacity="0" result="BackgroundImageFix"/>
<feColorMatrix in="SourceAlpha" type="matrix" values="0 0 0 0 0 0 0 0 0 0 0 0 0 0 0 0 0 0 127 0" result="hardAlpha"/>
<feOffset dy="4"/>
<feGaussianBlur stdDeviation="4"/>
<feComposite in2="hardAlpha" operator="out"/>
<feColorMatrix type="matrix" values="0 0 0 0 0 0 0 0 0 0 0 0 0 0 0 0 0 0 0.25 0"/>
<feBlend mode="normal" in2="BackgroundImageFix" result="effect1_dropShadow_431_3795"/>
<feBlend mode="normal" in="SourceGraphic" in2="effect1_dropShadow_431_3795" result="shape"/>
<feColorMatrix in="SourceAlpha" type="matrix" values="0 0 0 0 0 0 0 0 0 0 0 0 0 0 0 0 0 0 127 0" result="hardAlpha"/>
<feOffset dx="1" dy="2"/>
<feGaussianBlur stdDeviation="1"/>
<feComposite in2="hardAlpha" operator="arithmetic" k2="-1" k3="1"/>
<feColorMatrix type="matrix" values="0 0 0 0 1 0 0 0 0 1 0 0 0 0 1 0 0 0 0.44 0"/>
<feBlend mode="normal" in2="shape" result="effect2_innerShadow_431_3795"/>
</filter>
<linearGradient id="paint0_linear_431_3795" x1="29.6506" y1="8.50195" x2="7.65064" y2="46.6071" gradientUnits="userSpaceOnUse">
<stop stop-color="#F6FA33"/>
<stop offset="1" stop-color="#FFA148"/>
</linearGradient>
<clipPath id="clip0_431_3795">
<rect width="48" height="48" rx="16" fill="white"/>
</clipPath>
</defs>
</svg>
