<svg width="272" height="132" viewBox="0 0 272 132" fill="none" xmlns="http://www.w3.org/2000/svg">
<rect x="83.4961" y="17.5884" width="179.111" height="56.1416" rx="28.0708" transform="rotate(-0.298253 83.4961 17.5884)" fill="#14141A"/>
<mask id="path-2-outside-1_0_5336" maskUnits="userSpaceOnUse" x="-4.38836" y="-2.50311" width="277.855" height="139.635" fill="black">
<rect fill="white" x="-4.38836" y="-2.50311" width="277.855" height="139.635"/>
<path d="M83.644 45.6585C83.5635 30.1558 96.0653 17.5229 111.568 17.4422L234.536 16.8026C250.039 16.722 262.672 29.2238 262.752 44.7266C262.795 53.0049 259.25 60.4638 253.576 65.6312C256.926 70.227 258.916 75.8797 258.948 82.0011C259.028 97.5039 246.526 110.137 231.024 110.217L34.8287 111.239C19.3261 111.319 6.69326 98.8175 6.61235 83.3149C6.53165 67.8122 19.0336 55.1786 34.5363 55.0976L85.2295 54.8337C84.2188 51.9614 83.6607 48.8746 83.644 45.6585Z"/>
</mask>
<path d="M83.644 45.6585C83.5635 30.1558 96.0653 17.5229 111.568 17.4422L234.536 16.8026C250.039 16.722 262.672 29.2238 262.752 44.7266C262.795 53.0049 259.25 60.4638 253.576 65.6312C256.926 70.227 258.916 75.8797 258.948 82.0011C259.028 97.5039 246.526 110.137 231.024 110.217L34.8287 111.239C19.3261 111.319 6.69326 98.8175 6.61235 83.3149C6.53165 67.8122 19.0336 55.1786 34.5363 55.0976L85.2295 54.8337C84.2188 51.9614 83.6607 48.8746 83.644 45.6585Z" fill="#14141A"/>
<path d="M83.644 45.6585L79.644 45.6793L79.644 45.6794L83.644 45.6585ZM111.568 17.4422L111.547 13.4423L111.547 13.4423L111.568 17.4422ZM234.536 16.8026L234.515 12.8026L234.515 12.8026L234.536 16.8026ZM262.752 44.7266L266.752 44.7058L266.752 44.7058L262.752 44.7266ZM253.576 65.6312L250.882 62.6739L248.231 65.089L250.343 67.9873L253.576 65.6312ZM258.948 82.0011L262.948 81.9803L262.948 81.9803L258.948 82.0011ZM231.024 110.217L231.045 114.217L231.045 114.217L231.024 110.217ZM34.8287 111.239L34.8495 115.239L34.8495 115.239L34.8287 111.239ZM6.61235 83.3149L2.61241 83.3357L2.61241 83.3358L6.61235 83.3149ZM34.5363 55.0976L34.5155 51.0977L34.5154 51.0977L34.5363 55.0976ZM85.2295 54.8337L85.2503 58.8336L90.8671 58.8044L89.0027 53.5059L85.2295 54.8337ZM83.644 45.6585L87.6439 45.6378C87.5749 32.3441 98.2953 21.5113 111.589 21.4421L111.568 17.4422L111.547 13.4423C93.8353 13.5345 79.5521 27.9676 79.644 45.6793L83.644 45.6585ZM111.568 17.4422L111.589 21.4421L234.557 20.8025L234.536 16.8026L234.515 12.8026L111.547 13.4423L111.568 17.4422ZM234.536 16.8026L234.557 20.8025C247.851 20.7334 258.683 31.4538 258.752 44.7474L262.752 44.7266L266.752 44.7058C266.66 26.9938 252.227 12.7106 234.515 12.8026L234.536 16.8026ZM262.752 44.7266L258.752 44.7474C258.789 51.8453 255.754 58.2368 250.882 62.6739L253.576 65.6312L256.269 68.5885C262.745 62.6908 266.802 54.1646 266.752 44.7058L262.752 44.7266ZM253.576 65.6312L250.343 67.9873C253.216 71.9278 254.92 76.7685 254.948 82.022L258.948 82.0011L262.948 81.9803C262.911 74.9909 260.636 68.5263 256.808 63.2751L253.576 65.6312ZM258.948 82.0011L254.948 82.0219C255.017 95.3156 244.297 106.148 231.003 106.218L231.024 110.217L231.045 114.217C248.756 114.125 263.04 99.6922 262.948 81.9803L258.948 82.0011ZM231.024 110.217L231.003 106.218L34.8079 107.239L34.8287 111.239L34.8495 115.239L231.045 114.217L231.024 110.217ZM34.8287 111.239L34.8079 107.239C21.5144 107.308 10.6817 96.5875 10.6123 83.294L6.61235 83.3149L2.61241 83.3358C2.70484 101.047 17.1378 115.331 34.8495 115.239L34.8287 111.239ZM6.61235 83.3149L10.6123 83.2941C10.5431 70.0004 21.2637 59.167 34.5572 59.0976L34.5363 55.0976L34.5154 51.0977C16.8036 51.1902 2.52021 65.6241 2.61241 83.3357L6.61235 83.3149ZM34.5363 55.0976L34.5571 59.0976L85.2503 58.8336L85.2295 54.8337L85.2087 50.8337L34.5155 51.0977L34.5363 55.0976ZM85.2295 54.8337L89.0027 53.5059C88.1375 51.047 87.6583 48.4016 87.6439 45.6377L83.644 45.6585L79.644 45.6794C79.6631 49.3476 80.3002 52.8758 81.4563 56.1614L85.2295 54.8337Z" fill="white" mask="url(#path-2-outside-1_0_5336)"/>
<path d="M112.997 54.0088C111.942 54.0142 111.005 53.8911 110.188 53.6394C109.386 53.3875 108.696 53.0311 108.118 52.5701C107.556 52.1091 107.113 51.5594 106.789 50.921C106.482 50.2666 106.302 49.5395 106.25 48.7398L109.274 48.7241C109.374 49.5396 109.738 50.2017 110.364 50.7104C110.991 51.2192 111.864 51.4706 112.984 51.4648C114.248 51.4582 115.175 51.2294 115.765 50.7783C116.37 50.3271 116.671 49.6856 116.667 48.8536C116.663 48.0536 116.371 47.4231 115.793 46.9621C115.214 46.4851 114.269 46.25 112.957 46.2569L110.917 46.2675L110.905 43.9635L112.945 43.9529C113.969 43.9476 114.736 43.7356 115.246 43.3169C115.772 42.8822 116.033 42.2968 116.029 41.5608C116.025 40.8408 115.774 40.2741 115.276 39.8607C114.794 39.4312 114.009 39.2193 112.921 39.225C111.849 39.2305 111.042 39.4427 110.5 39.8616C109.974 40.2803 109.673 40.8739 109.597 41.6423L106.573 41.658C106.677 40.1535 107.247 38.9505 108.282 38.0491C109.318 37.1477 110.859 36.6916 112.907 36.681C114.955 36.6703 116.485 37.0864 117.498 37.9291C118.526 38.7718 119.044 39.9371 119.052 41.4251C119.057 42.3051 118.813 43.0503 118.32 43.6609C117.827 44.2555 117.165 44.6909 116.334 44.9673C117.36 45.2019 118.17 45.6537 118.766 46.3226C119.377 46.9914 119.686 47.8699 119.691 48.9578C119.695 49.6938 119.555 50.3746 119.27 51.0001C119.001 51.6095 118.58 52.1397 118.006 52.5907C117.448 53.0256 116.746 53.3732 115.9 53.6336C115.069 53.878 114.101 54.003 112.997 54.0088ZM126.687 53.9375C125.999 53.9411 125.382 53.8483 124.837 53.6591C124.308 53.4539 123.859 53.1762 123.489 52.8261C123.119 52.46 122.837 52.0375 122.642 51.5585C122.448 51.0795 122.349 50.552 122.346 49.976C122.339 48.7121 122.711 47.7741 123.459 47.1622C124.208 46.5343 125.31 46.2166 126.766 46.209L130.726 46.1884L130.723 45.4924C130.718 44.5324 130.498 43.8775 130.065 43.5278C129.647 43.1619 128.982 42.9814 128.07 42.9861C127.254 42.9904 126.654 43.1215 126.272 43.3795C125.889 43.6375 125.667 43.9907 125.605 44.439L123.037 44.4524C123.066 43.9082 123.2 43.4115 123.438 42.9623C123.691 42.4969 124.033 42.0951 124.463 41.7569C124.909 41.4186 125.444 41.1598 126.067 40.9805C126.69 40.7853 127.394 40.6856 128.178 40.6816C128.962 40.6775 129.666 40.7618 130.291 40.9346C130.932 41.1072 131.477 41.3844 131.927 41.766C132.377 42.1317 132.724 42.6099 132.967 43.2007C133.226 43.7913 133.358 44.5026 133.362 45.3346L133.388 50.3986C133.392 51.0706 133.403 51.6625 133.422 52.1744C133.44 52.6703 133.483 53.1581 133.549 53.6378L131.149 53.6503C131.099 53.2825 131.058 52.9707 131.024 52.7149C131.007 52.459 130.997 52.139 130.995 51.755C130.694 52.3486 130.169 52.8634 129.419 53.2993C128.686 53.7191 127.775 53.9318 126.687 53.9375ZM127.395 51.6298C127.843 51.6274 128.266 51.5692 128.666 51.4552C129.081 51.325 129.44 51.1471 129.743 50.9215C130.046 50.68 130.284 50.3907 130.459 50.0538C130.649 49.7008 130.743 49.3003 130.74 48.8523L130.737 48.1563L127.257 48.1744C126.585 48.1779 126.041 48.3248 125.627 48.6149C125.228 48.905 125.031 49.3301 125.034 49.89C125.036 50.418 125.223 50.8411 125.592 51.1592C125.978 51.4771 126.579 51.634 127.395 51.6298ZM137.066 40.8993L139.706 40.8855L139.733 46.0455L141.173 46.038L145.61 40.8548L148.586 40.8393L143.218 46.9393L148.893 53.5579L145.677 53.5746L141.185 48.1979L139.745 48.2054L139.773 53.6054L137.133 53.6191L137.066 40.8993ZM151.468 40.8243L153.916 40.8116L153.927 42.9475C154.307 42.2096 154.872 41.6226 155.622 41.1867C156.388 40.7507 157.251 40.5302 158.211 40.5252C159.875 40.5166 161.189 41.0297 162.155 42.0647C163.12 43.0997 163.608 44.6652 163.619 46.7611L163.622 47.2411C163.627 48.3291 163.504 49.2818 163.253 50.0991C163.001 50.9164 162.636 51.5983 162.159 52.1448C161.698 52.6752 161.14 53.0781 160.485 53.3535C159.831 53.629 159.096 53.7688 158.28 53.773C157.368 53.7778 156.535 53.5821 155.781 53.186C155.026 52.79 154.488 52.2328 154.164 51.5144L154.199 58.3303L151.559 58.3441L151.468 40.8243ZM157.644 51.4723C158.636 51.4672 159.434 51.119 160.038 50.4278C160.643 49.7367 160.941 48.6791 160.934 47.2551L160.931 46.7751C160.924 45.4312 160.623 44.4407 160.028 43.8038C159.432 43.1509 158.623 42.8271 157.599 42.8324C157.151 42.8348 156.719 42.909 156.304 43.0552C155.889 43.2013 155.514 43.4193 155.179 43.709C154.861 43.9827 154.606 44.336 154.417 44.769C154.227 45.186 154.133 45.6665 154.136 46.2105L154.145 47.8905C154.148 48.4985 154.247 49.026 154.441 49.473C154.636 49.92 154.893 50.2946 155.215 50.5969C155.537 50.8993 155.906 51.1214 156.323 51.2632C156.739 51.405 157.18 51.4747 157.644 51.4723ZM172.301 53.7C171.453 53.7045 170.652 53.5806 169.899 53.3285C169.146 53.0605 168.48 52.6639 167.901 52.1389C167.338 51.5979 166.887 50.9202 166.546 50.106C166.206 49.2917 166.033 48.3326 166.027 47.2286L166.025 46.7486C166.019 45.6926 166.175 44.7718 166.49 43.9862C166.806 43.2005 167.235 42.5503 167.776 42.0354C168.334 41.5045 168.971 41.1092 169.69 40.8495C170.409 40.5897 171.176 40.4577 171.992 40.4535C173.928 40.4434 175.411 40.9557 176.44 41.9903C177.486 43.0249 178.013 44.5102 178.023 46.4462L178.03 47.7901L168.719 47.8386C168.738 48.4945 168.845 49.054 169.039 49.517C169.25 49.9639 169.515 50.3305 169.837 50.6168C170.174 50.8871 170.551 51.0851 170.968 51.211C171.401 51.3367 171.841 51.3984 172.289 51.3961C173.201 51.3913 173.864 51.2439 174.279 50.9537C174.709 50.6635 175.003 50.2859 175.161 49.8211L177.801 49.8074C177.551 51.0727 176.924 52.036 175.92 52.6972C174.931 53.3583 173.725 53.6926 172.301 53.7ZM172.124 42.7568C171.676 42.7592 171.244 42.8174 170.829 42.9316C170.43 43.0456 170.071 43.2315 169.752 43.4892C169.449 43.7308 169.203 44.052 169.013 44.453C168.823 44.838 168.721 45.3106 168.708 45.8706L175.38 45.8359C175.361 45.244 175.263 44.7485 175.084 44.3494C174.922 43.9503 174.697 43.6314 174.407 43.3929C174.118 43.1544 173.773 42.9882 173.373 42.8943C172.988 42.8003 172.572 42.7545 172.124 42.7568ZM181.115 40.67L192.155 40.6125L192.221 53.3323L189.581 53.3461L189.527 42.8822L183.767 42.9122L183.821 53.3761L181.181 53.3898L181.115 40.67ZM195.813 53.5777C195.685 53.5783 195.541 53.5711 195.381 53.5559C195.237 53.5567 195.101 53.5414 194.973 53.51L194.96 51.0141C195.04 51.0296 195.16 51.037 195.32 51.0362C195.656 51.0344 195.943 50.9369 196.182 50.7437C196.421 50.5344 196.612 50.1814 196.753 49.6847C196.91 49.1719 197.027 48.4913 197.102 47.6429C197.178 46.7945 197.212 45.7223 197.206 44.4263L197.186 40.5863L206.786 40.5364L206.852 53.2562L204.212 53.2699L204.157 42.8061L199.741 42.8291L199.752 44.893C199.761 46.605 199.68 48.0214 199.51 49.1423C199.356 50.2472 199.113 51.1284 198.78 51.7862C198.447 52.4439 198.034 52.9101 197.539 53.1847C197.045 53.4432 196.469 53.5742 195.813 53.5777ZM213.135 48.3994C212.173 48.1164 211.459 47.6481 210.991 46.9946C210.524 46.341 210.288 45.5502 210.283 44.6222C210.277 43.3742 210.687 42.3801 211.516 41.6398C212.344 40.8834 213.606 40.5009 215.302 40.492L221.062 40.462L221.128 53.1819L218.488 53.1956L218.464 48.6837L215.728 48.6979L212.92 53.2246L209.848 53.2406L213.135 48.3994ZM212.971 44.6082C212.975 45.2802 213.177 45.7592 213.579 46.0451C213.98 46.315 214.525 46.4482 215.213 46.4446L218.453 46.4277L218.433 42.7318L215.193 42.7486C214.505 42.7522 213.962 42.899 213.564 43.1891C213.165 43.4632 212.968 43.9362 212.971 44.6082ZM224.906 40.442L227.546 40.4283L227.593 49.4282L233.666 40.3964L236.186 40.3833L236.252 53.1031L233.612 53.1169L233.565 44.117L227.492 53.1487L224.972 53.1619L224.906 40.442ZM230.539 38.9727C229.211 38.9796 228.233 38.6967 227.606 38.1239C226.995 37.5351 226.687 36.7047 226.681 35.6327L229.129 35.62C229.132 36.196 229.246 36.6114 229.472 36.8662C229.713 37.121 230.066 37.2471 230.53 37.2447C230.994 37.2423 231.337 37.1125 231.56 36.8553C231.798 36.5981 231.916 36.1815 231.913 35.6055L234.361 35.5927C234.367 36.6647 234.059 37.4983 233.438 38.0936C232.817 38.6728 231.851 38.9659 230.539 38.9727Z" fill="white"/>
<path d="M42.2226 90.8937C40.4946 90.9027 39.1568 90.5576 38.2091 89.8586C37.2774 89.1434 36.7681 88.13 36.6813 86.8185L39.3692 86.8045C39.4522 87.3801 39.7106 87.8267 40.1442 88.1445C40.5778 88.4462 41.2506 88.5947 42.1626 88.59C43.2505 88.5843 44.0016 88.4044 44.4158 88.0502C44.8299 87.6961 45.0357 87.255 45.0329 86.727C45.0304 86.247 44.8445 85.872 44.475 85.6019C44.1215 85.3157 43.4968 85.175 42.6008 85.1796L40.5128 85.1905L40.5021 83.1265L42.4221 83.1165C43.1581 83.1127 43.6933 82.9579 44.0277 82.6522C44.3621 82.3464 44.5281 81.9616 44.5257 81.4976C44.5235 81.0816 44.3456 80.7225 43.9921 80.4203C43.6384 80.1022 43.0296 79.9453 42.1656 79.9498C41.2376 79.9547 40.5904 80.11 40.224 80.416C39.8736 80.7218 39.6597 81.1309 39.5824 81.6433L36.8944 81.6573C36.9681 80.4409 37.451 79.4704 38.3433 78.7457C39.2515 78.021 40.5216 77.6544 42.1536 77.6459C43.8976 77.6368 45.1713 77.9742 45.9749 78.658C46.7945 79.3417 47.2071 80.2356 47.2129 81.3396C47.2161 81.9476 47.0668 82.4844 46.7653 82.9499C46.4797 83.4154 46.0015 83.7699 45.3308 84.0134C46.2279 84.2328 46.8459 84.6055 47.1846 85.1318C47.5394 85.6579 47.7185 86.265 47.7221 86.953C47.7249 87.497 47.6156 88.0096 47.3941 88.4907C47.1726 88.9719 46.8308 89.3897 46.3686 89.7441C45.9225 90.0984 45.3479 90.3814 44.645 90.5931C43.958 90.7887 43.1505 90.8889 42.2226 90.8937ZM50.7986 77.8649L53.4386 77.8511L53.4652 82.9631L59.4651 82.9318L59.4385 77.8199L62.0784 77.8062L62.1447 90.526L59.5047 90.5397L59.4768 85.1878L53.4769 85.219L53.5048 90.571L50.8648 90.5847L50.7986 77.8649ZM69.7144 90.7506C69.0264 90.7542 68.4099 90.6614 67.8649 90.4722C67.3358 90.267 66.8864 89.9893 66.5165 89.6392C66.1466 89.2731 65.8644 88.8506 65.6699 88.3716C65.4754 87.8926 65.3767 87.3651 65.3737 86.7891C65.3671 85.5251 65.7382 84.5872 66.4871 83.9753C67.2358 83.3474 68.3382 83.0296 69.7941 83.0221L73.7541 83.0014L73.7505 82.3055C73.7455 81.3455 73.5261 80.6906 73.0922 80.3409C72.6743 79.975 72.0094 79.7945 71.0974 79.7992C70.2814 79.8035 69.6821 79.9346 69.2994 80.1926C68.9167 80.4506 68.6946 80.8038 68.6329 81.2521L66.0649 81.2654C66.0941 80.7213 66.2275 80.2246 66.4652 79.7753C66.7188 79.31 67.0607 78.9082 67.4909 78.57C67.9372 78.2317 68.4718 77.9729 69.0949 77.7936C69.7179 77.5984 70.4214 77.4987 71.2054 77.4946C71.9894 77.4906 72.6938 77.5749 73.3187 77.7476C73.9596 77.9203 74.5051 78.1975 74.9551 78.5791C75.405 78.9448 75.7515 79.423 75.9946 80.0137C76.2536 80.6044 76.3853 81.3157 76.3897 82.1477L76.416 87.2116C76.4195 87.8836 76.4306 88.4756 76.4493 88.9875C76.4679 89.4834 76.5104 89.9712 76.5769 90.4509L74.1769 90.4633C74.127 90.0956 74.0854 89.7838 74.0521 89.528C74.0347 89.2721 74.0251 88.9521 74.0231 88.5681C73.7222 89.1617 73.1968 89.6764 72.4471 90.1123C71.7133 90.5322 70.8024 90.7449 69.7144 90.7506ZM70.4224 88.4429C70.8704 88.4405 71.2941 88.3823 71.6935 88.2682C72.1088 88.1381 72.4679 87.9602 72.7707 87.7346C73.0735 87.4931 73.312 87.2038 73.4862 86.8669C73.6764 86.5139 73.7703 86.1134 73.768 85.6654L73.7643 84.9694L70.2844 84.9875C69.6124 84.991 69.0691 85.1379 68.6546 85.428C68.2562 85.7181 68.0584 86.1431 68.0613 86.7031C68.064 87.2311 68.2502 87.6542 68.6199 87.9722C69.0056 88.2902 69.6064 88.4471 70.4224 88.4429ZM80.0941 77.7124L82.7341 77.6986L82.7607 82.8106L88.7606 82.7793L88.734 77.6674L91.374 77.6537L91.4402 90.3735L88.8002 90.3872L88.7724 85.0353L82.7725 85.0665L82.8003 90.4185L80.1604 90.4322L80.0941 77.7124ZM95.2224 77.6336L97.8623 77.6199L97.9092 86.6198L103.982 77.588L106.502 77.5749L106.568 90.2947L103.928 90.3085L103.882 81.3086L97.8085 90.3403L95.2886 90.3534L95.2224 77.6336ZM112.864 85.4379C111.902 85.1549 111.188 84.6866 110.72 84.033C110.253 83.3795 110.017 82.5887 110.012 81.6607C110.005 80.4127 110.416 79.4186 111.244 78.6782C112.073 77.9219 113.335 77.5393 115.031 77.5305L120.79 77.5005L120.857 90.2204L118.217 90.2341L118.193 85.7222L115.457 85.7364L112.649 90.2631L109.577 90.2791L112.864 85.4379ZM112.7 81.6467C112.703 82.3187 112.906 82.7976 113.307 83.0836C113.709 83.3535 114.254 83.4866 114.942 83.4831L118.181 83.4662L118.162 79.7702L114.922 79.7871C114.234 79.7907 113.691 79.9375 113.293 80.2276C112.894 80.5017 112.696 80.9747 112.7 81.6467ZM131.115 77.4468L133.755 77.433L133.802 86.4329L139.875 77.4012L142.395 77.3881L142.461 90.1079L139.821 90.1216L139.774 81.1218L133.701 90.1535L131.181 90.1666L131.115 77.4468ZM150.991 90.3275C149.263 90.3365 147.925 89.9914 146.977 89.2924C146.046 88.5772 145.536 87.5638 145.449 86.2523L148.137 86.2383C148.22 86.8139 148.479 87.2605 148.912 87.5783C149.346 87.88 150.019 88.0285 150.931 88.0238C152.019 88.0181 152.77 87.8382 153.184 87.484C153.598 87.1299 153.804 86.6888 153.801 86.1608C153.799 85.6808 153.613 85.3058 153.243 85.0357C152.89 84.7495 152.265 84.6088 151.369 84.6134L149.281 84.6243L149.27 82.5603L151.19 82.5503C151.926 82.5465 152.461 82.3917 152.796 82.086C153.13 81.7802 153.296 81.3954 153.294 80.9314C153.292 80.5154 153.114 80.1563 152.76 79.8541C152.407 79.536 151.798 79.3791 150.934 79.3836C150.006 79.3885 149.359 79.5438 148.992 79.8498C148.642 80.1556 148.428 80.5647 148.351 81.0771L145.663 81.0911C145.736 79.8747 146.219 78.9042 147.111 78.1795C148.02 77.4548 149.29 77.0882 150.922 77.0797C152.666 77.0706 153.94 77.408 154.743 78.0918C155.563 78.7755 155.975 79.6694 155.981 80.7734C155.984 81.3814 155.835 81.9182 155.533 82.3837C155.248 82.8492 154.77 83.2037 154.099 83.4472C154.996 83.6666 155.614 84.0393 155.953 84.5656C156.308 85.0917 156.487 85.6988 156.49 86.3868C156.493 86.9308 156.384 87.4434 156.162 87.9245C155.941 88.4057 155.599 88.8235 155.137 89.1779C154.691 89.5322 154.116 89.8152 153.413 90.0269C152.726 90.2225 151.919 90.3227 150.991 90.3275ZM166.047 77.2649L172.047 77.2337C173.647 77.2254 174.808 77.5473 175.532 78.1996C176.255 78.8358 176.619 79.6579 176.625 80.6659C176.627 81.2259 176.462 81.7708 176.129 82.3005C175.796 82.8143 175.326 83.1607 174.718 83.3399C175.503 83.5278 176.097 83.8927 176.5 84.4346C176.919 84.9605 177.13 85.5834 177.134 86.3033C177.14 87.4073 176.776 88.2892 176.044 88.9491C175.311 89.6089 174.161 89.9429 172.593 89.951L166.113 89.9848L166.047 77.2649ZM172.221 87.6969C173.085 87.6924 173.676 87.5534 173.995 87.2797C174.329 86.99 174.495 86.5891 174.493 86.0771C174.49 85.5651 174.32 85.182 173.983 84.9277C173.661 84.6574 173.069 84.5245 172.205 84.529L168.725 84.5471L168.741 87.7151L172.221 87.6969ZM171.834 82.4669C172.634 82.4627 173.193 82.3318 173.512 82.0741C173.83 81.8005 173.989 81.4317 173.986 80.9677C173.984 80.5037 173.822 80.1445 173.5 79.8902C173.179 79.6198 172.618 79.4868 171.818 79.4909L168.698 79.5072L168.714 82.4831L171.834 82.4669ZM180.214 77.1912L182.854 77.1775L182.901 86.1773L188.974 77.1456L191.494 77.1325L191.56 89.8523L188.92 89.866L188.873 80.8662L182.8 89.8979L180.28 89.911L180.214 77.1912ZM194.197 87.5825L195.637 87.5751C195.795 87.3342 195.938 86.9735 196.063 86.4928C196.205 86.0121 196.322 85.4675 196.415 84.859C196.507 84.2345 196.576 83.5701 196.62 82.8659C196.664 82.1456 196.685 81.4255 196.681 80.7055L196.662 77.1056L206.142 77.0562L206.197 87.5201L207.877 87.5113L207.904 92.7673L205.456 92.78L205.44 89.78L196.656 89.8258L196.672 92.8257L194.224 92.8385L194.197 87.5825ZM203.557 87.5338L203.514 79.3259L199.218 79.3483L199.227 81.1723C199.234 82.4043 199.168 83.5886 199.03 84.7253C198.892 85.8461 198.657 86.7913 198.325 87.5611L203.557 87.5338ZM216.058 89.9888C215.21 89.9932 214.409 89.8694 213.656 89.6173C212.903 89.3492 212.237 88.9527 211.658 88.4277C211.095 87.8866 210.643 87.2089 210.303 86.3947C209.963 85.5804 209.79 84.6213 209.784 83.5174L209.782 83.0374C209.776 81.9814 209.931 81.0606 210.247 80.2749C210.563 79.4892 210.992 78.839 211.533 78.3242C212.09 77.7933 212.728 77.3979 213.447 77.1382C214.166 76.8785 214.933 76.7465 215.749 76.7422C217.685 76.7321 219.168 77.2444 220.197 78.2791C221.243 79.3136 221.77 80.7989 221.78 82.7349L221.787 84.0789L212.475 84.1274C212.495 84.7833 212.602 85.3427 212.796 85.8057C213.007 86.2526 213.272 86.6192 213.594 86.9056C213.931 87.1758 214.308 87.3739 214.725 87.4997C215.158 87.6254 215.598 87.6871 216.046 87.6848C216.958 87.6801 217.621 87.5326 218.036 87.2424C218.466 86.9522 218.76 86.5747 218.918 86.1098L221.558 86.0961C221.308 87.3614 220.681 88.3247 219.677 88.9859C218.688 89.6471 217.482 89.9814 216.058 89.9888ZM215.881 79.0456C215.433 79.0479 215.001 79.1061 214.586 79.2203C214.187 79.3344 213.827 79.5203 213.509 79.7779C213.206 80.0195 212.96 80.3408 212.77 80.7418C212.58 81.1268 212.478 81.5993 212.465 82.1594L219.137 82.1246C219.118 81.5327 219.019 81.0372 218.841 80.6382C218.679 80.239 218.454 79.9202 218.164 79.6817C217.875 79.4432 217.53 79.277 217.13 79.1831C216.745 79.0891 216.329 79.0432 215.881 79.0456ZM230.46 89.9138C229.58 89.9184 228.755 89.7867 227.986 89.5187C227.232 89.2346 226.574 88.822 226.011 88.2809C225.448 87.7399 225.005 87.0702 224.681 86.2718C224.356 85.4575 224.191 84.5144 224.186 83.4424L224.183 82.9624C224.178 81.9544 224.334 81.0656 224.65 80.2959C224.965 79.5103 225.402 78.852 225.959 78.3211C226.516 77.7742 227.17 77.3628 227.921 77.0869C228.687 76.8109 229.511 76.6706 230.391 76.666C231.271 76.6614 232.087 76.7932 232.841 77.0612C233.61 77.3292 234.276 77.7338 234.839 78.2749C235.402 78.7999 235.845 79.4536 236.169 80.236C236.493 81.0023 236.658 81.8894 236.663 82.8974L236.666 83.3774C236.671 84.4494 236.516 85.3942 236.2 86.2119C235.885 87.0135 235.448 87.6878 234.891 88.2347C234.334 88.7816 233.672 89.2011 232.906 89.4931C232.155 89.769 231.34 89.9092 230.46 89.9138ZM230.448 87.6098C230.912 87.6074 231.351 87.5251 231.766 87.363C232.198 87.2007 232.572 86.9508 232.891 86.6131C233.225 86.2754 233.487 85.842 233.676 85.313C233.881 84.7839 233.982 84.1434 233.978 83.3914L233.975 82.9114C233.972 82.2234 233.865 81.632 233.654 81.1371C233.459 80.6421 233.193 80.2355 232.856 79.9172C232.534 79.5989 232.157 79.3608 231.724 79.2031C231.307 79.0453 230.867 78.9675 230.403 78.97C229.939 78.9724 229.491 79.0547 229.06 79.217C228.645 79.3791 228.27 79.6211 227.936 79.9428C227.617 80.2645 227.356 80.6738 227.15 81.1709C226.961 81.6679 226.868 82.2604 226.871 82.9484L226.874 83.4284C226.878 84.1804 226.977 84.8199 227.172 85.3469C227.383 85.8738 227.649 86.3044 227.971 86.6387C228.308 86.973 228.686 87.219 229.102 87.3768C229.535 87.5346 229.984 87.6123 230.448 87.6098Z" fill="white"/>
</svg>
