<svg width="399" height="131" viewBox="0 0 399 131" fill="none" xmlns="http://www.w3.org/2000/svg">
<rect x="9.64496" y="4.1027" width="308.943" height="55.1416" rx="27.5708" transform="rotate(5.30782 9.64496 4.1027)" fill="#14141A" stroke="#5EFF69"/>
<rect x="86.8813" y="43.4157" width="308.943" height="55.1416" rx="27.5708" transform="rotate(5.30782 86.8813 43.4157)" fill="#14141A" stroke="#5EFF69"/>
<mask id="path-3-outside-1_0_5243" maskUnits="userSpaceOnUse" x="-0.525391" y="-0.966797" width="400" height="132" fill="black">
<rect fill="white" x="-0.525391" y="-0.966797" width="400" height="132"/>
<path d="M6.59684 31.5089C8.03112 16.0726 21.7074 4.72153 37.1437 6.15539L289.858 29.6339C305.294 31.068 316.645 44.7443 315.211 60.1808C315.088 61.5082 314.872 62.8051 314.574 64.0665L367.094 68.9464C382.531 70.3805 393.882 84.0577 392.447 99.4943C391.013 114.931 377.337 126.282 361.901 124.848L109.187 101.369C93.7503 99.9349 82.3991 86.2588 83.8332 70.8224C83.9565 69.4947 84.1721 68.1974 84.4699 66.9357L31.9504 62.0568C16.5139 60.6225 5.16271 46.9454 6.59684 31.5089Z"/>
</mask>
<path d="M6.59684 31.5089C8.03112 16.0726 21.7074 4.72153 37.1437 6.15539L289.858 29.6339C305.294 31.068 316.645 44.7443 315.211 60.1808C315.088 61.5082 314.872 62.8051 314.574 64.0665L367.094 68.9464C382.531 70.3805 393.882 84.0577 392.447 99.4943C391.013 114.931 377.337 126.282 361.901 124.848L109.187 101.369C93.7503 99.9349 82.3991 86.2588 83.8332 70.8224C83.9565 69.4947 84.1721 68.1974 84.4699 66.9357L31.9504 62.0568C16.5139 60.6225 5.16271 46.9454 6.59684 31.5089Z" fill="#14141A"/>
<path d="M6.59684 31.5089L0.622573 30.9538L0.622567 30.9539L6.59684 31.5089ZM37.1437 6.15539L37.6988 0.181118L37.6987 0.181108L37.1437 6.15539ZM289.858 29.6339L289.303 35.6082L289.858 29.6339ZM315.211 60.1808L321.185 60.7358V60.7358L315.211 60.1808ZM314.574 64.0665L308.735 62.6884L307.15 69.4025L314.019 70.0408L314.574 64.0665ZM367.094 68.9464L366.539 74.9207L366.539 74.9207L367.094 68.9464ZM392.447 99.4943L398.422 100.049V100.049L392.447 99.4943ZM361.901 124.848L361.346 130.822L361.901 124.848ZM109.187 101.369L108.632 107.344L108.632 107.344L109.187 101.369ZM83.8332 70.8224L77.8589 70.2673V70.2674L83.8332 70.8224ZM84.4699 66.9357L90.3094 68.314L91.8943 61.5995L85.0249 60.9614L84.4699 66.9357ZM31.9504 62.0568L31.3952 68.031L31.3954 68.031L31.9504 62.0568ZM6.59684 31.5089L12.5711 32.064C13.6988 19.9272 24.4519 11.0023 36.5888 12.1297L37.1437 6.15539L37.6987 0.181108C18.9629 -1.55922 2.36343 12.2181 0.622573 30.9538L6.59684 31.5089ZM37.1437 6.15539L36.5887 12.1297L289.303 35.6082L289.858 29.6339L290.413 23.6596L37.6988 0.181118L37.1437 6.15539ZM289.858 29.6339L289.303 35.6082C301.44 36.7358 310.364 47.4887 309.237 59.6258L315.211 60.1808L321.185 60.7358C322.926 41.9998 309.149 25.4003 290.413 23.6596L289.858 29.6339ZM315.211 60.1808L309.237 59.6257C309.14 60.6695 308.97 61.6915 308.735 62.6884L314.574 64.0665L320.414 65.4447C320.774 63.9187 321.036 62.3468 321.185 60.7358L315.211 60.1808ZM314.574 64.0665L314.019 70.0408L366.539 74.9207L367.094 68.9464L367.649 62.9721L315.129 58.0923L314.574 64.0665ZM367.094 68.9464L366.539 74.9207C378.676 76.0483 387.601 86.8019 386.473 98.9392L392.447 99.4943L398.422 100.049C400.162 81.3134 386.385 64.7128 367.649 62.9721L367.094 68.9464ZM392.447 99.4943L386.473 98.9392C385.345 111.076 374.593 120.001 362.456 118.873L361.901 124.848L361.346 130.822C380.082 132.563 396.681 118.785 398.422 100.049L392.447 99.4943ZM361.901 124.848L362.456 118.873L109.742 95.395L109.187 101.369L108.632 107.344L361.346 130.822L361.901 124.848ZM109.187 101.369L109.742 95.395C97.6048 94.2673 88.6799 83.5143 89.8074 71.3774L83.8332 70.8224L77.8589 70.2674C76.1183 89.0033 89.8958 105.603 108.632 107.344L109.187 101.369ZM83.8332 70.8224L89.8074 71.3774C89.9045 70.3327 90.0742 69.3105 90.3094 68.314L84.4699 66.9357L78.6303 65.5573C78.2699 67.0843 78.0085 68.6566 77.8589 70.2673L83.8332 70.8224ZM84.4699 66.9357L85.0249 60.9614L32.5053 56.0825L31.9504 62.0568L31.3954 68.031L83.9149 72.9099L84.4699 66.9357ZM31.9504 62.0568L32.5055 56.0825C20.3686 54.9548 11.4435 44.2011 12.5711 32.0639L6.59684 31.5089L0.622567 30.9539C-1.11808 49.6897 12.6592 66.2901 31.3952 68.031L31.9504 62.0568Z" fill="white" mask="url(#path-3-outside-1_0_5243)"/>
<path d="M30.9605 25.1728L33.8281 25.4392L32.5049 39.6819L37.7623 40.1703L39.0855 25.9277L41.9531 26.1941L40.6299 40.4368L45.8873 40.9252L47.2105 26.6825L50.0781 26.9489L48.524 43.6769L29.4063 41.9008L30.9605 25.1728ZM54.0134 31.4121L56.6421 31.6563L56.1647 36.7942L57.5985 36.9274L62.5207 32.2025L65.484 32.4778L59.5454 38.0242L64.5463 45.1655L61.3441 44.868L57.3987 39.0782L55.9649 38.945L55.4654 44.3218L52.8367 44.0776L54.0134 31.4121ZM72.182 46.14C71.3058 46.0586 70.4979 45.8469 69.7583 45.5051C69.0362 45.1487 68.4215 44.6738 67.9142 44.0804C67.4069 43.4869 67.031 42.7771 66.7864 41.9509C66.5432 41.1088 66.4712 40.154 66.5704 39.0866L66.6148 38.6087C66.7081 37.605 66.9495 36.7356 67.3392 36.0005C67.7303 35.2495 68.2291 34.637 68.8356 34.1631C69.4435 33.6732 70.1344 33.3276 70.9084 33.1264C71.6982 32.9266 72.5313 32.8674 73.4075 32.9488C74.2837 33.0302 75.0837 33.2411 75.8073 33.5815C76.5468 33.9234 77.1702 34.3911 77.6775 34.9845C78.1863 35.5621 78.5637 36.256 78.8098 37.0662C79.0574 37.8605 79.1345 38.7595 79.0413 39.7632L78.9969 40.2411C78.8977 41.3085 78.6511 42.2337 78.257 43.0166C77.8643 43.7835 77.3641 44.412 76.7561 44.9018C76.1482 45.3917 75.4486 45.7445 74.6572 45.9602C73.8833 46.1615 73.0582 46.2214 72.182 46.14ZM72.3951 43.8459C72.8571 43.8888 73.3026 43.8498 73.7317 43.729C74.1766 43.6097 74.5739 43.3975 74.9236 43.0925C75.2893 42.7891 75.5921 42.3833 75.8321 41.8754C76.0881 41.3689 76.2508 40.7412 76.3204 39.9925L76.3648 39.5145C76.4285 38.8295 76.3797 38.2304 76.2184 37.7173C76.0732 37.2056 75.848 36.775 75.5431 36.4253C75.254 36.077 74.9019 35.8033 74.4865 35.604C74.0871 35.4062 73.6564 35.2858 73.1944 35.2429C72.7324 35.2 72.2789 35.2382 71.8339 35.3576C71.4049 35.4784 71.0083 35.6826 70.6442 35.9701C70.2959 36.2591 69.9953 36.641 69.7423 37.1156C69.5053 37.5917 69.3549 38.1723 69.2913 38.8574L69.2469 39.3353C69.1773 40.0841 69.2137 40.7302 69.356 41.2737C69.5143 41.8187 69.7372 42.2732 70.0247 42.6374C70.3282 43.0031 70.6797 43.2848 71.0791 43.4826C71.4944 43.6818 71.9331 43.8029 72.3951 43.8459ZM81.0202 46.9611C80.8927 46.9493 80.7501 46.928 80.5922 46.8972C80.4489 46.8839 80.3149 46.8554 80.1904 46.8117L80.4213 44.3264C80.4995 44.3497 80.6183 44.3688 80.7776 44.3836C81.1121 44.4147 81.4078 44.3457 81.6645 44.1768C81.9227 43.9919 82.1465 43.6591 82.3357 43.1786C82.5424 42.6836 82.7248 42.0176 82.8829 41.1806C83.041 40.3437 83.18 39.28 83.2999 37.9895L83.6551 34.166L93.2139 35.054L92.0373 47.7195L89.4086 47.4753L90.3766 37.0562L85.9795 36.6476L85.7886 38.7028C85.6302 40.4075 85.4116 41.8092 85.1327 42.9082C84.8713 43.9926 84.5429 44.8459 84.1477 45.468C83.7525 46.0901 83.2953 46.5136 82.7763 46.7386C82.2587 46.9476 81.6734 47.0218 81.0202 46.9611ZM97.2727 35.4311L99.9014 35.6753L99.4884 40.1202L102.356 40.3866C103.981 40.5376 105.151 40.9998 105.867 41.7733C106.584 42.5309 106.879 43.5868 106.754 44.941C106.635 46.2155 106.16 47.1836 105.327 47.8454C104.494 48.5072 103.249 48.7612 101.592 48.6072L96.096 48.0966L97.2727 35.4311ZM101.562 46.3387C102.438 46.4201 103.066 46.3257 103.444 46.0556C103.84 45.771 104.067 45.3181 104.125 44.6967C104.183 44.0754 104.042 43.5964 103.704 43.2596C103.383 42.9084 102.785 42.6922 101.908 42.6107L99.2797 42.3665L98.9334 46.0945L101.562 46.3387ZM110.417 36.6523L113.046 36.8965L112.573 41.9866L118.547 42.5416L119.02 37.4516L121.649 37.6958L120.472 50.3612L117.843 50.117L118.338 44.788L112.364 44.2329L111.869 49.562L109.24 49.3178L110.417 36.6523ZM127.984 51.3242C127.299 51.2606 126.694 51.108 126.17 50.8665C125.664 50.6106 125.243 50.2903 124.91 49.9058C124.577 49.5053 124.338 49.0572 124.191 48.5615C124.044 48.0658 123.997 47.5312 124.051 46.9577C124.168 45.6991 124.629 44.8019 125.434 44.2661C126.24 43.7143 127.368 43.5058 128.818 43.6405L132.761 44.0068L132.825 43.3138C132.914 42.3579 132.76 41.6847 132.362 41.2943C131.982 40.8894 131.338 40.6447 130.43 40.5604C129.617 40.4849 129.008 40.5568 128.602 40.7762C128.196 40.9956 127.94 41.3254 127.835 41.7655L125.278 41.528C125.36 40.9892 125.542 40.508 125.822 40.0841C126.12 39.6458 126.499 39.2793 126.961 38.9847C127.438 38.6916 127.995 38.4863 128.633 38.3687C129.272 38.2353 129.982 38.2048 130.762 38.2773C131.543 38.3499 132.236 38.5026 132.841 38.7356C133.462 38.97 133.978 39.2992 134.388 39.723C134.8 40.1308 135.098 40.6406 135.283 41.2522C135.483 41.8654 135.544 42.5862 135.467 43.4146L134.999 48.4569C134.937 49.126 134.89 49.7162 134.858 50.2275C134.829 50.7229 134.823 51.2125 134.843 51.6963L132.453 51.4743C132.439 51.1034 132.428 50.7891 132.42 50.5312C132.428 50.2748 132.449 49.9555 132.485 49.5731C132.127 50.1345 131.554 50.5954 130.766 50.956C129.994 51.3021 129.067 51.4249 127.984 51.3242ZM128.914 49.0967C129.36 49.1382 129.787 49.1216 130.196 49.0471C130.622 48.9581 130.996 48.8162 131.32 48.6213C131.645 48.4104 131.91 48.1459 132.117 47.8276C132.34 47.4949 132.473 47.1054 132.515 46.6594L132.579 45.9664L129.114 45.6444C128.445 45.5823 127.89 45.6753 127.449 45.9236C127.024 46.1734 126.786 46.5771 126.734 47.1346C126.685 47.6604 126.829 48.0996 127.166 48.4523C127.518 48.8064 128.101 49.0212 128.914 49.0967ZM141.318 47.4532C140.389 47.0776 139.724 46.5418 139.322 45.8457C138.921 45.1496 138.763 44.3395 138.849 43.4155C138.965 42.1728 139.471 41.2236 140.367 40.5677C141.265 39.8959 142.559 39.6384 144.247 39.7953L149.983 40.3281L148.806 52.9936L146.177 52.7494L146.595 48.2567L143.87 48.0036L140.633 52.2343L137.574 51.9501L141.318 47.4532ZM141.526 43.6641C141.464 44.3332 141.618 44.8297 141.99 45.1535C142.363 45.4613 142.892 45.647 143.577 45.7107L146.803 46.0104L147.145 42.3302L143.919 42.0305C143.234 41.9669 142.679 42.0599 142.254 42.3097C141.831 42.5435 141.588 42.995 141.526 43.6641ZM160.263 41.2832L171.256 42.3045L170.079 54.97L167.45 54.7257L168.418 44.3066L162.683 43.7738L161.715 54.1929L159.086 53.9487L160.263 41.2832ZM175.07 42.6589L177.507 42.8853L177.31 45.0122C177.76 44.3148 178.38 43.7859 179.169 43.4253C179.973 43.0662 180.853 42.9311 181.809 43.0199C183.466 43.1738 184.725 43.8129 185.584 44.9373C186.444 46.0616 186.777 47.6673 186.583 49.7543L186.538 50.2323C186.438 51.3156 186.222 52.2517 185.892 53.0405C185.562 53.8293 185.132 54.4724 184.604 54.9696C184.093 55.4524 183.498 55.7989 182.82 56.0091C182.142 56.2192 181.396 56.2865 180.584 56.2111C179.676 56.1267 178.866 55.8506 178.154 55.3827C177.442 54.9149 176.96 54.3077 176.708 53.5612L176.078 60.348L173.449 60.1037L175.07 42.6589ZM180.176 53.8592C181.163 53.951 181.992 53.6825 182.661 53.0537C183.33 52.4248 183.73 51.4015 183.862 49.9836L183.906 49.5057C184.031 48.1674 183.828 47.1523 183.298 46.4603C182.769 45.7523 181.995 45.351 180.975 45.2563C180.529 45.2148 180.092 45.2465 179.664 45.3514C179.237 45.4563 178.843 45.6366 178.481 45.8923C178.138 46.1335 177.85 46.4604 177.619 46.8727C177.389 47.2692 177.249 47.7383 177.199 48.2799L177.044 49.9527C176.987 50.5581 177.034 51.0927 177.184 51.5566C177.334 52.0204 177.554 52.4185 177.844 52.7508C178.135 53.0831 178.48 53.3402 178.881 53.522C179.282 53.7039 179.714 53.8163 180.176 53.8592ZM194.545 57.5081C193.669 57.4267 192.861 57.2151 192.122 56.8732C191.4 56.5169 190.785 56.042 190.278 55.4485C189.77 54.855 189.394 54.1452 189.15 53.3191C188.907 52.477 188.835 51.5222 188.934 50.4548L188.978 49.9769C189.071 48.9732 189.313 48.1038 189.703 47.3687C190.094 46.6176 190.593 46.0052 191.199 45.5312C191.807 45.0414 192.498 44.6958 193.272 44.4945C194.062 44.2947 194.895 44.2355 195.771 44.317C196.647 44.3984 197.447 44.6093 198.171 44.9497C198.91 45.2915 199.534 45.7592 200.041 46.3527C200.55 46.9302 200.927 47.6241 201.173 48.4344C201.421 49.2287 201.498 50.1277 201.405 51.1313L201.36 51.6093C201.261 52.6767 201.014 53.6018 200.62 54.3847C200.228 55.1517 199.727 55.7801 199.12 56.27C198.512 56.7598 197.812 57.1126 197.021 57.3284C196.247 57.5296 195.422 57.5896 194.545 57.5081ZM194.758 55.214C195.22 55.2569 195.666 55.218 196.095 55.0972C196.54 54.9778 196.937 54.7657 197.287 54.4607C197.653 54.1572 197.955 53.7515 198.196 53.2435C198.451 52.737 198.614 52.1094 198.684 51.3606L198.728 50.8827C198.792 50.1976 198.743 49.5985 198.582 49.0854C198.437 48.5738 198.211 48.1431 197.906 47.7934C197.617 47.4452 197.265 47.1714 196.85 46.9722C196.45 46.7744 196.02 46.654 195.558 46.6111C195.096 46.5682 194.642 46.6064 194.197 46.7257C193.768 46.8465 193.372 47.0507 193.008 47.3383C192.659 47.6273 192.359 48.0091 192.106 48.4838C191.869 48.9599 191.718 49.5405 191.655 50.2255L191.61 50.7035C191.541 51.4522 191.577 52.0984 191.719 52.6419C191.878 53.1868 192.101 53.6414 192.388 54.0056C192.692 54.3712 193.043 54.6529 193.442 54.8507C193.858 55.05 194.296 55.1711 194.758 55.214ZM205.057 45.4448L213.899 46.2663L213.69 48.5126L207.477 47.9354L206.509 58.3545L203.88 58.1103L205.057 45.4448ZM216.527 46.5104L218.964 46.7369L218.767 48.8637C219.217 48.1664 219.837 47.6374 220.625 47.2768C221.43 46.9177 222.31 46.7826 223.266 46.8714C224.923 47.0253 226.181 47.6645 227.041 48.7888C227.901 49.9132 228.234 51.5188 228.04 53.6059L227.995 54.0838C227.895 55.1671 227.679 56.1032 227.349 56.892C227.018 57.6808 226.589 58.3239 226.061 58.8212C225.55 59.304 224.955 59.6504 224.277 59.8606C223.599 60.0707 222.853 60.1381 222.041 60.0626C221.133 59.9782 220.323 59.7021 219.611 59.2343C218.899 58.7664 218.417 58.1592 218.165 57.4127L217.535 64.1995L214.906 63.9553L216.527 46.5104ZM221.632 57.7107C222.62 57.8025 223.449 57.534 224.118 56.9052C224.787 56.2764 225.187 55.253 225.319 53.8351L225.363 53.3572C225.488 52.019 225.285 51.0038 224.754 50.3118C224.226 49.6039 223.451 49.2025 222.432 49.1078C221.986 49.0664 221.549 49.0981 221.121 49.203C220.694 49.3079 220.299 49.4882 219.938 49.7439C219.594 49.9851 219.307 50.3119 219.076 50.7243C218.846 51.1207 218.706 51.5898 218.656 52.1315L218.5 53.8043C218.444 54.4097 218.491 54.9443 218.641 55.4081C218.79 55.872 219.01 56.27 219.301 56.6023C219.591 56.9346 219.937 57.1917 220.338 57.3736C220.739 57.5554 221.17 57.6678 221.632 57.7107ZM234.21 61.1932C233.525 61.1295 232.92 60.977 232.396 60.7355C231.89 60.4795 231.47 60.1593 231.136 59.7747C230.804 59.3743 230.564 58.9262 230.417 58.4305C230.27 57.9348 230.224 57.4002 230.277 56.8266C230.394 55.568 230.855 54.6708 231.66 54.135C232.466 53.5833 233.594 53.3747 235.044 53.5094L238.987 53.8757L239.052 53.1827C239.14 52.2268 238.986 51.5537 238.588 51.1632C238.208 50.7583 237.564 50.5137 236.656 50.4293C235.844 50.3538 235.234 50.4258 234.828 50.6452C234.422 50.8645 234.167 51.1943 234.061 51.6345L231.504 51.3969C231.587 50.8582 231.768 50.3769 232.048 49.953C232.346 49.5147 232.726 49.1482 233.187 48.8536C233.664 48.5605 234.222 48.3552 234.859 48.2377C235.498 48.1042 236.208 48.0738 236.989 48.1463C237.769 48.2188 238.462 48.3716 239.067 48.6045C239.688 48.839 240.204 49.1681 240.615 49.5919C241.027 49.9998 241.325 50.5095 241.509 51.1212C241.709 51.7343 241.771 52.4551 241.694 53.2836L241.225 58.3258C241.163 58.995 241.116 59.5852 241.085 60.0964C241.055 60.5918 241.05 61.0814 241.069 61.5653L238.679 61.3433C238.665 60.9724 238.654 60.658 238.646 60.4002C238.654 60.1438 238.676 59.8244 238.711 59.4421C238.354 60.0034 237.781 60.4644 236.992 60.8249C236.221 61.1711 235.293 61.2938 234.21 61.1932ZM235.14 58.9657C235.586 59.0071 236.013 58.9906 236.422 58.916C236.848 58.8271 237.223 58.6851 237.546 58.4902C237.871 58.2794 238.137 58.0148 238.343 57.6965C238.567 57.3638 238.699 56.9744 238.741 56.5283L238.805 55.8353L235.34 55.5134C234.671 55.4512 234.116 55.5443 233.675 55.7926C233.25 56.0423 233.012 56.446 232.96 57.0036C232.911 57.5293 233.055 57.9685 233.392 58.3212C233.745 58.6754 234.327 58.8902 235.14 58.9657ZM245.814 49.2313L248.777 49.5066L252.127 57.2899L256.854 50.257L259.674 50.519L258.497 63.1845L255.869 62.9402L256.679 54.2178L252.767 60.0007L250.855 59.8231L248.076 53.4185L247.266 62.141L244.637 61.8968L245.814 49.2313ZM263.491 50.8736L266.454 51.1489L269.805 58.9322L274.531 51.8993L277.351 52.1613L276.175 64.8268L273.546 64.5826L274.356 55.8601L270.445 61.643L268.533 61.4654L265.753 55.0609L264.943 63.7833L262.314 63.5391L263.491 50.8736ZM283.671 65.7884C282.986 65.7247 282.382 65.5722 281.858 65.3307C281.351 65.0747 280.931 64.7545 280.597 64.3699C280.265 63.9695 280.025 63.5214 279.879 63.0257C279.732 62.53 279.685 61.9954 279.738 61.4218C279.855 60.1633 280.316 59.266 281.121 58.7302C281.928 58.1785 283.056 57.9699 284.506 58.1046L288.449 58.4709L288.513 57.7779C288.602 56.822 288.447 56.1489 288.05 55.7584C287.67 55.3535 287.026 55.1089 286.117 55.0245C285.305 54.949 284.696 55.021 284.29 55.2404C283.884 55.4597 283.628 55.7895 283.523 56.2297L280.966 55.9921C281.048 55.4534 281.229 54.9721 281.51 54.5482C281.808 54.1099 282.187 53.7434 282.648 53.4488C283.126 53.1557 283.683 52.9504 284.32 52.8329C284.96 52.6994 285.669 52.669 286.45 52.7415C287.231 52.814 287.924 52.9668 288.529 53.1997C289.15 53.4342 289.665 53.7633 290.076 54.1871C290.488 54.595 290.786 55.1047 290.97 55.7164C291.17 56.3295 291.232 57.0503 291.155 57.8788L290.687 62.921C290.624 63.5902 290.578 64.1804 290.546 64.6917C290.516 65.187 290.511 65.6766 290.53 66.1605L288.141 65.9385C288.127 65.5676 288.116 65.2532 288.108 64.9954C288.115 64.739 288.137 64.4196 288.173 64.0373C287.815 64.5986 287.242 65.0596 286.453 65.4202C285.682 65.7663 284.755 65.889 283.671 65.7884ZM284.601 63.5609C285.047 63.6023 285.475 63.5858 285.883 63.5113C286.309 63.4223 286.684 63.2803 287.008 63.0854C287.332 62.8746 287.598 62.61 287.804 62.2917C288.028 61.959 288.161 61.5696 288.202 61.1235L288.267 60.4305L284.802 60.1086C284.132 60.0464 283.577 60.1395 283.137 60.3878C282.712 60.6375 282.473 61.0412 282.421 61.5988C282.373 62.1245 282.517 62.5637 282.853 62.9164C283.206 63.2706 283.789 63.4854 284.601 63.5609Z" fill="white"/>
<path d="M115.559 66.0874L121.533 66.6424C123.127 66.7905 124.251 67.2244 124.908 67.9441C125.565 68.648 125.847 69.5018 125.754 70.5055C125.702 71.0631 125.485 71.5892 125.101 72.0838C124.719 72.5626 124.218 72.8614 123.596 72.9804C124.359 73.2441 124.914 73.6653 125.262 74.244C125.628 74.8082 125.777 75.4488 125.71 76.1657C125.608 77.2649 125.16 78.1071 124.367 78.6922C123.573 79.2773 122.396 79.4974 120.835 79.3523L114.383 78.7529L115.559 66.0874ZM120.685 77.0727C121.545 77.1526 122.147 77.072 122.491 76.8307C122.852 76.575 123.057 76.1923 123.104 75.6825C123.151 75.1727 123.02 74.7748 122.709 74.4888C122.415 74.1884 121.838 73.9982 120.978 73.9183L117.513 73.5963L117.22 76.7508L120.685 77.0727ZM120.81 71.8298C121.607 71.9038 122.177 71.8282 122.519 71.6029C122.863 71.3616 123.056 71.01 123.099 70.548C123.142 70.086 123.016 69.7127 122.721 69.4282C122.427 69.1278 121.882 68.9406 121.086 68.8666L117.979 68.578L117.704 71.5412L120.81 71.8298ZM140.891 81.4808C138.693 81.2765 137.08 80.5643 136.052 79.344C135.025 78.1237 134.608 76.4701 134.802 74.383L134.846 73.9051C135.031 71.9137 135.74 70.4288 136.971 69.4506C138.203 68.4723 139.918 68.0854 142.117 68.2896L142.47 64.49L145.099 64.7342L144.746 68.5338C146.928 68.7366 148.535 69.4322 149.565 70.6206C150.612 71.8105 151.042 73.4012 150.857 75.3926L150.813 75.8706C150.619 77.9576 149.897 79.5054 148.646 80.514C147.411 81.5241 145.703 81.9278 143.52 81.725L143.1 86.2416L140.472 85.9974L140.891 81.4808ZM148.181 75.144C148.304 73.8216 148.069 72.8036 147.476 72.0897C146.9 71.3773 145.902 70.9552 144.485 70.8235L143.685 79.4265C145.103 79.5582 146.163 79.3111 146.864 78.6853C147.582 78.045 148.006 77.0239 148.136 75.6219L148.181 75.144ZM137.478 74.6317C137.348 76.0337 137.577 77.1155 138.165 77.8771C138.755 78.6229 139.75 79.0609 141.152 79.1911L141.952 70.5882C140.534 70.4564 139.468 70.6868 138.754 71.2793C138.056 71.8733 137.646 72.8235 137.525 74.1299L137.478 74.6317ZM158.814 83.1459C157.938 83.0645 157.13 82.8529 156.39 82.511C155.668 82.1547 155.054 81.6798 154.546 81.0863C154.039 80.4928 153.663 79.783 153.419 78.9568C153.175 78.1147 153.103 77.16 153.203 76.0926L153.247 75.6146C153.34 74.6109 153.582 73.7416 153.971 73.0065C154.362 72.2554 154.861 71.6429 155.468 71.169C156.076 70.6791 156.767 70.3336 157.541 70.1323C158.33 69.9325 159.163 69.8733 160.04 69.9547C160.916 70.0361 161.716 70.247 162.439 70.5874C163.179 70.9293 163.802 71.397 164.31 71.9905C164.818 72.568 165.196 73.2619 165.442 74.0721C165.69 74.8664 165.767 75.7654 165.673 76.7691L165.629 77.247C165.53 78.3145 165.283 79.2396 164.889 80.0225C164.496 80.7895 163.996 81.4179 163.388 81.9077C162.78 82.3976 162.081 82.7504 161.289 82.9661C160.515 83.1674 159.69 83.2273 158.814 83.1459ZM159.027 80.8518C159.489 80.8947 159.935 80.8558 160.364 80.7349C160.809 80.6156 161.206 80.4034 161.556 80.0985C161.921 79.795 162.224 79.3893 162.464 78.8813C162.72 78.3748 162.883 77.7472 162.953 76.9984L162.997 76.5204C163.061 75.8354 163.012 75.2363 162.851 74.7232C162.705 74.2116 162.48 73.7809 162.175 73.4312C161.886 73.083 161.534 72.8092 161.119 72.6099C160.719 72.4121 160.289 72.2918 159.827 72.2488C159.365 72.2059 158.911 72.2441 158.466 72.3635C158.037 72.4843 157.64 72.6885 157.276 72.9761C156.928 73.2651 156.627 73.6469 156.374 74.1215C156.137 74.5977 155.987 75.1782 155.923 75.8633L155.879 76.3412C155.809 77.09 155.846 77.7361 155.988 78.2796C156.146 78.8246 156.369 79.2792 156.657 79.6433C156.96 80.009 157.312 80.2907 157.711 80.4885C158.127 80.6878 158.565 80.8089 159.027 80.8518ZM169.326 71.0826L171.763 71.309L171.566 73.4359C172.016 72.7386 172.636 72.2096 173.424 71.849C174.229 71.4899 175.109 71.3548 176.065 71.4436C177.722 71.5975 178.98 72.2367 179.84 73.361C180.7 74.4853 181.033 76.091 180.839 78.178L180.794 78.656C180.694 79.7393 180.478 80.6754 180.148 81.4642C179.817 82.253 179.388 82.8961 178.86 83.3933C178.349 83.8762 177.754 84.2226 177.076 84.4328C176.398 84.6429 175.652 84.7103 174.84 84.6348C173.932 84.5504 173.122 84.2743 172.41 83.8065C171.698 83.3386 171.216 82.7314 170.964 81.9849L170.334 88.7717L167.705 88.5275L169.326 71.0826ZM174.432 82.2829C175.419 82.3747 176.248 82.1062 176.917 81.4774C177.586 80.8486 177.986 79.8252 178.118 78.4073L178.162 77.9294C178.287 76.5911 178.084 75.576 177.553 74.884C177.025 74.176 176.25 73.7747 175.231 73.68C174.785 73.6385 174.348 73.6703 173.92 73.7752C173.493 73.8801 173.098 74.0604 172.737 74.316C172.393 74.5573 172.106 74.8841 171.875 75.2965C171.645 75.6929 171.505 76.162 171.455 76.7036L171.3 78.3764C171.243 78.9818 171.29 79.5165 171.44 79.9803C171.589 80.4441 171.81 80.8422 172.1 81.1745C172.391 81.5068 172.736 81.7639 173.137 81.9458C173.538 82.1276 173.97 82.24 174.432 82.2829ZM184.506 72.4929L187.469 72.7682L190.82 80.5515L195.546 73.5186L198.366 73.7806L197.19 86.4461L194.561 86.2018L195.371 77.4794L191.46 83.2623L189.548 83.0847L186.768 76.6801L185.958 85.4026L183.329 85.1584L184.506 72.4929ZM204.686 87.4077C204.001 87.344 203.397 87.1915 202.873 86.9499C202.366 86.694 201.946 86.3738 201.612 85.9892C201.28 85.5888 201.04 85.1407 200.894 84.645C200.747 84.1493 200.7 83.6147 200.753 83.0411C200.87 81.7825 201.331 80.8853 202.136 80.3495C202.943 79.7977 204.071 79.5892 205.521 79.7239L209.464 80.0902L209.528 79.3972C209.617 78.4413 209.462 77.7682 209.065 77.3777C208.685 76.9728 208.041 76.7282 207.132 76.6438C206.32 76.5683 205.711 76.6403 205.305 76.8596C204.899 77.079 204.643 77.4088 204.538 77.849L201.981 77.6114C202.063 77.0727 202.244 76.5914 202.525 76.1675C202.823 75.7292 203.202 75.3627 203.663 75.0681C204.141 74.775 204.698 74.5697 205.336 74.4522C205.975 74.3187 206.684 74.2883 207.465 74.3608C208.246 74.4333 208.939 74.5861 209.544 74.819C210.165 75.0535 210.68 75.3826 211.091 75.8064C211.503 76.2143 211.801 76.724 211.985 77.3357C212.185 77.9488 212.247 78.6696 212.17 79.498L211.702 84.5403C211.639 85.2095 211.593 85.7997 211.561 86.3109C211.531 86.8063 211.526 87.2959 211.545 87.7798L209.156 87.5577C209.142 87.1869 209.131 86.8725 209.123 86.6147C209.13 86.3583 209.152 86.0389 209.188 85.6566C208.83 86.2179 208.257 86.6789 207.468 87.0394C206.697 87.3856 205.77 87.5083 204.686 87.4077ZM205.616 85.1802C206.062 85.2216 206.49 85.2051 206.898 85.1305C207.324 85.0416 207.699 84.8996 208.023 84.7047C208.348 84.4939 208.613 84.2293 208.819 83.911C209.043 83.5783 209.176 83.1889 209.217 82.7428L209.282 82.0498L205.817 81.7279C205.147 81.6657 204.592 81.7588 204.152 82.007C203.727 82.2568 203.488 82.6605 203.436 83.2181C203.388 83.7438 203.532 84.183 203.868 84.5357C204.221 84.8898 204.804 85.1047 205.616 85.1802ZM218.835 77.948L214.653 77.5594L214.862 75.3131L225.855 76.3344L225.646 78.5807L221.464 78.1922L220.496 88.6113L217.867 88.3671L218.835 77.948ZM232.545 89.9959C231.701 89.9174 230.916 89.716 230.191 89.3915C229.467 89.0511 228.843 88.5914 228.318 88.0124C227.811 87.4189 227.428 86.7004 227.169 85.8568C226.91 85.0132 226.831 84.0418 226.933 82.9425L226.978 82.4646C227.076 81.4131 227.32 80.5119 227.711 79.7608C228.102 79.0098 228.592 78.4045 229.181 77.9451C229.788 77.4711 230.461 77.14 231.202 76.9517C231.943 76.7634 232.719 76.707 233.532 76.7825C235.459 76.9616 236.885 77.6163 237.808 78.7465C238.748 79.8783 239.128 81.408 238.949 83.3357L238.824 84.6739L229.552 83.8125C229.507 84.4672 229.559 85.0344 229.707 85.5142C229.873 85.9795 230.102 86.3703 230.394 86.6867C230.703 86.9886 231.059 87.2225 231.462 87.3885C231.88 87.5559 232.312 87.6603 232.758 87.7018C233.666 87.7861 234.341 87.7042 234.782 87.4559C235.238 87.2091 235.568 86.8621 235.77 86.4149L238.399 86.6591C238.027 87.894 237.309 88.7914 236.245 89.3513C235.196 89.9128 233.963 90.1276 232.545 89.9959ZM233.438 79.0877C232.992 79.0463 232.557 79.0621 232.132 79.1351C231.723 79.2096 231.348 79.3595 231.006 79.5848C230.681 79.7957 230.404 80.0914 230.176 80.4719C229.949 80.8365 229.802 81.2968 229.734 81.853L236.378 82.4702C236.417 81.8792 236.367 81.3765 236.229 80.9619C236.106 80.5488 235.913 80.2095 235.648 79.9438C235.384 79.6782 235.057 79.4791 234.667 79.3465C234.294 79.2154 233.884 79.1292 233.438 79.0877ZM251.821 81.0125L247.639 80.624L247.847 78.3776L258.84 79.3989L258.631 81.6452L254.449 81.2567L253.481 91.6758L250.853 91.4316L251.821 81.0125ZM261.469 79.6431L264.097 79.8873L263.265 88.8487L270.191 80.4535L272.7 80.6866L271.524 93.352L268.895 93.1078L269.727 84.1464L262.801 92.5417L260.292 92.3086L261.469 79.6431ZM276.532 81.0426L279.161 81.2868L278.684 86.4247L280.117 86.5579L285.04 81.833L288.003 82.1083L282.064 87.6547L287.065 94.7959L283.863 94.4984L279.918 88.7086L278.484 88.5754L277.984 93.9523L275.356 93.7081L276.532 81.0426ZM288.686 86.9442L296.094 87.6325L295.863 90.1178L288.455 89.4295L288.686 86.9442ZM300.476 85.5328L296.294 85.1443L296.503 82.898L307.496 83.9193L307.287 86.1656L303.105 85.7771L302.137 96.1962L299.508 95.952L300.476 85.5328ZM314.186 97.5808C313.31 97.4994 312.502 97.2877 311.763 96.9458C311.041 96.5895 310.426 96.1146 309.919 95.5211C309.411 94.9277 309.035 94.2178 308.791 93.3917C308.548 92.5496 308.476 91.5948 308.575 90.5274L308.619 90.0495C308.712 89.0458 308.954 88.1764 309.343 87.4413C309.735 86.6903 310.233 86.0778 310.84 85.6038C311.448 85.114 312.139 84.7684 312.913 84.5671C313.703 84.3673 314.536 84.3082 315.412 84.3896C316.288 84.471 317.088 84.6819 317.812 85.0223C318.551 85.3641 319.175 85.8318 319.682 86.4253C320.191 87.0028 320.568 87.6967 320.814 88.507C321.062 89.3013 321.139 90.2003 321.046 91.2039L321.001 91.6819C320.902 92.7493 320.655 93.6744 320.261 94.4573C319.869 95.2243 319.368 95.8527 318.76 96.3426C318.153 96.8325 317.453 97.1852 316.662 97.401C315.888 97.6022 315.063 97.6622 314.186 97.5808ZM314.399 95.2866C314.861 95.3296 315.307 95.2906 315.736 95.1698C316.181 95.0504 316.578 94.8383 316.928 94.5333C317.294 94.2298 317.596 93.8241 317.836 93.3161C318.092 92.8096 318.255 92.182 318.325 91.4332L318.369 90.9553C318.433 90.2702 318.384 89.6712 318.223 89.158C318.077 88.6464 317.852 88.2157 317.547 87.866C317.258 87.5178 316.906 87.244 316.491 87.0448C316.091 86.847 315.661 86.7266 315.199 86.6837C314.737 86.6408 314.283 86.679 313.838 86.7983C313.409 86.9192 313.013 87.1233 312.648 87.4109C312.3 87.6999 312 88.0817 311.747 88.5564C311.51 89.0325 311.359 89.6131 311.296 90.2981L311.251 90.7761C311.182 91.5248 311.218 92.171 311.36 92.7145C311.519 93.2594 311.742 93.714 312.029 94.0782C312.333 94.4438 312.684 94.7255 313.083 94.9233C313.499 95.1226 313.937 95.2437 314.399 95.2866ZM324.698 85.5174L327.327 85.7616L326.849 90.8995L328.283 91.0327L333.205 86.3078L336.169 86.5831L330.23 92.1295L335.231 99.2708L332.029 98.9733L328.083 93.1835L326.649 93.0503L326.15 98.4271L323.521 98.1829L324.698 85.5174ZM342.867 100.245C341.99 100.164 341.182 99.9522 340.443 99.6104C339.721 99.254 339.106 98.7791 338.599 98.1857C338.091 97.5922 337.716 96.8824 337.471 96.0562C337.228 95.2141 337.156 94.2593 337.255 93.1919L337.299 92.714C337.393 91.7103 337.634 90.8409 338.024 90.1058C338.415 89.3548 338.914 88.7423 339.52 88.2684C340.128 87.7785 340.819 87.4329 341.593 87.2317C342.383 87.0319 343.216 86.9727 344.092 87.0541C344.968 87.1355 345.768 87.3464 346.492 87.6868C347.231 88.0287 347.855 88.4964 348.362 89.0898C348.871 89.6674 349.248 90.3613 349.494 91.1715C349.742 91.9658 349.819 92.8648 349.726 93.8685L349.681 94.3464C349.582 95.4138 349.336 96.339 348.942 97.1219C348.549 97.8888 348.049 98.5173 347.441 99.0071C346.833 99.497 346.133 99.8498 345.342 100.065C344.568 100.267 343.743 100.327 342.867 100.245ZM343.08 97.9512C343.542 97.9941 343.987 97.9551 344.416 97.8343C344.861 97.715 345.258 97.5028 345.608 97.1978C345.974 96.8944 346.277 96.4886 346.517 95.9807C346.773 95.4742 346.935 94.8465 347.005 94.0978L347.049 93.6198C347.113 92.9348 347.064 92.3357 346.903 91.8226C346.758 91.3109 346.533 90.8803 346.228 90.5306C345.939 90.1823 345.586 89.9086 345.171 89.7093C344.772 89.5115 344.341 89.3911 343.879 89.3482C343.417 89.3053 342.963 89.3435 342.518 89.4629C342.089 89.5837 341.693 89.7879 341.329 90.0754C340.98 90.3645 340.68 90.7463 340.427 91.2209C340.19 91.697 340.039 92.2776 339.976 92.9627L339.931 93.4406C339.862 94.1894 339.898 94.8355 340.041 95.379C340.199 95.924 340.422 96.3786 340.709 96.7427C341.013 97.1084 341.364 97.3901 341.764 97.5879C342.179 97.7871 342.618 97.9082 343.08 97.9512ZM353.378 88.182L359.352 88.737C360.946 88.885 362.07 89.3189 362.727 90.0387C363.384 90.7426 363.666 91.5963 363.573 92.6C363.521 93.1576 363.304 93.6837 362.92 94.1784C362.538 94.6571 362.037 94.956 361.415 95.075C362.178 95.3387 362.733 95.7599 363.081 96.3385C363.447 96.9028 363.596 97.5433 363.529 98.2602C363.427 99.3595 362.979 100.202 362.186 100.787C361.392 101.372 360.215 101.592 358.654 101.447L352.201 100.847L353.378 88.182ZM358.504 99.1672C359.364 99.2472 359.966 99.1665 360.31 98.9253C360.671 98.6696 360.876 98.2868 360.923 97.777C360.97 97.2672 360.839 96.8693 360.528 96.5834C360.234 96.2829 359.657 96.0927 358.797 96.0128L355.332 95.6909L355.039 98.8453L358.504 99.1672ZM358.629 93.9244C359.426 93.9984 359.995 93.9227 360.338 93.6974C360.682 93.4562 360.875 93.1046 360.918 92.6426C360.961 92.1805 360.835 91.8073 360.54 91.5228C360.246 91.2224 359.701 91.0351 358.905 90.9611L355.798 90.6725L355.523 93.6357L358.629 93.9244Z" fill="white"/>
</svg>
