<svg width="140" height="137" viewBox="0 0 140 137" fill="none" xmlns="http://www.w3.org/2000/svg">
<g clip-path="url(#clip0_0_5259)">
<mask id="path-1-outside-1_0_5259" maskUnits="userSpaceOnUse" x="3.39844" y="1.19482" width="136" height="134" fill="black">
<rect fill="white" x="3.39844" y="1.19482" width="136" height="134"/>
<path d="M63.4068 6.25289C63.9843 6.17637 64.615 6.197 65.2 6.19834C65.5927 6.19674 65.9851 6.20556 66.3774 6.22479C66.7696 6.24403 67.161 6.27366 67.5517 6.31367C67.9423 6.35369 68.3316 6.40404 68.7197 6.46473C69.1077 6.52542 69.4938 6.59636 69.8779 6.67754C70.2622 6.75873 70.644 6.85005 71.0233 6.9515C71.4027 7.05296 71.7791 7.16441 72.1526 7.28586C72.5261 7.4073 72.8961 7.53856 73.2625 7.67964C73.629 7.82072 73.9915 7.97143 74.35 8.13176C79.6145 10.4873 84.044 14.961 86.1166 20.3668C89.759 20.7107 92.6515 21.3298 96.09 22.5872C98.3378 20.131 100.712 18.3944 104.078 17.8402C104.182 17.8224 104.288 17.8059 104.393 17.7906C104.498 17.7754 104.604 17.7615 104.71 17.749C104.815 17.7364 104.921 17.7252 105.027 17.7152C105.133 17.7054 105.239 17.6968 105.345 17.6895C105.452 17.6823 105.558 17.6764 105.664 17.6718C105.77 17.6672 105.877 17.6639 105.983 17.6619C106.09 17.6601 106.196 17.6595 106.303 17.6603C106.409 17.661 106.515 17.6631 106.622 17.6664C106.728 17.6698 106.834 17.6745 106.941 17.6806C107.047 17.6867 107.153 17.6941 107.259 17.7028C107.365 17.7116 107.471 17.7216 107.577 17.7329C107.683 17.7444 107.789 17.7571 107.894 17.771C108 17.7851 108.105 17.8005 108.21 17.8171C108.315 17.8338 108.42 17.8518 108.525 17.871C108.63 17.8903 108.734 17.9109 108.838 17.9328C108.942 17.9548 109.046 17.978 109.15 18.0024C109.253 18.027 109.357 18.0528 109.46 18.0799C109.562 18.107 109.665 18.1353 109.767 18.165C109.869 18.1947 109.971 18.2256 110.073 18.2577C110.174 18.29 110.275 18.3235 110.376 18.3583C110.476 18.393 110.577 18.429 110.676 18.4662C110.776 18.5034 110.875 18.5419 110.974 18.5816C111.073 18.6214 111.171 18.6624 111.269 18.7047C111.366 18.7468 111.464 18.7902 111.56 18.8348C111.657 18.8795 111.753 18.9253 111.848 18.9723C111.944 19.0194 112.039 19.0676 112.133 19.117C112.227 19.1665 112.321 19.2171 112.414 19.2688C112.507 19.3206 112.599 19.3735 112.691 19.4276C112.783 19.4816 112.874 19.5368 112.964 19.5932C113.054 19.6495 113.144 19.707 113.233 19.7657C113.322 19.8242 113.41 19.8839 113.497 19.9446C113.584 20.0055 113.671 20.0674 113.757 20.1303C113.845 20.1933 113.933 20.2574 114.02 20.3227C114.106 20.3878 114.192 20.4541 114.277 20.5214C114.362 20.5887 114.447 20.6571 114.53 20.7266C114.614 20.796 114.696 20.8665 114.778 20.938C114.859 21.0095 114.94 21.0821 115.02 21.1556C115.1 21.2292 115.179 21.3037 115.257 21.3792C115.335 21.4547 115.412 21.5312 115.488 21.6087C115.564 21.6862 115.639 21.7645 115.713 21.8438C115.787 21.9232 115.86 22.0035 115.932 22.0846C116.004 22.1658 116.075 22.2478 116.145 22.3308C116.215 22.4137 116.284 22.4975 116.352 22.5821C116.42 22.6668 116.487 22.7523 116.552 22.8387C116.618 22.925 116.683 23.0122 116.746 23.1002C116.81 23.1881 116.872 23.2768 116.934 23.3663C116.995 23.4559 117.055 23.5462 117.114 23.6372C117.173 23.7282 117.231 23.82 117.288 23.9125C117.345 24.005 117.401 24.0982 117.455 24.1921C117.509 24.286 117.563 24.3806 117.615 24.4758C117.667 24.5711 117.718 24.6669 117.768 24.7633C117.817 24.8599 117.866 24.957 117.913 25.0546C117.96 25.1524 118.006 25.2507 118.051 25.3496C118.096 25.4484 118.139 25.5478 118.182 25.6478C118.224 25.7477 118.265 25.8481 118.305 25.9492C118.344 26.0501 118.383 26.1516 118.42 26.2535C118.457 26.3555 118.493 26.4579 118.528 26.5607C118.563 26.6636 118.596 26.7669 118.628 26.8706C118.66 26.9742 118.691 27.0783 118.72 27.1828C118.75 27.2872 118.778 27.392 118.805 27.4972C118.832 27.6023 118.857 27.7078 118.882 27.8136C118.906 27.9194 118.929 28.0255 118.95 28.1319C118.972 28.2383 118.992 28.3449 119.011 28.4517C119.03 28.5587 119.047 28.6658 119.063 28.7731C119.956 34.3251 117.039 37.9249 113.999 42.115C114.53 43.254 114.911 44.4436 115.31 45.6325C116.936 45.8738 118.508 46.2427 120.053 46.8078C120.223 46.8713 120.393 46.9369 120.561 47.0045C120.73 47.0721 120.898 47.1417 121.065 47.2134C121.232 47.285 121.398 47.3587 121.564 47.4344C121.729 47.5102 121.893 47.5879 122.057 47.6677C122.22 47.7473 122.382 47.829 122.544 47.9127C122.705 47.9964 122.866 48.082 123.025 48.1696C123.184 48.2571 123.342 48.3465 123.5 48.4379C123.657 48.5293 123.813 48.6226 123.968 48.7178C124.123 48.8131 124.276 48.9101 124.429 49.009C124.581 49.108 124.733 49.2088 124.883 49.3114C125.033 49.4139 125.182 49.5183 125.329 49.6246C125.477 49.7308 125.623 49.8388 125.768 49.9487C125.913 50.0584 126.056 50.1699 126.198 50.2831C126.34 50.3964 126.481 50.5114 126.621 50.6281C126.76 50.7448 126.898 50.8632 127.035 50.9832C127.171 51.1032 127.306 51.2248 127.44 51.3482C127.573 51.4715 127.705 51.5965 127.836 51.723C127.966 51.8495 128.095 51.9776 128.223 52.1073C128.35 52.237 128.476 52.3681 128.6 52.5009C128.725 52.6336 128.847 52.7678 128.968 52.9035C129.089 53.0392 129.208 53.1764 129.326 53.315C129.444 53.4536 129.56 53.5936 129.674 53.7351C129.788 53.8765 129.901 54.0193 130.011 54.1634C130.122 54.3076 130.231 54.453 130.338 54.5998C130.445 54.7467 130.551 54.8947 130.655 55.044C130.758 55.1934 130.86 55.3441 130.96 55.4959C131.06 55.6477 131.158 55.8008 131.254 55.955C131.351 56.1092 131.445 56.2646 131.537 56.4211C131.63 56.5776 131.72 56.7352 131.809 56.894C131.898 57.0527 131.984 57.2124 132.069 57.3733C132.154 57.5341 132.237 57.696 132.318 57.8588C132.398 58.0216 132.477 58.1854 132.554 58.3502C135.015 63.6855 135.504 69.8826 133.454 75.432C133.396 75.59 133.338 75.7472 133.277 75.9038C133.216 76.0604 133.154 76.2164 133.09 76.3716C133.026 76.5267 132.96 76.6811 132.893 76.8349C132.825 76.9886 132.756 77.1416 132.685 77.2938C132.614 77.4459 132.541 77.5972 132.467 77.7477C132.392 77.8984 132.316 78.0481 132.239 78.1969C132.161 78.3457 132.082 78.4937 132.001 78.6407C131.92 78.7878 131.837 78.934 131.753 79.0792C131.668 79.2244 131.582 79.3687 131.495 79.512C131.407 79.6553 131.318 79.7975 131.227 79.9388C131.137 80.0801 131.044 80.2204 130.951 80.3595C130.857 80.4988 130.761 80.637 130.664 80.7741C130.567 80.9112 130.469 81.0471 130.369 81.1821C130.269 81.317 130.168 81.4507 130.065 81.5833C129.962 81.716 129.857 81.8474 129.751 81.9777C129.645 82.1079 129.538 82.2369 129.429 82.3649C129.32 82.4927 129.21 82.6193 129.098 82.7447C128.987 82.8701 128.874 82.9943 128.759 83.1171C128.645 83.24 128.529 83.3616 128.412 83.4818C128.294 83.6021 128.176 83.721 128.056 83.8386C127.936 83.9562 127.815 84.0725 127.693 84.1874C127.57 84.3023 127.446 84.4158 127.321 84.5279C127.197 84.6401 127.07 84.7508 126.943 84.8601C126.815 84.9694 126.687 85.0772 126.557 85.1836C126.427 85.2901 126.296 85.395 126.164 85.4985C126.031 85.602 125.898 85.704 125.763 85.8046C125.629 85.905 125.493 86.004 125.357 86.1015C125.22 86.1989 125.082 86.2947 124.943 86.3891C124.804 86.4835 124.664 86.5763 124.524 86.6676C124.383 86.7588 124.241 86.8485 124.098 86.9366C123.955 87.0246 123.811 87.111 123.666 87.1959C123.521 87.2808 123.375 87.3639 123.228 87.4455C122.214 88.0113 121.157 88.4068 120.107 88.8894C120.3 89.6943 120.551 90.4809 120.71 91.2953C120.783 91.677 120.844 92.0605 120.895 92.4457C120.947 92.8308 120.987 93.217 121.017 93.6044C121.048 93.9917 121.067 94.3796 121.076 94.768C121.085 95.1565 121.083 95.5449 121.071 95.9332C121.059 96.3216 121.036 96.7093 121.003 97.0964C120.969 97.4835 120.925 97.8693 120.871 98.254C120.816 98.6387 120.751 99.0217 120.676 99.4028C120.6 99.7839 120.515 100.163 120.419 100.539C120.375 100.71 120.329 100.879 120.281 101.049C120.233 101.218 120.183 101.387 120.131 101.555C120.079 101.723 120.025 101.89 119.969 102.057C119.912 102.224 119.854 102.39 119.794 102.555C119.734 102.72 119.671 102.885 119.607 103.049C119.543 103.212 119.476 103.375 119.408 103.537C119.34 103.7 119.269 103.861 119.197 104.021C119.125 104.182 119.05 104.341 118.974 104.5C118.898 104.658 118.82 104.816 118.74 104.973C118.66 105.129 118.578 105.285 118.494 105.44C118.41 105.594 118.324 105.748 118.236 105.9C118.149 106.053 118.059 106.204 117.968 106.355C117.876 106.505 117.783 106.654 117.688 106.802C117.593 106.95 117.496 107.097 117.397 107.243C117.299 107.389 117.198 107.533 117.096 107.676C116.994 107.819 116.89 107.961 116.784 108.102C116.678 108.243 116.571 108.382 116.462 108.52C116.353 108.658 116.242 108.795 116.129 108.93C116.017 109.065 115.903 109.199 115.787 109.332C115.671 109.464 115.554 109.595 115.435 109.725C115.316 109.854 115.195 109.982 115.073 110.109C114.951 110.236 114.827 110.361 114.702 110.484C114.577 110.608 114.45 110.73 114.322 110.851C114.194 110.971 114.064 111.09 113.933 111.207C113.802 111.325 113.669 111.44 113.535 111.554C113.401 111.668 113.266 111.781 113.129 111.891C112.992 112.002 112.854 112.111 112.715 112.218C112.575 112.326 112.435 112.431 112.293 112.535C112.15 112.639 112.007 112.741 111.863 112.842C111.718 112.942 111.572 113.04 111.425 113.137C111.278 113.234 111.13 113.329 110.981 113.422C110.832 113.515 110.681 113.606 110.53 113.696C105.746 116.514 100.762 116.863 95.3432 116.601C92.7079 116.473 90.1845 116.228 87.6262 115.563C84.4382 118.366 81.0747 120.758 77.4271 122.928C76.8211 123.275 76.2093 123.611 75.5916 123.936C74.9739 124.261 74.3507 124.576 73.7221 124.879C73.0935 125.183 72.4598 125.476 71.8211 125.757C71.1824 126.039 70.5389 126.31 69.8907 126.569C69.2425 126.828 68.5901 127.076 67.9334 127.313C67.2765 127.549 66.6158 127.775 65.9512 127.988C65.2866 128.202 64.6185 128.404 63.9469 128.595C63.2753 128.785 62.6006 128.964 61.9228 129.131C50.3851 131.919 37.8769 131.952 27.4821 125.591C19.897 120.948 14.8969 113.278 12.8525 104.716C12.2122 102.034 12.0109 99.368 12.0703 96.6167C12.2175 89.8096 13.9307 84.7156 17.4744 78.9448C16.4313 78.209 15.3512 77.4929 14.3924 76.6482C10.4254 73.1536 7.77392 68.2741 7.44187 62.9577C7.10701 57.5961 8.7063 52.193 12.3095 48.1351C16.1571 43.802 21.4046 41.4279 27.1488 41.1023C27.3421 37.5957 27.9174 34.3251 29.6526 31.2071C31.8902 27.1866 35.4373 23.8439 39.6949 22.0447C40.86 21.5524 42.0894 21.2237 43.3035 20.8773C44.3053 18.5019 45.5766 16.4135 47.2338 14.4365C51.3185 9.56322 57.1211 6.80452 63.4068 6.25289Z"/>
</mask>
<path d="M63.4068 6.25289C63.9843 6.17637 64.615 6.197 65.2 6.19834C65.5927 6.19674 65.9851 6.20556 66.3774 6.22479C66.7696 6.24403 67.161 6.27366 67.5517 6.31367C67.9423 6.35369 68.3316 6.40404 68.7197 6.46473C69.1077 6.52542 69.4938 6.59636 69.8779 6.67754C70.2622 6.75873 70.644 6.85005 71.0233 6.9515C71.4027 7.05296 71.7791 7.16441 72.1526 7.28586C72.5261 7.4073 72.8961 7.53856 73.2625 7.67964C73.629 7.82072 73.9915 7.97143 74.35 8.13176C79.6145 10.4873 84.044 14.961 86.1166 20.3668C89.759 20.7107 92.6515 21.3298 96.09 22.5872C98.3378 20.131 100.712 18.3944 104.078 17.8402C104.182 17.8224 104.288 17.8059 104.393 17.7906C104.498 17.7754 104.604 17.7615 104.71 17.749C104.815 17.7364 104.921 17.7252 105.027 17.7152C105.133 17.7054 105.239 17.6968 105.345 17.6895C105.452 17.6823 105.558 17.6764 105.664 17.6718C105.77 17.6672 105.877 17.6639 105.983 17.6619C106.09 17.6601 106.196 17.6595 106.303 17.6603C106.409 17.661 106.515 17.6631 106.622 17.6664C106.728 17.6698 106.834 17.6745 106.941 17.6806C107.047 17.6867 107.153 17.6941 107.259 17.7028C107.365 17.7116 107.471 17.7216 107.577 17.7329C107.683 17.7444 107.789 17.7571 107.894 17.771C108 17.7851 108.105 17.8005 108.21 17.8171C108.315 17.8338 108.42 17.8518 108.525 17.871C108.63 17.8903 108.734 17.9109 108.838 17.9328C108.942 17.9548 109.046 17.978 109.15 18.0024C109.253 18.027 109.357 18.0528 109.46 18.0799C109.562 18.107 109.665 18.1353 109.767 18.165C109.869 18.1947 109.971 18.2256 110.073 18.2577C110.174 18.29 110.275 18.3235 110.376 18.3583C110.476 18.393 110.577 18.429 110.676 18.4662C110.776 18.5034 110.875 18.5419 110.974 18.5816C111.073 18.6214 111.171 18.6624 111.269 18.7047C111.366 18.7468 111.464 18.7902 111.56 18.8348C111.657 18.8795 111.753 18.9253 111.848 18.9723C111.944 19.0194 112.039 19.0676 112.133 19.117C112.227 19.1665 112.321 19.2171 112.414 19.2688C112.507 19.3206 112.599 19.3735 112.691 19.4276C112.783 19.4816 112.874 19.5368 112.964 19.5932C113.054 19.6495 113.144 19.707 113.233 19.7657C113.322 19.8242 113.41 19.8839 113.497 19.9446C113.584 20.0055 113.671 20.0674 113.757 20.1303C113.845 20.1933 113.933 20.2574 114.02 20.3227C114.106 20.3878 114.192 20.4541 114.277 20.5214C114.362 20.5887 114.447 20.6571 114.53 20.7266C114.614 20.796 114.696 20.8665 114.778 20.938C114.859 21.0095 114.94 21.0821 115.02 21.1556C115.1 21.2292 115.179 21.3037 115.257 21.3792C115.335 21.4547 115.412 21.5312 115.488 21.6087C115.564 21.6862 115.639 21.7645 115.713 21.8438C115.787 21.9232 115.86 22.0035 115.932 22.0846C116.004 22.1658 116.075 22.2478 116.145 22.3308C116.215 22.4137 116.284 22.4975 116.352 22.5821C116.42 22.6668 116.487 22.7523 116.552 22.8387C116.618 22.925 116.683 23.0122 116.746 23.1002C116.81 23.1881 116.872 23.2768 116.934 23.3663C116.995 23.4559 117.055 23.5462 117.114 23.6372C117.173 23.7282 117.231 23.82 117.288 23.9125C117.345 24.005 117.401 24.0982 117.455 24.1921C117.509 24.286 117.563 24.3806 117.615 24.4758C117.667 24.5711 117.718 24.6669 117.768 24.7633C117.817 24.8599 117.866 24.957 117.913 25.0546C117.96 25.1524 118.006 25.2507 118.051 25.3496C118.096 25.4484 118.139 25.5478 118.182 25.6478C118.224 25.7477 118.265 25.8481 118.305 25.9492C118.344 26.0501 118.383 26.1516 118.42 26.2535C118.457 26.3555 118.493 26.4579 118.528 26.5607C118.563 26.6636 118.596 26.7669 118.628 26.8706C118.66 26.9742 118.691 27.0783 118.72 27.1828C118.75 27.2872 118.778 27.392 118.805 27.4972C118.832 27.6023 118.857 27.7078 118.882 27.8136C118.906 27.9194 118.929 28.0255 118.95 28.1319C118.972 28.2383 118.992 28.3449 119.011 28.4517C119.03 28.5587 119.047 28.6658 119.063 28.7731C119.956 34.3251 117.039 37.9249 113.999 42.115C114.53 43.254 114.911 44.4436 115.31 45.6325C116.936 45.8738 118.508 46.2427 120.053 46.8078C120.223 46.8713 120.393 46.9369 120.561 47.0045C120.73 47.0721 120.898 47.1417 121.065 47.2134C121.232 47.285 121.398 47.3587 121.564 47.4344C121.729 47.5102 121.893 47.5879 122.057 47.6677C122.22 47.7473 122.382 47.829 122.544 47.9127C122.705 47.9964 122.866 48.082 123.025 48.1696C123.184 48.2571 123.342 48.3465 123.5 48.4379C123.657 48.5293 123.813 48.6226 123.968 48.7178C124.123 48.8131 124.276 48.9101 124.429 49.009C124.581 49.108 124.733 49.2088 124.883 49.3114C125.033 49.4139 125.182 49.5183 125.329 49.6246C125.477 49.7308 125.623 49.8388 125.768 49.9487C125.913 50.0584 126.056 50.1699 126.198 50.2831C126.34 50.3964 126.481 50.5114 126.621 50.6281C126.76 50.7448 126.898 50.8632 127.035 50.9832C127.171 51.1032 127.306 51.2248 127.44 51.3482C127.573 51.4715 127.705 51.5965 127.836 51.723C127.966 51.8495 128.095 51.9776 128.223 52.1073C128.35 52.237 128.476 52.3681 128.6 52.5009C128.725 52.6336 128.847 52.7678 128.968 52.9035C129.089 53.0392 129.208 53.1764 129.326 53.315C129.444 53.4536 129.56 53.5936 129.674 53.7351C129.788 53.8765 129.901 54.0193 130.011 54.1634C130.122 54.3076 130.231 54.453 130.338 54.5998C130.445 54.7467 130.551 54.8947 130.655 55.044C130.758 55.1934 130.86 55.3441 130.96 55.4959C131.06 55.6477 131.158 55.8008 131.254 55.955C131.351 56.1092 131.445 56.2646 131.537 56.4211C131.63 56.5776 131.72 56.7352 131.809 56.894C131.898 57.0527 131.984 57.2124 132.069 57.3733C132.154 57.5341 132.237 57.696 132.318 57.8588C132.398 58.0216 132.477 58.1854 132.554 58.3502C135.015 63.6855 135.504 69.8826 133.454 75.432C133.396 75.59 133.338 75.7472 133.277 75.9038C133.216 76.0604 133.154 76.2164 133.09 76.3716C133.026 76.5267 132.96 76.6811 132.893 76.8349C132.825 76.9886 132.756 77.1416 132.685 77.2938C132.614 77.4459 132.541 77.5972 132.467 77.7477C132.392 77.8984 132.316 78.0481 132.239 78.1969C132.161 78.3457 132.082 78.4937 132.001 78.6407C131.92 78.7878 131.837 78.934 131.753 79.0792C131.668 79.2244 131.582 79.3687 131.495 79.512C131.407 79.6553 131.318 79.7975 131.227 79.9388C131.137 80.0801 131.044 80.2204 130.951 80.3595C130.857 80.4988 130.761 80.637 130.664 80.7741C130.567 80.9112 130.469 81.0471 130.369 81.1821C130.269 81.317 130.168 81.4507 130.065 81.5833C129.962 81.716 129.857 81.8474 129.751 81.9777C129.645 82.1079 129.538 82.2369 129.429 82.3649C129.32 82.4927 129.21 82.6193 129.098 82.7447C128.987 82.8701 128.874 82.9943 128.759 83.1171C128.645 83.24 128.529 83.3616 128.412 83.4818C128.294 83.6021 128.176 83.721 128.056 83.8386C127.936 83.9562 127.815 84.0725 127.693 84.1874C127.57 84.3023 127.446 84.4158 127.321 84.5279C127.197 84.6401 127.07 84.7508 126.943 84.8601C126.815 84.9694 126.687 85.0772 126.557 85.1836C126.427 85.2901 126.296 85.395 126.164 85.4985C126.031 85.602 125.898 85.704 125.763 85.8046C125.629 85.905 125.493 86.004 125.357 86.1015C125.22 86.1989 125.082 86.2947 124.943 86.3891C124.804 86.4835 124.664 86.5763 124.524 86.6676C124.383 86.7588 124.241 86.8485 124.098 86.9366C123.955 87.0246 123.811 87.111 123.666 87.1959C123.521 87.2808 123.375 87.3639 123.228 87.4455C122.214 88.0113 121.157 88.4068 120.107 88.8894C120.3 89.6943 120.551 90.4809 120.71 91.2953C120.783 91.677 120.844 92.0605 120.895 92.4457C120.947 92.8308 120.987 93.217 121.017 93.6044C121.048 93.9917 121.067 94.3796 121.076 94.768C121.085 95.1565 121.083 95.5449 121.071 95.9332C121.059 96.3216 121.036 96.7093 121.003 97.0964C120.969 97.4835 120.925 97.8693 120.871 98.254C120.816 98.6387 120.751 99.0217 120.676 99.4028C120.6 99.7839 120.515 100.163 120.419 100.539C120.375 100.71 120.329 100.879 120.281 101.049C120.233 101.218 120.183 101.387 120.131 101.555C120.079 101.723 120.025 101.89 119.969 102.057C119.912 102.224 119.854 102.39 119.794 102.555C119.734 102.72 119.671 102.885 119.607 103.049C119.543 103.212 119.476 103.375 119.408 103.537C119.34 103.7 119.269 103.861 119.197 104.021C119.125 104.182 119.05 104.341 118.974 104.5C118.898 104.658 118.82 104.816 118.74 104.973C118.66 105.129 118.578 105.285 118.494 105.44C118.41 105.594 118.324 105.748 118.236 105.9C118.149 106.053 118.059 106.204 117.968 106.355C117.876 106.505 117.783 106.654 117.688 106.802C117.593 106.95 117.496 107.097 117.397 107.243C117.299 107.389 117.198 107.533 117.096 107.676C116.994 107.819 116.89 107.961 116.784 108.102C116.678 108.243 116.571 108.382 116.462 108.52C116.353 108.658 116.242 108.795 116.129 108.93C116.017 109.065 115.903 109.199 115.787 109.332C115.671 109.464 115.554 109.595 115.435 109.725C115.316 109.854 115.195 109.982 115.073 110.109C114.951 110.236 114.827 110.361 114.702 110.484C114.577 110.608 114.45 110.73 114.322 110.851C114.194 110.971 114.064 111.09 113.933 111.207C113.802 111.325 113.669 111.44 113.535 111.554C113.401 111.668 113.266 111.781 113.129 111.891C112.992 112.002 112.854 112.111 112.715 112.218C112.575 112.326 112.435 112.431 112.293 112.535C112.15 112.639 112.007 112.741 111.863 112.842C111.718 112.942 111.572 113.04 111.425 113.137C111.278 113.234 111.13 113.329 110.981 113.422C110.832 113.515 110.681 113.606 110.53 113.696C105.746 116.514 100.762 116.863 95.3432 116.601C92.7079 116.473 90.1845 116.228 87.6262 115.563C84.4382 118.366 81.0747 120.758 77.4271 122.928C76.8211 123.275 76.2093 123.611 75.5916 123.936C74.9739 124.261 74.3507 124.576 73.7221 124.879C73.0935 125.183 72.4598 125.476 71.8211 125.757C71.1824 126.039 70.5389 126.31 69.8907 126.569C69.2425 126.828 68.5901 127.076 67.9334 127.313C67.2765 127.549 66.6158 127.775 65.9512 127.988C65.2866 128.202 64.6185 128.404 63.9469 128.595C63.2753 128.785 62.6006 128.964 61.9228 129.131C50.3851 131.919 37.8769 131.952 27.4821 125.591C19.897 120.948 14.8969 113.278 12.8525 104.716C12.2122 102.034 12.0109 99.368 12.0703 96.6167C12.2175 89.8096 13.9307 84.7156 17.4744 78.9448C16.4313 78.209 15.3512 77.4929 14.3924 76.6482C10.4254 73.1536 7.77392 68.2741 7.44187 62.9577C7.10701 57.5961 8.7063 52.193 12.3095 48.1351C16.1571 43.802 21.4046 41.4279 27.1488 41.1023C27.3421 37.5957 27.9174 34.3251 29.6526 31.2071C31.8902 27.1866 35.4373 23.8439 39.6949 22.0447C40.86 21.5524 42.0894 21.2237 43.3035 20.8773C44.3053 18.5019 45.5766 16.4135 47.2338 14.4365C51.3185 9.56322 57.1211 6.80452 63.4068 6.25289Z" fill="#FDFDFC"/>
<path d="M63.4068 6.25289C63.9843 6.17637 64.615 6.197 65.2 6.19834C65.5927 6.19674 65.9851 6.20556 66.3774 6.22479C66.7696 6.24403 67.161 6.27366 67.5517 6.31367C67.9423 6.35369 68.3316 6.40404 68.7197 6.46473C69.1077 6.52542 69.4938 6.59636 69.8779 6.67754C70.2622 6.75873 70.644 6.85005 71.0233 6.9515C71.4027 7.05296 71.7791 7.16441 72.1526 7.28586C72.5261 7.4073 72.8961 7.53856 73.2625 7.67964C73.629 7.82072 73.9915 7.97143 74.35 8.13176C79.6145 10.4873 84.044 14.961 86.1166 20.3668C89.759 20.7107 92.6515 21.3298 96.09 22.5872C98.3378 20.131 100.712 18.3944 104.078 17.8402C104.182 17.8224 104.288 17.8059 104.393 17.7906C104.498 17.7754 104.604 17.7615 104.71 17.749C104.815 17.7364 104.921 17.7252 105.027 17.7152C105.133 17.7054 105.239 17.6968 105.345 17.6895C105.452 17.6823 105.558 17.6764 105.664 17.6718C105.77 17.6672 105.877 17.6639 105.983 17.6619C106.09 17.6601 106.196 17.6595 106.303 17.6603C106.409 17.661 106.515 17.6631 106.622 17.6664C106.728 17.6698 106.834 17.6745 106.941 17.6806C107.047 17.6867 107.153 17.6941 107.259 17.7028C107.365 17.7116 107.471 17.7216 107.577 17.7329C107.683 17.7444 107.789 17.7571 107.894 17.771C108 17.7851 108.105 17.8005 108.21 17.8171C108.315 17.8338 108.42 17.8518 108.525 17.871C108.63 17.8903 108.734 17.9109 108.838 17.9328C108.942 17.9548 109.046 17.978 109.15 18.0024C109.253 18.027 109.357 18.0528 109.46 18.0799C109.562 18.107 109.665 18.1353 109.767 18.165C109.869 18.1947 109.971 18.2256 110.073 18.2577C110.174 18.29 110.275 18.3235 110.376 18.3583C110.476 18.393 110.577 18.429 110.676 18.4662C110.776 18.5034 110.875 18.5419 110.974 18.5816C111.073 18.6214 111.171 18.6624 111.269 18.7047C111.366 18.7468 111.464 18.7902 111.56 18.8348C111.657 18.8795 111.753 18.9253 111.848 18.9723C111.944 19.0194 112.039 19.0676 112.133 19.117C112.227 19.1665 112.321 19.2171 112.414 19.2688C112.507 19.3206 112.599 19.3735 112.691 19.4276C112.783 19.4816 112.874 19.5368 112.964 19.5932C113.054 19.6495 113.144 19.707 113.233 19.7657C113.322 19.8242 113.41 19.8839 113.497 19.9446C113.584 20.0055 113.671 20.0674 113.757 20.1303C113.845 20.1933 113.933 20.2574 114.02 20.3227C114.106 20.3878 114.192 20.4541 114.277 20.5214C114.362 20.5887 114.447 20.6571 114.53 20.7266C114.614 20.796 114.696 20.8665 114.778 20.938C114.859 21.0095 114.94 21.0821 115.02 21.1556C115.1 21.2292 115.179 21.3037 115.257 21.3792C115.335 21.4547 115.412 21.5312 115.488 21.6087C115.564 21.6862 115.639 21.7645 115.713 21.8438C115.787 21.9232 115.86 22.0035 115.932 22.0846C116.004 22.1658 116.075 22.2478 116.145 22.3308C116.215 22.4137 116.284 22.4975 116.352 22.5821C116.42 22.6668 116.487 22.7523 116.552 22.8387C116.618 22.925 116.683 23.0122 116.746 23.1002C116.81 23.1881 116.872 23.2768 116.934 23.3663C116.995 23.4559 117.055 23.5462 117.114 23.6372C117.173 23.7282 117.231 23.82 117.288 23.9125C117.345 24.005 117.401 24.0982 117.455 24.1921C117.509 24.286 117.563 24.3806 117.615 24.4758C117.667 24.5711 117.718 24.6669 117.768 24.7633C117.817 24.8599 117.866 24.957 117.913 25.0546C117.96 25.1524 118.006 25.2507 118.051 25.3496C118.096 25.4484 118.139 25.5478 118.182 25.6478C118.224 25.7477 118.265 25.8481 118.305 25.9492C118.344 26.0501 118.383 26.1516 118.42 26.2535C118.457 26.3555 118.493 26.4579 118.528 26.5607C118.563 26.6636 118.596 26.7669 118.628 26.8706C118.66 26.9742 118.691 27.0783 118.72 27.1828C118.75 27.2872 118.778 27.392 118.805 27.4972C118.832 27.6023 118.857 27.7078 118.882 27.8136C118.906 27.9194 118.929 28.0255 118.95 28.1319C118.972 28.2383 118.992 28.3449 119.011 28.4517C119.03 28.5587 119.047 28.6658 119.063 28.7731C119.956 34.3251 117.039 37.9249 113.999 42.115C114.53 43.254 114.911 44.4436 115.31 45.6325C116.936 45.8738 118.508 46.2427 120.053 46.8078C120.223 46.8713 120.393 46.9369 120.561 47.0045C120.73 47.0721 120.898 47.1417 121.065 47.2134C121.232 47.285 121.398 47.3587 121.564 47.4344C121.729 47.5102 121.893 47.5879 122.057 47.6677C122.22 47.7473 122.382 47.829 122.544 47.9127C122.705 47.9964 122.866 48.082 123.025 48.1696C123.184 48.2571 123.342 48.3465 123.5 48.4379C123.657 48.5293 123.813 48.6226 123.968 48.7178C124.123 48.8131 124.276 48.9101 124.429 49.009C124.581 49.108 124.733 49.2088 124.883 49.3114C125.033 49.4139 125.182 49.5183 125.329 49.6246C125.477 49.7308 125.623 49.8388 125.768 49.9487C125.913 50.0584 126.056 50.1699 126.198 50.2831C126.34 50.3964 126.481 50.5114 126.621 50.6281C126.76 50.7448 126.898 50.8632 127.035 50.9832C127.171 51.1032 127.306 51.2248 127.44 51.3482C127.573 51.4715 127.705 51.5965 127.836 51.723C127.966 51.8495 128.095 51.9776 128.223 52.1073C128.35 52.237 128.476 52.3681 128.6 52.5009C128.725 52.6336 128.847 52.7678 128.968 52.9035C129.089 53.0392 129.208 53.1764 129.326 53.315C129.444 53.4536 129.56 53.5936 129.674 53.7351C129.788 53.8765 129.901 54.0193 130.011 54.1634C130.122 54.3076 130.231 54.453 130.338 54.5998C130.445 54.7467 130.551 54.8947 130.655 55.044C130.758 55.1934 130.86 55.3441 130.96 55.4959C131.06 55.6477 131.158 55.8008 131.254 55.955C131.351 56.1092 131.445 56.2646 131.537 56.4211C131.63 56.5776 131.72 56.7352 131.809 56.894C131.898 57.0527 131.984 57.2124 132.069 57.3733C132.154 57.5341 132.237 57.696 132.318 57.8588C132.398 58.0216 132.477 58.1854 132.554 58.3502C135.015 63.6855 135.504 69.8826 133.454 75.432C133.396 75.59 133.338 75.7472 133.277 75.9038C133.216 76.0604 133.154 76.2164 133.09 76.3716C133.026 76.5267 132.96 76.6811 132.893 76.8349C132.825 76.9886 132.756 77.1416 132.685 77.2938C132.614 77.4459 132.541 77.5972 132.467 77.7477C132.392 77.8984 132.316 78.0481 132.239 78.1969C132.161 78.3457 132.082 78.4937 132.001 78.6407C131.92 78.7878 131.837 78.934 131.753 79.0792C131.668 79.2244 131.582 79.3687 131.495 79.512C131.407 79.6553 131.318 79.7975 131.227 79.9388C131.137 80.0801 131.044 80.2204 130.951 80.3595C130.857 80.4988 130.761 80.637 130.664 80.7741C130.567 80.9112 130.469 81.0471 130.369 81.1821C130.269 81.317 130.168 81.4507 130.065 81.5833C129.962 81.716 129.857 81.8474 129.751 81.9777C129.645 82.1079 129.538 82.2369 129.429 82.3649C129.32 82.4927 129.21 82.6193 129.098 82.7447C128.987 82.8701 128.874 82.9943 128.759 83.1171C128.645 83.24 128.529 83.3616 128.412 83.4818C128.294 83.6021 128.176 83.721 128.056 83.8386C127.936 83.9562 127.815 84.0725 127.693 84.1874C127.57 84.3023 127.446 84.4158 127.321 84.5279C127.197 84.6401 127.07 84.7508 126.943 84.8601C126.815 84.9694 126.687 85.0772 126.557 85.1836C126.427 85.2901 126.296 85.395 126.164 85.4985C126.031 85.602 125.898 85.704 125.763 85.8046C125.629 85.905 125.493 86.004 125.357 86.1015C125.22 86.1989 125.082 86.2947 124.943 86.3891C124.804 86.4835 124.664 86.5763 124.524 86.6676C124.383 86.7588 124.241 86.8485 124.098 86.9366C123.955 87.0246 123.811 87.111 123.666 87.1959C123.521 87.2808 123.375 87.3639 123.228 87.4455C122.214 88.0113 121.157 88.4068 120.107 88.8894C120.3 89.6943 120.551 90.4809 120.71 91.2953C120.783 91.677 120.844 92.0605 120.895 92.4457C120.947 92.8308 120.987 93.217 121.017 93.6044C121.048 93.9917 121.067 94.3796 121.076 94.768C121.085 95.1565 121.083 95.5449 121.071 95.9332C121.059 96.3216 121.036 96.7093 121.003 97.0964C120.969 97.4835 120.925 97.8693 120.871 98.254C120.816 98.6387 120.751 99.0217 120.676 99.4028C120.6 99.7839 120.515 100.163 120.419 100.539C120.375 100.71 120.329 100.879 120.281 101.049C120.233 101.218 120.183 101.387 120.131 101.555C120.079 101.723 120.025 101.89 119.969 102.057C119.912 102.224 119.854 102.39 119.794 102.555C119.734 102.72 119.671 102.885 119.607 103.049C119.543 103.212 119.476 103.375 119.408 103.537C119.34 103.7 119.269 103.861 119.197 104.021C119.125 104.182 119.05 104.341 118.974 104.5C118.898 104.658 118.82 104.816 118.74 104.973C118.66 105.129 118.578 105.285 118.494 105.44C118.41 105.594 118.324 105.748 118.236 105.9C118.149 106.053 118.059 106.204 117.968 106.355C117.876 106.505 117.783 106.654 117.688 106.802C117.593 106.95 117.496 107.097 117.397 107.243C117.299 107.389 117.198 107.533 117.096 107.676C116.994 107.819 116.89 107.961 116.784 108.102C116.678 108.243 116.571 108.382 116.462 108.52C116.353 108.658 116.242 108.795 116.129 108.93C116.017 109.065 115.903 109.199 115.787 109.332C115.671 109.464 115.554 109.595 115.435 109.725C115.316 109.854 115.195 109.982 115.073 110.109C114.951 110.236 114.827 110.361 114.702 110.484C114.577 110.608 114.45 110.73 114.322 110.851C114.194 110.971 114.064 111.09 113.933 111.207C113.802 111.325 113.669 111.44 113.535 111.554C113.401 111.668 113.266 111.781 113.129 111.891C112.992 112.002 112.854 112.111 112.715 112.218C112.575 112.326 112.435 112.431 112.293 112.535C112.15 112.639 112.007 112.741 111.863 112.842C111.718 112.942 111.572 113.04 111.425 113.137C111.278 113.234 111.13 113.329 110.981 113.422C110.832 113.515 110.681 113.606 110.53 113.696C105.746 116.514 100.762 116.863 95.3432 116.601C92.7079 116.473 90.1845 116.228 87.6262 115.563C84.4382 118.366 81.0747 120.758 77.4271 122.928C76.8211 123.275 76.2093 123.611 75.5916 123.936C74.9739 124.261 74.3507 124.576 73.7221 124.879C73.0935 125.183 72.4598 125.476 71.8211 125.757C71.1824 126.039 70.5389 126.31 69.8907 126.569C69.2425 126.828 68.5901 127.076 67.9334 127.313C67.2765 127.549 66.6158 127.775 65.9512 127.988C65.2866 128.202 64.6185 128.404 63.9469 128.595C63.2753 128.785 62.6006 128.964 61.9228 129.131C50.3851 131.919 37.8769 131.952 27.4821 125.591C19.897 120.948 14.8969 113.278 12.8525 104.716C12.2122 102.034 12.0109 99.368 12.0703 96.6167C12.2175 89.8096 13.9307 84.7156 17.4744 78.9448C16.4313 78.209 15.3512 77.4929 14.3924 76.6482C10.4254 73.1536 7.77392 68.2741 7.44187 62.9577C7.10701 57.5961 8.7063 52.193 12.3095 48.1351C16.1571 43.802 21.4046 41.4279 27.1488 41.1023C27.3421 37.5957 27.9174 34.3251 29.6526 31.2071C31.8902 27.1866 35.4373 23.8439 39.6949 22.0447C40.86 21.5524 42.0894 21.2237 43.3035 20.8773C44.3053 18.5019 45.5766 16.4135 47.2338 14.4365C51.3185 9.56322 57.1211 6.80452 63.4068 6.25289Z" stroke="white" stroke-width="8" mask="url(#path-1-outside-1_0_5259)"/>
<path d="M64.1731 8.76761C64.4215 8.75665 64.6701 8.75127 64.9188 8.75147C65.1676 8.75167 65.4161 8.75745 65.6646 8.7688C65.913 8.78006 66.161 8.79694 66.4087 8.81945C66.6564 8.84187 66.9035 8.86981 67.1499 8.90328C67.3963 8.93674 67.6419 8.97574 67.8865 9.02027C68.1311 9.06469 68.3747 9.1146 68.6171 9.16998C68.8596 9.22536 69.1007 9.28617 69.3405 9.35241C69.5801 9.41855 69.8182 9.49007 70.0548 9.56697C70.2913 9.64377 70.526 9.72585 70.7588 9.81321C70.9917 9.90056 71.2225 9.9931 71.4512 10.0908C71.6799 10.1885 71.9063 10.2913 72.1303 10.3991C72.3544 10.5069 72.576 10.6197 72.7951 10.7375C73.0141 10.8552 73.2304 10.9778 73.444 11.1052C73.6575 11.2326 73.8681 11.3647 74.0758 11.5016C74.2835 11.6384 74.488 11.7799 74.6893 11.9259C74.8906 12.0719 75.0886 12.2224 75.2831 12.3773C75.395 12.4643 75.5057 12.5526 75.6154 12.6422C75.7252 12.732 75.8337 12.8231 75.9411 12.9155C76.0485 13.0078 76.1547 13.1015 76.2598 13.1965C76.3649 13.2917 76.4688 13.388 76.5715 13.4857C76.6742 13.5833 76.7756 13.6822 76.8758 13.7824C76.9761 13.8825 77.075 13.9839 77.1727 14.0864C77.2705 14.1891 77.3669 14.293 77.462 14.398C77.5571 14.5031 77.6509 14.6092 77.7434 14.7165C77.8358 14.8239 77.9269 14.9324 78.0166 15.0421C78.1065 15.1517 78.1949 15.2624 78.2818 15.3742C78.3688 15.4861 78.4544 15.599 78.5387 15.713C78.6228 15.8269 78.7056 15.9419 78.787 16.058C78.8683 16.174 78.9481 16.2911 79.0265 16.4091C79.1049 16.527 79.1819 16.646 79.2574 16.7659C79.3329 16.8858 79.4068 17.0067 79.4792 17.1285C79.5517 17.2502 79.6226 17.3729 79.692 17.4965C79.7613 17.62 79.8292 17.7444 79.8955 17.8696C79.9617 17.9948 80.0265 18.1209 80.0896 18.2478C80.1528 18.3746 80.2143 18.5022 80.2743 18.6306C80.3343 18.759 80.3927 18.8881 80.4494 19.0179C80.5062 19.1476 80.5613 19.2782 80.6148 19.4095C80.6684 19.5407 80.7203 19.6725 80.7705 19.805C80.8207 19.9375 80.8692 20.0705 80.9162 20.2042C80.9631 20.338 81.0083 20.4723 81.0518 20.607C81.0955 20.7419 81.1373 20.8773 81.1775 21.0131C81.2177 21.149 81.2562 21.2853 81.293 21.4221C81.3298 21.5589 81.3649 21.6963 81.3983 21.834C81.4317 21.9717 81.4634 22.1097 81.4933 22.2482C81.5232 22.3867 81.5514 22.5256 81.5779 22.6648C81.6044 22.804 81.6292 22.9435 81.6522 23.0833C81.6752 23.2231 81.6964 23.3632 81.716 23.5036C81.7355 23.6439 81.7533 23.7845 81.7693 23.9252C88.1612 23.1889 93.6804 24.253 99.2288 27.5162C101.538 25.2779 103.178 21.9138 106.51 21.1297C106.628 21.1022 106.746 21.0776 106.865 21.0559C106.984 21.0342 107.103 21.0156 107.222 20.9998C107.342 20.9841 107.462 20.9713 107.583 20.9616C107.703 20.9518 107.823 20.945 107.944 20.9413C108.065 20.9375 108.185 20.9367 108.306 20.939C108.427 20.9412 108.547 20.9464 108.668 20.9547C108.788 20.9629 108.908 20.9741 109.028 20.9883C109.148 21.0025 109.268 21.0197 109.387 21.0399C109.506 21.06 109.624 21.0831 109.742 21.1091C109.86 21.1352 109.977 21.1641 110.093 21.1959C110.21 21.2277 110.325 21.2625 110.44 21.3002C110.555 21.3378 110.669 21.3783 110.781 21.4215C110.894 21.4647 111.006 21.5107 111.116 21.5595C111.226 21.6083 111.335 21.6599 111.443 21.7142C111.551 21.7684 111.658 21.8252 111.763 21.8848C111.868 21.9444 111.971 22.0065 112.073 22.0711C113.735 23.1143 114.997 24.8471 115.426 26.7666C115.67 27.8588 115.698 29.0718 115.387 30.1535C114.937 31.7203 113.778 33.1621 112.917 34.5348C111.827 36.2891 110.725 38.0366 109.613 39.7771C110.025 40.8139 110.526 41.8141 110.921 42.8596C111.819 45.2352 112.206 47.6906 112.444 50.2073C117.955 50.3772 122.829 51.7344 126.848 55.7458C130.101 58.9928 132.038 63.2928 132.023 67.9164C132.024 68.0572 132.023 68.198 132.02 68.3388C132.018 68.4796 132.013 68.6203 132.007 68.7609C132.001 68.9016 131.993 69.0421 131.983 69.1826C131.973 69.3231 131.962 69.4635 131.949 69.6036C131.935 69.7438 131.92 69.8838 131.904 70.0236C131.887 70.1634 131.868 70.3029 131.848 70.4423C131.828 70.5816 131.806 70.7207 131.783 70.8596C131.759 70.9983 131.734 71.1368 131.706 71.275C131.679 71.4131 131.651 71.5509 131.62 71.6884C131.59 71.8259 131.557 71.9629 131.524 72.0996C131.49 72.2362 131.454 72.3725 131.417 72.5082C131.379 72.644 131.34 72.7793 131.3 72.9142C131.259 73.049 131.217 73.1832 131.173 73.317C131.129 73.4508 131.083 73.584 131.036 73.7165C130.989 73.8491 130.94 73.9811 130.889 74.1126C130.839 74.244 130.786 74.3747 130.732 74.5048C130.679 74.6349 130.623 74.7643 130.566 74.893C130.509 75.0218 130.451 75.1499 130.39 75.2772C130.33 75.4044 130.268 75.5308 130.205 75.6565C130.142 75.7823 130.077 75.9073 130.01 76.0314C129.944 76.1555 129.876 76.2788 129.806 76.4012C129.737 76.5236 129.666 76.6452 129.593 76.7659C129.52 76.8866 129.446 77.0063 129.371 77.1251C129.295 77.244 129.218 77.3618 129.14 77.4788C129.061 77.5956 128.981 77.7115 128.9 77.8265C128.819 77.9414 128.736 78.0553 128.652 78.1682C128.568 78.281 128.482 78.3928 128.395 78.5036C128.308 78.6144 128.22 78.724 128.13 78.8325C128.041 78.941 127.95 79.0485 127.857 79.1548C127.765 79.261 127.671 79.3662 127.576 79.4702C127.481 79.5742 127.385 79.6769 127.288 79.7784C127.19 79.88 127.091 79.9804 126.991 80.0795C124.343 82.7035 120.754 84.4914 117.025 84.8247C115.197 84.9882 113.329 84.8866 111.494 84.8796C114.072 86.7099 115.92 89.1628 116.949 92.1615C118.268 96.0051 117.766 100.497 115.98 104.103C115.921 104.222 115.86 104.341 115.798 104.459C115.736 104.577 115.672 104.694 115.607 104.811C115.542 104.927 115.475 105.043 115.407 105.158C115.339 105.273 115.269 105.387 115.199 105.5C115.128 105.613 115.056 105.726 114.982 105.837C114.908 105.948 114.834 106.059 114.757 106.169C114.681 106.278 114.603 106.387 114.525 106.494C114.446 106.602 114.365 106.709 114.284 106.815C114.202 106.92 114.119 107.025 114.035 107.129C113.951 107.232 113.866 107.335 113.779 107.437C113.693 107.538 113.605 107.639 113.516 107.738C113.427 107.838 113.336 107.936 113.245 108.033C113.153 108.13 113.061 108.226 112.967 108.321C112.873 108.416 112.778 108.51 112.682 108.603C112.586 108.696 112.489 108.787 112.39 108.877C112.292 108.967 112.192 109.057 112.092 109.144C111.991 109.232 111.89 109.319 111.787 109.404C111.684 109.489 111.58 109.574 111.476 109.656C111.371 109.739 111.265 109.821 111.159 109.901C111.052 109.981 110.944 110.06 110.835 110.138C110.727 110.215 110.617 110.291 110.507 110.366C110.396 110.441 110.285 110.515 110.172 110.587C110.06 110.659 109.947 110.73 109.833 110.799C109.719 110.868 109.604 110.936 109.488 111.003C109.372 111.07 109.256 111.135 109.139 111.198C109.021 111.262 108.903 111.324 108.784 111.385C108.665 111.446 108.546 111.505 108.426 111.563C108.305 111.621 108.184 111.678 108.063 111.733C107.941 111.788 107.818 111.841 107.695 111.893C107.573 111.945 107.449 111.995 107.325 112.044C107.2 112.093 107.076 112.14 106.95 112.186C106.825 112.232 106.699 112.277 106.572 112.319C106.036 112.496 105.491 112.644 104.938 112.761C104.386 112.879 103.828 112.966 103.266 113.023C102.013 113.153 100.731 113.11 99.4722 113.101C96.9563 113.082 94.3932 113.067 91.9189 112.556C91.533 112.48 91.1502 112.391 90.7706 112.288C90.391 112.185 90.0155 112.069 89.644 111.939C89.2726 111.81 88.9062 111.667 88.5449 111.512C88.1835 111.356 87.8281 111.188 87.4787 111.008C86.473 111.871 85.5062 112.777 84.4906 113.629C82.1611 115.582 79.7322 117.402 77.2038 119.09C68.9724 124.371 60.0795 127.544 50.3195 128.361C41.445 129.104 32.4337 127.534 25.4767 121.636C25.2268 121.427 24.9805 121.215 24.7378 120.998C24.4952 120.781 24.2563 120.561 24.0211 120.336C23.786 120.111 23.5548 119.882 23.3275 119.649C23.1001 119.417 22.8768 119.18 22.6577 118.94C22.4384 118.699 22.2233 118.455 22.0124 118.207C21.8015 117.96 21.5949 117.708 21.3926 117.454C21.1903 117.199 20.9924 116.941 20.7988 116.679C20.6053 116.418 20.4163 116.153 20.2318 115.885C20.0473 115.617 19.8675 115.346 19.6924 115.072C19.5172 114.798 19.3467 114.521 19.1808 114.241C19.0151 113.961 18.8541 113.678 18.6981 113.393C18.542 113.107 18.3908 112.819 18.2446 112.528C18.0984 112.238 17.9571 111.945 17.8209 111.649C17.6846 111.354 17.5534 111.056 17.4273 110.756C17.3012 110.456 17.1803 110.154 17.0645 109.85C16.9487 109.546 16.8381 109.24 16.7328 108.933C16.3434 107.759 16.0841 106.556 15.8063 105.353C15.4594 103.85 15.0809 102.394 14.9546 100.85C14.2564 92.311 18.0498 84.9846 23.2284 78.4817C23.9562 77.5678 24.7529 76.7092 25.5101 75.8197C24.531 75.7913 23.5431 75.7761 22.5746 75.6181C19.6395 75.1399 16.7113 73.5894 14.5932 71.5075C14.5068 71.423 14.4215 71.3374 14.3373 71.2508C14.253 71.1642 14.1698 71.0766 14.0876 70.9879C14.0055 70.8993 13.9245 70.8096 13.8445 70.719C13.7646 70.6285 13.6858 70.5369 13.6081 70.4442C13.5304 70.3517 13.4539 70.2582 13.3786 70.1638C13.3032 70.0693 13.229 69.974 13.156 69.8776C13.083 69.7814 13.0111 69.6842 12.9404 69.5861C12.8698 69.4881 12.8003 69.3893 12.7321 69.2896C12.664 69.1898 12.597 69.0893 12.5313 68.9879C12.4656 68.8865 12.4011 68.7843 12.3378 68.6813C12.2746 68.5784 12.2126 68.4747 12.1519 68.3702C12.0912 68.2656 12.0318 68.1604 11.9737 68.0545C11.9156 67.9485 11.8588 67.8418 11.8034 67.7344C11.7479 67.6272 11.6937 67.5192 11.6409 67.4105C11.588 67.3018 11.5365 67.1925 11.4864 67.0826C11.4362 66.9726 11.3874 66.862 11.34 66.7509C11.2926 66.6398 11.2466 66.5281 11.202 66.4159C11.1572 66.3035 11.1139 66.1907 11.072 66.0774C11.0301 65.9641 10.9896 65.8502 10.9505 65.7359C10.9113 65.6215 10.8736 65.5067 10.8374 65.3915C10.8011 65.2762 10.7663 65.1605 10.7328 65.0444C10.6993 64.9283 10.6673 64.8119 10.6367 64.6949C10.6061 64.578 10.577 64.4607 10.5493 64.3432C10.5216 64.2256 10.4953 64.1076 10.4704 63.9894C10.4456 63.871 10.4223 63.7525 10.4005 63.6336C10.3786 63.5148 10.3581 63.3957 10.3391 63.2764C10.3202 63.157 10.3027 63.0375 10.2866 62.9178C10.2706 62.798 10.2561 62.678 10.243 62.5578C10.2299 62.4377 10.2183 62.3175 10.2082 62.1972C10.198 62.0767 10.1894 61.9562 10.1822 61.8356C10.175 61.715 10.1694 61.5942 10.1652 61.4734C10.1609 61.3527 10.1582 61.2319 10.157 61.1111C10.1206 57.284 11.4844 53.5918 14.2043 50.8577C14.3521 50.7071 14.5031 50.5597 14.6572 50.4154C14.8112 50.2712 14.9682 50.1303 15.1283 49.9927C15.2883 49.8552 15.4512 49.721 15.617 49.5904C15.7827 49.4598 15.9512 49.3327 16.1223 49.2092C16.2934 49.0857 16.4672 48.9659 16.6435 48.8499C16.8197 48.7337 16.9983 48.6214 17.1793 48.5129C17.3604 48.4045 17.5436 48.2999 17.729 48.1992C17.9144 48.0984 18.1019 48.0016 18.2915 47.9088C18.4811 47.8161 18.6725 47.7274 18.8659 47.6427C19.0592 47.5582 19.2543 47.4777 19.4511 47.4013C19.6478 47.325 19.8461 47.2529 20.0459 47.1849C20.2457 47.1171 20.4469 47.0535 20.6494 46.9941C20.8519 46.9348 21.0556 46.8797 21.2605 46.829C21.4654 46.7782 21.6713 46.7319 21.878 46.6899C22.0848 46.648 22.2925 46.6104 22.5009 46.5773C22.7093 46.5442 22.9184 46.5155 23.128 46.4912C24.6019 46.3292 26.1017 46.3715 27.5821 46.3754L33.238 46.3844C32.2123 44.4658 31.4861 42.6153 31.2826 40.4302C31.2709 40.3081 31.2606 40.1859 31.2518 40.0636C31.2432 39.9411 31.236 39.8187 31.2303 39.6962C31.2246 39.5736 31.2205 39.451 31.2181 39.3283C31.2155 39.2057 31.2144 39.083 31.2149 38.9603C31.2155 38.8377 31.2176 38.7151 31.2212 38.5924C31.2248 38.4698 31.23 38.3472 31.2367 38.2247C31.2434 38.1022 31.2516 37.9798 31.2614 37.8575C31.2712 37.7352 31.2825 37.6131 31.2953 37.4911C31.3082 37.3691 31.3225 37.2473 31.3385 37.1256C31.3543 37.004 31.3718 36.8826 31.3908 36.7614C31.4097 36.6401 31.4302 36.5192 31.4522 36.3986C31.4742 36.2779 31.4977 36.1574 31.5227 36.0373C31.5478 35.9173 31.5744 35.7975 31.6024 35.6781C31.6304 35.5587 31.66 35.4396 31.691 35.3209C31.722 35.2022 31.7546 35.0839 31.7885 34.966C31.8226 34.8482 31.8581 34.7308 31.8951 34.6138C31.932 34.4968 31.9705 34.3803 32.0104 34.2644C32.0502 34.1483 32.0916 34.0328 32.1344 33.9179C32.1771 33.8029 32.2214 33.6885 32.2671 33.5747C32.3128 33.4607 32.3599 33.3474 32.4084 33.2347C32.457 33.1221 32.5069 33.0101 32.5582 32.8987C32.6096 32.7873 32.6623 32.6765 32.7164 32.5664C32.7706 32.4564 32.8261 32.3469 32.883 32.2382C32.9399 32.1295 32.9981 32.0216 33.0576 31.9144C33.1172 31.8071 33.1781 31.7006 33.2404 31.5949C33.3026 31.4892 33.3662 31.3844 33.4312 31.2803C33.4961 31.1762 33.5623 31.0729 33.6297 30.9704C33.6973 30.868 33.7661 30.7664 33.8362 30.6657C33.9063 30.565 33.9775 30.4652 34.0501 30.3663C34.1227 30.2674 34.1965 30.1694 34.2715 30.0724C34.3466 29.9753 34.4228 29.8792 34.5002 29.784C34.5777 29.6889 34.6564 29.5948 34.7362 29.5016C37.9828 25.6414 42.0032 24.1616 46.911 23.7516C47.5681 20.4179 48.9141 17.2464 51.2485 14.7331C54.6807 11.0381 59.1361 8.95423 64.1731 8.76761Z" fill="black"/>
<path d="M83.8855 24.379C86.2403 24.1462 88.7416 24.3781 91.047 24.8718C96.4463 26.0283 101.784 29.1707 104.806 33.8719C108.506 39.6257 109.024 46.5304 107.579 53.0755C105.199 63.8526 98.0204 74.3695 91.2915 82.9568C88.8845 86.0285 86.442 89.0303 83.7798 91.8865C82.266 93.5107 80.3326 95.9966 78.519 97.1401C77.6872 97.6645 76.7875 97.9946 75.825 98.1917C74.3126 98.5014 72.7277 98.482 71.1901 98.4737C66.9778 98.4512 62.9083 98.0757 58.798 97.1295C53.0668 95.7895 47.4656 93.1944 42.9772 89.3413C38.1946 85.2355 35.2818 80.2937 33.6784 74.231C33.3086 72.8328 32.8952 71.4217 32.7955 69.9726C32.6766 68.2424 33.2248 66.4746 34.0329 64.9599C35.2468 62.6846 37.1783 60.6459 38.8088 58.6477C41.2362 55.6127 43.7207 52.6252 46.2622 49.685C48.9273 46.6286 51.6317 43.5916 54.5482 40.7704C62.0033 33.5589 73.2048 25.1095 83.8855 24.379Z" fill="#FC417F"/>
<path d="M83.9599 26.5457C86.1814 26.4071 88.4974 26.4844 90.6734 26.9748C95.7029 28.1082 100.289 31.02 103.051 35.4267C106.421 40.8042 106.51 47.2367 105.131 53.247C104.211 57.2588 102.533 60.9566 100.629 64.5865C95.7797 73.8312 89.2952 82.2622 82.3141 89.9918C80.9719 91.4777 78.8734 94.2586 77.262 95.2539C76.6262 95.6465 75.895 95.8561 75.1609 95.9755C73.974 96.1686 72.7111 96.1397 71.5109 96.1345C70.1696 96.1396 68.8297 96.0993 67.491 96.0138C66.1525 95.9283 64.8184 95.7977 63.4887 95.622C61.8776 95.3794 60.2798 95.0688 58.6952 94.6903C53.2402 93.248 48.5035 90.9962 44.1815 87.3213C40.0148 83.7784 37.3027 79.0689 35.8834 73.8289C35.5444 72.5768 35.1956 71.258 35.0994 69.9627C35.0066 68.7143 35.2318 67.5359 35.773 66.4074C36.5968 64.689 37.9417 63.1292 39.1345 61.6532C40.3753 60.0908 41.6464 58.5535 42.9478 57.0412C44.7487 54.9151 46.5019 52.7453 48.333 50.6452C52.1338 46.2864 56.1689 42.0233 60.551 38.2422C66.6784 32.9555 75.6859 27.1092 83.9599 26.5457Z" fill="black"/>
<path d="M84.1935 27.1436C86.353 26.9144 88.9494 27.184 91.0395 27.6876C95.6319 28.7938 100.026 31.6893 102.504 35.7452C105.687 40.9572 105.954 47.2051 104.548 53.0254C101.554 65.4237 90.9045 79.3445 82.5164 88.8864C81.6168 89.9123 80.7078 90.9297 79.7894 91.9386C78.8996 92.9267 78.0731 94.0255 76.9163 94.7195C74.4907 96.1743 66.2875 95.3929 63.3879 94.9771C61.7199 94.7408 60.0698 94.4137 58.4378 93.9959C57.6743 93.8193 56.9032 93.536 56.1587 93.2918C51.9465 91.9108 47.9436 89.8184 44.5999 86.8727C40.4989 83.2599 37.7778 78.7119 36.4187 73.4298C36.1051 72.2106 35.7794 70.9325 35.7064 69.6737C35.6983 69.5458 35.6942 69.4178 35.6943 69.2897C35.6945 69.1615 35.6988 69.0335 35.7072 68.9057C35.7157 68.7778 35.7282 68.6503 35.7448 68.5232C35.7615 68.3962 35.7822 68.2698 35.8071 68.1441C35.832 68.0184 35.8609 67.8937 35.8938 67.7698C35.9268 67.6459 35.9637 67.5233 36.0047 67.4018C36.0455 67.2804 36.0903 67.1604 36.139 67.0419C36.1876 66.9234 36.24 66.8065 36.2963 66.6914C37.3129 64.6148 39.0762 62.7083 40.5222 60.9149C43.1431 57.6642 45.8346 54.4119 48.5973 51.2798C51.1499 48.3857 53.7503 45.4647 56.5168 42.7733C63.5284 35.9524 74.0178 27.7848 84.1935 27.1436Z" fill="#FCD946"/>
<path d="M74.6486 39.7689C75.1091 39.719 75.5832 39.7297 76.0462 39.7273C81.3084 39.7015 86.1826 41.4405 89.9477 45.1896C93.4268 48.6539 95.2876 53.057 95.2704 57.9666C95.2411 66.3251 89.583 74.197 84.766 80.6069C81.8218 84.5247 78.6608 88.4025 75.1667 91.85C73.7252 91.2568 72.0265 90.0699 70.6609 89.2463C68.9033 88.205 67.1307 87.1898 65.3431 86.2008C60.2532 83.2467 55.144 80.3264 50.0154 77.4399C46.3487 75.3466 42.6994 73.119 38.9238 71.2311C42.974 65.0258 47.2215 58.8555 52.0176 53.1958C57.9683 46.1735 65.1851 40.5488 74.6486 39.7689Z" fill="black"/>
<path d="M74.5339 40.3654C75.2618 40.2708 76.0745 40.3149 76.8099 40.3359C80.7213 40.4477 84.2353 41.61 87.4492 43.8455C91.0492 46.3499 93.6429 50.5225 94.3814 54.8273C95.8408 63.3327 90.9339 70.915 86.2572 77.5203C83.622 74.9465 80.7117 72.7186 77.7496 70.5415C76.6999 69.7891 75.6376 69.055 74.5627 68.3391C73.4877 67.6232 72.4008 66.926 71.3021 66.2475C70.2032 65.5688 69.093 64.9093 67.9716 64.2689C66.8501 63.6285 65.718 63.0074 64.5751 62.4057C63.4323 61.8042 62.2795 61.2224 61.1168 60.6604C59.9541 60.0983 58.782 59.5564 57.6005 59.0347C56.4191 58.5129 55.2291 58.0116 54.0305 57.5307C52.832 57.0497 51.6256 56.5894 50.4111 56.1499C51.0213 55.335 51.6858 54.5454 52.3378 53.763C58.0472 46.9139 65.3903 41.1975 74.5339 40.3654Z" fill="#FDFDFC"/>
<path d="M87.6276 51.7212C88.1973 51.7032 88.8021 51.9241 89.2604 52.2541C89.9253 52.7326 90.3581 53.4008 90.4608 54.219C90.687 56.0229 89.4388 58.2302 88.3998 59.6203C87.5341 60.7786 86.6283 61.9117 85.7391 63.0525C84.08 65.1812 82.4661 67.6419 79.5854 68.0574C78.8181 68.0205 78.1177 67.8844 77.4957 67.3922C76.907 66.9264 76.6491 66.2667 76.5706 65.5365C76.2472 62.5282 79.4442 58.6408 81.2857 56.4388C83.0679 54.3076 84.6418 51.9903 87.6276 51.7212Z" fill="black"/>
<path d="M87.1362 52.4488C87.2172 52.4431 87.2988 52.4415 87.3799 52.4389C88.0716 52.4182 88.6183 52.5244 89.1303 53.0264C89.5851 53.4726 89.8414 54.0713 89.8302 54.7124C89.8251 55.005 89.736 55.4598 89.5233 55.6685C89.2031 55.4661 88.9864 54.7777 88.722 54.4656C88.3309 54.0038 87.9097 53.879 87.3251 53.8257L87.219 53.8165C86.2887 53.903 85.6086 54.2355 84.8084 54.6899C84.6023 54.8067 84.3505 54.9932 84.13 55.07C83.9689 55.126 83.8805 55.0508 83.7426 54.9808C83.71 54.7994 83.7436 54.7136 83.8375 54.5597C84.5482 53.3952 85.8675 52.7632 87.1362 52.4488Z" fill="#FDFDFC"/>
<path d="M71.8349 43.0426C72.4734 43.0073 73.0571 43.059 73.6525 43.3206C74.3951 43.647 74.9405 44.2694 75.2109 45.0307C75.5868 46.0885 75.3068 47.3146 74.8262 48.2952C74.048 49.8823 72.7311 51.3204 71.644 52.704C70.4034 54.2829 69.1661 56.0908 67.625 57.3901C66.9698 57.9425 66.2757 58.297 65.467 58.5686C64.6905 58.7072 63.8259 58.6749 63.1395 58.247C62.4786 57.835 62.0593 57.043 61.8902 56.2996C61.5086 54.6232 62.326 52.9589 63.2092 51.5897C64.3153 49.875 67.9918 45.0813 69.4794 44.0144C70.1961 43.5002 70.9798 43.2265 71.8349 43.0426Z" fill="black"/>
<path d="M72.0529 43.72C72.2964 43.6998 72.55 43.708 72.7908 43.75C73.4267 43.8607 74.0382 44.348 74.374 44.886C74.675 45.3677 74.8478 45.9862 74.703 46.5485C74.6461 46.7695 74.565 46.992 74.3655 47.1051C74.0697 46.8909 73.8518 46.065 73.5845 45.722C73.2131 45.2452 72.7689 45.0853 72.185 45.0188L72.0802 45.0078C70.3651 45.0815 69.7912 46.0843 68.6171 46.2541L68.5098 46.1463C68.4871 45.9228 68.5636 45.7877 68.6932 45.6129C69.4673 44.5696 70.7891 43.887 72.0529 43.72Z" fill="#FDFDFC"/>
<path d="M48.8074 58.1616C49.4448 58.4778 50.6177 59.631 51.2134 60.1325C52.7498 61.4259 54.2811 62.7338 55.8909 63.9357C61.4974 68.1217 67.696 71.4856 74.0216 74.4386C76.5154 75.6029 79.0183 76.7928 81.6741 77.5464C83.0135 77.9266 84.3093 78.1377 85.6953 78.2101C82.6783 82.3949 79.5826 86.4326 75.9493 90.1122C75.6088 90.446 75.2938 90.7854 74.9887 91.1521C72.0465 89.3055 68.9778 87.628 65.9689 85.8923C61.5742 83.3329 57.165 80.7989 52.7411 78.2904C48.4438 75.8652 44.096 73.4942 39.8506 70.9813C40.3789 70.0628 41.0102 69.1761 41.5947 68.2914C43.1149 66.0017 44.6902 63.7505 46.3205 61.5378C47.1492 60.4142 48.0231 59.3164 48.8074 58.1616Z" fill="#7683FA"/>
<path d="M50.0215 56.5854C50.7578 56.7413 51.5848 57.2305 52.3108 57.493C62.2373 61.0818 72.6458 67.2364 80.9228 73.7442C82.0687 74.645 84.357 76.3526 85.2042 77.4694C85.0241 77.5553 84.6321 77.4734 84.4218 77.456C80.7926 77.4438 69.62 71.7732 66.1563 69.8231C63.0983 68.1079 60.1341 66.2439 57.2634 64.231C54.3518 62.1647 51.9241 59.7914 49.1377 57.6579L50.0215 56.5854Z" fill="#7683FA"/>
<path d="M89.5601 29.7574C89.5757 29.7557 89.5912 29.7535 89.6068 29.7526C91.4861 29.6444 93.5039 30.4309 94.9371 31.6212C96.3107 32.7616 97.4068 34.5693 97.5566 36.3709C97.5634 36.449 97.5682 36.5271 97.5711 36.6053C97.5741 36.6836 97.5751 36.762 97.574 36.8404C97.573 36.9186 97.57 36.9969 97.5652 37.0751C97.5603 37.1533 97.5535 37.2313 97.5447 37.3091C97.5359 37.387 97.5252 37.4646 97.5126 37.5419C97.4999 37.6191 97.4854 37.6961 97.4689 37.7727C97.4525 37.8493 97.4341 37.9254 97.4138 38.0012C97.3936 38.0768 97.3715 38.1519 97.3475 38.2265C97.3235 38.3011 97.2977 38.375 97.2701 38.4482C97.2424 38.5215 97.2129 38.5941 97.1816 38.6659C97.1502 38.7377 97.1172 38.8087 97.0824 38.879C97.0475 38.9491 97.011 39.0183 96.9727 39.0866C96.9345 39.1551 96.8945 39.2225 96.8529 39.2888C96.8113 39.3551 96.768 39.4204 96.7232 39.4847C96.6783 39.5488 96.6318 39.6119 96.5838 39.6738C96.5358 39.7357 96.4863 39.7964 96.4353 39.8558C95.2809 41.178 93.6472 41.6504 91.9511 41.7562C89.9031 41.7791 87.8981 41.2251 86.2662 39.9504C85.0008 38.9622 83.9093 37.4299 83.7175 35.8042C83.561 34.4769 83.9509 33.0742 84.797 32.0371C85.9621 30.6089 87.7745 29.938 89.5601 29.7574Z" fill="black"/>
<path d="M89.6328 30.3526C91.3622 30.2389 93.1847 30.9259 94.491 32.0422C95.7473 33.1157 96.8548 34.7604 96.9531 36.4523C96.9573 36.5247 96.9596 36.5971 96.9601 36.6697C96.9606 36.7422 96.9593 36.8146 96.9562 36.8871C96.953 36.9596 96.948 37.0319 96.9411 37.1042C96.9342 37.1764 96.9256 37.2483 96.9151 37.3201C96.9046 37.3919 96.8922 37.4633 96.8781 37.5345C96.8639 37.6056 96.848 37.6763 96.8303 37.7466C96.8125 37.817 96.793 37.8868 96.7718 37.9561C96.7505 38.0254 96.7275 38.0942 96.7027 38.1623C96.6779 38.2305 96.6515 38.298 96.6232 38.3648C96.595 38.4316 96.5651 38.4977 96.5335 38.563C96.5019 38.6283 96.4687 38.6927 96.4339 38.7564C96.3991 38.8199 96.3627 38.8826 96.3246 38.9443C96.2866 39.0061 96.247 39.0669 96.2058 39.1266C96.1647 39.1864 96.1221 39.2451 96.0781 39.3026C96.034 39.3602 95.9885 39.4166 95.9415 39.4719C95.8945 39.5272 95.8462 39.5812 95.7965 39.634C94.7494 40.7496 93.2476 41.1143 91.773 41.1711C89.9514 41.1461 88.2596 40.6112 86.7925 39.5138C85.5703 38.5993 84.5417 37.2585 84.3488 35.7064C84.2033 34.5344 84.5874 33.3195 85.3331 32.4108C86.4009 31.1098 88.0017 30.5178 89.6328 30.3526Z" fill="#7683FA"/>
<path d="M32.6648 73.2065C32.9314 73.6088 33.4598 76.033 33.6926 76.7323C33.7854 77.0125 33.8826 77.2912 33.984 77.5685C34.0853 77.8457 34.1909 78.1214 34.3007 78.3954C34.4106 78.6694 34.5246 78.9417 34.6427 79.2122C34.761 79.4828 34.8833 79.7514 35.0097 80.0182C35.1362 80.2849 35.2667 80.5497 35.4013 80.8125C35.5359 81.0751 35.6744 81.3358 35.817 81.5943C35.9595 81.8528 36.106 82.1091 36.2564 82.3631C36.4069 82.6171 36.5613 82.8687 36.7194 83.1179C36.8775 83.3672 37.0394 83.614 37.2052 83.8583C37.3709 84.1026 37.5404 84.3443 37.7135 84.5834C37.8867 84.8225 38.0635 85.059 38.2439 85.2926C38.4243 85.5262 38.6082 85.7571 38.7957 85.9852C38.9832 86.2132 39.1741 86.4383 39.3686 86.6604C39.563 86.8826 39.7608 87.1017 39.9619 87.3178C40.163 87.5339 40.3674 87.7469 40.5751 87.9567C40.7828 88.1665 40.9936 88.3731 41.2075 88.5765C49.8145 96.7251 61.5404 99.4417 73.1062 99.1194C75.0137 99.0662 76.868 98.8088 78.5681 97.8859C80.318 96.936 81.6393 95.154 82.9644 93.7006C83.9391 92.632 84.9567 91.6034 85.9097 90.5148C86.9998 89.2696 88.032 87.9643 89.1693 86.762C89.143 87.996 88.9618 88.9953 88.3124 90.0633C87.2321 91.84 85.3797 93.3495 83.9273 94.8374L73.1264 105.691C71.7865 106.978 70.4697 108.305 69.161 109.624C68.3807 110.411 67.6487 111.255 66.7962 111.966C61.2041 116.629 53.1731 119.431 45.9371 119.796C38.3116 120.181 30.4055 117.972 24.6871 112.762C20.9833 109.387 18.601 104.684 18.3845 99.6534C17.9209 88.8804 25.8937 80.5665 32.6648 73.2065Z" fill="#7683FA"/>
<path d="M30.3521 101.472C33.9162 101.294 39.2169 103.877 42.088 105.946C44.0014 107.325 47.1494 109.859 47.488 112.307C47.5655 112.868 47.469 113.498 47.1028 113.947C46.6247 114.533 45.8589 114.587 45.1622 114.643C41.2487 114.663 37.1691 112.796 33.9907 110.583C31.8555 109.097 28.348 106.381 27.9295 103.717C27.8563 103.25 27.9058 102.792 28.1988 102.408C28.7001 101.75 29.5789 101.568 30.3521 101.472Z" fill="black"/>
<path d="M30.2062 102.13C33.0004 101.949 35.976 103.214 38.4294 104.457C41.1514 105.836 45.9301 109.099 46.833 112.072C46.9474 112.449 46.9885 112.873 46.7861 113.228C46.5224 113.691 46 113.874 45.5162 114.004C42.5587 114.276 39.3929 112.9 36.8172 111.536C34.2162 110.16 29.4821 106.923 28.6713 104.051C28.5632 103.669 28.5556 103.267 28.775 102.921C29.0923 102.42 29.6623 102.252 30.2062 102.13Z" fill="#FDFDFC"/>
<path d="M53.8186 103.347C57.1506 103.305 60.8994 104.533 63.4153 106.756C64.3394 107.572 65.3246 108.674 65.3677 109.973C65.384 110.465 65.2344 110.914 64.894 111.273C64.0694 112.144 62.7026 112.321 61.5673 112.359C58.3826 112.3 54.8495 111.106 52.3265 109.145C51.2751 108.327 50.0544 107.129 49.9212 105.732C49.8737 105.233 50.0107 104.782 50.3508 104.411C51.1862 103.5 52.6655 103.396 53.8186 103.347Z" fill="black"/>
<path d="M53.0824 104.012C55.7258 103.645 59.0575 104.675 61.2961 106.041C62.5402 106.8 64.3733 108.122 64.7038 109.649C64.7838 110.018 64.7548 110.397 64.5329 110.712C64.1021 111.325 63.1217 111.559 62.4185 111.67C59.3173 112.079 55.3441 110.622 52.8825 108.785C51.9972 108.124 50.6907 106.96 50.5561 105.795C50.5193 105.476 50.6057 105.183 50.808 104.933C51.3474 104.268 52.285 104.116 53.0824 104.012Z" fill="#FCD946"/>
<path d="M24.327 87.5734C26.2422 87.4503 28.2314 88.0862 29.9314 88.9196C32.2125 90.038 34.9844 92.0404 35.7946 94.5812C35.9904 95.1956 36.0514 95.882 35.732 96.4668C35.309 97.2415 34.5241 97.5263 33.7252 97.7379C31.3245 98.14 28.5556 96.9907 26.5729 95.7381C24.6797 94.5422 22.5042 92.5017 22.0386 90.2113C21.9242 89.6485 21.9431 89.0717 22.2851 88.5888C22.7585 87.9206 23.5607 87.6946 24.327 87.5734Z" fill="black"/>
<path d="M24.6931 88.1776C26.8662 88.1448 29.1703 89.1138 30.9887 90.2335C32.6376 91.2488 34.8289 93.067 35.2531 95.0726C35.3439 95.5014 35.3105 95.9196 35.0458 96.2818C34.6069 96.883 33.8499 97.0704 33.1549 97.1677C30.7119 97.3313 27.9841 96.0863 26.0717 94.6533C24.3684 93.3767 22.887 91.7287 22.5801 89.5634C22.6823 89.32 22.799 89.0588 22.969 88.8553C23.415 88.3212 24.0485 88.2562 24.6931 88.1776Z" fill="#FCD946"/>
<path d="M53.979 98.3927C55.6995 98.3081 58.6633 98.9688 60.489 99.2151C61.9255 99.4088 63.4529 99.4483 64.8604 99.7828C65.3624 99.9022 65.7264 100.12 65.9885 100.577C66.0172 100.627 66.0433 100.677 66.0669 100.729C66.0905 100.781 66.1115 100.834 66.1297 100.889C66.1479 100.943 66.1634 100.998 66.176 101.053C66.1888 101.109 66.1986 101.165 66.2056 101.222C66.2126 101.279 66.2167 101.336 66.218 101.393C66.2192 101.45 66.2175 101.507 66.2131 101.564C66.2086 101.621 66.2012 101.677 66.1909 101.733C66.1807 101.79 66.1676 101.845 66.1518 101.9C65.9641 102.544 65.4188 102.905 64.8576 103.198C63.7615 103.319 55.0789 102.107 54.0419 101.753C53.5205 101.575 52.9975 101.257 52.7679 100.733C52.5789 100.302 52.6061 99.7519 52.8017 99.3277C53.0382 98.8142 53.4734 98.5841 53.979 98.3927Z" fill="black"/>
<path d="M54.1078 98.9815C55.3105 98.954 56.7926 99.3069 58.0101 99.4784C59.995 99.758 61.9912 99.98 63.9729 100.275C64.5048 100.354 65.1152 100.39 65.4442 100.879C65.5849 101.088 65.6232 101.346 65.5676 101.59C65.4614 102.056 65.1923 102.316 64.798 102.555C63.7126 102.676 62.3748 102.364 61.2819 102.222C59.1402 101.945 56.9731 101.695 54.8507 101.295C54.3951 101.21 53.6158 101.1 53.3733 100.653C53.2293 100.387 53.2318 100.121 53.3216 99.8375C53.4652 99.3842 53.7035 99.2052 54.1078 98.9815Z" fill="#FDFDFC"/>
<path d="M32.3982 80.9821C32.7528 80.9623 33.0854 80.9633 33.403 81.1445C33.7404 81.3371 33.9721 81.6699 34.1807 81.9884C34.8868 83.0665 35.4468 84.2746 36.0763 85.4012C36.8911 86.8593 38.6268 89.525 39.0516 90.9684C38.9875 91.2263 38.928 91.4977 38.8164 91.7396C38.5535 92.3092 38.1333 92.5886 37.5567 92.7896C37.2616 92.8005 36.9664 92.7879 36.6838 92.6943C36.4021 92.6009 36.1327 92.434 35.9459 92.2006C35.1582 91.2158 34.5765 89.8697 33.9603 88.7632C33.0886 87.1976 32.1258 85.6501 31.3414 84.0396C31.0665 83.4751 30.7336 82.7718 30.9794 82.1495C31.2287 81.5179 31.8085 81.2227 32.3982 80.9821Z" fill="black"/>
<path d="M32.5476 81.5684C32.6928 81.577 32.8285 81.5876 32.9652 81.6417C33.1834 81.7279 33.3262 81.8791 33.4586 82.0686C33.839 82.6131 34.1368 83.2443 34.4561 83.8274L36.1748 86.9467C36.8564 88.1777 37.8195 89.5653 38.3243 90.8586C38.3984 91.0487 38.3933 91.2138 38.2969 91.3944C38.1169 91.7326 37.805 91.9141 37.4553 92.0347C37.2564 92.0372 36.9883 92.0644 36.8014 91.9894C36.5905 91.9048 36.4915 91.7972 36.3636 91.6184C35.7433 90.7506 35.274 89.7034 34.7422 88.7724C33.7588 87.0501 32.6341 85.3239 31.8167 83.5194C31.631 83.1097 31.466 82.7399 31.6579 82.2954C31.8298 81.8972 32.1623 81.7164 32.5476 81.5684Z" fill="#FDFDFC"/>
<path d="M112.429 50.8628C116.828 50.8583 121.079 51.9819 124.634 54.6503C128.164 57.3005 130.594 61.1698 131.219 65.5502C131.239 65.6863 131.257 65.8226 131.274 65.9592C131.291 66.0956 131.306 66.2323 131.319 66.3693C131.333 66.5062 131.345 66.6432 131.355 66.7803C131.365 66.9176 131.373 67.0549 131.379 67.1923C131.386 67.3297 131.391 67.4672 131.394 67.6046C131.397 67.7422 131.398 67.8798 131.398 68.0173C131.398 68.1549 131.396 68.2924 131.392 68.43C131.388 68.5675 131.383 68.7049 131.376 68.8422C131.369 68.9796 131.36 69.1169 131.349 69.254C131.338 69.3912 131.326 69.5282 131.312 69.6651C131.298 69.8019 131.282 69.9386 131.265 70.0751C131.248 70.2115 131.228 70.3477 131.208 70.4837C131.187 70.6197 131.164 70.7553 131.14 70.8907C131.116 71.0262 131.09 71.1613 131.063 71.2961C131.035 71.4308 131.006 71.5652 130.975 71.6992C130.944 71.8333 130.911 71.9669 130.877 72.1001C130.843 72.2333 130.807 72.3661 130.769 72.4984C130.732 72.6308 130.693 72.7627 130.652 72.894C130.611 73.0253 130.568 73.1561 130.524 73.2864C130.48 73.4167 130.434 73.5464 130.387 73.6756C130.34 73.8048 130.291 73.9334 130.24 74.0613C130.189 74.1892 130.137 74.3164 130.084 74.443C130.03 74.5697 129.975 74.6957 129.918 74.8209C129.861 74.9461 129.802 75.0706 129.742 75.1944C129.682 75.3183 129.621 75.4413 129.558 75.5635C129.495 75.6858 129.43 75.8073 129.364 75.9279C129.298 76.0485 129.23 76.1683 129.161 76.2872C129.092 76.4062 129.022 76.5243 128.95 76.6415C128.878 76.7587 128.804 76.8749 128.729 76.9904C128.654 77.1057 128.578 77.2201 128.5 77.3336C128.422 77.447 128.343 77.5595 128.263 77.671C128.182 77.7824 128.1 77.8929 128.017 78.0024C125.369 81.4897 121.508 83.6037 117.202 84.1799C115.033 84.3861 112.784 84.2818 110.605 84.2867L98.3184 84.2703C99.463 82.6865 100.68 81.1592 101.784 79.5446C103.827 76.4896 105.682 73.3241 107.349 70.0482C108.027 68.7263 108.744 67.4023 109.339 66.0409C111.491 61.1147 112.352 56.2051 112.429 50.8628Z" fill="#7683FA"/>
<path d="M120.478 62.4067C120.501 62.4151 120.524 62.4221 120.547 62.432C120.722 62.5085 120.841 62.6226 120.929 62.7913C121.213 63.341 121.321 64.0324 121.465 64.6326C121.812 66.0853 122.072 67.6497 122.601 69.0455C124.155 69.621 128.259 69.8943 129.277 70.7358C129.463 70.8894 129.507 71.0228 129.534 71.2556C128.983 72.0076 123.841 72.5944 122.605 73.0018C122.576 73.0114 122.547 73.0216 122.519 73.0314C122.28 73.6159 122.178 74.2589 122.036 74.8724C121.708 76.2882 121.384 77.9631 120.856 79.3058C120.747 79.5825 120.666 79.6469 120.392 79.7561C120.355 79.7383 120.317 79.7216 120.28 79.7025C120.093 79.6062 120.028 79.4682 119.957 79.2796C119.667 78.5054 119.554 77.6065 119.363 76.7973C119.065 75.5319 118.709 74.2766 118.372 73.0211C116.914 72.5103 112.212 71.9165 111.411 71.2909C111.254 71.1684 111.21 71.0932 111.187 70.8999C111.797 69.9961 117.354 69.7624 118.255 68.9411C119.236 68.0474 119.19 63.5662 120.478 62.4067Z" fill="black"/>
<path d="M120.476 63.4849C120.878 64.7325 121.418 68.3353 122 69.2118C122.166 69.4629 122.393 69.6282 122.669 69.7434C123.295 70.0044 124.096 70.092 124.76 70.2323L128.946 71.1266C127.866 71.262 122.777 72.0324 122.164 72.4896C121.652 72.8706 120.727 77.4041 120.495 78.3487L120.45 78.4508C120.39 78.3652 119.455 74.5599 119.333 74.0741C119.222 73.6296 119.203 73.0616 118.925 72.6831C118.49 72.0934 113.397 71.2303 112.365 71.0297C113.83 70.7225 117.942 70.0727 118.981 69.3114C119.646 67.7668 120.094 65.1773 120.476 63.4849Z" fill="#FDFDFC"/>
<path d="M105.129 84.8999C106.245 84.8632 107.361 84.846 108.478 84.8484C106.483 87.7159 104.628 90.6719 102.538 93.477C101.378 95.0426 100.178 96.5774 98.9385 98.0814C97.6992 99.5854 96.4222 101.057 95.1075 102.495C93.7927 103.934 92.442 105.338 91.0552 106.707C89.6685 108.076 88.2475 109.409 86.7924 110.705C84.1816 113.064 81.5187 115.338 78.6252 117.349C70.1712 123.223 60.4906 126.909 50.2132 127.726C46.6092 128.012 42.8876 127.954 39.3238 127.306C31.3727 125.86 25.1275 121.795 20.5263 115.152C19.4469 113.518 18.5607 111.721 17.834 109.905C19.4692 112.496 21.3279 114.687 23.7249 116.598C30.824 122.258 39.8026 124.21 48.7279 123.195C55.7312 122.399 63.5119 119.424 68.9475 114.879C70.8568 113.283 72.5156 111.453 74.2511 109.678C76.3604 107.52 78.5106 105.387 80.6599 103.269C86.7527 97.2638 92.4518 91.6237 97.7948 84.9078C100.234 84.9731 102.688 84.9081 105.129 84.8999Z" fill="#FC417F"/>
<path d="M25.1024 47.0192C27.8901 46.9418 30.6886 47.0359 33.4778 47.0419L47.6742 47.0471C46.6136 48.3746 45.4499 49.6224 44.3578 50.9248L38.3853 58.1637C36.6392 60.2707 34.5601 62.4753 33.3191 64.9348C32.654 66.2532 32.4741 67.5585 32.0562 68.9397L32.0295 69.0262C31.22 69.7565 30.4911 70.5592 29.7523 71.3595C28.5703 72.5911 27.4434 73.882 26.2126 75.0654C25.9511 75.1023 25.6883 75.1251 25.4243 75.1337C21.7078 75.2677 17.956 73.7831 15.2549 71.2343C15.1705 71.1542 15.087 71.0731 15.0047 70.991C14.9222 70.9089 14.8407 70.8258 14.7604 70.7416C14.68 70.6576 14.6006 70.5724 14.5223 70.4863C14.4441 70.4002 14.3668 70.3132 14.2906 70.2253C14.2145 70.1373 14.1394 70.0484 14.0654 69.9586C13.9915 69.8687 13.9187 69.778 13.8468 69.6863C13.7751 69.5947 13.7046 69.5022 13.6351 69.4089C13.5657 69.3155 13.4974 69.2213 13.4303 69.1263C13.3631 69.0312 13.2972 68.9353 13.2325 68.8387C13.1677 68.742 13.1042 68.6445 13.0418 68.5463C12.9794 68.4481 12.9183 68.3491 12.8583 68.2494C12.7985 68.1496 12.7398 68.0491 12.6823 67.9479C12.6248 67.8467 12.5687 67.7448 12.5138 67.6423C12.4588 67.5397 12.4051 67.4365 12.3527 67.3326C12.3003 67.2287 12.2492 67.1242 12.1994 67.019C12.1496 66.9138 12.1011 66.8081 12.0539 66.7018C12.0067 66.5954 11.9608 66.4885 11.9163 66.381C11.8716 66.2735 11.8284 66.1655 11.7864 66.0569C11.7446 65.9483 11.704 65.8393 11.6648 65.7298C11.6256 65.6203 11.5877 65.5102 11.5512 65.3998C11.5147 65.2892 11.4795 65.1783 11.4458 65.067C11.412 64.9557 11.3796 64.8439 11.3485 64.7317C11.3175 64.6196 11.2879 64.5071 11.2596 64.3942C11.2313 64.2813 11.2045 64.1681 11.1791 64.0546C11.1536 63.941 11.1295 63.8272 11.1069 63.713C11.0842 63.5989 11.0629 63.4845 11.0431 63.3698C11.0233 63.2552 11.0048 63.1403 10.9878 63.0251C10.9708 62.9101 10.9552 62.7948 10.941 62.6792C10.9269 62.5638 10.9141 62.4482 10.9028 62.3323C10.8915 62.2166 10.8817 62.1007 10.8732 61.9846C10.8647 61.8686 10.8577 61.7524 10.8521 61.6362C10.8465 61.5199 10.8423 61.4036 10.8396 61.2873C10.7372 57.4816 12.038 54.087 14.6709 51.3286C17.438 48.4295 21.1583 47.1119 25.1024 47.0192Z" fill="#FDFDFC"/>
<path d="M20.2782 54.1226C20.735 54.9977 20.8388 57.5866 21.3041 58.8675C22.8885 59.3978 24.6191 59.5333 26.2342 59.9897C24.8488 60.2378 23.4159 60.4612 22.0516 60.8018C21.8344 60.8561 21.4481 60.9408 21.3005 61.1225C20.8517 61.6748 20.8169 64.8355 20.3138 65.6718L20.245 65.5612C19.9673 64.0541 19.7479 62.5326 19.4999 61.02C17.7176 60.5472 15.8166 60.5454 14.0381 60.0794C15.8107 59.7069 17.7791 59.5302 19.4657 58.8684C19.9752 57.4899 19.8651 55.6122 20.2782 54.1226Z" fill="#FCD946"/>
<path d="M107.146 38.5972C107.663 39.1764 108.08 39.9268 108.449 40.608C108.659 41.0022 108.857 41.4019 109.044 41.807C109.231 42.2121 109.407 42.6221 109.572 43.037C109.737 43.4518 109.89 43.8708 110.032 44.294C110.173 44.7173 110.303 45.1441 110.422 45.5745C110.54 46.0049 110.646 46.4383 110.74 46.8746C110.835 47.3107 110.917 47.7492 110.987 48.19C111.058 48.6308 111.116 49.0731 111.162 49.5171C111.208 49.9611 111.241 50.406 111.263 50.8518C111.469 54.5718 110.841 58.6996 109.732 62.2512C108.662 65.6798 107.064 68.9297 105.339 72.0705C104.892 72.8927 104.433 73.708 103.961 74.5163C103.489 75.3246 103.005 76.1257 102.509 76.9195C102.013 77.7132 101.505 78.4992 100.986 79.2775C100.466 80.056 99.9344 80.8264 99.3914 81.5887C98.8484 82.351 98.294 83.1049 97.7283 83.8505C97.1625 84.5962 96.5856 85.3331 95.9977 86.0612C95.4096 86.7894 94.8107 87.5085 94.201 88.2186C93.5912 88.9286 92.9709 89.6293 92.34 90.3207C87.8128 95.3811 82.9668 100.097 78.1594 104.884C76.3897 106.625 74.6374 108.383 72.9024 110.159C71.4199 111.676 69.9727 113.256 68.351 114.627C62.3096 119.735 53.6035 122.87 45.7379 123.295C37.1378 123.761 28.7415 121.253 22.282 115.458C18.1078 111.712 15.322 106.252 15.0399 100.613C14.6463 92.7493 18.152 85.6333 23.0102 79.6688C24.6666 77.6355 26.507 75.7473 28.2669 73.8032C29.2979 72.5756 30.4288 71.3799 31.6048 70.2891C31.6228 71.2388 31.7743 72.1267 31.9757 73.052C31.1339 73.7096 30.3931 74.7168 29.6738 75.5089C27.0241 78.4265 24.4138 81.3081 22.2285 84.6044C18.6612 89.9854 16.1868 96.5156 17.5365 103.053C18.701 108.695 22.3322 113.23 27.0776 116.337C34.1564 120.973 43.2907 121.877 51.4289 120.147C51.9959 120.021 52.5598 119.883 53.1205 119.732C53.6811 119.581 54.238 119.417 54.7912 119.24C55.3443 119.064 55.8932 118.875 56.4377 118.673C56.9822 118.471 57.5218 118.257 58.0566 118.031C58.5914 117.804 59.1206 117.566 59.6445 117.315C60.1684 117.065 60.6863 116.803 61.1981 116.528C61.71 116.254 62.2153 115.968 62.714 115.671C63.2129 115.374 63.7047 115.065 64.1894 114.745C65.1673 114.09 66.1772 113.397 67.0571 112.613C67.902 111.86 68.663 110.969 69.4671 110.168L75.4525 104.197C78.2125 101.505 80.9403 98.7815 83.636 96.0255C85.2097 94.4383 87.0817 92.8555 88.2912 90.9708C89.1662 89.6076 89.5089 88.1841 89.1551 86.591C91.3315 83.7272 93.6226 80.9444 95.7208 78.0232C97.4701 75.5873 99.0757 72.9999 100.598 70.4189C105.271 62.4968 109.283 53.5498 108.294 44.1212C108.097 42.2439 107.616 40.4205 107.146 38.5972Z" fill="#FC417F"/>
<path d="M47.119 24.3791C48.7984 24.2673 50.5146 24.4873 52.1427 24.8941C56.8512 26.0704 60.4617 28.6873 62.964 32.8386C61.59 33.8906 60.2059 34.9137 58.8729 36.0207C56.1873 38.2763 53.6388 40.6776 51.2274 43.2244C50.6671 43.8093 48.7177 46.1577 48.2356 46.3624C48.1744 46.3884 48.0008 46.3751 47.9269 46.3789L34.0107 46.3854C32.8177 44.3218 32.0578 42.2589 31.8808 39.8642C31.6112 36.213 32.9541 32.5446 35.339 29.7977C38.4449 26.2208 42.4961 24.7035 47.119 24.3791Z" fill="#FC417F"/>
<path d="M43.3905 29.9788C44.9507 29.8509 46.6696 30.4017 47.9016 31.3589C48.958 32.1795 49.723 33.39 49.8664 34.734C49.9954 35.9432 49.5564 37.137 48.7809 38.0564C47.6037 39.4519 45.8971 40.0865 44.1164 40.2336C42.4987 40.3243 40.8547 39.9109 39.566 38.9077C38.521 38.0943 37.7258 36.8866 37.5811 35.5514C37.4549 34.3863 37.8934 33.2001 38.6149 32.2947C39.7958 30.8125 41.5656 30.1926 43.3905 29.9788Z" fill="black"/>
<path d="M42.9533 30.6441C44.3819 30.4849 45.7761 30.7383 47.011 31.4927C48.0454 32.1246 48.8629 33.1384 49.1364 34.3325C49.1511 34.3947 49.1642 34.4574 49.1757 34.5203C49.1871 34.5834 49.197 34.6466 49.2053 34.7101C49.2135 34.7735 49.2201 34.8371 49.2251 34.9009C49.2301 34.9647 49.2335 35.0286 49.2353 35.0926C49.237 35.1566 49.237 35.2206 49.2354 35.2846C49.2338 35.3485 49.2307 35.4124 49.2259 35.4763C49.221 35.5401 49.2145 35.6038 49.2064 35.6672C49.1983 35.7307 49.1886 35.7939 49.1773 35.857C49.166 35.9199 49.153 35.9826 49.1383 36.0449C49.1238 36.1073 49.1076 36.1692 49.0899 36.2306C49.0722 36.2921 49.0529 36.3531 49.0321 36.4137C49.0112 36.4741 48.9888 36.5341 48.9648 36.5934C48.9409 36.6528 48.9155 36.7115 48.8885 36.7696C48.8616 36.8277 48.8332 36.885 48.8033 36.9416C48.7734 36.9981 48.7421 37.0539 48.7093 37.1089C48.6767 37.1639 48.6426 37.218 48.607 37.2713C47.7062 38.6229 46.1705 39.2826 44.6274 39.5739C43.0667 39.7398 41.6108 39.5043 40.2745 38.6382C39.252 37.9752 38.4676 36.9435 38.2317 35.7338C38.0345 34.7223 38.3681 33.6852 38.9544 32.8584C39.9169 31.5011 41.3716 30.9266 42.9533 30.6441Z" fill="#FDFDFC"/>
<path d="M64.4105 9.36572C68.4138 9.36946 72.313 10.6221 75.3817 13.2433C78.5376 15.939 80.7748 19.9118 81.1147 24.0748C74.8399 25.1273 69.1189 28.6011 63.9369 32.1086L63.5058 32.4197C63.1139 31.7963 62.689 31.1961 62.2313 30.6191C61.7736 30.0421 61.2858 29.4918 60.7678 28.9684C57.3208 25.4664 52.4108 23.7772 47.5693 23.7331C48.1789 20.502 49.4791 17.5116 51.7465 15.0869C51.847 14.9773 51.9489 14.8689 52.0522 14.7618C52.1555 14.6547 52.2601 14.5489 52.3661 14.4445C52.4721 14.3401 52.5794 14.237 52.688 14.1352C52.7965 14.0335 52.9064 13.9332 53.0174 13.8342C53.1286 13.7352 53.2409 13.6377 53.3545 13.5415C53.4681 13.4454 53.5828 13.3508 53.6988 13.2577C53.8147 13.1644 53.9318 13.0727 54.0502 12.9824C54.1684 12.8922 54.2878 12.8034 54.4083 12.7162C54.5288 12.6289 54.6505 12.5432 54.7732 12.459C54.8959 12.3749 55.0196 12.2923 55.1443 12.2113C55.2691 12.1302 55.3949 12.0507 55.5217 11.9728C55.6486 11.8951 55.7763 11.8189 55.905 11.7442C56.0337 11.6695 56.1633 11.5965 56.2939 11.5252C56.4245 11.4539 56.5559 11.3842 56.6882 11.3162C56.8205 11.2481 56.9537 11.1818 57.0878 11.1172C57.2217 11.0525 57.3565 10.9896 57.4921 10.9283C57.6276 10.867 57.764 10.8075 57.9012 10.7496C58.0382 10.6918 58.176 10.6358 58.3144 10.5815C58.453 10.5271 58.5922 10.4745 58.7321 10.4237C58.8719 10.3729 59.0124 10.3239 59.1534 10.2767C59.2945 10.2294 59.4361 10.1839 59.5783 10.1403C59.7206 10.0966 59.8634 10.0547 60.0067 10.0146C60.1499 9.97459 60.2937 9.93634 60.4379 9.89988C60.5823 9.86342 60.727 9.82881 60.8721 9.79604C61.0172 9.76326 61.1627 9.73234 61.3086 9.70325C61.4545 9.67416 61.6008 9.64692 61.7474 9.62152C61.894 9.59612 62.0409 9.57256 62.188 9.55085C62.3352 9.52913 62.4827 9.50931 62.6304 9.49138C62.7781 9.47345 62.926 9.45736 63.074 9.44312C63.2221 9.42888 63.3704 9.41652 63.5188 9.40607C63.6673 9.39561 63.8158 9.38699 63.9644 9.38022C64.1131 9.37354 64.2618 9.36871 64.4105 9.36572Z" fill="#FCD946"/>
<path d="M67.4308 13.9934C67.5309 13.9853 67.6311 13.9793 67.7314 13.9755C67.8317 13.9716 67.9321 13.9699 68.0325 13.9703C68.1329 13.9707 68.2333 13.9732 68.3336 13.9777C68.4339 13.9824 68.534 13.9892 68.634 13.9982C68.734 14.0072 68.8338 14.0182 68.9333 14.0314C69.0328 14.0445 69.132 14.0598 69.2309 14.0771C69.3299 14.0945 69.4283 14.114 69.5263 14.1355C69.6243 14.1571 69.7219 14.1808 69.819 14.2065C69.9161 14.2322 70.0125 14.26 70.1083 14.2899C70.2042 14.3196 70.2994 14.3515 70.394 14.3853C70.4885 14.4192 70.5822 14.4551 70.6752 14.4929C70.7682 14.5308 70.8603 14.5706 70.9516 14.6125C71.0429 14.6542 71.1333 14.6979 71.2228 14.7435C71.3122 14.7891 71.4006 14.8366 71.488 14.886C71.5754 14.9353 71.6618 14.9865 71.7471 15.0396C71.8323 15.0927 71.9164 15.1476 71.9993 15.2041C73.1051 15.9563 73.9796 17.0657 74.2021 18.411C74.4008 19.6121 74.0401 20.8414 73.3264 21.8108C72.1976 23.3438 70.508 23.9954 68.6829 24.2676C66.8957 24.345 65.2529 24.0479 63.7936 22.9511C62.7365 22.1567 61.9551 21.013 61.7958 19.6807C61.6501 18.4633 62.0585 17.2063 62.8214 16.2563C63.9341 14.8709 65.7061 14.1765 67.4308 13.9934Z" fill="black"/>
<path d="M67.7664 14.5942C69.3017 14.5959 70.7501 14.9479 71.9833 15.9052C72.8483 16.5768 73.5023 17.5292 73.6167 18.639C73.7295 19.7326 73.3433 20.8007 72.6568 21.6422C71.5224 23.0324 70.0314 23.4999 68.3069 23.6626C66.7394 23.6871 65.3749 23.4183 64.121 22.422C63.2023 21.692 62.5478 20.6808 62.4295 19.4935C62.321 18.4049 62.6725 17.3594 63.3838 16.5345C64.4799 15.2632 66.1357 14.7021 67.7664 14.5942Z" fill="#FDFDFC"/>
<path d="M109.237 84.8833C109.674 84.8851 110.112 84.9072 110.549 84.9217C111.537 85.5769 112.505 86.387 113.313 87.2536C115.991 90.1295 117.175 93.8583 117.018 97.7416C116.85 101.922 114.848 105.81 111.778 108.61C107.07 112.905 101.849 112.658 95.9258 112.399C93.0264 112.238 90.5944 111.658 87.8994 110.578C89.1664 109.333 90.5038 108.161 91.7655 106.908C94.3863 104.266 96.8964 101.523 99.2958 98.6786C102.936 94.3278 106.092 89.5948 109.237 84.8833Z" fill="#FDFDFC"/>
<path d="M107.419 21.6106C108.83 21.3732 110.547 21.8328 111.737 22.5918C113.282 23.5771 114.459 25.3378 114.836 27.1251C115.025 28.0239 115.045 29.0108 114.794 29.8995C114.312 31.6018 113.039 33.2149 112.095 34.699C111.158 36.1933 110.208 37.6796 109.246 39.1577C109.011 38.8065 108.753 38.4707 108.501 38.1316C107.965 37.3735 107.295 36.7061 106.78 35.9432C106.287 35.2115 105.923 34.3866 105.444 33.6411C104.009 31.4077 101.983 29.3409 99.7354 27.919C100.699 26.9685 101.556 25.9212 102.425 24.8859C103.919 23.1061 105.016 21.9138 107.419 21.6106Z" fill="#7683FA"/>
</g>
<defs>
<clipPath id="clip0_0_5259">
<rect width="140" height="137" fill="white"/>
</clipPath>
</defs>
</svg>
