<svg width="624" height="624" viewBox="0 0 624 624" fill="none" xmlns="http://www.w3.org/2000/svg">
<path d="M473.612 232.383C514.05 330.466 507.523 426.183 459.034 446.175C410.545 466.166 338.456 402.86 298.018 304.778C257.58 206.695 264.107 110.977 312.596 90.9863C361.085 70.995 433.174 134.301 473.612 232.383Z" fill="url(#paint0_linear_1126_4887)"/>
<path d="M473.613 232.383C433.175 134.301 361.085 70.9952 312.596 90.9865C264.107 110.978 257.58 206.696 298.018 304.778C338.456 402.86 410.545 466.166 459.034 446.175C507.144 426.34 513.946 331.956 474.552 234.681L473.613 232.383ZM481.009 229.334C501.594 279.263 510.391 328.949 507.653 369.108C504.953 408.705 490.683 441.78 462.083 453.571C433.484 465.362 400.051 451.954 370.229 425.766C339.983 399.205 311.207 357.756 290.622 307.827C270.037 257.898 261.24 208.212 263.978 168.053C266.678 128.456 280.947 95.3815 309.546 83.5904C338.146 71.7994 371.58 85.2069 401.402 111.395C431.648 137.956 460.424 179.405 481.009 229.334Z" fill="white"/>
<path d="M336.431 292.875C376.868 390.958 370.342 486.676 321.853 506.667C273.364 526.658 201.274 463.353 160.836 365.27C120.399 267.187 126.925 171.47 175.414 151.478C223.903 131.487 295.993 194.793 336.431 292.875Z" fill="url(#paint1_linear_1126_4887)"/>
<path d="M336.431 292.875C295.993 194.793 223.903 131.487 175.414 151.479C126.925 171.47 120.399 267.188 160.837 365.27C201.274 463.352 273.364 526.658 321.853 506.667C369.963 486.832 376.764 392.449 337.37 295.173L336.431 292.875ZM343.827 289.826C364.412 339.755 373.209 389.441 370.471 429.6C367.771 469.197 353.501 502.272 324.902 514.063C296.303 525.854 262.869 512.446 233.047 486.258C202.802 459.698 174.025 418.248 153.44 368.319C132.856 318.39 124.058 268.704 126.796 228.545C129.496 188.949 143.766 155.874 172.365 144.083C200.964 132.292 234.398 145.699 264.22 171.888C294.466 198.448 323.242 239.897 343.827 289.826Z" fill="white"/>
<ellipse cx="258.349" cy="303.962" rx="54.0206" ry="122.941" transform="rotate(-22.4056 258.349 303.962)" fill="#0B0B0B"/>
<ellipse cx="404.772" cy="232.06" rx="51.0345" ry="122.941" transform="rotate(-22.4056 404.772 232.06)" fill="#0B0B0B"/>
<path d="M299.869 226.981C324.904 262.931 339.139 298.697 347.116 325.473C351.105 338.863 353.532 350.014 354.963 357.826C355.679 361.733 356.145 364.806 356.433 366.909C356.578 367.96 356.677 368.769 356.741 369.318C356.773 369.592 356.795 369.802 356.81 369.944C356.818 370.015 356.824 370.07 356.828 370.107C356.83 370.126 356.831 370.141 356.832 370.151L356.833 370.166C356.827 370.168 356.721 370.18 354.843 370.361C352.863 370.553 352.852 370.554 352.852 370.554L352.853 370.553C352.853 370.551 352.852 370.549 352.852 370.545C352.851 370.538 352.85 370.527 352.848 370.511C352.845 370.48 352.84 370.432 352.833 370.367C352.82 370.238 352.798 370.041 352.768 369.78C352.707 369.257 352.611 368.476 352.47 367.453C352.19 365.406 351.733 362.392 351.029 358.547C349.621 350.858 347.226 339.85 343.282 326.615C335.395 300.14 321.321 264.786 296.586 229.266L299.869 226.981Z" fill="black"/>
<defs>
<linearGradient id="paint0_linear_1126_4887" x1="419.865" y1="243.301" x2="385.815" y2="482.372" gradientUnits="userSpaceOnUse">
<stop stop-color="#FDF8F0"/>
<stop offset="1" stop-color="#888BBB"/>
</linearGradient>
<linearGradient id="paint1_linear_1126_4887" x1="282.683" y1="303.793" x2="248.634" y2="542.864" gradientUnits="userSpaceOnUse">
<stop stop-color="#FDF8F0"/>
<stop offset="1" stop-color="#888BBB"/>
</linearGradient>
</defs>
</svg>
