<svg width="810" height="800" viewBox="0 0 810 800" fill="none" xmlns="http://www.w3.org/2000/svg">
<path d="M405.712 578.281C388.158 555.459 478.74 504.965 478.74 504.965C478.74 504.965 602.577 546.107 578.33 577.599C569.938 588.499 533.078 580.634 506.799 573.268C561.497 593.613 572.426 621.938 524.709 647.241C469.851 676.331 364.031 645.86 376.007 610.717C380.725 596.871 403.55 593.07 427.951 593.488C418.646 589.631 410.603 584.639 405.712 578.281Z" fill="#8CE096"/>
<path d="M427.951 593.488C456.501 605.32 496.941 606.469 494.734 603.614C493.09 601.488 459.226 594.023 427.951 593.488Z" fill="#8CE096"/>
<path d="M479.351 564.708C479.351 564.708 491.215 568.9 506.799 573.268C498.613 570.224 489.447 567.358 479.351 564.708Z" fill="#8CE096"/>
<path d="M481.262 497.373L478.739 504.965C481.261 497.373 481.264 497.373 481.266 497.374C481.267 497.374 481.269 497.375 481.271 497.376C481.277 497.378 481.284 497.38 481.293 497.383C481.311 497.389 481.336 497.397 481.369 497.408C481.434 497.43 481.529 497.463 481.651 497.504C481.897 497.587 482.256 497.708 482.72 497.867C483.647 498.185 484.993 498.652 486.692 499.256C490.09 500.463 494.904 502.219 500.6 504.425C511.964 508.826 526.961 515.063 541.258 522.344C555.373 529.532 569.541 538.098 578.684 547.337C583.248 551.948 587.19 557.347 588.76 563.441C590.452 570.014 589.172 576.63 584.668 582.479C580.602 587.76 574.055 589.719 568.377 590.484C563.542 591.136 558.07 591.088 552.416 590.626C556.93 595.332 560.252 600.524 561.859 606.225C564.454 615.429 562.179 624.494 556.165 632.626C550.335 640.508 540.908 647.706 528.457 654.309C498.56 670.162 456.097 669.446 423.259 660.803C406.743 656.456 391.741 649.877 381.448 641.564C371.293 633.363 363.832 621.644 368.434 608.137C372.094 597.396 382.29 591.905 392.432 589.053C395.649 588.148 399.082 587.442 402.658 586.904C401.48 585.715 400.379 584.468 399.371 583.158C395.491 578.113 394.781 572.301 396.003 566.833C397.155 561.679 400.002 556.768 403.343 552.363C410.048 543.521 420.441 534.536 430.815 526.686C441.311 518.743 452.313 511.573 460.647 506.41C464.825 503.822 468.356 501.724 470.85 500.27C472.097 499.542 473.086 498.974 473.767 498.586C474.108 498.392 474.373 498.242 474.555 498.14C474.645 498.089 474.715 498.05 474.764 498.022C474.788 498.009 474.807 497.998 474.82 497.99C474.827 497.986 474.833 497.984 474.837 497.981C474.839 497.98 474.841 497.979 474.842 497.979C474.844 497.98 474.908 498.091 478.516 504.563L474.845 497.978L477.92 496.263L481.262 497.373ZM478.739 504.965C478.535 505.079 388.178 555.485 405.713 578.281C410.603 584.639 418.646 589.632 427.951 593.488C403.55 593.071 380.725 596.871 376.007 610.717L375.872 611.128C364.943 645.823 468.422 675.745 523.414 647.912L524.709 647.241C572.426 621.938 561.497 593.613 506.799 573.269C532.873 580.577 569.362 588.376 578.128 577.852L578.329 577.6C602.577 546.107 478.739 504.965 478.739 504.965Z" fill="white"/>
<path d="M485.669 87.4772C487.667 85.728 490.979 83.5459 495.288 84.0788C499.382 84.5851 501.914 87.2902 503.06 88.6471C504.259 90.066 505.508 91.9965 506.308 93.1637C507.672 95.1558 509.88 99.2716 512.284 103.863C514.79 108.649 517.875 114.675 521.051 120.799C527.547 133.327 534.375 146.166 538.724 152.537C548.19 166.405 556.429 179.301 571.167 193.866C583.01 205.57 588.584 218.597 590.467 226.352C590.619 226.549 590.764 226.754 590.899 226.967C592.691 229.805 592.521 233.46 590.474 236.119L587.264 240.287C589.992 242.351 593.449 244.819 597.689 247.78C605.982 253.571 613.191 261.135 621.023 271.009C628.814 280.832 637.547 293.369 648.696 309.237C667.044 335.351 678.782 360.579 682.479 370.298C683.468 372.896 683.037 375.821 681.341 378.023L423.516 712.881C421.96 714.901 419.533 716.059 416.983 715.998C414.434 715.936 412.066 714.662 410.609 712.568L288.608 537.157C287.268 535.229 286.842 532.809 287.443 530.539C287.583 530.013 287.826 528.768 287.893 527.357C287.929 526.578 287.903 525.949 287.85 525.474C287.761 525.436 287.664 525.394 287.559 525.354C286.978 525.133 286.286 524.941 285.567 524.795C284.85 524.648 284.226 524.573 283.826 524.545C281.314 524.364 279.034 523.011 277.671 520.893L224.331 437.991C222.501 435.147 222.657 431.46 224.72 428.781L436.588 153.61L436.76 153.394C437.17 152.898 437.64 152.452 438.157 152.068L448.852 144.124L448.82 140.518C448.805 138.823 449.329 137.167 450.315 135.789C457.388 125.913 473.089 103.935 479.453 94.8454C481.553 91.8454 483.592 89.2949 485.669 87.4772ZM499.708 97.6843C495.58 91.658 493.998 88.0191 486.006 99.4343L483.206 103.414C475.816 113.88 463.002 131.814 456.82 140.446L456.889 148.121L442.927 158.491L231.059 433.662L284.399 516.565C287.421 516.782 293.802 518.122 295.157 521.745C296.512 525.368 295.735 530.483 295.177 532.589L417.177 708L675.002 373.142C671.639 364.303 660.806 340.908 643.813 316.228L642.15 313.837C620.063 282.401 608.255 265.198 593.8 254.828L593.109 254.339C580.196 245.321 573.052 239.884 573.004 236.649L576.379 241.312L584.135 231.239L577.05 232.76C579.216 231.682 581.691 230.892 583.146 230.528C582.409 225.274 577.856 211.724 565.544 199.556C550.153 184.347 541.48 170.765 532.116 157.047C522.898 143.542 504.425 104.944 499.912 97.9919L499.708 97.6843ZM573.102 235.991C573.173 235.778 573.281 235.575 573.429 235.383C573.893 234.78 574.581 234.212 575.39 233.691L573.102 235.991Z" fill="white"/>
<path d="M773.402 310.393C778.661 319.057 716.26 346.674 703.466 351.214L695.637 333.997L755.79 281.434L773.402 310.393Z" fill="#EA494B"/>
<path d="M794.418 353.5C782.196 350.987 731.839 362.456 708.188 368.505C706.143 373.201 702.942 383.03 706.504 384.782C710.065 386.535 768.476 390.702 797.237 392.567C801.39 380.592 806.641 356.013 794.418 353.5Z" fill="#EA494B"/>
<path d="M714.43 403.672C722.778 404.21 743.623 407.127 760.219 414.486L757.641 440.283L713.199 419.23L714.43 403.672Z" fill="#EA494B"/>
<path d="M773.402 310.393C778.661 319.057 716.26 346.674 703.466 351.214L695.637 333.997L755.79 281.434L773.402 310.393Z" fill="#EA494B"/>
<path d="M794.418 353.5C782.196 350.987 731.839 362.456 708.188 368.505C706.143 373.201 702.942 383.03 706.504 384.782C710.065 386.535 768.476 390.702 797.237 392.567C801.39 380.592 806.641 356.013 794.418 353.5Z" fill="#EA494B"/>
<path d="M714.43 403.672C722.778 404.21 743.623 407.127 760.219 414.486L757.641 440.283L713.199 419.23L714.43 403.672Z" fill="#EA494B"/>
<path d="M714.944 395.688C723.784 396.258 745.669 399.283 763.462 407.173L768.755 409.521L764.473 452.371L704.788 424.098L707.077 395.182L714.944 395.688ZM713.199 419.229L757.641 440.283L760.219 414.486C743.623 407.127 722.777 404.21 714.43 403.672L713.199 419.229ZM778.162 345.99C784.844 345.189 791.523 344.738 796.029 345.664C802.267 346.947 806.077 351.233 808.006 355.956C809.792 360.329 810.133 365.329 809.963 369.791C809.617 378.83 807.012 388.796 804.795 395.188L802.799 400.944L796.72 400.55C782.316 399.616 760.479 398.105 741.781 396.606C732.44 395.858 723.833 395.109 717.313 394.433C714.064 394.096 711.258 393.77 709.112 393.463C708.047 393.311 707.054 393.15 706.211 392.979C705.682 392.873 704.257 392.593 702.972 391.96C698.59 389.804 697.372 385.606 697.05 383.238C696.713 380.761 697.011 378.249 697.38 376.275C698.14 372.215 699.691 367.979 700.854 365.31L702.416 361.724L706.206 360.755C718.137 357.703 736.798 353.285 754.066 349.938C762.692 348.266 771.082 346.839 778.162 345.99ZM794.418 353.5C782.195 350.987 731.839 362.456 708.188 368.505L707.793 369.442C705.769 374.398 703.165 383.139 706.504 384.782C709.845 386.425 761.39 390.191 791.518 392.191L797.237 392.566C801.358 380.685 806.559 356.396 794.701 353.562L794.418 353.5ZM780.237 306.236L780.24 306.242C783.712 311.96 780.301 317.342 778.768 319.332C776.837 321.836 774.046 324.178 771.211 326.249C765.391 330.499 757.243 335.131 748.879 339.456C732.106 348.13 712.967 356.331 706.142 358.753L699.223 361.208L685.891 331.89L757.685 269.153L780.237 306.236ZM695.637 333.997L703.466 351.214C716.26 346.674 778.661 319.057 773.402 310.394L755.79 281.434L695.637 333.997Z" fill="white"/>
<path d="M797.371 390.569C798.47 390.641 799.301 391.594 799.228 392.699C799.154 393.804 798.203 394.643 797.104 394.572C782.718 393.639 760.913 392.13 742.257 390.635C732.931 389.887 724.378 389.142 717.929 388.473C714.707 388.139 711.991 387.823 709.959 387.532C708.945 387.387 708.079 387.245 707.396 387.107C706.791 386.985 706.109 386.826 705.623 386.587C703.865 385.722 703.208 383.967 703.001 382.44C702.79 380.888 702.962 379.103 703.283 377.385C703.851 374.354 704.972 371.078 705.952 368.679L706.362 367.708L706.454 367.524C706.951 366.639 708.044 366.255 708.99 366.67C709.936 367.084 710.398 368.148 710.088 369.116L710.016 369.309L709.635 370.212C708.726 372.438 707.706 375.437 707.205 378.116C706.916 379.661 706.828 380.957 706.954 381.887C707.084 382.842 707.363 382.974 707.385 382.985C707.344 382.965 707.536 383.043 708.191 383.175C708.769 383.292 709.552 383.422 710.532 383.562C712.488 383.842 715.145 384.153 718.349 384.485C724.752 385.149 733.268 385.891 742.585 386.637C761.214 388.13 782.997 389.637 797.371 390.569Z" fill="#120101"/>
<path d="M774.442 312.107C775.384 311.534 775.682 310.303 775.107 309.358L757.495 280.398C757.188 279.893 756.675 279.549 756.092 279.457C755.509 279.366 754.917 279.538 754.474 279.926L694.32 332.489C693.49 333.215 693.406 334.479 694.132 335.313C694.859 336.147 696.122 336.235 696.952 335.509L755.32 284.506L771.696 311.434C772.271 312.379 773.5 312.68 774.442 312.107Z" fill="#120101"/>
<path d="M455.676 182.402L618.351 402.983L427.35 651.052L270.955 422.315L404.038 249.469L412.585 242.536L417.523 231.955L455.676 182.402Z" fill="#FDF8F0"/>
<path d="M618.351 402.983L427.35 651.052L270.955 422.315L404.038 249.469L412.586 242.536L417.523 231.955L455.676 182.402L618.351 402.983ZM420.945 234.067L415.806 245.081L406.909 252.297L275.892 422.46L427.537 644.252L613.347 402.926L455.611 189.043L420.945 234.067Z" fill="#120101"/>
<path d="M455.676 182.402L618.351 402.983L591.905 437.331L429.754 216.069L455.676 182.402Z" fill="#518FC0"/>
<path d="M618.351 402.983L591.904 437.331L429.754 216.069L455.676 182.402L618.351 402.983ZM434.753 216.133L591.98 430.676L613.347 402.926L455.611 189.043L434.753 216.133Z" fill="#120101"/>
<path d="M507.718 254.562L322.997 494.475L319.842 492.015L504.563 252.103L507.718 254.562Z" fill="#120101"/>
<path d="M534.449 289.35L348.32 531.499L345.164 529.041L531.293 286.893L534.449 289.35Z" fill="#120101"/>
<path d="M558.855 324.656L372.489 566.705L369.334 564.246L555.7 322.196L558.855 324.656Z" fill="#120101"/>
<path d="M405.712 578.281C388.158 555.459 478.74 504.965 478.74 504.965C478.74 504.965 602.577 546.107 578.33 577.599C569.938 588.499 533.078 580.634 506.799 573.268C561.497 593.613 572.426 621.938 524.709 647.241C469.851 676.331 364.031 645.86 376.007 610.717C380.725 596.871 403.55 593.07 427.951 593.488C418.646 589.631 410.603 584.639 405.712 578.281Z" fill="#8CE096"/>
<path d="M427.951 593.488C456.501 605.32 496.941 606.469 494.734 603.614C493.09 601.488 459.226 594.023 427.951 593.488Z" fill="#8CE096"/>
<path d="M479.351 564.708C479.351 564.708 491.215 568.9 506.799 573.268C498.613 570.224 489.447 567.358 479.351 564.708Z" fill="#8CE096"/>
<path d="M479.37 503.066L478.739 504.965C479.355 503.113 479.371 503.068 479.372 503.067C479.373 503.068 479.375 503.069 479.377 503.069C479.381 503.071 479.387 503.073 479.395 503.075C479.41 503.08 479.434 503.088 479.464 503.099C479.525 503.119 479.615 503.149 479.734 503.188C479.97 503.268 480.32 503.387 480.774 503.543C481.681 503.854 483.007 504.313 484.684 504.909C488.037 506.101 492.797 507.838 498.433 510.021C509.697 514.383 524.488 520.537 538.535 527.69C552.537 534.821 565.984 543.034 574.42 551.558C578.636 555.817 581.758 560.31 582.949 564.938C584.172 569.685 583.314 574.404 579.914 578.819C577.324 582.183 572.78 583.837 567.575 584.539C562.296 585.251 555.896 585.041 549.049 584.271C542.579 583.543 535.621 582.299 528.691 580.805C528.693 580.806 528.696 580.807 528.698 580.809C528.898 580.916 529.097 581.023 529.295 581.131C529.379 581.177 529.463 581.223 529.546 581.269C529.804 581.41 530.061 581.551 530.316 581.693C530.452 581.769 530.587 581.846 530.722 581.922C530.871 582.006 531.02 582.089 531.168 582.173C531.346 582.274 531.523 582.376 531.699 582.478C531.86 582.57 532.021 582.662 532.18 582.755C532.342 582.849 532.502 582.944 532.662 583.038C532.8 583.119 532.937 583.199 533.073 583.28C533.277 583.401 533.479 583.524 533.68 583.646C533.777 583.704 533.874 583.762 533.971 583.821C534.133 583.92 534.295 584.02 534.455 584.119C534.6 584.209 534.745 584.298 534.889 584.388C535.044 584.484 535.198 584.582 535.352 584.679C535.507 584.777 535.663 584.875 535.817 584.974C535.913 585.035 536.009 585.097 536.105 585.159C536.296 585.282 536.486 585.405 536.674 585.528C536.781 585.599 536.888 585.67 536.994 585.74C537.185 585.866 537.374 585.993 537.562 586.119C537.636 586.169 537.71 586.219 537.784 586.27C537.944 586.378 538.102 586.485 538.26 586.594C538.443 586.72 538.625 586.846 538.806 586.973C538.905 587.042 539.005 587.111 539.104 587.181C539.247 587.282 539.389 587.384 539.531 587.485C539.665 587.582 539.799 587.678 539.932 587.774C540.054 587.863 540.175 587.951 540.295 588.04C540.389 588.109 540.483 588.176 540.575 588.245C540.625 588.282 540.673 588.319 540.722 588.355C540.766 588.389 540.811 588.421 540.856 588.454C540.919 588.501 540.981 588.55 541.043 588.597C541.183 588.702 541.323 588.808 541.461 588.914C541.594 589.015 541.725 589.117 541.856 589.219C541.968 589.306 542.08 589.393 542.191 589.48C542.31 589.575 542.43 589.669 542.548 589.764C542.681 589.869 542.813 589.975 542.944 590.081C543.056 590.172 543.167 590.263 543.278 590.354C543.401 590.455 543.523 590.556 543.645 590.657C543.749 590.744 543.852 590.831 543.955 590.918C544.074 591.018 544.192 591.118 544.309 591.219C544.434 591.326 544.558 591.434 544.681 591.541C544.783 591.63 544.885 591.719 544.986 591.809C545.117 591.925 545.248 592.041 545.377 592.158C545.465 592.237 545.552 592.317 545.639 592.396C545.755 592.503 545.871 592.608 545.986 592.715C546.086 592.808 546.186 592.902 546.285 592.995C546.402 593.105 546.517 593.214 546.631 593.324C546.718 593.408 546.805 593.491 546.891 593.575C547.002 593.683 547.112 593.791 547.221 593.899C547.323 594 547.423 594.101 547.524 594.202C547.636 594.315 547.747 594.428 547.857 594.541C547.929 594.615 548.001 594.69 548.072 594.765C548.189 594.886 548.305 595.008 548.419 595.13C548.511 595.227 548.601 595.325 548.692 595.423C548.769 595.507 548.846 595.59 548.922 595.674C549.032 595.794 549.14 595.915 549.247 596.036C549.342 596.142 549.435 596.248 549.528 596.354C549.586 596.422 549.644 596.489 549.702 596.557C549.817 596.69 549.93 596.823 550.042 596.956C550.12 597.049 550.196 597.142 550.273 597.234C550.369 597.351 550.464 597.468 550.558 597.585C550.623 597.666 550.687 597.747 550.751 597.828C550.841 597.941 550.929 598.054 551.017 598.167C551.098 598.272 551.179 598.378 551.259 598.483C551.339 598.589 551.419 598.695 551.497 598.802C551.569 598.899 551.64 598.996 551.71 599.094C551.78 599.19 551.85 599.287 551.918 599.384C552.008 599.51 552.096 599.637 552.183 599.764C552.237 599.843 552.291 599.922 552.345 600.001C552.428 600.124 552.51 600.247 552.591 600.37C552.656 600.469 552.72 600.567 552.783 600.666C552.849 600.769 552.914 600.872 552.979 600.976C553.052 601.093 553.125 601.211 553.197 601.329C553.246 601.411 553.294 601.493 553.343 601.574C553.413 601.692 553.482 601.81 553.55 601.928C553.612 602.035 553.673 602.142 553.733 602.249C553.794 602.359 553.855 602.468 553.914 602.578C553.968 602.678 554.021 602.777 554.073 602.877C554.133 602.989 554.191 603.101 554.248 603.213C554.293 603.301 554.338 603.39 554.382 603.479C554.444 603.603 554.506 603.728 554.566 603.854C554.612 603.951 554.657 604.048 554.702 604.146C554.758 604.265 554.813 604.385 554.866 604.505C554.912 604.607 554.955 604.709 554.999 604.811C555.049 604.926 555.099 605.041 555.147 605.157C555.184 605.247 555.22 605.337 555.256 605.427C555.309 605.558 555.36 605.689 555.41 605.82C555.442 605.902 555.471 605.984 555.501 606.066C555.551 606.202 555.601 606.338 555.649 606.474C555.678 606.557 555.705 606.642 555.734 606.726C555.777 606.854 555.82 606.983 555.861 607.111C555.894 607.215 555.925 607.319 555.956 607.423C555.99 607.535 556.025 607.647 556.057 607.76C556.066 607.791 556.076 607.821 556.085 607.853C556.111 607.945 556.134 608.038 556.158 608.131C556.177 608.199 556.197 608.267 556.215 608.335C556.217 608.343 556.218 608.353 556.22 608.361C558.004 615.292 556.346 622.292 551.341 629.059C546.26 635.928 537.705 642.613 525.646 649.008C497.6 663.88 456.857 663.443 424.786 655.001C408.727 650.774 394.612 644.483 385.219 636.896C375.86 629.338 370.718 620.038 374.114 610.071C376.799 602.194 384.512 597.513 394.057 594.828C401.349 592.777 410.027 591.797 419.149 591.533C413.056 588.235 407.793 584.266 404.127 579.5C401.512 576.099 400.955 572.182 401.859 568.142C402.744 564.18 405.03 560.069 408.124 555.989C414.318 547.821 424.174 539.236 434.437 531.47C444.73 523.68 455.561 516.619 463.808 511.511C467.934 508.955 471.419 506.885 473.874 505.452C475.102 504.736 476.073 504.178 476.738 503.8C477.07 503.611 477.326 503.466 477.499 503.368C477.586 503.319 477.652 503.282 477.697 503.257C477.719 503.244 477.736 503.235 477.747 503.229C477.753 503.225 477.758 503.222 477.761 503.221C477.762 503.22 477.764 503.219 477.765 503.219C477.767 503.221 477.791 503.264 478.268 504.119L477.766 503.218L478.535 502.789L479.37 503.066ZM478.717 507.275C478.064 507.648 477.105 508.197 475.89 508.906C473.46 510.324 470.006 512.377 465.914 514.911C457.726 519.983 447.009 526.972 436.851 534.659C426.663 542.369 417.164 550.687 411.311 558.405C408.381 562.269 406.47 565.847 405.762 569.015C405.071 572.104 405.525 574.757 407.298 577.062C411.821 582.941 419.355 587.718 428.372 591.496C444.022 591.792 460.25 593.791 472.799 595.984C479.127 597.09 484.546 598.25 488.505 599.274C490.48 599.785 492.124 600.27 493.348 600.707C493.957 600.924 494.501 601.144 494.946 601.364C495.248 601.514 495.756 601.78 496.154 602.201L496.317 602.391L496.424 602.541C496.674 602.919 496.902 603.486 496.794 604.178C496.676 604.934 496.22 605.415 495.91 605.663C495.35 606.111 494.625 606.316 494.117 606.433C492.966 606.697 491.293 606.844 489.3 606.899C485.259 607.011 479.426 606.759 472.667 606.048C459.274 604.64 441.995 601.405 427.548 595.482C415.562 595.298 404.121 596.153 395.14 598.679C385.993 601.251 379.935 605.393 377.901 611.361C375.309 618.967 378.903 626.655 387.732 633.785C396.526 640.887 410.049 646.986 425.805 651.133C457.364 659.44 496.96 659.692 523.772 645.475C535.57 639.218 543.544 632.874 548.125 626.68C552.611 620.614 553.811 614.757 552.283 609.123C552.235 608.944 552.184 608.766 552.13 608.587C552.1 608.486 552.069 608.384 552.036 608.283C552.015 608.217 551.993 608.151 551.971 608.085C551.934 607.972 551.896 607.86 551.857 607.747C551.832 607.678 551.807 607.608 551.781 607.539C551.74 607.426 551.698 607.312 551.655 607.198C551.628 607.129 551.6 607.059 551.572 606.989C551.528 606.878 551.483 606.766 551.437 606.654C551.401 606.569 551.365 606.484 551.328 606.399C551.289 606.308 551.25 606.216 551.209 606.125C551.164 606.023 551.117 605.922 551.07 605.82C551.029 605.733 550.988 605.646 550.947 605.559C550.902 605.467 550.857 605.375 550.812 605.283C550.767 605.193 550.722 605.103 550.676 605.013C550.629 604.92 550.58 604.829 550.531 604.736C550.481 604.641 550.43 604.545 550.378 604.449C550.34 604.379 550.301 604.309 550.262 604.239C550.19 604.111 550.118 603.982 550.043 603.854C550.008 603.793 549.972 603.733 549.936 603.672C549.879 603.575 549.821 603.478 549.762 603.381C549.686 603.255 549.608 603.13 549.529 603.004C549.497 602.954 549.466 602.905 549.435 602.855C549.358 602.735 549.28 602.615 549.2 602.495C549.146 602.413 549.092 602.331 549.036 602.249C548.976 602.159 548.915 602.07 548.853 601.98C548.783 601.88 548.713 601.779 548.642 601.679C548.582 601.594 548.521 601.51 548.46 601.426C548.397 601.338 548.333 601.251 548.269 601.163C548.197 601.065 548.123 600.968 548.049 600.87C547.98 600.778 547.909 600.687 547.838 600.595C547.76 600.494 547.681 600.394 547.602 600.293C547.549 600.227 547.497 600.161 547.444 600.095C547.36 599.991 547.275 599.886 547.19 599.782C547.111 599.686 547.031 599.591 546.95 599.495C546.884 599.416 546.818 599.337 546.751 599.259C546.649 599.139 546.545 599.02 546.441 598.9C546.39 598.842 546.338 598.784 546.286 598.726C546.176 598.602 546.065 598.478 545.952 598.354C545.868 598.261 545.783 598.168 545.697 598.075C545.637 598.011 545.578 597.947 545.518 597.883C545.424 597.783 545.329 597.683 545.234 597.583C545.125 597.469 545.015 597.356 544.904 597.242C544.843 597.18 544.782 597.119 544.721 597.057C544.625 596.96 544.529 596.863 544.431 596.766C544.319 596.654 544.205 596.543 544.091 596.432C544.023 596.365 543.954 596.299 543.885 596.232C543.78 596.132 543.675 596.031 543.569 595.931C543.46 595.828 543.349 595.725 543.239 595.622C543.162 595.551 543.085 595.479 543.007 595.408C542.891 595.302 542.774 595.197 542.656 595.091C542.559 595.003 542.461 594.916 542.363 594.828C542.26 594.737 542.156 594.646 542.052 594.555C541.948 594.464 541.842 594.373 541.737 594.282C541.638 594.198 541.539 594.114 541.44 594.029C541.322 593.929 541.203 593.829 541.083 593.729C540.979 593.642 540.874 593.556 540.768 593.469C540.659 593.38 540.551 593.29 540.441 593.201C540.313 593.098 540.185 592.995 540.056 592.892C539.96 592.815 539.864 592.739 539.767 592.662C539.643 592.565 539.518 592.468 539.393 592.37C539.275 592.279 539.157 592.187 539.038 592.096C538.797 591.911 538.552 591.726 538.304 591.541C538.075 591.37 537.842 591.2 537.608 591.029C537.45 590.915 537.292 590.801 537.132 590.688C537.047 590.626 536.961 590.565 536.875 590.504C536.708 590.386 536.539 590.268 536.369 590.15C536.276 590.085 536.182 590.019 536.088 589.954C535.942 589.854 535.795 589.754 535.648 589.653C535.516 589.564 535.384 589.474 535.251 589.385C535.101 589.284 534.949 589.183 534.796 589.082C534.7 589.019 534.604 588.955 534.507 588.892C534.325 588.772 534.141 588.653 533.956 588.533C533.857 588.469 533.757 588.404 533.656 588.34C533.474 588.223 533.29 588.107 533.105 587.99C533.015 587.934 532.925 587.877 532.835 587.82C532.639 587.698 532.442 587.576 532.243 587.454C532.146 587.394 532.048 587.333 531.949 587.273C531.785 587.173 531.618 587.073 531.451 586.973C531.307 586.886 531.163 586.798 531.018 586.712C530.871 586.624 530.722 586.538 530.573 586.45C530.444 586.374 530.314 586.296 530.183 586.22C529.982 586.103 529.779 585.987 529.575 585.87C529.477 585.814 529.379 585.756 529.281 585.7C529.093 585.593 528.903 585.488 528.713 585.381C528.564 585.297 528.414 585.213 528.263 585.129C527.476 584.691 526.67 584.256 525.847 583.822C525.712 583.751 525.576 583.679 525.44 583.608C525.247 583.508 525.053 583.408 524.858 583.308C524.695 583.224 524.532 583.138 524.367 583.055C524.204 582.971 524.038 582.889 523.873 582.806C523.707 582.722 523.541 582.637 523.373 582.554C523.097 582.416 522.818 582.278 522.538 582.141C522.492 582.118 522.447 582.096 522.401 582.073C521.495 581.63 520.569 581.189 519.624 580.75C518.95 580.437 518.265 580.125 517.571 579.814C517.068 579.59 516.561 579.366 516.049 579.143C515.387 578.854 514.716 578.567 514.036 578.281C512.766 577.747 511.467 577.216 510.137 576.69C510.049 576.656 509.961 576.621 509.873 576.586C509.279 576.352 508.679 576.12 508.072 575.888C507.447 575.648 506.817 575.408 506.179 575.171C498.388 572.986 491.53 570.847 486.614 569.252C484.148 568.452 482.168 567.788 480.804 567.324C480.122 567.092 479.594 566.911 479.236 566.786C479.057 566.724 478.92 566.676 478.827 566.644C478.781 566.627 478.746 566.615 478.722 566.606C478.71 566.602 478.701 566.599 478.695 566.597C478.692 566.596 478.689 566.595 478.688 566.595L478.686 566.594C477.675 566.236 477.125 565.145 477.44 564.12C477.755 563.095 478.822 562.501 479.859 562.773C489.976 565.429 499.18 568.304 507.416 571.364C520.508 575.031 536.135 578.793 549.496 580.296C556.198 581.05 562.228 581.223 567.041 580.574C571.929 579.915 575.139 578.465 576.745 576.379C579.408 572.921 579.984 569.466 579.075 565.936C578.136 562.286 575.56 558.397 571.576 554.371C563.612 546.324 550.646 538.347 536.72 531.255C522.839 524.186 508.186 518.086 496.989 513.75C491.393 511.583 486.668 509.86 483.344 508.679C481.682 508.088 480.37 507.633 479.476 507.326C479.279 507.259 479.102 507.199 478.946 507.146C478.874 507.186 478.798 507.229 478.717 507.275ZM441.795 596.14C452.509 599.198 463.723 601.085 473.085 602.069C478.358 602.624 483.003 602.887 486.602 602.92C482.858 601.985 477.887 600.934 472.111 599.925C463.316 598.388 452.708 596.95 441.795 596.14Z" fill="#120101"/>
<path d="M569.858 274.823C570.818 274.283 572.033 274.629 572.572 275.596C573.111 276.563 572.769 277.785 571.809 278.326L548.852 291.241C547.892 291.781 546.677 291.435 546.138 290.468C545.599 289.501 545.942 288.28 546.902 287.739L569.858 274.823Z" fill="#120101"/>
<path fill-rule="evenodd" clip-rule="evenodd" d="M149.673 242.608C151.377 244.824 153.087 247.174 154.789 249.665C161.062 258.843 165.797 266.738 169.36 273.331C154.892 262.299 139.294 257.7 124.878 261.767C90.4229 271.489 75.7726 327.041 92.156 385.847C108.539 444.653 149.753 484.444 184.208 474.722C210.194 467.39 224.915 433.99 223.554 392.786C241.784 413.961 263.729 424.629 283.458 419.062C317.914 409.34 332.564 353.788 316.18 294.982C299.797 236.176 258.584 196.385 224.128 206.107C201.006 212.631 186.802 239.795 184.912 274.732C178.29 259.26 167.992 238.986 155.139 222.861C131.428 193.113 130.83 194.637 130.83 194.637L109.902 208.949C109.902 208.949 120.956 213.128 135.027 226.358C125.302 220.332 111.631 213.947 94.1031 210.69C55.2736 203.473 8.92871 230.689 8.92871 230.689C8.92871 230.689 39.7261 255.615 79.1599 260.682C111.489 264.836 140.329 248.595 149.673 242.608Z" fill="white"/>
<path d="M127.975 187.159C130.142 186.327 132.027 186.654 132.93 186.891C134.597 187.328 135.763 188.214 136.113 188.479C137.13 189.246 138.341 190.421 139.942 192.137C143.279 195.714 149.517 202.972 161.394 217.874C168.825 227.196 175.387 237.759 180.912 248.004C187.272 223.663 200.875 204.355 221.956 198.407C243.045 192.457 264.79 202.004 282.488 219.091C300.342 236.328 315.381 262.306 323.887 292.835C332.392 323.365 332.962 353.417 326.619 377.469C320.333 401.305 306.706 420.815 285.631 426.762C266.87 432.055 247.648 425.136 231.065 411.406C229.824 425.664 226.573 438.774 221.38 449.852C213.957 465.685 202.247 477.945 186.381 482.422C165.291 488.372 143.546 478.824 125.849 461.737C107.995 444.5 92.9545 418.523 84.4491 387.994C75.9435 357.465 75.3739 327.412 81.7167 303.36C85.2533 289.95 91.1134 277.909 99.3163 268.882C92.5437 269.542 85.4355 269.554 78.1405 268.616C57.108 265.914 38.5787 257.958 25.4354 250.814C18.8332 247.225 13.51 243.796 9.81532 241.248C7.96628 239.973 6.51947 238.915 5.51942 238.163C5.01938 237.787 4.63063 237.486 4.35829 237.273C4.2221 237.167 4.11428 237.082 4.037 237.021C3.99869 236.99 3.96778 236.965 3.94423 236.946C3.9324 236.937 3.92202 236.928 3.91396 236.922C3.91002 236.919 3.90624 236.916 3.90321 236.913C3.90182 236.912 3.90008 236.911 3.89931 236.91C3.89785 236.909 3.89771 236.909 6.40614 233.809L6.40517 233.807L3.8954 236.907C1.85534 235.256 0.755212 232.709 0.951065 230.092C1.147 227.474 2.61453 225.119 4.87782 223.79L7.59267 228.411H7.59364C4.87979 223.789 4.88 223.789 4.88173 223.788C4.88276 223.788 4.88502 223.786 4.88661 223.785C4.89012 223.783 4.89449 223.78 4.89931 223.777C4.90927 223.772 4.92194 223.764 4.93739 223.755C4.96868 223.737 5.01183 223.713 5.06532 223.682C5.17231 223.62 5.32321 223.533 5.5165 223.424C5.90358 223.205 6.46083 222.893 7.1747 222.505C8.60222 221.729 10.6604 220.644 13.2421 219.372C18.3971 216.833 25.6859 213.528 34.2518 210.453C51.1383 204.391 74.0552 198.827 95.5643 202.824C98.2103 203.316 100.774 203.878 103.257 204.493C103.814 203.662 104.532 202.929 105.387 202.345L126.314 188.033C126.832 187.679 127.388 187.385 127.975 187.159ZM155.139 222.86C131.639 193.378 130.842 194.612 130.83 194.637L109.902 208.948C109.929 208.958 120.972 213.144 135.027 226.357C125.302 220.332 111.631 213.947 94.1034 210.689C55.3111 203.48 9.01715 230.637 8.9286 230.689C8.9286 230.689 39.7262 255.615 79.16 260.682C111.489 264.835 140.329 248.595 149.673 242.608C151.377 244.824 153.086 247.174 154.789 249.665C161.062 258.843 165.796 266.738 169.359 273.331C154.892 262.299 139.293 257.699 124.878 261.767C90.4226 271.489 75.7729 327.041 92.1561 385.847C108.54 444.653 149.752 484.443 184.208 474.722C210.194 467.39 224.915 433.99 223.554 392.786C241.784 413.961 263.729 424.628 283.458 419.062C317.913 409.34 332.564 353.787 316.181 294.981C299.797 236.176 258.583 196.385 224.128 206.106C201.005 212.631 186.802 239.796 184.912 274.732C178.289 259.261 167.992 238.986 155.139 222.86ZM146.834 253.582C147.208 253.666 147.582 253.756 147.956 253.848C147.808 253.633 147.661 253.419 147.514 253.206C147.291 253.33 147.064 253.456 146.834 253.582ZM13.9579 224.468L13.9569 224.466C13.9557 224.465 13.9543 224.465 13.954 224.465L13.9579 224.468ZM136.933 199.808C136.954 199.783 136.973 199.757 136.994 199.732C136.973 199.757 136.953 199.783 136.933 199.808ZM137.181 199.499C137.197 199.478 137.213 199.456 137.229 199.435C137.213 199.456 137.197 199.478 137.181 199.499ZM137.644 198.825C137.649 198.817 137.655 198.81 137.66 198.802C137.667 198.79 137.673 198.777 137.68 198.766C137.668 198.785 137.656 198.806 137.644 198.825ZM137.816 198.53C137.839 198.489 137.863 198.448 137.885 198.407C137.863 198.449 137.839 198.489 137.816 198.53ZM137.948 198.283C137.969 198.243 137.992 198.203 138.012 198.163C138.018 198.15 138.024 198.135 138.03 198.122C138.004 198.176 137.976 198.23 137.948 198.283ZM138.175 197.806C138.192 197.764 138.211 197.722 138.219 197.704C138.22 197.7 138.222 197.695 138.223 197.69L138.175 197.806Z" fill="white"/>
<path d="M94.2437 210.744C133.073 217.961 152.978 240.526 152.978 240.526C152.978 240.526 118.734 265.803 79.3005 260.736C39.8667 255.67 9.06934 230.743 9.06934 230.743C9.06934 230.743 55.4143 203.527 94.2437 210.744Z" fill="#8CE096"/>
<path d="M154.93 249.724C133.047 217.707 110.043 209.008 110.043 209.008L130.971 194.696C130.971 194.696 131.568 193.172 155.28 222.92C178.991 252.668 194.004 296.535 193.294 298.322L179.977 298.146C179.977 298.146 176.813 281.742 154.93 249.724Z" fill="#120101"/>
<path d="M92.2967 385.906C108.68 444.712 149.893 484.503 184.349 474.781C218.804 465.06 233.455 409.507 217.071 350.701C200.688 291.895 159.475 252.105 125.019 261.826C90.5635 271.548 75.9132 327.1 92.2967 385.906Z" fill="#FFE4B8"/>
<path d="M191.547 330.242C207.93 389.048 249.143 428.839 283.599 419.117C318.054 409.396 332.705 353.843 316.321 295.037C299.938 236.231 258.725 196.441 224.269 206.162C189.814 215.884 175.163 271.436 191.547 330.242Z" fill="#EA494B"/>
<path d="M205.226 218.743C186.292 240.721 180.363 283.787 192.602 328.881C207.119 382.366 242.204 420.317 274.376 419.759C293.31 397.781 299.239 354.716 287 309.622C272.483 256.136 237.398 218.184 205.226 218.743Z" fill="#FDF8F0"/>
<path d="M203.411 220.028C184.627 242.136 178.989 285.238 191.528 330.246C206.401 383.63 241.736 421.341 273.902 420.569C292.686 398.461 298.325 355.36 285.786 310.353C270.913 256.969 235.578 219.255 203.411 220.028Z" fill="#FFE4B8"/>
<path d="M215.202 334.253C216.505 338.929 219.211 342.253 221.246 341.679C223.282 341.105 223.876 336.849 222.573 332.174C221.271 327.498 218.565 324.174 216.529 324.748C214.494 325.322 213.9 329.578 215.202 334.253Z" fill="#120101"/>
<path d="M182.71 350.726C184.013 355.401 186.719 358.726 188.754 358.152C190.79 357.577 191.384 353.322 190.081 348.646C188.779 343.971 186.073 340.646 184.037 341.221C182.002 341.795 181.407 346.051 182.71 350.726Z" fill="#120101"/>
<path d="M321.697 309.325C323.968 323.547 325.448 345.821 322.489 366.501C319.552 387.025 312.125 406.764 295.87 414.782C279.948 422.637 264.406 420.972 251.565 415.785C238.771 410.617 228.548 401.917 223.003 395.428L226.044 392.83C231.243 398.914 240.959 407.187 253.063 412.077C265.122 416.948 279.439 418.427 294.101 411.194C308.43 404.125 315.619 386.271 318.529 365.935C321.417 345.754 319.974 323.897 317.747 309.956L321.697 309.325Z" fill="black"/>
<path d="M18.876 231.2C33.5912 229.497 62.8384 227.891 94.8604 230.032C112.346 231.201 130.696 233.489 147.98 237.503L147.075 241.4C130.323 237.509 112.497 235.255 95.4053 234.079L82.415 245.215L79.8115 242.178L89.6738 233.724C59.8547 232.067 33.0691 233.584 19.335 235.173L18.876 231.2Z" fill="black"/>
<path d="M78.1084 229.099L75.2051 231.851L63.6611 219.669L66.5654 216.917L78.1084 229.099Z" fill="black"/>
</svg>
