<svg width="624" height="624" viewBox="0 0 624 624" fill="none" xmlns="http://www.w3.org/2000/svg">
<path d="M317.869 79.0741C316.254 66.9887 338.58 63.0963 345.038 62.9741C337.72 57.6858 310.463 49.0578 299.232 54.3458C285.194 60.9558 285.046 70.2538 292.205 89.7377C299.364 109.222 316.514 134.665 319.28 150.53C323.18 172.899 305.674 170.96 325.852 185.813C353.168 162.884 321.427 105.687 317.869 79.0741Z" fill="#518FC0"/>
<path d="M372.119 133.188C356.384 143.739 340.711 174.431 340.711 174.431L357.164 188.887C357.164 188.887 366.446 149.96 403.373 141.119C440.299 132.278 449.448 109.32 431.649 84.7398C413.85 60.1597 359.458 45.3031 338.025 41.3821C321.741 38.403 302.595 51.0094 294.337 57.2377C292.785 58.4083 293.547 60.6111 295.477 60.7244C334.491 63.015 383.936 85.3172 394.579 98.5833C405.707 112.455 391.789 120 372.119 133.188Z" fill="#8CE096"/>
<path d="M485.164 549.511C511.666 554.863 519.213 535.446 522.083 531.273C524.423 534.51 519.287 552.477 514.261 560.027C507.978 569.465 487.176 584.049 463.025 577.711C438.873 571.373 420.173 554.867 420.173 554.867L431.738 546.494C442.964 546.204 458.662 544.159 485.164 549.511Z" fill="#518FC0"/>
<path d="M373.083 527.196L436.035 547.227L424.104 556.682L364.243 540.397L373.083 527.196Z" fill="#8CE096"/>
<path d="M504.014 427.086C496.594 376.099 505.508 96.4217 518.133 254.03C520.279 280.821 527.133 317.279 535.276 356.708C543.418 396.137 558.743 481.184 554.794 498.818C550.844 516.453 548.861 522.965 522.671 557.169C496.481 591.373 463.188 577.152 463.188 577.152C463.188 577.152 480.369 578.231 501.89 563.766C523.41 549.301 518.495 526.597 504.014 427.086Z" fill="#8CE096"/>
<path d="M475.395 170.436L389.49 147.066C366.912 140.923 371.943 395.011 351.947 468.509L307.109 456.31L287.64 527.874L382.959 553.683C407.937 558.67 432.862 543.515 439.649 518.567L515.36 240.272C523.608 209.952 505.716 178.685 475.395 170.436Z" fill="#518FC0"/>
<path d="M207.828 97.3679C177.507 89.1192 146.241 107.012 137.992 137.332L96.8211 288.667C89.4721 291.117 83.4466 297.079 81.2606 305.115L45.3462 437.128C41.873 449.895 49.4068 463.06 62.1733 466.533L104.051 477.926C104.127 477.947 104.203 477.968 104.279 477.988L281.004 526.067C311.325 534.315 342.591 516.423 350.84 486.102L424.517 215.282C432.766 184.961 414.873 153.695 384.552 145.446L207.828 97.3679Z" fill="#518FC0"/>
<path d="M81.3803 305.146C84.8534 292.379 98.0183 284.846 110.785 288.319L310.845 342.745C323.611 346.219 331.145 359.383 327.672 372.15L291.758 504.164C288.284 516.93 275.12 524.464 262.353 520.991L62.293 466.564C49.5265 463.091 41.9927 449.926 45.4658 437.16L81.3803 305.146Z" fill="#518FC0"/>
<path d="M309.87 38.5706C318.301 34.7515 328.96 31.5912 339.465 33.5129C350.611 35.5522 370.076 40.3763 389.128 47.8694C407.769 55.2009 427.771 65.7441 438.129 80.0481C448.029 93.7199 451.633 108.752 445.268 122.244C440.238 132.908 429.791 140.783 415.543 145.863L477.495 162.717C509.855 171.521 529.804 203.311 524.527 235.696C525.05 240.894 525.578 246.781 526.107 253.392C528.208 279.617 534.957 315.61 543.11 355.09C547.203 374.908 553.096 406.165 557.476 434.723C559.665 448.993 561.492 462.691 562.522 473.993C563.037 479.64 563.361 484.784 563.422 489.155C563.481 493.38 563.307 497.41 562.6 500.567C560.595 509.521 558.931 516.417 554.153 525.503C549.54 534.276 542.116 544.933 529.023 562.032C514.399 581.131 497.307 587.121 483.604 587.972C477.154 588.373 471.591 587.632 467.53 586.751C465.381 586.456 463.2 586.028 460.994 585.449C447.831 581.995 436.335 575.833 428.232 570.653C424.153 568.045 420.866 565.642 418.58 563.875C418.3 563.659 418.035 563.451 417.785 563.254L407.772 560.531C399.403 562.874 390.401 563.327 381.392 561.529L381.128 561.476L277.818 533.502L277.82 533.491L102.18 485.708C102.103 485.688 102.027 485.667 101.951 485.646L60.0731 474.252C43.0433 469.619 32.9938 452.058 37.6268 435.029L73.5408 303.015C76.0323 293.857 82.2679 286.724 90.1248 282.805L130.272 135.233C139.681 100.649 175.344 80.2402 209.928 89.6487L293.739 112.449C290.306 105.674 287.013 98.8041 284.696 92.4973C281.143 82.8269 278.607 73.8222 279.871 65.9465C281.028 58.7383 285.066 53.6266 290.885 49.8381C295.345 46.5722 302.11 42.0858 309.87 38.5706ZM338.025 41.3821C322.458 38.5341 304.276 49.9298 295.49 56.3801C285.236 62.8822 285.75 72.1686 292.205 89.7375C296.167 100.521 303.188 113.13 309.138 124.93L207.828 97.3684C177.508 89.1197 146.241 107.012 137.992 137.332L96.8211 288.667C89.4722 291.117 83.4467 297.079 81.2606 305.115L45.3455 437.128C41.8724 449.895 49.4063 463.06 62.1727 466.533L104.051 477.926C104.127 477.947 104.203 477.968 104.279 477.989L281.004 526.067C283.25 526.678 285.501 527.144 287.748 527.474L287.639 527.874L382.959 553.684C391.431 555.375 399.896 554.746 407.65 552.206L421.495 555.973C426.155 559.777 442.649 572.364 463.024 577.711C465.002 578.23 466.959 578.606 468.886 578.859C479.518 581.244 503.081 582.753 522.671 557.169C547.224 525.103 550.502 517.375 554.07 502.004L554.794 498.819C558.62 481.735 544.357 401.386 536.059 360.534L535.275 356.708C527.133 317.279 520.279 280.821 518.133 254.031C517.567 246.966 517.008 240.781 516.458 235.413C521.619 206.917 504.386 178.714 476.103 170.634L475.395 170.437L389.816 147.155C389.472 147.024 389.128 146.896 388.78 146.772C392.854 144.507 397.415 142.631 402.513 141.331L403.373 141.119C440.011 132.348 449.304 109.678 432.061 85.3157L431.649 84.7405C414.406 60.9286 362.822 46.241 340.129 41.7815L338.025 41.3821ZM502.496 287.554C500.655 341.069 500.826 405.182 504.013 427.086C513.107 489.578 518.428 521.779 515.799 540.672C510.506 546.781 501.387 552.787 485.164 549.511C460.053 544.44 444.641 546.009 433.543 546.435L423.743 543.317C430.92 537.357 436.464 529.294 439.317 519.729L439.649 518.567L502.496 287.554ZM447.369 520.667C445.618 527.105 442.827 532.981 439.23 538.166C449.918 537.667 464.975 537.272 486.748 541.669C497.647 543.87 503.66 540.954 507.315 537.859C507.609 537.61 507.888 537.361 508.155 537.114C508.41 534.357 508.518 531.172 508.453 527.458C508.116 508.199 503.397 478.402 496.097 428.238C494.595 417.914 493.765 399.177 493.457 377.04L491.184 359.608L447.369 520.667ZM328.638 66.4534C358.519 74.4817 386.831 88.9258 394.579 98.5833C405.707 112.455 391.789 120 372.119 133.189L371.382 133.698C368.996 135.391 366.618 137.531 364.302 139.937L332.824 131.373C327.86 111.996 319.843 92.4953 317.958 79.7034L317.869 79.0745C317.052 72.9627 322.358 68.9465 328.638 66.4534ZM329.289 74.9299C327.889 75.6566 326.911 76.3719 326.319 76.9934C325.673 77.6723 325.778 77.8578 325.799 78.0149C326.574 83.8183 328.967 91.661 332.073 101.302C334.412 108.56 337.083 116.642 339.364 124.862L362.005 131.021C363.849 129.35 365.74 127.834 367.664 126.544C372.75 123.134 377.074 120.345 380.847 117.655C384.627 114.96 387.217 112.797 388.842 110.915C390.413 109.095 390.526 108.179 390.531 107.856C390.537 107.507 390.437 106.206 388.339 103.59C386.613 101.44 382.561 98.1541 376.014 94.2776C369.679 90.5262 361.652 86.5935 352.664 82.9534C345.266 79.9572 337.336 77.2072 329.289 74.9299Z" fill="white"/>
<path d="M315.732 79.2714C314.117 67.186 336.443 63.2936 342.902 63.1714C335.583 57.8831 308.326 49.2551 297.095 54.5431C283.057 61.1531 282.909 70.4511 290.068 89.935C297.227 109.419 314.377 134.863 317.143 150.727C319.356 163.419 313.103 172.66 309.7 175.694L323.715 186.011C325.014 184.92 328.608 179.856 332.584 168.326C337.555 153.913 317.752 94.3782 315.732 79.2714Z" fill="#518FC0"/>
<path d="M369.985 133.384C354.249 143.935 338.577 174.627 338.577 174.627L355.03 189.083C355.03 189.083 364.312 150.156 401.238 141.315C438.165 132.474 447.314 109.516 429.515 84.9357C411.715 60.3557 357.323 45.4991 335.89 41.5781C319.454 38.5711 300.103 51.4421 291.974 57.6065C290.508 58.7182 291.234 60.8013 293.061 60.9041C332.119 63.1036 381.776 85.4813 392.444 98.7793C403.573 112.651 389.655 120.196 369.985 133.384Z" fill="#8CE096"/>
<path d="M483.024 549.704C509.526 555.056 517.072 535.639 519.943 531.466C522.283 534.703 517.147 552.67 512.12 560.221C505.837 569.658 485.036 584.242 460.884 577.904C436.732 571.566 418.032 555.06 418.032 555.06L429.597 546.688C440.823 546.398 456.522 544.352 483.024 549.704Z" fill="#518FC0"/>
<path d="M370.946 527.392L433.898 547.423L421.967 556.878L362.106 540.593L370.946 527.392Z" fill="#8CE096"/>
<path d="M501.875 427.28C490.29 347.671 482.74 260.018 480.413 226.143C482.763 206.884 499.484 187.254 499.484 187.254C511.829 207.385 513.848 227.433 515.994 254.224C518.14 281.015 524.994 317.473 533.137 356.902C541.279 396.331 556.604 481.378 552.655 499.012C548.705 516.647 546.722 523.159 520.532 557.363C494.342 591.567 461.049 577.346 461.049 577.346C461.049 577.346 478.23 578.426 499.751 563.96C521.271 549.495 516.356 526.791 501.875 427.28Z" fill="#8CE096"/>
<path d="M491.031 344.08C491.758 343.985 492.429 344.459 492.593 345.159L492.619 345.301L503.279 427.079L505.78 444.184C511.359 482.242 515.084 507.561 515.671 525.112C515.697 525.894 515.084 526.549 514.302 526.575C513.52 526.601 512.865 525.988 512.839 525.206C512.176 505.353 507.444 475.384 500.474 427.488L500.472 427.467L489.809 345.668L489.798 345.523C489.777 344.806 490.303 344.175 491.031 344.08Z" fill="#120101"/>
<path d="M473.259 170.63L387.354 147.259C359.504 139.682 334.537 166.373 343.953 193.657L385.459 313.916C387.814 320.737 388.06 328.109 386.165 335.072L349.811 468.702L304.973 456.504L285.504 528.067L380.792 553.99L380.823 553.877C405.801 558.863 430.726 543.708 437.513 518.76L513.224 240.466C521.472 210.145 503.58 178.879 473.259 170.63Z" fill="#518FC0"/>
<path d="M385.348 146.442C414.045 154.249 430.981 183.842 423.174 212.539L347.898 489.237C340.091 517.934 310.497 534.869 281.799 527.062L99.1979 477.385C98.9576 477.32 98.718 477.253 98.4793 477.185L60.0338 466.726C47.2674 463.252 39.7337 450.087 43.2066 437.321L79.121 305.308C81.3067 297.273 87.3307 291.312 94.6782 288.862L136.648 134.591C144.455 105.893 174.049 88.9578 202.746 96.765L385.348 146.442Z" fill="#8CE096"/>
<path d="M79.5792 304.101C82.8664 292.018 95.3266 284.887 107.41 288.175L309.944 343.275C322.028 346.562 329.158 359.022 325.871 371.105L289.283 505.593C285.996 517.677 273.536 524.807 261.453 521.52L58.918 466.42C46.8348 463.133 39.7043 450.673 42.9915 438.589L79.5792 304.101Z" fill="#FF4646"/>
<path d="M262.196 518.785L261.452 521.52L58.9181 466.42L59.662 463.685L262.196 518.785ZM286.549 504.849L323.136 370.361C326.013 359.789 319.773 348.885 309.2 346.009L106.666 290.909C96.0931 288.033 85.1901 294.272 82.3137 304.845L45.7261 439.333C42.8498 449.906 49.0892 460.809 59.662 463.685L58.9181 466.42L58.3557 466.259C46.6147 462.743 39.7556 450.484 42.9915 438.589L79.5791 304.101C82.8151 292.207 94.9396 285.112 106.843 288.029L107.41 288.175L309.944 343.275C322.028 346.562 329.158 359.022 325.871 371.105L289.283 505.593C285.996 517.676 273.536 524.807 261.452 521.52L262.196 518.785C272.769 521.662 283.672 515.422 286.549 504.849Z" fill="#120101"/>
<path d="M443.155 312.075L445.89 312.819L443.885 320.187L443.841 320.325C443.583 320.995 442.854 321.375 442.146 321.183C441.391 320.977 440.945 320.198 441.151 319.443L443.155 312.075ZM453.907 283.351L449.898 298.085L447.164 297.341L451.172 282.607L453.907 283.351ZM461.924 253.882L457.915 268.617L455.18 267.873L459.189 253.138L461.924 253.882ZM465.202 231.037C466.121 227.657 466.688 224.265 466.925 220.9L469.753 221.098C469.503 224.646 468.905 228.221 467.936 231.781L465.932 239.148L463.197 238.404L465.202 231.037ZM456.303 180.988C461.059 186.463 464.704 192.831 467.015 199.705L464.328 200.609C462.135 194.086 458.676 188.042 454.163 182.847L456.303 180.988ZM429.115 163.944C432.675 164.912 436.061 166.208 439.246 167.79L437.986 170.328C434.965 168.828 431.752 167.598 428.371 166.678L419.455 164.253L420.199 161.518L429.115 163.944ZM331.037 137.261L330.293 139.997L321.377 137.571C320.622 137.366 320.176 136.586 320.382 135.831C320.588 135.076 321.366 134.63 322.121 134.836L331.037 137.261ZM366.702 146.964L365.958 149.699L348.126 144.848L348.87 142.113L366.702 146.964ZM402.367 156.667L401.623 159.401L383.79 154.55L384.534 151.815L402.367 156.667Z" fill="#120101"/>
<path d="M346.82 487.823L421.811 212.169C429.413 184.227 412.923 155.412 384.981 147.81L262.655 114.531C261.899 114.326 261.454 113.547 261.659 112.792C261.865 112.037 262.643 111.591 263.399 111.797L385.725 145.076C415.178 153.089 432.559 183.461 424.546 212.913L349.554 488.567C341.429 518.434 310.36 535.807 280.659 527.089L205.57 505.048L205.433 505C204.768 504.729 204.402 503.993 204.609 503.289C204.829 502.538 205.617 502.108 206.368 502.329L281.458 524.369C309.635 532.64 339.111 516.159 346.82 487.823Z" fill="#120101"/>
<path d="M273.021 336.333L107.744 291.37L108.53 288.48L273.807 333.444C286.574 336.917 294.107 350.082 290.634 362.848L254.72 494.862C251.247 507.629 238.082 515.162 225.315 511.689L60.0381 466.725C47.2715 463.252 39.7378 450.087 43.2109 437.321L46.1004 438.107C43.0614 449.278 49.6534 460.797 60.8241 463.836L226.101 508.8C237.272 511.839 248.791 505.247 251.83 494.076L287.745 362.062C290.784 350.892 284.192 339.372 273.021 336.333Z" fill="black"/>
<path d="M435.135 311.664C436.478 306.728 441.568 303.815 446.504 305.158V305.158C451.441 306.501 454.354 311.591 453.011 316.528L445.346 344.701L427.47 339.838L435.135 311.664Z" fill="#FDF8F0"/>
<path d="M450.276 315.784C451.208 312.358 449.186 308.825 445.76 307.893C442.334 306.961 438.801 308.983 437.869 312.408L430.949 337.847L443.355 341.222L450.276 315.784ZM445.346 344.702L427.47 339.839L435.135 311.664C436.478 306.728 441.568 303.815 446.504 305.158C451.441 306.501 454.353 311.591 453.011 316.528L445.346 344.702Z" fill="#120101"/>
<path d="M268.821 371.026L268.078 373.76L97.7336 327.418L98.4775 324.684L268.821 371.026Z" fill="#120101"/>
<path d="M101.173 326.855C103.707 322.903 108.965 321.754 112.917 324.288V324.288C116.869 326.822 118.018 332.08 115.484 336.032L101.02 358.587L86.7095 349.41L101.173 326.855Z" fill="#FDF8F0"/>
<path d="M113.098 334.501C114.787 331.867 114.021 328.362 111.387 326.673C108.753 324.984 105.248 325.75 103.559 328.384L90.6253 348.554L100.165 354.671L113.098 334.501ZM101.021 358.587L86.7094 349.41L101.173 326.854C103.708 322.903 108.965 321.754 112.917 324.288C116.869 326.822 118.019 332.08 115.485 336.032L101.021 358.587Z" fill="#120101"/>
<path d="M178.815 456.621C186.403 486.237 212.187 478.789 206.193 448.462C201.397 424.2 171.227 427.005 178.815 456.621Z" fill="#FDF8F0"/>
<path d="M177.838 438.961C179.839 434.549 183.425 431.821 187.583 431.028C195.936 429.437 205.188 435.687 207.661 448.199C209.19 455.937 208.717 462.327 206.923 467.098C205.134 471.852 201.964 475.138 198.03 476.292C194.043 477.463 189.746 476.309 186.078 473.071C182.427 469.849 179.296 464.504 177.361 456.951C175.419 449.374 175.849 443.346 177.838 438.961ZM188.137 433.647C185.102 434.225 182.268 436.235 180.596 439.92C178.913 443.632 178.416 449.062 180.268 456.293C182.127 463.548 185.064 468.378 188.194 471.141C191.308 473.888 194.506 474.529 197.164 473.749C199.876 472.953 202.502 470.541 204.099 466.295C205.69 462.065 206.192 456.151 204.725 448.726C202.402 436.976 194.171 432.497 188.137 433.647Z" fill="#120101"/>
<path d="M183.711 455.299C179.016 436.973 197.681 435.234 200.654 450.242L193.265 455.942L201.183 456.631C200.536 469.815 187.818 471.328 183.711 455.299Z" fill="#120101"/>
<path d="M183.711 455.299C179.016 436.973 197.681 435.234 200.654 450.242L193.265 455.942L201.183 456.631C200.536 469.815 187.818 471.328 183.711 455.299ZM187.702 458.302C189.674 462.834 192.285 464.094 193.728 464.086C195.015 464.078 197.134 462.94 197.995 459.198L187.702 458.302ZM189.839 443.055C188.55 443.301 187.311 444.142 186.542 445.838C185.798 447.478 185.436 450.082 186.273 453.831L186.457 454.596C186.685 455.486 186.937 456.298 187.204 457.038L197.45 449.135C195.838 444.08 192.138 442.616 189.839 443.055Z" fill="#120101"/>
<path d="M212.385 443.742C219.973 473.358 245.758 465.91 239.763 435.583C234.968 411.321 204.797 414.126 212.385 443.742Z" fill="#FDF8F0"/>
<path d="M211.409 426.081C213.41 421.669 216.995 418.941 221.153 418.148C229.506 416.557 238.758 422.807 241.231 435.319C242.761 443.057 242.288 449.448 240.493 454.218C238.705 458.972 235.534 462.258 231.601 463.412C227.613 464.583 223.317 463.429 219.649 460.191C215.998 456.969 212.866 451.624 210.931 444.071C208.99 436.494 209.419 430.466 211.409 426.081ZM221.707 420.767C218.672 421.345 215.838 423.355 214.167 427.04C212.483 430.752 211.986 436.182 213.839 443.413C215.697 450.668 218.635 455.498 221.765 458.261C224.878 461.008 228.076 461.649 230.734 460.869C233.446 460.073 236.072 457.661 237.669 453.415C239.261 449.185 239.763 443.271 238.295 435.846C235.973 424.096 227.742 419.617 221.707 420.767Z" fill="#120101"/>
<path d="M217.285 442.416C212.59 424.09 231.254 422.351 234.227 437.357L226.835 443.058L234.757 443.747C234.11 456.931 221.392 458.444 217.285 442.416Z" fill="#120101"/>
<path d="M217.284 442.416C212.589 424.09 231.253 422.351 234.227 437.356L226.834 443.058L234.756 443.747C234.109 456.931 221.391 458.444 217.284 442.416ZM221.276 445.42C223.247 449.951 225.859 451.211 227.302 451.202C228.588 451.194 230.707 450.057 231.568 446.315L221.276 445.42ZM223.412 430.171C222.123 430.417 220.884 431.258 220.115 432.954C219.322 434.703 218.964 437.549 220.03 441.712C220.258 442.602 220.509 443.412 220.776 444.152L231.022 436.248C229.41 431.196 225.71 429.732 223.412 430.171Z" fill="#120101"/>
<path d="M194.189 134.202L211.281 159.448L241.277 153.99L227.96 181.415L247.684 204.663L217.274 206.843L207.003 235.548L189.911 210.303L159.916 215.761L173.233 188.335L153.508 165.088L183.918 162.908L194.189 134.202Z" fill="#14141A"/>
</svg>
