<svg width="624" height="624" viewBox="0 0 624 624" fill="none" xmlns="http://www.w3.org/2000/svg">
<path d="M316.297 273.242C305.858 253.23 311.305 228.611 329.213 214.872L366.088 186.581C384.496 172.457 405.222 161.645 427.338 154.628L471.638 140.571C493.152 133.744 516.461 143.362 526.901 163.373C540.257 188.977 527.277 220.435 499.751 229.169L469.649 238.72C448.418 245.457 428.521 255.837 410.849 269.395L385.792 288.62C362.881 306.197 329.654 298.845 316.297 273.242Z" stroke="white" stroke-width="8"/>
<path d="M431.281 527.94C428.158 529.569 424.559 530.097 420.98 529.45L420.75 529.402L420.155 529.292L417.881 528.855C372.253 519.621 327.112 506.729 282.859 490.295C246.35 476.602 207.208 458.794 172.803 436.19C-10.7408 315.509 105.688 116.926 301.055 278.315C259.12 11.2427 510.064 46.5693 503.935 263.443C502.79 304.593 495.001 346.885 485.331 384.64C474.235 427.523 460.133 469.268 443.134 509.547C441.676 512.996 440.537 515.635 439.717 517.463L438.413 520.356C436.895 523.661 434.403 526.311 431.281 527.94Z" fill="#F04343"/>
<path d="M308.97 128.87C327.902 95.552 357.888 79.9856 389.428 81.407C452.066 84.2303 515.071 152.601 511.932 263.669C510.764 305.615 502.838 348.53 493.081 386.625L493.078 386.635L493.076 386.643C481.884 429.899 467.657 472.014 450.505 512.657L450.503 512.661C449.038 516.126 447.872 518.828 447.017 520.736L447.014 520.744L447.01 520.751L445.706 523.644L445.694 523.669L445.684 523.693C443.452 528.555 439.732 532.554 434.982 535.033C430.23 537.512 424.821 538.274 419.557 537.323L419.447 537.303L419.339 537.28L419.191 537.249L418.7 537.159L418.672 537.153L418.644 537.148L416.369 536.711L416.331 536.703L416.294 536.695C370.254 527.377 324.711 514.371 280.074 497.794L280.062 497.79L280.05 497.785C243.215 483.97 203.481 465.917 168.41 442.876L168.408 442.874C74.9371 381.416 53.927 296.941 88.2423 246.949C105.349 222.028 135.367 207.601 173.277 209.941C207.012 212.023 246.932 227.308 290.516 259.853C284.155 202.011 292.085 158.585 308.97 128.87ZM503.935 263.443C510.064 46.5692 259.12 11.2429 301.055 278.315C105.688 116.926 -10.7405 315.509 172.803 436.189C207.208 458.793 246.35 476.602 282.859 490.295C327.112 506.729 372.254 519.62 417.881 528.854L420.155 529.292L420.75 529.402L420.98 529.45C424.335 530.056 427.708 529.631 430.69 528.233L431.281 527.94C434.209 526.413 436.582 523.988 438.117 520.968L438.413 520.355L439.718 517.463C440.538 515.635 441.676 512.996 443.134 509.547C459.601 470.527 473.352 430.131 484.282 388.657L485.331 384.639C495.001 346.884 502.789 304.593 503.935 263.443Z" fill="white"/>
<path d="M383.358 285.445C362.418 301.511 332.051 294.791 319.844 271.392V271.392C310.302 253.102 315.281 230.602 331.648 218.045L368.522 189.755C386.563 175.914 406.874 165.318 428.548 158.44L472.848 144.383C492.51 138.144 513.813 146.934 523.354 165.223V165.223C535.561 188.623 523.698 217.373 498.542 225.356L468.44 234.907C446.766 241.785 426.455 252.381 408.414 266.222L383.358 285.445Z" fill="#EDB798"/>
<path d="M350.932 178.957C334.866 158.018 341.586 127.65 364.985 115.443V115.443C383.275 105.902 405.775 110.881 418.332 127.247L446.622 164.122C460.463 182.162 471.059 202.474 477.937 224.147L491.994 268.448C498.233 288.11 489.443 309.412 471.154 318.953V318.953C447.754 331.161 419.004 319.298 411.021 294.141L401.469 264.039C394.592 242.366 383.996 222.054 370.155 204.014L350.932 178.957Z" fill="#EED0BF"/>
<path d="M431.695 171.609C418.089 174.768 398.34 186.3 386.95 194.473C383.253 197.127 383.054 202.335 385.833 205.939C392.843 215.032 399.175 226.752 403.456 235.767C405.645 240.374 411.457 242.112 415.78 239.404C430.146 230.408 444.587 223.243 455.089 218.932C459.122 217.276 461.399 212.819 459.869 208.738C452.746 189.742 444.189 179.615 438.03 173.52C436.354 171.862 433.991 171.076 431.695 171.609Z" fill="#D6AC93"/>
<path d="M367.783 201.769C375.241 209.638 392.19 231.232 400.594 255.049L396.822 256.38C388.667 233.269 372.107 212.144 364.881 204.521L367.783 201.769Z" fill="black"/>
<rect x="356.262" y="147.533" width="11.197" height="11.197" rx="5.59851" transform="rotate(-27.5504 356.262 147.533)" fill="#D6AC93"/>
<rect x="437.977" y="292.062" width="11.197" height="11.197" rx="5.59851" transform="rotate(-27.5504 437.977 292.062)" fill="#D6AC93"/>
<rect x="372.984" y="167.486" width="11.197" height="11.741" rx="5.59851" transform="rotate(-27.5504 372.984 167.486)" fill="#D6AC93"/>
<rect x="429.992" y="264.652" width="11.197" height="11.197" rx="5.59851" transform="rotate(-27.5504 429.992 264.652)" fill="#D6AC93"/>
<rect x="382.469" y="130.967" width="11.197" height="11.197" rx="5.59851" transform="rotate(-27.5504 382.469 130.967)" fill="#D6AC93"/>
<rect x="465.367" y="277.771" width="11.197" height="11.197" rx="5.59851" transform="rotate(-27.5504 465.367 277.771)" fill="#D6AC93"/>
<rect x="397.805" y="154.539" width="11.197" height="11.741" rx="5.59851" transform="rotate(-27.5504 397.805 154.539)" fill="#D6AC93"/>
<rect x="454.809" y="251.707" width="11.197" height="11.197" rx="5.59851" transform="rotate(-27.5504 454.809 251.707)" fill="#D6AC93"/>
<path d="M145.864 252.888C160.658 255.658 167.147 273.211 157.711 284.939C149.356 295.322 146.469 306.438 142.508 319.04C139.514 328.563 129.792 334.268 120.018 332.237C86.5655 325.286 114.42 246.999 145.864 252.888Z" fill="#FFC9C9"/>
<path d="M435.339 144.112C465.956 176.83 481.472 221.706 485.431 240.129L481.521 240.97C477.656 222.985 462.38 178.863 432.419 146.845L435.339 144.112Z" fill="black"/>
</svg>
