<svg width="800" height="800" viewBox="0 0 800 800" fill="none" xmlns="http://www.w3.org/2000/svg">
<path d="M623.336 322.896C599.209 280.362 679.148 190.725 722.133 151.224C667.951 191.891 541.331 271.748 468.307 265.835C395.284 259.922 352.06 104.514 348.893 87.1599C344.627 112.291 339.716 285.319 279.664 299.496C219.612 313.673 74.1458 280.513 8.91899 262.162C56.8878 292.409 154.143 361.335 159.413 395.057C164.684 428.78 87.6837 460.331 48.5249 471.891C84.0745 466.362 159.606 466.185 177.333 509.714C195.06 553.244 116.1 642.152 74.4044 681.165C138.172 646.491 279.037 575.069 332.361 566.775C385.686 558.48 436.653 698.197 447.984 721.19C446.6 700.68 445.285 558.882 510.998 538.989C576.711 519.095 722.792 551.526 787.618 570.227C740.368 535.838 644.707 459.641 640.069 429.965C635.431 400.289 714.806 372.283 755.073 361.99C721.213 366.681 647.462 365.43 623.336 322.896Z" fill="#5735FF"/>
<path d="M331.744 562.822C346.985 560.452 361.395 568.746 374.139 581.324C386.983 593.999 398.922 611.779 409.401 630.281C423.718 655.559 435.753 683.079 443.614 701.339C443.807 683.076 445.261 656.089 450.399 629.107C454.295 608.648 460.352 587.956 469.736 571.025C479.122 554.09 492.058 540.542 509.836 535.16C526.856 530.008 548.797 528.31 572.913 528.848C597.086 529.389 623.712 532.185 650.234 536.179C693.198 542.651 736.069 552.296 768.107 560.717C746.106 544.078 719.037 522.526 695.205 501.315C679.949 487.737 665.941 474.229 655.425 462.195C650.168 456.179 645.723 450.462 642.421 445.235C639.161 440.072 636.821 435.088 636.117 430.58C634.647 421.174 639.943 412.613 647.681 405.354C655.518 398.002 666.668 391.192 678.958 385.123C692.361 378.505 707.412 372.63 721.618 367.812C709.88 367.599 697.204 366.515 684.786 364.077C658.713 358.958 632.79 347.669 619.856 324.867C613.025 312.823 613.818 297.927 618.737 282.468C623.678 266.939 632.99 250.147 644.265 233.663C656.913 215.172 672.197 196.832 686.998 180.781C662.862 196.774 633.953 214.303 604.108 229.558C580.208 241.775 555.63 252.574 532.367 259.953C509.154 267.315 486.981 271.359 467.987 269.821C448.312 268.228 431.048 256.606 416.339 240.564C401.603 224.494 389.057 203.59 378.807 182.536C365.691 155.594 356.174 128.053 350.588 109.351C350.057 115.205 349.443 121.935 348.702 129.347C346.699 149.371 343.794 173.936 339.127 198.194C334.469 222.407 328.013 246.544 318.82 265.61C309.7 284.524 297.413 299.415 280.587 303.388C264.999 307.068 244.182 307.625 220.959 306.216C197.667 304.802 171.664 301.39 145.567 296.97C104.904 290.083 63.8647 280.723 32.243 272.57C53.8916 287.056 79.7444 305.503 102.704 324.206C118.261 336.879 132.582 349.744 143.381 361.631C148.781 367.574 153.362 373.341 156.786 378.775C160.184 384.17 162.588 389.467 163.366 394.442C164.949 404.576 160.257 414.041 152.793 422.339C145.301 430.668 134.537 438.381 122.631 445.249C109.205 452.994 94.0321 459.829 79.8082 465.365C92.7549 465.177 106.831 465.984 120.335 468.472C146.225 473.242 171.368 484.464 181.038 508.208C186.031 520.468 184.034 535.357 178.345 550.768C172.618 566.284 162.897 583.014 151.432 599.425C135.005 622.94 114.768 646.121 96.8967 664.598C127.549 648.435 166.964 628.456 205.607 610.452C230.578 598.818 255.265 587.99 277.079 579.542C298.82 571.123 317.961 564.966 331.744 562.822ZM332.979 570.726C320.1 572.73 301.635 578.613 279.974 587.001C258.386 595.361 233.873 606.11 208.991 617.703C159.229 640.887 108.146 667.372 76.318 684.679L71.67 678.244C92.383 658.863 122.342 627.092 144.873 594.842C156.144 578.707 165.445 562.61 170.84 547.994C176.273 533.273 177.499 520.725 173.628 511.22C165.571 491.435 144.084 480.981 118.89 476.339C93.9056 471.736 66.6052 473.127 49.1424 475.843L47.3895 468.055C66.7844 462.33 95.5048 451.659 118.629 438.32C130.208 431.64 140.156 424.421 146.842 416.988C153.556 409.525 156.512 402.4 155.461 395.672C154.921 392.216 153.133 387.983 150.017 383.035C146.925 378.127 142.669 372.74 137.46 367.007C127.043 355.541 113.064 342.961 97.6525 330.406C66.8436 305.309 30.6777 280.609 6.78629 265.544L10.0001 258.312C42.5052 267.457 95.0385 280.3 146.898 289.084C172.828 293.475 198.528 296.842 221.438 298.232C244.419 299.626 264.304 299.011 278.742 295.603C291.942 292.487 302.789 280.434 311.613 262.133C320.363 243.984 326.662 220.634 331.271 196.677C335.871 172.765 338.747 148.475 340.741 128.545C342.712 108.838 343.853 92.9464 344.949 86.4884L352.828 86.4449C354.345 94.7561 365.827 137.599 386.001 179.039C396.082 199.746 408.231 219.888 422.236 235.161C436.268 250.464 451.791 260.486 468.628 261.849C486.145 263.267 507.184 259.547 529.943 252.328C552.652 245.126 576.807 234.527 600.463 222.435C647.779 198.249 692.786 168.248 719.73 148.025L724.841 154.169C703.49 173.79 672.987 205.846 650.87 238.181C639.802 254.362 630.968 270.422 626.362 284.898C621.734 299.442 621.583 311.701 626.815 320.924C638.008 340.656 661.024 351.261 686.323 356.228C711.484 361.168 737.929 360.327 754.521 358.028L756.066 365.865C736.092 370.971 706.469 380.463 682.506 392.296C670.499 398.224 660.157 404.623 653.158 411.189C646.059 417.849 643.173 423.918 644.022 429.35C644.477 432.261 646.142 436.15 649.185 440.968C652.188 445.722 656.346 451.096 661.448 456.934C671.649 468.607 685.378 481.863 700.523 495.342C730.799 522.287 766.417 549.851 789.972 566.994L786.512 574.07C754.235 564.758 701.682 552.018 649.047 544.09C622.732 540.126 596.465 537.376 572.74 536.846C548.958 536.315 527.996 538.023 512.16 542.817C497.082 547.382 485.54 559.018 476.734 574.906C467.926 590.798 462.076 610.567 458.26 630.608C450.627 670.688 451.3 710.909 451.976 720.924L444.396 722.956C438.412 710.814 423.259 670.978 402.44 634.219C392.095 615.954 380.586 598.922 368.521 587.015C356.358 575.01 344.4 568.95 332.979 570.726Z" fill="white"/>
<path d="M377.106 166.524C378.937 161.075 382.203 156.227 387.746 153.936C393.482 151.565 398.808 153.107 403.136 156.46C407.29 159.678 410.776 164.7 413.654 170.127C415.206 173.053 416.635 176.204 417.937 179.434C418.671 176.925 419.76 174.509 421.37 172.451C424.127 168.928 428.177 166.765 433.513 166.729C439.573 166.689 444.2 170.323 448.259 176.105C452.287 181.841 456.351 190.51 461.188 202.306C466.052 214.169 471.841 229.567 479.253 248.928C485.707 265.789 493.417 285.721 502.872 309.1C508.189 292.986 516.66 278.517 533.687 267.33C547.092 258.523 558.675 259.659 565.884 265.68C569.33 268.558 571.582 272.44 572.33 276.393C573.076 280.337 572.353 284.689 569.318 287.9C549.497 308.869 549.543 330.227 552.487 350.881C553.93 361.004 556.232 371.701 556.878 381.266C557.486 390.26 556.742 399.135 552.377 407.235C556.31 413.873 559.963 419.133 564.847 423.898C570.203 429.122 577.222 433.924 588.062 439.148L591.152 440.637L590.155 443.913C577.303 486.1 544.546 518.094 501.892 529.55L500.622 529.891L499.397 529.414C428.019 501.628 378.348 435.895 350.231 375.454C336.15 345.185 327.359 316.004 323.95 293.192C322.249 281.807 321.86 271.822 322.92 264.004C323.943 256.46 326.487 249.728 331.857 246.636L332.275 246.411C334.374 245.357 336.612 245.378 338.644 246.202C340.608 246.998 342.243 248.476 343.579 250.031C345.059 251.756 346.484 253.954 347.846 256.44C346.868 247.387 346.283 238.723 346.109 230.805C345.888 220.754 346.325 211.778 347.502 204.676C348.091 201.127 348.882 197.938 349.923 195.272C350.944 192.661 352.329 190.229 354.299 188.544C356.188 186.928 358.291 185.865 360.579 185.515C362.871 185.165 365.051 185.574 367.014 186.428C370.177 187.806 372.936 190.405 375.279 193.332C375.021 190.539 374.855 187.745 374.811 185.01C374.704 178.449 375.281 171.954 377.106 166.524Z" fill="url(#paint0_linear_1126_4994)" stroke="white" stroke-width="8"/>
<path d="M385.127 214.442C385.273 215.012 385.447 216.18 385.659 217.69C385.877 219.251 386.162 221.384 386.517 223.948C387.231 229.106 388.25 236.175 389.693 244.699C392.578 261.75 397.16 284.619 404.385 309.641L400.537 310.744C393.259 285.537 388.648 262.513 385.745 245.36C384.293 236.782 383.269 229.671 382.552 224.491C382.191 221.886 381.913 219.81 381.693 218.239C381.466 216.617 381.325 215.726 381.249 215.428L385.127 214.442Z" fill="black"/>
<path d="M423.148 202.499C425.789 220.475 433.801 264.267 444.697 295.698L440.913 297.002C429.894 265.216 421.839 221.133 419.186 203.075L423.148 202.499Z" fill="black"/>
<path d="M462.56 343.64C475.575 331.437 491.487 324.071 502.23 321.005L503.334 324.848C493.091 327.771 477.774 334.86 465.302 346.554C452.867 358.214 443.349 374.353 444.309 395.507L440.309 395.684C439.283 373.077 449.509 355.877 462.56 343.64Z" fill="black"/>
<path d="M367.189 351.099C375.629 335.062 407.69 301.505 469.249 292.117L469.857 296.067C409.467 305.277 378.543 338.122 370.734 352.962L367.189 351.099Z" fill="black"/>
<path d="M140.129 349.142C141.481 346.262 144.05 344.274 147.24 342.967C153.159 340.544 159.978 340.301 166.843 341.283C173.737 342.268 180.964 344.529 187.909 347.419C189.852 348.228 191.782 349.091 193.688 349.995C191.705 347.003 190.16 343.759 190.059 340.602C189.985 338.322 190.664 336.054 192.383 334.191C194.011 332.425 196.274 331.346 198.797 330.699C204.197 329.314 210.907 330.28 217.669 332.236C224.568 334.231 232.118 337.437 239.494 341.152C247.06 344.962 254.577 349.377 261.18 353.712C260.824 352.845 260.514 351.988 260.263 351.149C259.363 348.136 258.728 343.59 262.132 340.466C263.734 338.995 265.802 338.3 267.955 338.052C270.106 337.804 272.62 337.966 275.485 338.466C289.461 340.904 313.705 351.127 339.25 366.083C364.896 381.098 392.377 401.187 412.733 423.744C461.715 478.02 471.459 521.182 468.486 545.931L468.316 547.35L467.283 548.339C442.129 572.399 414.662 583.947 391.686 588.459C380.207 590.714 369.817 591.22 361.355 590.638C353.032 590.067 346.162 588.415 342.006 586.014L341.27 585.589L340.77 584.902C323.339 560.941 305.855 547.75 287.75 540.82C269.578 533.864 250.385 533.06 229.216 534.558C220.917 535.146 213.568 535.023 207.413 534.246C201.321 533.477 196.12 532.035 192.325 529.784C188.47 527.498 185.566 524.017 185.584 519.33C185.602 514.967 188.19 510.806 192.054 507.01C202.501 496.745 218.611 492.318 233.531 490.956C241.237 490.252 248.877 490.344 255.637 490.971C250.927 487.512 245.217 483.467 238.811 478.989C224.923 469.281 208.074 457.735 192.198 446.313C176.341 434.905 161.266 423.486 150.913 413.982C145.771 409.262 141.568 404.813 139.049 400.929C137.797 398.999 136.774 396.928 136.415 394.832C136.032 392.595 136.402 390.165 138.161 388.181C141.633 384.266 146.538 382.759 151.484 382.487C154.883 382.3 158.519 382.678 162.165 383.395C158.38 380.372 154.793 377.267 151.644 374.196C146.212 368.897 141.554 363.204 139.859 357.869C138.976 355.091 138.778 352.024 140.129 349.142Z" fill="#FFA9A9" stroke="white" stroke-width="8"/>
<path d="M271.197 361.767C271.198 361.768 271.2 361.769 271.203 361.771C271.208 361.775 271.215 361.781 271.224 361.789C271.244 361.805 271.274 361.828 271.312 361.859C271.389 361.921 271.504 362.013 271.654 362.134C271.954 362.376 272.396 362.733 272.965 363.195C274.103 364.117 275.751 365.458 277.786 367.13C281.856 370.475 287.483 375.148 293.709 380.464C306.14 391.079 321.037 404.32 330.686 414.669L327.757 417.39C318.277 407.223 303.535 394.11 291.108 383.5C284.906 378.204 279.299 373.547 275.243 370.215C273.215 368.549 271.575 367.214 270.443 366.296C269.877 365.837 269.438 365.483 269.141 365.243C268.992 365.123 268.879 365.032 268.803 364.971C268.765 364.941 268.736 364.918 268.717 364.902C268.708 364.895 268.7 364.889 268.696 364.885C268.694 364.884 268.692 364.882 268.691 364.881L268.689 364.88C268.689 364.879 268.711 364.852 269.942 363.322C271.135 361.839 271.192 361.769 271.195 361.766L271.197 361.767Z" fill="black"/>
<path d="M217.226 366.174C227.663 373.363 244.557 385.598 261.349 398.958C278.112 412.296 294.891 426.847 305.016 438.657L301.975 441.254C292.116 429.754 275.597 415.403 258.855 402.083C242.143 388.786 225.325 376.607 214.955 369.463L217.226 366.174Z" fill="black"/>
<path d="M187.169 395.002C202.564 404.277 241.479 430.256 274.26 460.147L271.561 463.096C239.03 433.432 200.345 407.606 185.103 398.424L187.169 395.002Z" fill="black"/>
<path d="M356.243 280.067C357.094 286.233 363.773 313.715 369.351 328.571L365.603 329.971C359.933 314.871 353.172 287.101 352.277 280.608L356.243 280.067Z" fill="black"/>
<path d="M206.489 340.633C211.026 338.02 216.621 339.395 221.084 341.515C225.652 343.683 229.783 346.975 231.88 349.385L233.339 351.061L231.517 352.333C230.186 353.261 228.521 354.909 226.89 356.824C225.277 358.719 223.797 360.755 222.82 362.368L221.721 364.182L219.972 362.978C216.636 360.683 211.247 356.879 207.61 353.064C205.829 351.197 204.217 349.075 203.671 346.935C203.383 345.81 203.369 344.585 203.875 343.403C204.38 342.224 205.307 341.314 206.489 340.633ZM208.493 344.095C207.86 344.459 207.641 344.782 207.556 344.978C207.474 345.171 207.426 345.464 207.551 345.953C207.829 347.041 208.817 348.536 210.509 350.31C213.303 353.239 217.337 356.25 220.554 358.513C221.508 357.124 222.645 355.635 223.839 354.234C224.968 352.908 226.191 351.606 227.395 350.524C225.445 348.736 222.534 346.627 219.368 345.123C215.162 343.126 211.221 342.524 208.493 344.095Z" fill="black"/>
<path d="M154.96 352.587C156.955 350.601 159.668 349.948 162.404 349.976C165.141 350.004 168.138 350.711 171.049 351.718C176.88 353.735 182.818 357.117 186.518 359.616L188.147 360.716L175.986 379.386L174.299 378.25C170.102 375.426 163.714 371.152 159.129 366.815C156.857 364.666 154.843 362.333 153.831 360.004C153.315 358.817 153.012 357.524 153.16 356.203C153.312 354.844 153.925 353.617 154.96 352.587ZM162.367 353.972C160.235 353.95 158.746 354.465 157.788 355.418C157.347 355.857 157.183 356.261 157.139 356.651C157.091 357.079 157.173 357.657 157.504 358.417C158.185 359.985 159.714 361.864 161.882 363.915C165.638 367.469 170.764 371.038 174.847 373.8L182.628 361.853C179.142 359.659 174.362 357.092 169.742 355.493C167.037 354.558 164.499 353.994 162.367 353.972Z" fill="black"/>
<path d="M148.902 394.402C150.434 393.096 152.497 392.563 154.526 392.393C156.591 392.219 158.882 392.4 161.128 392.756C165.623 393.467 170.248 394.928 173.153 396.061L175.929 397.142L173.88 399.298C172.812 400.421 171.102 402.439 169.526 404.765C167.929 407.123 166.586 409.625 166.084 411.744L165.472 414.318L163.159 413.025C159.879 411.191 155.173 408.179 151.797 405.099C150.137 403.585 148.614 401.893 147.839 400.181C147.442 399.304 147.179 398.288 147.319 397.223C147.465 396.107 148.027 395.146 148.902 394.402ZM154.865 396.375C153.202 396.515 152.116 396.919 151.502 397.442C151.303 397.611 151.294 397.704 151.289 397.745C151.277 397.838 151.281 398.084 151.487 398.537C151.916 399.486 152.94 400.73 154.496 402.149C156.917 404.358 160.188 406.598 163.01 408.311C163.837 406.288 165.018 404.282 166.21 402.524C167.134 401.159 168.102 399.892 168.985 398.815C166.495 397.996 163.45 397.169 160.506 396.703C158.434 396.375 156.491 396.239 154.865 396.375Z" fill="black"/>
<path d="M194.387 527.576C195.907 521.368 200.873 518.183 205.938 516.524C210.989 514.869 216.581 514.571 220.129 514.39L222.433 514.273L221.003 530.265L217.015 529.906L218.032 518.515C214.743 518.73 210.772 519.148 207.19 520.322C202.733 521.782 199.323 524.249 198.276 528.528L194.387 527.576Z" fill="black"/>
<defs>
<linearGradient id="paint0_linear_1126_4994" x1="381.233" y1="332.628" x2="267.914" y2="509.751" gradientUnits="userSpaceOnUse">
<stop stop-color="#EEA795"/>
<stop offset="1" stop-color="#886055"/>
</linearGradient>
</defs>
</svg>
