<svg width="174" height="172" viewBox="0 0 174 172" fill="none" xmlns="http://www.w3.org/2000/svg"><rect width="174" height="172" rx="24" fill="#303038"/><path d="M27.144 26.832H31.9325V31.5655H27.144V26.832ZM31.9325 26.832H36.721V31.5655H31.9325V26.832ZM36.721 26.832H41.5095V31.5655H36.721V26.832ZM41.5095 26.832H46.298V31.5655H41.5095V26.832ZM46.298 26.832H51.0864V31.5655H46.298V26.832ZM51.0864 26.832H55.8749V31.5655H51.0864V26.832ZM55.8749 26.832H60.6634V31.5655H55.8749V26.832ZM79.8173 26.832H84.6058V31.5655H79.8173V26.832ZM94.1828 26.832H98.9712V31.5655H94.1828V26.832ZM98.9712 26.832H103.76V31.5655H98.9712V26.832ZM103.76 26.832H108.548V31.5655H103.76V26.832ZM113.337 26.832H118.125V31.5655H113.337V26.832ZM118.125 26.832H122.914V31.5655H118.125V26.832ZM122.914 26.832H127.702V31.5655H122.914V26.832ZM127.702 26.832H132.491V31.5655H127.702V26.832ZM132.491 26.832H137.279V31.5655H132.491V26.832ZM137.279 26.832H142.068V31.5655H137.279V26.832ZM142.068 26.832H146.856V31.5655H142.068V26.832ZM27.144 31.5655H31.9325V36.2989H27.144V31.5655ZM55.8749 31.5655H60.6634V36.2989H55.8749V31.5655ZM70.2404 31.5655H75.0288V36.2989H70.2404V31.5655ZM89.3943 31.5655H94.1828V36.2989H89.3943V31.5655ZM94.1828 31.5655H98.9712V36.2989H94.1828V31.5655ZM103.76 31.5655H108.548V36.2989H103.76V31.5655ZM113.337 31.5655H118.125V36.2989H113.337V31.5655ZM142.068 31.5655H146.856V36.2989H142.068V31.5655ZM27.144 36.2989H31.9325V41.0324H27.144V36.2989ZM36.721 36.2989H41.5095V41.0324H36.721V36.2989ZM41.5095 36.2989H46.298V41.0324H41.5095V36.2989ZM46.298 36.2989H51.0864V41.0324H46.298V36.2989ZM55.8749 36.2989H60.6634V41.0324H55.8749V36.2989ZM70.2404 36.2989H75.0288V41.0324H70.2404V36.2989ZM75.0288 36.2989H79.8173V41.0324H75.0288V36.2989ZM84.6058 36.2989H89.3943V41.0324H84.6058V36.2989ZM94.1828 36.2989H98.9712V41.0324H94.1828V36.2989ZM98.9712 36.2989H103.76V41.0324H98.9712V36.2989ZM113.337 36.2989H118.125V41.0324H113.337V36.2989ZM122.914 36.2989H127.702V41.0324H122.914V36.2989ZM127.702 36.2989H132.491V41.0324H127.702V36.2989ZM132.491 36.2989H137.279V41.0324H132.491V36.2989ZM142.068 36.2989H146.856V41.0324H142.068V36.2989ZM27.144 41.0324H31.9325V45.7658H27.144V41.0324ZM36.721 41.0324H41.5095V45.7658H36.721V41.0324ZM41.5095 41.0324H46.298V45.7658H41.5095V41.0324ZM46.298 41.0324H51.0864V45.7658H46.298V41.0324ZM55.8749 41.0324H60.6634V45.7658H55.8749V41.0324ZM65.4519 41.0324H70.2404V45.7658H65.4519V41.0324ZM70.2404 41.0324H75.0288V45.7658H70.2404V41.0324ZM84.6058 41.0324H89.3943V45.7658H84.6058V41.0324ZM94.1828 41.0324H98.9712V45.7658H94.1828V41.0324ZM98.9712 41.0324H103.76V45.7658H98.9712V41.0324ZM113.337 41.0324H118.125V45.7658H113.337V41.0324ZM122.914 41.0324H127.702V45.7658H122.914V41.0324ZM127.702 41.0324H132.491V45.7658H127.702V41.0324ZM132.491 41.0324H137.279V45.7658H132.491V41.0324ZM142.068 41.0324H146.856V45.7658H142.068V41.0324ZM27.144 45.7658H31.9325V50.4992H27.144V45.7658ZM36.721 45.7658H41.5095V50.4992H36.721V45.7658ZM41.5095 45.7658H46.298V50.4992H41.5095V45.7658ZM46.298 45.7658H51.0864V50.4992H46.298V45.7658ZM55.8749 45.7658H60.6634V50.4992H55.8749V45.7658ZM75.0288 45.7658H79.8173V50.4992H75.0288V45.7658ZM79.8173 45.7658H84.6058V50.4992H79.8173V45.7658ZM84.6058 45.7658H89.3943V50.4992H84.6058V45.7658ZM89.3943 45.7658H94.1828V50.4992H89.3943V45.7658ZM94.1828 45.7658H98.9712V50.4992H94.1828V45.7658ZM113.337 45.7658H118.125V50.4992H113.337V45.7658ZM122.914 45.7658H127.702V50.4992H122.914V45.7658ZM127.702 45.7658H132.491V50.4992H127.702V45.7658ZM132.491 45.7658H137.279V50.4992H132.491V45.7658ZM142.068 45.7658H146.856V50.4992H142.068V45.7658ZM27.144 50.4992H31.9325V55.2327H27.144V50.4992ZM55.8749 50.4992H60.6634V55.2327H55.8749V50.4992ZM65.4519 50.4992H70.2404V55.2327H65.4519V50.4992ZM79.8173 50.4992H84.6058V55.2327H79.8173V50.4992ZM103.76 50.4992H108.548V55.2327H103.76V50.4992ZM113.337 50.4992H118.125V55.2327H113.337V50.4992ZM142.068 50.4992H146.856V55.2327H142.068V50.4992ZM27.144 55.2327H31.9325V59.9661H27.144V55.2327ZM31.9325 55.2327H36.721V59.9661H31.9325V55.2327ZM36.721 55.2327H41.5095V59.9661H36.721V55.2327ZM41.5095 55.2327H46.298V59.9661H41.5095V55.2327ZM46.298 55.2327H51.0864V59.9661H46.298V55.2327ZM51.0864 55.2327H55.8749V59.9661H51.0864V55.2327ZM55.8749 55.2327H60.6634V59.9661H55.8749V55.2327ZM65.4519 55.2327H70.2404V59.9661H65.4519V55.2327ZM75.0288 55.2327H79.8173V59.9661H75.0288V55.2327ZM84.6058 55.2327H89.3943V59.9661H84.6058V55.2327ZM94.1828 55.2327H98.9712V59.9661H94.1828V55.2327ZM103.76 55.2327H108.548V59.9661H103.76V55.2327ZM113.337 55.2327H118.125V59.9661H113.337V55.2327ZM118.125 55.2327H122.914V59.9661H118.125V55.2327ZM122.914 55.2327H127.702V59.9661H122.914V55.2327ZM127.702 55.2327H132.491V59.9661H127.702V55.2327ZM132.491 55.2327H137.279V59.9661H132.491V55.2327ZM137.279 55.2327H142.068V59.9661H137.279V55.2327ZM142.068 55.2327H146.856V59.9661H142.068V55.2327ZM65.4519 59.9661H70.2404V64.6996H65.4519V59.9661ZM70.2404 59.9661H75.0288V64.6996H70.2404V59.9661ZM75.0288 59.9661H79.8173V64.6996H75.0288V59.9661ZM94.1828 59.9661H98.9712V64.6996H94.1828V59.9661ZM98.9712 59.9661H103.76V64.6996H98.9712V59.9661ZM103.76 59.9661H108.548V64.6996H103.76V59.9661ZM31.9325 64.6996H36.721V69.433H31.9325V64.6996ZM36.721 64.6996H41.5095V69.433H36.721V64.6996ZM55.8749 64.6996H60.6634V69.433H55.8749V64.6996ZM89.3943 64.6996H94.1828V69.433H89.3943V64.6996ZM94.1828 64.6996H98.9712V69.433H94.1828V64.6996ZM103.76 64.6996H108.548V69.433H103.76V64.6996ZM113.337 64.6996H118.125V69.433H113.337V64.6996ZM118.125 64.6996H122.914V69.433H118.125V64.6996ZM127.702 64.6996H132.491V69.433H127.702V64.6996ZM31.9325 69.433H36.721V74.1664H31.9325V69.433ZM36.721 69.433H41.5095V74.1664H36.721V69.433ZM46.298 69.433H51.0864V74.1664H46.298V69.433ZM60.6634 69.433H65.4519V74.1664H60.6634V69.433ZM75.0288 69.433H79.8173V74.1664H75.0288V69.433ZM79.8173 69.433H84.6058V74.1664H79.8173V69.433ZM84.6058 69.433H89.3943V74.1664H84.6058V69.433ZM89.3943 69.433H94.1828V74.1664H89.3943V69.433ZM94.1828 69.433H98.9712V74.1664H94.1828V69.433ZM98.9712 69.433H103.76V74.1664H98.9712V69.433ZM103.76 69.433H108.548V74.1664H103.76V69.433ZM113.337 69.433H118.125V74.1664H113.337V69.433ZM118.125 69.433H122.914V74.1664H118.125V69.433ZM127.702 69.433H132.491V74.1664H127.702V69.433ZM137.279 69.433H142.068V74.1664H137.279V69.433ZM142.068 69.433H146.856V74.1664H142.068V69.433ZM55.8749 74.1664H60.6634V78.8999H55.8749V74.1664ZM79.8173 74.1664H84.6058V78.8999H79.8173V74.1664ZM98.9712 74.1664H103.76V78.8999H98.9712V74.1664ZM108.548 74.1664H113.337V78.8999H108.548V74.1664ZM118.125 74.1664H122.914V78.8999H118.125V74.1664ZM127.702 74.1664H132.491V78.8999H127.702V74.1664ZM132.491 74.1664H137.279V78.8999H132.491V74.1664ZM142.068 74.1664H146.856V78.8999H142.068V74.1664ZM27.144 78.8999H31.9325V83.6333H27.144V78.8999ZM31.9325 78.8999H36.721V83.6333H31.9325V78.8999ZM46.298 78.8999H51.0864V83.6333H46.298V78.8999ZM60.6634 78.8999H65.4519V83.6333H60.6634V78.8999ZM70.2404 78.8999H75.0288V83.6333H70.2404V78.8999ZM75.0288 78.8999H79.8173V83.6333H75.0288V78.8999ZM89.3943 78.8999H94.1828V83.6333H89.3943V78.8999ZM98.9712 78.8999H103.76V83.6333H98.9712V78.8999ZM108.548 78.8999H113.337V83.6333H108.548V78.8999ZM118.125 78.8999H122.914V83.6333H118.125V78.8999ZM127.702 78.8999H132.491V83.6333H127.702V78.8999ZM27.144 83.6333H31.9325V88.3668H27.144V83.6333ZM31.9325 83.6333H36.721V88.3668H31.9325V83.6333ZM41.5095 83.6333H46.298V88.3668H41.5095V83.6333ZM55.8749 83.6333H60.6634V88.3668H55.8749V83.6333ZM60.6634 83.6333H65.4519V88.3668H60.6634V83.6333ZM65.4519 83.6333H70.2404V88.3668H65.4519V83.6333ZM70.2404 83.6333H75.0288V88.3668H70.2404V83.6333ZM75.0288 83.6333H79.8173V88.3668H75.0288V83.6333ZM89.3943 83.6333H94.1828V88.3668H89.3943V83.6333ZM98.9712 83.6333H103.76V88.3668H98.9712V83.6333ZM103.76 83.6333H108.548V88.3668H103.76V83.6333ZM113.337 83.6333H118.125V88.3668H113.337V83.6333ZM118.125 83.6333H122.914V88.3668H118.125V83.6333ZM142.068 83.6333H146.856V88.3668H142.068V83.6333ZM36.721 88.3668H41.5095V93.1002H36.721V88.3668ZM41.5095 88.3668H46.298V93.1002H41.5095V88.3668ZM46.298 88.3668H51.0864V93.1002H46.298V88.3668ZM75.0288 88.3668H79.8173V93.1002H75.0288V88.3668ZM79.8173 88.3668H84.6058V93.1002H79.8173V88.3668ZM84.6058 88.3668H89.3943V93.1002H84.6058V88.3668ZM98.9712 88.3668H103.76V93.1002H98.9712V88.3668ZM103.76 88.3668H108.548V93.1002H103.76V88.3668ZM113.337 88.3668H118.125V93.1002H113.337V88.3668ZM118.125 88.3668H122.914V93.1002H118.125V88.3668ZM137.279 88.3668H142.068V93.1002H137.279V88.3668ZM142.068 88.3668H146.856V93.1002H142.068V88.3668ZM27.144 93.1002H31.9325V97.8336H27.144V93.1002ZM31.9325 93.1002H36.721V97.8336H31.9325V93.1002ZM41.5095 93.1002H46.298V97.8336H41.5095V93.1002ZM51.0864 93.1002H55.8749V97.8336H51.0864V93.1002ZM55.8749 93.1002H60.6634V97.8336H55.8749V93.1002ZM65.4519 93.1002H70.2404V97.8336H65.4519V93.1002ZM70.2404 93.1002H75.0288V97.8336H70.2404V93.1002ZM75.0288 93.1002H79.8173V97.8336H75.0288V93.1002ZM84.6058 93.1002H89.3943V97.8336H84.6058V93.1002ZM98.9712 93.1002H103.76V97.8336H98.9712V93.1002ZM103.76 93.1002H108.548V97.8336H103.76V93.1002ZM113.337 93.1002H118.125V97.8336H113.337V93.1002ZM127.702 93.1002H132.491V97.8336H127.702V93.1002ZM132.491 93.1002H137.279V97.8336H132.491V93.1002ZM142.068 93.1002H146.856V97.8336H142.068V93.1002ZM36.721 97.8336H41.5095V102.567H36.721V97.8336ZM41.5095 97.8336H46.298V102.567H41.5095V97.8336ZM46.298 97.8336H51.0864V102.567H46.298V97.8336ZM60.6634 97.8336H65.4519V102.567H60.6634V97.8336ZM75.0288 97.8336H79.8173V102.567H75.0288V97.8336ZM94.1828 97.8336H98.9712V102.567H94.1828V97.8336ZM98.9712 97.8336H103.76V102.567H98.9712V97.8336ZM103.76 97.8336H108.548V102.567H103.76V97.8336ZM108.548 97.8336H113.337V102.567H108.548V97.8336ZM113.337 97.8336H118.125V102.567H113.337V97.8336ZM118.125 97.8336H122.914V102.567H118.125V97.8336ZM122.914 97.8336H127.702V102.567H122.914V97.8336ZM127.702 97.8336H132.491V102.567H127.702V97.8336ZM27.144 102.567H31.9325V107.301H27.144V102.567ZM31.9325 102.567H36.721V107.301H31.9325V102.567ZM36.721 102.567H41.5095V107.301H36.721V102.567ZM46.298 102.567H51.0864V107.301H46.298V102.567ZM55.8749 102.567H60.6634V107.301H55.8749V102.567ZM65.4519 102.567H70.2404V107.301H65.4519V102.567ZM79.8173 102.567H84.6058V107.301H79.8173V102.567ZM103.76 102.567H108.548V107.301H103.76V102.567ZM108.548 102.567H113.337V107.301H108.548V102.567ZM113.337 102.567H118.125V107.301H113.337V102.567ZM118.125 102.567H122.914V107.301H118.125V102.567ZM122.914 102.567H127.702V107.301H122.914V102.567ZM137.279 102.567H142.068V107.301H137.279V102.567ZM65.4519 107.301H70.2404V112.034H65.4519V107.301ZM70.2404 107.301H75.0288V112.034H70.2404V107.301ZM75.0288 107.301H79.8173V112.034H75.0288V107.301ZM79.8173 107.301H84.6058V112.034H79.8173V107.301ZM89.3943 107.301H94.1828V112.034H89.3943V107.301ZM94.1828 107.301H98.9712V112.034H94.1828V107.301ZM103.76 107.301H108.548V112.034H103.76V107.301ZM122.914 107.301H127.702V112.034H122.914V107.301ZM142.068 107.301H146.856V112.034H142.068V107.301ZM27.144 112.034H31.9325V116.767H27.144V112.034ZM31.9325 112.034H36.721V116.767H31.9325V112.034ZM36.721 112.034H41.5095V116.767H36.721V112.034ZM41.5095 112.034H46.298V116.767H41.5095V112.034ZM46.298 112.034H51.0864V116.767H46.298V112.034ZM51.0864 112.034H55.8749V116.767H51.0864V112.034ZM55.8749 112.034H60.6634V116.767H55.8749V112.034ZM75.0288 112.034H79.8173V116.767H75.0288V112.034ZM79.8173 112.034H84.6058V116.767H79.8173V112.034ZM94.1828 112.034H98.9712V116.767H94.1828V112.034ZM103.76 112.034H108.548V116.767H103.76V112.034ZM113.337 112.034H118.125V116.767H113.337V112.034ZM122.914 112.034H127.702V116.767H122.914V112.034ZM142.068 112.034H146.856V116.767H142.068V112.034ZM27.144 116.767H31.9325V121.501H27.144V116.767ZM55.8749 116.767H60.6634V121.501H55.8749V116.767ZM70.2404 116.767H75.0288V121.501H70.2404V116.767ZM75.0288 116.767H79.8173V121.501H75.0288V116.767ZM84.6058 116.767H89.3943V121.501H84.6058V116.767ZM89.3943 116.767H94.1828V121.501H89.3943V116.767ZM103.76 116.767H108.548V121.501H103.76V116.767ZM122.914 116.767H127.702V121.501H122.914V116.767ZM137.279 116.767H142.068V121.501H137.279V116.767ZM27.144 121.501H31.9325V126.234H27.144V121.501ZM36.721 121.501H41.5095V126.234H36.721V121.501ZM41.5095 121.501H46.298V126.234H41.5095V121.501ZM46.298 121.501H51.0864V126.234H46.298V121.501ZM55.8749 121.501H60.6634V126.234H55.8749V121.501ZM70.2404 121.501H75.0288V126.234H70.2404V121.501ZM75.0288 121.501H79.8173V126.234H75.0288V121.501ZM94.1828 121.501H98.9712V126.234H94.1828V121.501ZM98.9712 121.501H103.76V126.234H98.9712V121.501ZM103.76 121.501H108.548V126.234H103.76V121.501ZM108.548 121.501H113.337V126.234H108.548V121.501ZM113.337 121.501H118.125V126.234H113.337V121.501ZM118.125 121.501H122.914V126.234H118.125V121.501ZM122.914 121.501H127.702V126.234H122.914V121.501ZM137.279 121.501H142.068V126.234H137.279V121.501ZM142.068 121.501H146.856V126.234H142.068V121.501ZM27.144 126.234H31.9325V130.968H27.144V126.234ZM36.721 126.234H41.5095V130.968H36.721V126.234ZM41.5095 126.234H46.298V130.968H41.5095V126.234ZM46.298 126.234H51.0864V130.968H46.298V126.234ZM55.8749 126.234H60.6634V130.968H55.8749V126.234ZM70.2404 126.234H75.0288V130.968H70.2404V126.234ZM75.0288 126.234H79.8173V130.968H75.0288V126.234ZM79.8173 126.234H84.6058V130.968H79.8173V126.234ZM84.6058 126.234H89.3943V130.968H84.6058V126.234ZM98.9712 126.234H103.76V130.968H98.9712V126.234ZM108.548 126.234H113.337V130.968H108.548V126.234ZM122.914 126.234H127.702V130.968H122.914V126.234ZM132.491 126.234H137.279V130.968H132.491V126.234ZM137.279 126.234H142.068V130.968H137.279V126.234ZM27.144 130.968H31.9325V135.701H27.144V130.968ZM36.721 130.968H41.5095V135.701H36.721V130.968ZM41.5095 130.968H46.298V135.701H41.5095V130.968ZM46.298 130.968H51.0864V135.701H46.298V130.968ZM55.8749 130.968H60.6634V135.701H55.8749V130.968ZM65.4519 130.968H70.2404V135.701H65.4519V130.968ZM89.3943 130.968H94.1828V135.701H89.3943V130.968ZM94.1828 130.968H98.9712V135.701H94.1828V130.968ZM98.9712 130.968H103.76V135.701H98.9712V130.968ZM103.76 130.968H108.548V135.701H103.76V130.968ZM108.548 130.968H113.337V135.701H108.548V130.968ZM118.125 130.968H122.914V135.701H118.125V130.968ZM122.914 130.968H127.702V135.701H122.914V130.968ZM127.702 130.968H132.491V135.701H127.702V130.968ZM137.279 130.968H142.068V135.701H137.279V130.968ZM142.068 130.968H146.856V135.701H142.068V130.968ZM27.144 135.701H31.9325V140.435H27.144V135.701ZM55.8749 135.701H60.6634V140.435H55.8749V135.701ZM65.4519 135.701H70.2404V140.435H65.4519V135.701ZM70.2404 135.701H75.0288V140.435H70.2404V135.701ZM75.0288 135.701H79.8173V140.435H75.0288V135.701ZM89.3943 135.701H94.1828V140.435H89.3943V135.701ZM103.76 135.701H108.548V140.435H103.76V135.701ZM108.548 135.701H113.337V140.435H108.548V135.701ZM113.337 135.701H118.125V140.435H113.337V135.701ZM118.125 135.701H122.914V140.435H118.125V135.701ZM122.914 135.701H127.702V140.435H122.914V135.701ZM27.144 140.435H31.9325V145.168H27.144V140.435ZM31.9325 140.435H36.721V145.168H31.9325V140.435ZM36.721 140.435H41.5095V145.168H36.721V140.435ZM41.5095 140.435H46.298V145.168H41.5095V140.435ZM46.298 140.435H51.0864V145.168H46.298V140.435ZM51.0864 140.435H55.8749V145.168H51.0864V140.435ZM55.8749 140.435H60.6634V145.168H55.8749V140.435ZM75.0288 140.435H79.8173V145.168H75.0288V140.435ZM84.6058 140.435H89.3943V145.168H84.6058V140.435ZM103.76 140.435H108.548V145.168H103.76V140.435ZM113.337 140.435H118.125V145.168H113.337V140.435ZM127.702 140.435H132.491V145.168H127.702V140.435ZM142.068 140.435H146.856V145.168H142.068V140.435Z" fill="white"/></svg>