<svg width="773" height="649" viewBox="0 0 773 649" fill="none" xmlns="http://www.w3.org/2000/svg"><path d="M662.679 211.361L658.563 215.438L658.306 215.553C655.574 218.239 652.841 220.926 650.109 223.612C627.698 246.279 605.193 268.909 582.932 291.739C582.568 292.133 582.24 292.434 581.841 292.921C576.398 298.516 570.078 304.734 563.98 310.931C559.921 315.136 555.863 319.341 551.955 323.71C551.955 323.71 551.955 323.71 551.919 323.803C551.156 324.684 550.429 325.472 549.666 326.353C548.646 327.348 547.754 328.287 546.734 329.283C545.714 330.279 544.694 331.274 543.767 332.306C543.603 332.456 543.439 332.607 543.275 332.757C532.768 343.238 522.168 353.683 511.718 364.293C479.349 397.117 447.13 430.105 414.854 462.965C403.349 474.663 391.901 486.49 380.396 498.188C378.484 500.123 376.701 501.999 374.79 503.934C373.898 504.872 373.078 505.624 372.514 506.262C371.565 507.072 370.616 507.881 369.667 508.691C369.667 508.691 369.632 508.784 369.539 508.749C364.222 512.899 358.796 515.942 353.238 517.655C347.645 519.461 341.827 519.903 335.948 518.829C331.851 518.116 327.789 517.31 323.784 516.632C323.691 516.596 323.691 516.597 323.598 516.561C321.503 516.187 319.407 515.812 317.441 515.38C315.567 514.984 313.564 514.645 311.691 514.249C303.252 512.623 294.942 510.94 286.503 509.314C247.814 501.777 209.11 494.555 170.527 486.739C147.971 482.169 124.948 479.66 103.214 472.101C99.1532 461.809 101.64 451.674 110.187 443.535C112.027 441.787 113.903 439.945 115.78 438.104C134.111 419.421 360.202 190.104 388.433 161.134C398.39 150.976 407.729 139.09 421.48 141.04C431.913 142.469 651.397 190.955 663.023 195.398C665.813 196.464 667.933 198.447 668.963 201.612C670.093 205.348 662.679 211.361 662.679 211.361Z" fill="#403F42"/><path d="M384.023 529.42C382.877 528.236 382.328 519.073 381.889 511.017L380.396 498.188C380.396 498.188 380.396 498.189 380.489 498.225C380.582 498.26 380.546 498.353 380.604 498.482C382.098 501.824 383.817 526.89 383.966 529.292L384.023 529.42Z" fill="#67676A"/><path d="M363.818 488.017C359.251 491.601 354.631 494.206 349.809 495.668C344.951 497.222 340.02 497.576 334.921 496.694C331.417 496.101 154.866 464.127 137.102 457.339C127.894 453.82 134.574 438.572 141.279 432.181C142.92 430.677 372.523 198.864 397.563 175.177C416.261 157.487 413.936 156.598 425.977 158.002C434.979 158.991 623.203 200.861 633.155 204.664C635.573 205.588 639.635 206.394 638.249 210.021C635.597 216.682 363.946 487.96 363.818 488.017Z" fill="#14141A"/><path d="M315.568 544.829C266.229 535.035 216.713 525.706 167.21 516.062C151.148 512.908 135.121 509.662 118.952 506.787C112.037 505.637 107.997 501.428 106.693 493.682C105.491 486.507 104.324 479.24 103.122 472.065C124.856 479.625 147.879 482.134 170.435 486.703C209.018 494.519 247.722 501.741 286.411 509.278C294.85 510.904 303.16 512.588 311.599 514.214L311.213 514.386L315.568 544.829Z" fill="#2E2E2F"/><path d="M548.794 361.832C540.956 370.348 428.014 485.153 387.892 525.994C386.672 527.233 385.302 528.308 384.118 529.454C382.972 528.27 382.423 519.107 381.984 511.052C381.635 505.269 381.331 499.93 380.699 498.516C380.641 498.387 380.641 498.387 380.584 498.259C380.584 498.259 380.582 498.26 380.489 498.225C380.489 498.225 380.489 498.224 380.396 498.188C393.321 485.007 511.307 365.094 540.837 335.235C540.837 335.235 541.037 334.992 541.4 334.598C541.565 334.447 541.729 334.297 541.893 334.146C544.097 332.004 545.68 330.371 546.572 329.433L548.794 361.832Z" fill="#212122"/><path d="M540.837 335.235C540.837 335.235 571.943 303.207 583.027 291.775C605.288 268.944 627.791 246.314 650.109 223.612L662.679 211.361L662.977 246.009C637.092 272.464 614.71 295.888 588.445 321.665C575.02 334.761 556.46 356.554 542.26 368.609L540.837 335.235Z" fill="#212122"/><path d="M670.05 238.373L666.307 242.592L666.271 242.685L663.09 246.266L663.068 246.044L658.399 215.587C658.399 215.587 667.588 207.162 668.963 201.612C671.88 208.482 671.625 219.469 672.207 230.777C672.303 232.199 672.637 234.672 670.05 238.373Z" fill="#414147"/><path d="M384.023 529.42C369.157 547.402 352.498 552.226 333.596 548.414C327.568 547.176 321.632 545.974 315.568 544.829L315.474 544.793L311.12 514.35L311.505 514.177C313.379 514.574 315.381 514.912 317.255 515.309C319.35 515.683 321.41 516.15 323.413 516.489C323.506 516.525 323.505 516.525 323.598 516.561C327.66 517.367 331.758 518.08 335.763 518.757C340.799 520.362 346.816 519.677 353.053 517.583C358.646 515.777 364.072 512.734 369.353 508.677C369.353 508.677 369.389 508.584 369.482 508.619C373.428 505.544 377.109 502.048 380.175 498.21L381.668 511.038C382.422 519.107 382.877 528.236 384.023 529.42Z" fill="#414147"/><path d="M199.742 492.573L201.652 522.721L315.66 544.864L311.505 514.177L199.742 492.573Z" fill="#212122"/><path d="M660.192 213.958C649.645 224.474 583.062 302.602 582.421 302.602C576.979 308.197 578.657 310.175 572.558 316.372C568.5 320.577 558.436 324.913 554.528 329.282C554.528 329.282 551.955 323.709 551.919 323.802C551.156 324.683 553.728 328.551 552.965 329.432C551.945 330.428 547.754 328.286 546.734 329.282C545.714 330.278 544.694 331.274 543.767 332.305C543.603 332.456 543.439 332.606 543.275 332.757C504.319 386.772 458.5 426.093 415.781 469.585C404.276 481.283 391.901 486.49 380.396 498.188C378.484 500.122 376.701 501.999 374.79 503.933C373.898 504.871 373.078 505.624 372.514 506.261C371.565 507.071 370.616 507.881 369.667 508.691C369.667 508.691 369.632 508.784 369.539 508.748C358.219 517.585 323.598 516.56 323.598 516.56C321.503 516.186 319.407 515.812 317.441 515.38C315.567 514.984 313.564 514.645 311.691 514.249C303.252 512.623 294.942 510.939 286.503 509.313C247.814 501.776 209.11 494.554 170.527 486.738C147.971 482.169 124.948 479.66 103.214 472.1C99.1532 461.808 101.64 451.673 110.187 443.534C112.027 441.786 113.903 439.945 115.78 438.104C134.111 419.421 360.202 190.103 388.433 161.134C398.39 150.976 407.729 139.089 421.48 141.04C431.913 142.468 651.397 190.955 663.023 195.398C665.813 196.464 667.933 198.447 668.963 201.611C670.093 205.347 660.192 213.958 660.192 213.958Z" fill="#403F42"/><path d="M384.023 529.42C382.877 528.236 382.328 519.072 381.889 511.017L380.396 498.188C380.396 498.188 380.396 498.189 380.489 498.224C384.099 499.604 383.709 525.13 383.966 529.291L384.023 529.42Z" fill="#67676A"/><path d="M363.818 488.017C359.251 491.601 354.631 494.206 349.809 495.667C344.951 497.222 340.02 497.576 334.921 496.693C331.417 496.1 154.866 464.127 137.102 457.338C127.894 453.82 134.574 438.572 141.279 432.181C142.92 430.676 372.523 198.863 397.563 175.176C416.261 157.486 413.936 156.598 425.977 158.002C434.979 158.99 623.203 200.86 633.155 204.663C635.573 205.587 639.635 206.394 638.249 210.021C635.597 216.682 363.946 487.959 363.818 488.017Z" fill="#14141A"/><path d="M315.568 544.829C266.229 535.034 216.713 525.705 167.21 516.061C151.148 512.908 135.121 509.661 118.952 506.787C112.037 505.636 107.997 501.427 106.693 493.681C105.491 486.507 104.324 479.239 103.122 472.065C124.856 479.624 147.879 482.133 170.435 486.703C209.018 494.519 247.722 501.741 286.411 509.278C294.85 510.904 303.16 512.587 311.599 514.213L311.213 514.385L315.568 544.829Z" fill="#2E2E2F"/><path d="M548.794 361.831C540.956 370.348 428.014 485.153 387.892 525.993C386.672 527.232 385.302 528.308 384.118 529.454C382.972 528.27 382.423 519.107 381.984 511.051C381.461 502.371 380.736 499.209 380.489 498.224C380.489 498.224 381.819 499.188 380.396 498.188C393.321 485.007 511.307 365.093 540.837 335.235C540.837 335.235 541.037 334.991 541.4 334.597C541.565 334.447 541.729 334.296 541.893 334.146C544.097 332.004 545.68 330.37 546.572 329.432L548.794 361.831Z" fill="#212122"/><path d="M540.837 335.235C580.357 294.543 620.071 254.061 660.192 213.958L663.668 245.186C637.784 271.641 614.71 295.888 588.445 321.665C575.02 334.761 556.46 356.554 542.26 368.608L540.837 335.235Z" fill="#212122"/><path d="M670.05 238.373L663.668 245.186L660.192 213.958C660.192 213.958 667.588 207.161 668.963 201.611C671.88 208.482 671.625 219.469 672.207 230.776C672.303 232.199 672.637 234.671 670.05 238.373Z" fill="#414147"/><path d="M384.023 529.42C369.157 547.402 352.498 552.225 333.596 548.413C327.568 547.175 321.632 545.974 315.568 544.829L315.474 544.792L311.12 514.349L311.505 514.177C313.379 514.573 315.381 514.912 317.255 515.308C319.35 515.682 321.41 516.15 323.413 516.489C323.506 516.524 323.505 516.525 323.598 516.56C323.598 516.56 358.321 516.489 369.353 508.676C369.353 508.676 369.389 508.583 369.482 508.619C373.428 505.544 377.109 502.047 380.175 498.209C382.253 501.761 383.581 514.67 384.023 529.42Z" fill="#414147"/><path d="M199.742 492.572L201.652 522.72L315.66 544.863L311.505 514.177L199.742 492.572Z" fill="#212122"/><path d="M401.728 144.151C407.388 139.88 413.945 136.948 421.886 138.069L421.887 138.067C424.646 138.445 440.497 141.784 462.623 146.579C484.855 151.396 513.638 157.732 542.457 164.161C571.275 170.589 600.136 177.113 622.522 182.308C633.714 184.906 643.297 187.174 650.45 188.932C657.483 190.661 662.42 191.956 664.094 192.595C667.628 193.946 670.433 196.542 671.779 200.578C673.4 204.469 674.079 209.295 674.452 214.307C674.826 219.334 674.921 225.139 675.202 230.602C675.247 231.242 675.389 232.588 675.087 234.254C674.775 235.975 674.029 237.918 672.51 240.091L672.387 240.267L672.24 240.423L665.857 247.237L665.836 247.261L665.813 247.284C639.964 273.702 616.841 298.001 590.547 323.806L590.54 323.812C583.888 330.301 575.969 338.941 567.827 347.584C559.854 356.049 551.673 364.506 544.5 370.637C518.372 397.581 425.556 491.936 390.032 528.095L390.03 528.097C389.339 528.8 388.62 529.44 387.976 530.008C387.306 530.598 386.733 531.097 386.204 531.609L385.668 532.126C378.151 540.997 370.064 546.815 361.327 549.916C352.329 553.111 342.872 553.345 333.003 551.354L332.993 551.352C328.363 550.401 323.798 549.474 319.19 548.578L319.194 548.606L315.089 547.808L206.473 526.712C193.199 524.156 179.92 521.594 166.637 519.006L166.633 519.005C150.547 515.847 134.562 512.609 118.428 509.741L118.428 509.74C114.474 509.076 111.101 507.491 108.534 504.764C105.98 502.051 104.454 498.455 103.734 494.179L103.734 494.177C103.132 490.584 102.539 486.968 101.947 483.359C101.355 479.748 100.763 476.142 100.163 472.561L100.15 472.48C95.9997 461.198 98.9629 450.081 108.118 441.362L108.121 441.359C109.935 439.636 111.787 437.818 113.66 435.979C132.173 417.112 358.064 187.998 386.284 159.041L386.291 159.034C391.092 154.136 396.192 148.328 401.728 144.151Z" stroke="white" stroke-width="6"/><path d="M493.042 316.654L341.56 280.724C329.923 277.982 325.818 263.623 334.099 255.062L408.4 178.892C413.315 173.842 420.494 171.789 427.325 173.44L581.46 209.958C593.097 212.7 597.203 227.059 588.922 235.619L516.403 309.913C510.34 316.016 501.467 318.595 493.042 316.654Z" fill="#8787FF"/><path d="M331.201 476.3L181.262 443.304C171.021 441.096 167.347 428.394 174.759 420.994L241.215 356.428C247.442 350.174 256.501 347.667 265.019 349.643L415.363 384.925C425.534 387.319 429.078 400.079 421.516 407.315L355.098 469.55C348.814 475.676 339.848 478.219 331.201 476.3Z" fill="#FFBFEF"/><path d="M495.811 314.828L455.692 350.238L442.557 361.74C442.1 362.098 441.643 362.457 441.187 362.815C437.453 365.332 430.744 366.712 422.376 364.9L230.57 316.225C218.906 311.596 218.839 298.193 224.673 291.295C223.126 296.459 226.05 304.905 232.844 306.648L424.333 353.923C431.128 355.667 438.187 354.208 442.839 350.123L447.983 345.587L461.718 333.355L493.546 305.014C497.285 301.646 495.12 295.596 489.641 294.035C499.908 295.703 498.953 312.095 495.811 314.828Z" fill="#8DD04B"/><path d="M461.346 345.182L442.464 361.705C443.014 361.383 442.007 362.064 442.464 361.705L442.464 349.617L461.346 333.214L461.346 345.182Z" fill="#7EBB43"/><path d="M461.403 333.343L488.508 309.272L483.183 325.997L461.403 345.183L461.403 333.343Z" fill="#8DD04B"/><path d="M442.557 349.298L442.556 361.741C437.975 365.64 431.487 366.998 423.084 365.279L423.997 353.854C432.685 355.349 436.848 353.854 442.557 349.298Z" fill="#BAF57F"/><path d="M423.998 353.747L282.203 318.903L281.067 329.128L423.085 365.279L423.998 353.747Z" fill="#77BB35"/><path d="M590.091 303.963L588.157 302.052C585.678 299.612 585.656 295.766 588.095 293.288L614.179 266.589C616.619 264.11 620.465 264.088 622.943 266.527L624.878 268.439C627.356 270.878 627.379 274.724 624.939 277.203L598.855 303.901C596.451 306.287 592.57 306.403 590.091 303.963Z" fill="#646466"/><path d="M493.359 304.944L447.704 345.482C440.727 351.633 434.02 356.393 424.053 353.818L232.565 306.543C225.734 304.892 222.161 298.624 223.615 293.424L224.042 292.307C224.526 291.32 225.196 290.403 226.145 289.594L273.933 247.1C277.344 244.033 282.431 242.993 287.423 244.154L489.14 293.952L489.233 293.987C494.84 295.491 497.098 301.576 493.359 304.944Z" fill="#AFF26D"/><path d="M281.025 509.387C289.388 510.809 309.456 514.072 322.823 515.743C339.532 517.831 360.939 519.398 385.48 494.858C405.112 475.225 641.08 233.994 651.349 223.029" stroke="black" stroke-width="2"/><path d="M519.63 488.708L519.707 488.86C520.017 489.553 519.835 490.364 519.275 490.859L500.454 502.225C499.654 502.682 498.641 502.43 498.149 501.671L486.915 483.069C486.702 482.686 486.641 482.236 486.746 481.809C486.839 481.432 487.054 481.099 487.357 480.861L487.492 480.765L506.086 469.536C506.836 469.108 507.777 469.302 508.299 469.967L508.397 470.107L519.63 488.708ZM589.036 434.742C589.279 435.144 589.514 435.548 589.743 435.955L589.741 435.956C592.185 440.057 593.848 444.574 594.65 449.278L594.641 449.28C595.53 454.124 595.659 459.076 595.025 463.959C594.395 468.627 592.851 473.125 590.481 477.196L590.391 477.336L590.358 477.387L590.329 477.438C588.15 481.296 584.854 484.795 580.627 487.353L579.845 487.826C575.581 490.223 570.772 491.488 565.876 491.492L565.613 491.489C563.354 491.345 561.124 490.889 558.989 490.137L558.957 490.126L558.914 490.109L558.87 490.096C556.994 489.502 555.098 488.755 553.249 487.876L553.096 487.798L553.094 487.797C551.735 487.093 549.883 486.078 547.529 484.748L547.522 484.745C544.732 483.184 541.607 482.317 538.412 482.216L538.405 482.216L538.393 482.214C535.872 481.936 533.321 482.332 531.003 483.364L530.964 483.381L530.927 483.399L530.874 483.425L530.814 483.456L530.756 483.49C530.213 483.806 529.579 483.927 528.958 483.833L528.779 485.02L528.757 483.812C528.572 483.804 528.392 483.751 528.232 483.659C528.075 483.568 527.941 483.442 527.842 483.291L516.632 464.728C516.582 464.618 516.559 464.497 516.569 464.376C516.577 464.277 516.605 464.181 516.652 464.093L516.731 464.015L516.869 463.756L517.028 463.481C517.362 462.944 517.799 462.479 518.314 462.112L518.578 461.937L522.069 459.828C526.237 457.439 531.15 456.704 535.835 457.769L536.211 456.186L535.944 457.789C540.999 458.63 545.82 460.524 550.096 463.348L550.253 463.463C552.933 465.481 556.001 466.924 559.265 467.699L559.364 467.724L559.465 467.738C562.445 468.158 565.475 467.461 567.971 465.781L567.97 465.779C569.382 464.808 570.529 463.5 571.304 461.971C572.08 460.441 572.459 458.74 572.407 457.025L572.406 456.966C572.583 453.15 571.588 449.369 569.549 446.136L569.541 446.123C567.668 442.764 564.826 440.047 561.384 438.328L561.385 438.327L561.313 438.292L560.699 439.539L561.135 438.225C556.519 436.691 551.743 435.688 546.9 435.235L546.884 435.233L546.867 435.232L546.673 435.216C546.436 435.195 546.207 435.12 546.005 434.996C545.811 434.877 545.648 434.715 545.524 434.525C545.333 434.165 545.237 433.763 545.248 433.355L547.258 414.803L547.262 414.78L547.263 414.756C547.297 414.358 547.484 413.988 547.785 413.726L547.815 413.7C548.118 413.447 548.502 413.312 548.896 413.319L548.942 411.923L548.995 413.318C564.91 412.705 580.378 420.405 589.036 434.742Z" fill="#FFBFEF" stroke="white" stroke-width="4"/><path d="M291.268 157.942C293.182 157.489 295.114 158.483 295.885 160.232L305.136 194.757C305.631 196.84 304.413 198.942 302.383 199.55L268.359 208.667C267.36 208.901 266.308 208.746 265.419 208.234C264.528 207.72 263.867 206.887 263.569 205.904L254.445 171.854C253.953 169.776 255.167 167.68 257.208 167.068L291.268 157.942ZM238.53 25.8158C239.267 25.6185 240.004 25.4335 240.741 25.2608L240.742 25.2636C248.357 23.2709 256.273 22.7032 264.092 23.585L264.091 23.6023C272.176 24.4131 280.084 26.4815 287.53 29.7321C294.63 32.8772 301.042 37.3888 306.401 43.0092L306.6 43.238L306.64 43.283L306.681 43.3254C311.845 48.5977 315.911 55.4796 318.043 63.4069L318.418 64.8037C320.333 72.8989 320.087 81.3615 317.695 89.3426L317.693 89.3422C316.418 92.8873 314.661 96.2407 312.473 99.3081L312.414 99.3887L312.387 99.4263L312.362 99.4644C310.559 102.167 308.507 104.829 306.267 107.355L306.062 107.571L306.06 107.573C304.34 109.385 301.919 111.821 298.789 114.887L298.783 114.892C295.244 118.388 292.598 122.684 291.066 127.417L291.064 127.424L291.045 127.479C289.545 131.086 289.034 135.029 289.568 138.9L289.574 138.942L289.581 138.982L289.598 139.076L289.61 139.143L289.626 139.208C289.943 140.467 289.82 141.796 289.277 142.975L290.327 143.458L289.202 143.155C289.043 143.627 288.774 144.053 288.416 144.398C288.058 144.743 287.622 144.998 287.145 145.139L253.175 154.241C252.75 154.318 252.312 154.279 251.907 154.127C251.53 153.985 251.195 153.749 250.933 153.444L250.862 153.314L250.65 153.109C249.513 152.002 248.688 150.612 248.262 149.083L246.561 142.737C244.625 134.864 245.727 126.551 249.649 119.455L248.299 118.692L249.697 119.361C253.354 111.718 258.578 104.93 265.029 99.4387L265.309 99.2231L265.308 99.2224C269.522 96.0631 273.036 92.0654 275.627 87.4796L275.678 87.3911L275.721 87.2978C277.588 83.134 277.848 78.4265 276.452 74.082L276.45 74.0828C275.64 71.6519 274.235 69.4621 272.361 67.714C270.483 65.9613 268.194 64.7083 265.706 64.0701L265.614 64.0463C259.971 62.1067 253.867 61.9537 248.133 63.6115C242.285 64.9475 236.978 68.0232 232.912 72.4326L232.911 72.4319L232.824 72.5291L233.584 73.2222L232.743 72.6446C228.338 79.053 224.676 85.9421 221.829 93.179L221.823 93.1947L221.817 93.2095L221.705 93.5084C221.496 94.0493 221.164 94.5345 220.736 94.9247C220.318 95.3044 219.82 95.5832 219.279 95.7425C218.385 95.9435 217.453 95.8972 216.583 95.6098L188.611 84.129L188.569 84.1122L188.4 84.043C187.575 83.6793 186.907 83.0268 186.524 82.2053L186.494 82.1416L186.486 82.1294C186.108 81.2713 186.051 80.3042 186.33 79.4072L185.143 79.0216L186.353 79.3222C192.656 53.8927 211.899 32.9515 238.53 25.8158Z" fill="#DCDCF2" stroke="white" stroke-width="4"/><path d="M169.268 226.657C169.831 225.395 171.205 224.74 172.51 225.046L198.985 235.931C200.377 236.543 201.038 238.138 200.501 239.54L189.764 265.657C189.467 266.318 188.931 266.842 188.262 267.122C187.593 267.402 186.843 267.415 186.165 267.161L160.014 256.41C158.64 255.798 157.984 254.222 158.514 252.816L169.268 226.657ZM59.2684 195.955C59.5009 195.389 59.7408 194.829 59.9897 194.275L59.9924 194.276C62.411 188.489 65.879 183.202 70.2176 178.676L70.2279 178.684C74.6399 173.965 79.7594 169.962 85.4022 166.817C90.8376 163.825 96.81 161.936 102.978 161.256L103.199 161.242L103.257 161.238L103.316 161.231C109.129 160.511 115.433 161.259 121.468 163.733L122.543 164.175C128.568 166.865 133.784 171.091 137.668 176.437L137.667 176.438C139.293 178.954 140.564 181.682 141.446 184.545L141.461 184.596L141.474 184.64L141.489 184.683C142.33 187.133 143.025 189.722 143.542 192.365L143.578 192.587L143.578 192.588C143.896 194.561 144.271 197.287 144.703 200.776L144.703 200.785C145.219 204.808 146.695 208.65 149.005 211.984L149.01 211.989L149.024 212.011C150.63 214.781 152.946 217.074 155.734 218.651L155.771 218.671L155.807 218.69L155.875 218.725L155.935 218.756L155.997 218.782C156.872 219.158 157.592 219.822 158.038 220.663L159.079 220.111L158.139 220.834C158.327 221.112 158.446 221.432 158.484 221.766C158.523 222.099 158.48 222.438 158.361 222.752L147.64 248.828C147.515 249.071 147.327 249.277 147.095 249.423C146.884 249.555 146.643 249.63 146.395 249.648L146.276 249.631L145.985 249.673L145.537 249.725C144.64 249.798 143.737 249.692 142.88 249.414L142.457 249.261L137.589 247.26C131.713 244.701 127.017 240.021 124.438 234.154L122.974 234.781L124.392 234.057C121.322 228.053 119.549 221.47 119.188 214.737L119.186 214.464C119.222 210.181 118.371 205.937 116.684 202L116.682 202.001L116.648 201.915L116.599 201.825C114.805 198.52 111.851 195.996 108.307 194.738L108.306 194.74C106.297 194.05 104.147 193.875 102.053 194.23C99.9542 194.586 97.9782 195.464 96.3071 196.782L96.2587 196.82C92.2151 199.519 89.1002 203.398 87.3376 207.93C85.3122 212.384 84.6821 217.346 85.5296 222.165L85.5287 222.164L85.5473 222.268L86.7443 222.051L85.595 222.427C87.5484 228.388 90.1749 234.108 93.4223 239.475L93.4303 239.489L93.5733 239.716C93.7846 240.061 93.9132 240.449 93.9481 240.851C93.9818 241.239 93.9264 241.629 93.7893 241.993C93.5145 242.585 93.0874 243.092 92.5511 243.464L71.6075 255.721L71.5878 255.732L71.5677 255.745L71.3468 255.867C70.8218 256.124 70.2228 256.198 69.647 256.072L69.5981 256.062C68.9544 255.91 68.3873 255.528 68.0038 254.989L66.9179 255.74L67.9466 254.914C54.8733 238.614 50.9097 216.286 59.2684 195.955Z" fill="#9984FF" stroke="white" stroke-width="4"/></svg>