<svg width="624" height="624" viewBox="0 0 624 624" fill="none" xmlns="http://www.w3.org/2000/svg"><path d="M71.9264 339.691C65.9285 339.596 58.6072 337.405 50.3837 329.779C36.585 316.905 34.5117 293.774 39.3453 268.027C44.7397 238.73 59.0641 206.059 74.4273 182.238C85.6703 165.014 97.4674 152.39 106.955 149.088C129.14 141.314 141.057 152.926 146.699 162.143C145.023 163.737 143.209 165.54 141.742 167.275C135.32 174.142 129.526 180.525 124.57 186.562C121.777 189.823 119.334 193.017 117.099 196.35C95.035 226.55 78.3327 267.289 73.4842 311.144C72.2908 320.61 71.6553 330.149 71.9264 339.691Z" fill="#8B7EE2"/><path d="M39.2056 268.235C35.0965 261.253 24.7816 250.599 36.4947 217.641C48.2077 184.683 74.4968 182.586 74.4968 182.586C58.9244 206.268 44.7397 238.73 39.2056 268.235Z" fill="#D0C9FC"/><path d="M104.31 141.538C117.151 137.038 127.89 137.924 136.478 142.024C144.818 146.006 150.231 152.589 153.522 157.967L156.897 163.48L152.215 167.938C150.591 169.483 149.031 171.046 147.853 172.439L147.723 172.592L147.585 172.74C141.195 179.574 135.543 185.805 130.753 191.639L130.701 191.703L130.646 191.766C128.037 194.813 125.787 197.757 123.744 200.805L123.654 200.939L123.558 201.07C102.654 229.682 86.6386 268.321 81.6642 310.034L81.4293 312.084L81.4214 312.144C80.2666 321.305 79.6665 330.423 79.9234 339.464L80.1606 347.824L71.7989 347.69C63.6575 347.56 54.4844 344.492 44.9438 335.644L44.9355 335.636L44.9262 335.628C28.6409 320.435 26.7126 295.108 30.8683 270.026C28.8101 266.826 25.6268 261.56 24.0921 254.344C22.0689 244.831 22.7674 232.377 28.9564 214.962C35.4904 196.577 46.3129 186.36 55.8852 180.828C60.6055 178.101 64.9263 176.564 68.1298 175.703C68.5637 175.587 68.9781 175.483 69.3709 175.39C74.6774 167.5 80.17 160.487 85.602 154.878C91.4515 148.837 97.8168 143.803 104.31 141.538ZM146.699 162.143C141.057 152.926 129.14 141.314 106.955 149.088L106.509 149.25C97.0988 152.786 85.4943 165.284 74.4271 182.238C74.3454 182.365 74.2639 182.492 74.1822 182.619C71.1795 182.982 47.4559 186.801 36.4953 217.641L35.9619 219.17C25.1029 250.931 35.1604 261.362 39.2055 268.235C41.9528 253.588 46.8333 238.213 52.9556 223.545C46.8704 238.211 42.0146 253.532 39.3456 268.027C34.5121 293.775 36.5852 316.905 50.3838 329.779C58.6071 337.405 65.9283 339.596 71.9261 339.691C71.6719 330.745 72.2153 321.803 73.2675 312.919L73.4839 311.144C78.2566 267.975 94.5164 227.824 116.069 197.774L117.099 196.35C119.054 193.433 121.17 190.624 123.539 187.783L124.57 186.563C128.907 181.28 133.885 175.733 139.364 169.828L141.742 167.276C143.208 165.541 145.023 163.737 146.699 162.143Z" fill="white"/><path d="M153.999 149.217C144.778 158.18 136.345 166.929 129.064 175.174C129.233 174.097 129.415 173.015 129.603 171.952C130.11 169.091 130.652 166.422 131.068 164.465C131.213 163.782 131.345 163.187 131.452 162.703C131.925 162.356 132.546 161.906 133.311 161.372C135.306 159.979 138.27 158.005 142.097 155.72C145.437 153.727 149.427 151.5 153.999 149.217Z" fill="black" stroke="white" stroke-width="8"/><path d="M71.9288 339.691C65.9309 339.595 58.6096 337.405 50.3861 329.778C36.5874 316.905 34.5142 293.774 39.3477 268.027C44.7421 238.73 59.0665 206.059 74.4298 182.238C85.6727 165.014 97.4698 152.39 106.958 149.088C129.143 141.313 141.059 152.926 146.701 162.143C145.026 163.737 143.211 165.54 141.745 167.275C135.323 174.142 129.529 180.524 124.572 186.562C121.78 189.823 119.336 193.016 117.101 196.35C95.0375 226.55 78.3351 267.289 73.4867 311.144C72.2932 320.61 71.6577 330.149 71.9288 339.691Z" fill="#8B7EE2"/><path d="M39.208 268.235C35.0989 261.253 24.7841 250.599 36.4971 217.641C48.2102 184.683 74.4992 182.586 74.4992 182.586C58.9268 206.268 44.7421 238.73 39.208 268.235Z" fill="#D0C9FC"/><path d="M316.057 141.158C372.16 150.134 427.496 183.903 464.724 233.093L467.582 236.872L463.379 239.056C457.873 241.917 452.616 244.895 447.936 247.921L447.9 247.945L447.862 247.968C446.571 248.764 445.281 249.559 443.99 250.354C442.699 251.149 441.408 251.945 440.117 252.74L440.094 252.754L440.071 252.767C436.133 255.123 432.386 257.622 428.969 260.062L426.156 262.071L423.76 259.579C388.304 222.683 353.373 199.562 301.231 182.207L297.347 180.914L298.731 177.06C300.489 172.163 302.386 167.06 304.422 161.751L304.584 161.331L304.677 161.191C304.681 161.18 304.685 161.167 304.689 161.152C304.707 161.096 304.737 161.003 304.772 160.903C304.806 160.805 304.86 160.655 304.935 160.485C304.95 160.45 304.971 160.412 304.991 160.369C307.146 154.909 309.436 149.249 311.718 143.608L312.911 140.655L316.057 141.158Z" fill="black" stroke="white" stroke-width="8"/><path d="M445.763 244.562C443.181 246.153 440.599 247.744 438.017 249.334C433.97 251.754 430.132 254.315 426.643 256.807C390.755 219.463 355.275 195.98 302.494 178.412C304.241 173.544 306.128 168.468 308.155 163.184C308.435 162.767 308.505 162.21 308.644 162.002C324.195 164.576 357.665 173.426 398.58 203.27C424.37 221.766 438.308 235.337 445.763 244.562Z" fill="#36363F"/><path d="M524.5 420.543C519.332 428.252 514.165 435.96 508.579 443.388C427.026 555.999 268.613 584.777 154.025 498.901C95.2673 454.982 72.7185 396.384 71.7192 339.551C71.4481 330.009 72.0836 320.47 73.0679 310.864C77.7767 267.217 94.8278 226.41 116.683 196.07C118.987 193.085 121.43 189.892 124.153 186.282C129.11 180.244 134.904 173.862 141.326 166.995C142.792 165.26 144.467 163.666 146.282 161.863C154.379 153.401 163.523 144.735 173.015 136.001C231.714 82.3488 310.501 26.7638 334.694 36.3394C356.308 44.7896 334.224 98.5291 315.635 144.344C310.743 156.163 306.2 167.913 302.565 177.856C355.347 195.424 390.827 218.908 426.714 256.252C436.066 249.536 448.207 242.276 461.464 235.16C518.261 204.691 598.559 176.692 607.255 203.054C615.395 227.534 594.485 297.157 554.042 370.597C553.274 372.195 552.436 373.445 551.667 375.044C543.495 389.494 534.835 404.222 525.338 418.388C525.198 419.502 524.779 420.127 524.5 420.543Z" fill="#F5AD5B"/><path d="M521.326 418.079C521.329 418.072 521.335 418.059 521.342 418.036C521.349 418.012 521.36 417.965 521.37 417.888L521.488 416.948L522.016 416.16C531.413 402.144 540 387.545 548.14 373.154C548.565 372.285 548.998 371.516 549.371 370.855C549.779 370.131 550.118 369.527 550.437 368.863L550.485 368.763L550.538 368.667C570.652 332.141 585.876 296.622 595.049 267.273C599.637 252.593 602.687 239.536 604.096 228.716C605.519 217.784 605.206 209.568 603.459 204.316L603.456 204.307C602.08 200.135 597.708 197.233 588.543 196.656C579.546 196.09 567.41 197.943 553.425 201.661C525.548 209.072 491.569 223.548 463.356 238.682L463.356 238.684C450.18 245.757 438.204 252.925 429.048 259.5L426.232 261.523L423.83 259.023C388.374 222.127 353.444 199.006 301.302 181.651L297.394 180.351L298.808 176.483C302.461 166.489 307.025 154.686 311.939 142.815L311.939 142.814C321.269 119.819 331.306 95.2298 336.364 75.3441C338.903 65.3647 340.077 56.9661 339.467 50.7269C338.866 44.575 336.68 41.4101 333.237 40.0641L333.222 40.0586C331.12 39.2266 328.043 38.9727 323.819 39.6252C319.639 40.271 314.657 41.754 308.971 44.0383C297.601 48.6063 283.892 56.182 268.964 65.8194C239.135 85.0773 204.94 112.24 175.714 138.953C166.246 147.666 157.179 156.261 149.172 164.628L149.137 164.664L149.101 164.7C147.196 166.593 145.702 168.014 144.381 169.577L144.316 169.653L144.248 169.727C137.857 176.561 132.145 182.854 127.28 188.778C124.592 192.339 122.176 195.497 119.898 198.449C98.4435 228.249 81.6744 268.386 77.0453 311.29C76.1317 320.211 75.532 328.977 75.6781 337.694L75.718 339.437L75.718 339.458L75.7182 339.48C76.6985 395.229 98.768 452.605 156.42 495.697L156.424 495.7C269.149 580.179 425.04 551.919 505.339 441.041L505.382 440.983C510.892 433.657 515.999 426.039 521.177 418.316C521.309 418.118 521.318 418.096 521.326 418.079ZM527.822 422.77C522.664 430.464 517.438 438.263 511.776 445.792C428.955 560.087 268.058 589.359 151.626 502.102L151.627 502.101C91.7809 457.367 68.7496 397.568 67.7206 339.664C67.4425 329.877 68.0953 320.146 69.0882 310.456L69.091 310.434C73.8775 266.067 91.1965 224.608 113.437 193.732L113.476 193.678L113.517 193.625C115.813 190.651 118.247 187.469 120.96 183.873L121.009 183.808L121.061 183.744C126.09 177.619 131.938 171.177 138.357 164.313C139.939 162.454 141.748 160.726 143.434 159.052C151.609 150.512 160.811 141.794 170.307 133.057L170.317 133.048C199.789 106.109 234.337 78.6525 264.624 59.0988C279.755 49.3306 293.947 41.4533 305.989 36.6156C312.008 34.1971 317.609 32.4892 322.598 31.7184C327.543 30.9546 332.22 31.0576 336.166 32.6194C343.519 35.5018 346.674 42.221 347.429 49.9483C348.177 57.5934 346.722 67.0777 344.118 77.3158C339.545 95.2906 331.092 116.813 322.849 137.196L319.341 145.848L319.331 145.874C315.078 156.148 311.089 166.371 307.739 175.385C357.869 192.628 392.584 215.56 427.209 251.016C436.303 244.738 447.516 238.106 459.572 231.635L459.573 231.634C488.157 216.301 522.725 201.545 551.37 193.929C565.646 190.134 578.765 188.025 589.045 188.672C599.152 189.308 608.075 192.79 611.05 201.792C613.373 208.779 613.5 218.447 612.028 229.749C610.542 241.164 607.362 254.692 602.684 269.659C593.332 299.582 577.892 335.567 557.582 372.457C557.153 373.338 556.716 374.117 556.339 374.785C556.033 375.328 555.765 375.803 555.516 376.287L555.272 376.776L555.214 376.896L555.149 377.012C547.088 391.268 538.514 405.855 529.112 419.935C528.757 421.369 528.143 422.291 527.822 422.77Z" fill="white"/><path d="M269.676 368.51C258.843 374.951 255.49 384.303 257.72 390.878C259.894 397.285 267.955 402.546 283.166 399.574L283.933 403.501C267.754 406.661 257.029 401.292 253.932 392.163C250.893 383.202 255.786 372.115 267.631 365.072L269.676 368.51Z" fill="black"/><path d="M241.145 357.499C230.69 362.055 227.637 369.592 229.534 374.613C231.438 379.651 239.106 384.285 254.517 381.274L255.284 385.2C239.305 388.322 228.778 383.928 225.793 376.027C222.801 368.108 228.166 358.792 239.548 353.832L241.145 357.499Z" fill="black"/><path d="M389.325 433.193C372.791 438.415 356.261 440.015 341.756 438.142C318.742 435.397 300.618 424.454 295.052 407.437C286.078 379.681 313.934 345.814 357.047 332.141C382.301 324.31 407.199 324.695 425.396 332.365C438.224 337.643 447.772 346.459 451.32 357.896C460.154 385.861 432.438 419.519 389.325 433.193Z" fill="white"/><path d="M215.588 354.168C206.66 354.826 197.596 352.071 189.789 346.535C172.085 334.063 158.576 308.097 155.951 276.746C152.222 231.671 172.828 193.247 201.913 191.004C222.768 189.283 242.352 206.639 253.419 233.081C257.874 243.616 260.794 255.538 261.69 268.217C265.419 313.292 244.813 351.717 215.588 354.168Z" fill="white"/><path d="M182.405 339.657C169.127 330.604 158.576 308.097 155.951 276.746C152.222 231.671 172.828 193.247 201.913 191.004C222.768 189.283 242.352 206.639 253.419 233.081L182.405 339.657Z" fill="black"/><path d="M425.397 332.365L368.707 439.581C321.551 441.348 300.828 424.595 295.262 407.578C286.288 379.821 314.144 345.955 357.257 332.281C382.302 324.31 407.2 324.696 425.397 332.365Z" fill="black"/><path d="M398.062 578.857C397.017 578.156 395.622 577.523 394.368 576.682C389.14 573.177 384.401 568.491 379.803 562.691C357.575 537.523 374.913 487.246 418.115 450.381C457.897 416.357 505.959 405.699 530.633 424.052C533.421 426.223 548.828 434.438 560.599 453.501C562.689 456.714 563.801 460.479 564.077 464.589C569.267 514.267 451.965 598.715 398.062 578.857Z" fill="#3A55BF"/><path d="M556.46 472.929C552.352 465.042 553.139 449.708 541.493 448.544C515.62 445.995 458.001 458.701 421.688 514.677C399.133 548.775 395.978 569.307 398.062 578.857C397.017 578.156 395.622 577.523 394.368 576.682C389.14 573.177 384.401 568.491 379.803 562.691C357.575 537.523 374.913 487.246 418.115 450.381C457.897 416.357 505.959 405.699 530.633 424.052C533.421 426.223 548.828 434.438 560.599 453.501C562.898 456.854 556.185 468.819 556.46 472.929Z" fill="#8B7EE2"/><path d="M537.028 450.683C515.618 449.616 463.301 459.837 423.994 509.881" stroke="black" stroke-width="4"/><path d="M544.733 493.895C540.896 495.55 537.13 495.743 533.364 495.03C529.041 494.245 524.997 492.139 521.861 490.036C519.769 488.634 518.306 486.747 517.471 484.376C522.933 463.136 532.641 441.649 528.389 420.312C538.447 405.308 549.347 390.387 557.193 374.066C579.682 421.451 557.026 472.846 551.155 487.028C549.967 490.157 547.733 492.585 544.733 493.895Z" fill="black"/><path d="M564.421 370.637C588.617 421.621 564.259 476.297 558.565 490.043C556.64 494.982 552.964 499.03 547.935 501.226L547.902 501.241C542.397 503.615 536.997 503.848 531.936 502.9L531.936 502.902C526.114 501.845 521.023 499.106 517.406 496.682C513.884 494.32 511.335 491.035 509.926 487.034L509.118 484.739L509.723 482.384C511.14 476.877 512.827 471.369 514.421 466.092C516.036 460.748 517.567 455.604 518.796 450.506C521.259 440.293 522.341 430.898 520.543 421.877L519.894 418.617L521.744 415.858C532.059 400.471 542.459 386.251 549.983 370.601L557.24 355.507L564.421 370.637ZM557.193 374.067C549.347 390.388 538.447 405.308 528.389 420.312C532.641 441.649 522.933 463.137 517.472 484.376C518.254 486.599 519.589 488.397 521.476 489.768L521.861 490.037C524.998 492.139 529.041 494.246 533.365 495.03C537.012 495.721 540.661 495.562 544.374 494.047L544.734 493.895C547.734 492.585 549.968 490.157 551.156 487.028C557.027 472.846 579.682 421.451 557.193 374.067Z" fill="white"/><path d="M437.2 338.664C446.023 344.383 455.029 354.04 454.495 369.323C453.97 384.347 445.273 397.189 436.967 406.138C432.79 410.638 428.649 414.221 425.554 416.679C424.004 417.91 422.712 418.862 421.804 419.509C421.35 419.833 420.991 420.08 420.743 420.248C420.619 420.332 420.523 420.397 420.456 420.441C420.423 420.463 420.396 420.48 420.378 420.492C420.369 420.498 420.362 420.503 420.357 420.506C420.354 420.508 420.352 420.51 420.35 420.511L420.348 420.512C420.348 420.513 420.347 420.513 419.257 418.836C418.185 417.188 418.166 417.16 418.166 417.16C418.166 417.159 418.167 417.158 418.168 417.158C418.171 417.156 418.176 417.153 418.182 417.149C418.195 417.141 418.215 417.127 418.242 417.109C418.298 417.072 418.383 417.016 418.495 416.94C418.72 416.787 419.054 416.555 419.483 416.25C420.342 415.639 421.577 414.729 423.066 413.547C426.046 411.18 430.028 407.734 434.035 403.417C442.099 394.729 450.022 382.779 450.497 369.184C450.963 355.848 443.209 347.326 435.024 342.02C430.934 339.369 426.796 337.569 423.672 336.431C422.113 335.863 420.815 335.463 419.914 335.207C419.463 335.079 419.112 334.987 418.877 334.928C418.76 334.898 418.672 334.877 418.615 334.863C418.587 334.857 418.566 334.852 418.554 334.849C418.548 334.848 418.543 334.847 418.541 334.847C418.54 334.847 418.54 334.846 418.54 334.846L419.418 330.943C419.418 330.944 419.42 330.944 419.421 330.944L419.453 330.952C419.474 330.957 419.503 330.963 419.54 330.972C419.614 330.99 419.72 331.015 419.855 331.049C420.125 331.118 420.515 331.22 421.006 331.359C421.988 331.638 423.379 332.067 425.041 332.672C428.357 333.879 432.786 335.802 437.2 338.664Z" fill="#2D2D2D"/><path d="M434.498 339.084L430.932 337.273L441.34 316.773L444.907 318.583L434.498 339.084Z" fill="black"/><path d="M471.031 389.779L449.697 380.911L451.232 377.218L472.567 386.085L471.031 389.779Z" fill="black"/><path d="M480.286 343.671L451.957 359.706L449.987 356.225L478.316 340.189L480.286 343.671Z" fill="#2D2D2D"/><path d="M247.079 185.967L231.86 203.242L228.859 200.599L244.077 183.323L247.079 185.967Z" fill="black"/><path d="M187.211 199.621L184.378 202.445L168.071 186.079L170.905 183.254L187.211 199.621Z" fill="black"/><path d="M207.102 192.813L203.138 192.286L207.418 160.129L211.384 160.657L207.102 192.813Z" fill="#2D2D2D"/><path d="M446.96 570.569C433.146 576.708 398.125 588.257 345.335 580.648C275.599 570.737 186.182 492.979 194.98 479.854C203.779 466.729 221.837 473.701 239.052 487.356C256.128 501.219 242.378 514.044 248.65 520.06C325.169 592.192 421.088 567.115 440.691 560.931C441.526 563.302 442.501 565.466 444.173 567.492C444.799 568.818 445.915 569.868 446.96 570.569Z" fill="black"/><path d="M448.237 558.275C448.929 560.239 449.524 561.408 450.344 562.402L450.98 563.172L451.291 563.832C451.329 563.863 451.372 563.896 451.415 563.924L463.453 571.994L450.209 577.88C435.223 584.54 398.689 596.417 344.21 588.568C307.385 583.334 266.305 560.494 235.929 537.873C220.648 526.493 207.669 514.87 198.968 505.054C194.659 500.193 191.115 495.458 188.932 491.189C187.845 489.064 186.899 486.678 186.537 484.195C186.171 481.688 186.322 478.403 188.336 475.4C191.494 470.689 195.748 467.47 200.818 465.919C205.741 464.413 210.86 464.65 215.675 465.772C224.84 467.907 234.437 473.605 243.18 480.425L244.024 481.089L244.06 481.117L244.095 481.146C249.275 485.352 252.58 489.872 254.37 494.673C256.148 499.442 256.192 503.85 255.871 507.377C255.714 509.094 255.457 510.71 255.266 511.946C255.057 513.299 254.934 514.152 254.891 514.856C254.889 514.884 254.889 514.911 254.888 514.936C327.871 582.988 419.22 559.316 438.285 553.302L445.667 550.973L448.237 558.275ZM194.981 479.854C186.182 492.979 275.6 570.738 345.335 580.648C398.125 588.258 433.146 576.708 446.96 570.569C445.915 569.868 444.799 568.819 444.173 567.493C442.501 565.466 441.527 563.303 440.692 560.932C421.165 567.091 325.918 591.996 249.548 520.902L248.651 520.061C242.379 514.045 256.129 501.219 239.053 487.356C221.838 473.702 203.779 466.73 194.981 479.854Z" fill="white"/><path d="M531.483 494.674C528.833 494.106 524.999 492.139 521.862 490.036C519.771 488.635 518.308 486.748 517.473 484.376C521.254 470.338 532.468 440.236 528.482 420.239C532.951 413.573 537.865 406.877 542.125 400.07C558.675 460.383 531.483 494.674 531.483 494.674Z" fill="#36363F"/><path d="M518.878 555.975C492.289 577.102 461.387 582.958 446.821 570.778C445.915 569.868 444.8 568.819 443.894 567.91C442.222 565.883 441.038 563.579 440.412 561.348C435.752 545.24 452.022 522.328 476.867 502.447C505.55 480.006 534.711 469.963 547.531 486.106C560.49 502.041 547.492 533.185 518.878 555.975Z" fill="#D0C9FC"/><path d="M523.396 561.648L523.389 561.653C509.331 572.824 493.924 580.137 479.767 582.977C465.837 585.773 451.841 584.43 442.169 576.342L441.916 576.13L441.683 575.897C441.284 575.495 440.826 575.052 440.31 574.552L446.821 570.778C461.387 582.959 492.288 577.103 518.878 555.976C547.492 533.186 557.008 506.838 549.992 490.648L553.186 481.568C562.063 492.518 561.16 507.504 555.499 521.235C549.734 535.216 538.467 549.645 523.396 561.648Z" fill="white"/><path d="M64.6777 206.301C61.9537 210.627 54.5896 224.825 47.5635 246.159L43.7641 244.909C50.8656 223.345 58.3561 208.835 61.2934 204.17L64.6777 206.301Z" fill="black"/></svg>