<svg width="656" height="656" viewBox="0 0 656 656" fill="none" xmlns="http://www.w3.org/2000/svg"><path d="M347.123 186.952C413.162 90.8384 504.067 38.5986 550.164 70.2714C550.204 70.2992 550.245 70.3275 550.285 70.3554L589.252 97.0956C608.358 110.298 616.804 135.881 615.328 168.189C614.344 190.411 608.687 215.832 598.601 242.563C588.105 270.443 572.852 299.799 553.172 328.499C524.308 370.565 490.607 404.185 458.053 426.079C432.141 443.545 406.884 453.549 385.236 454.369C384.58 454.451 383.924 454.451 383.269 454.451C373.839 454.615 365.146 452.975 357.438 449.367L350.141 445.268L310.944 418.371C317.058 422.518 323.93 425.249 331.403 426.569C323.936 425.218 317.087 422.504 311.016 418.332C264.918 386.659 281.084 283.066 347.123 186.952ZM331.63 426.611C331.659 426.616 331.688 426.621 331.717 426.626C331.688 426.621 331.659 426.616 331.63 426.611Z" fill="#795EFF"/><path d="M452.136 73.7554C489.572 52.2421 527.658 45.1019 554.694 63.6782C554.735 63.7062 554.771 63.7316 554.793 63.7466C554.82 63.7652 554.827 63.7694 554.835 63.7749L593.778 90.4995L593.789 90.5063L593.8 90.5142C616.221 106.007 624.847 135.062 623.319 168.542C622.29 191.792 616.397 218.054 606.087 245.381C595.35 273.902 579.789 303.828 559.77 333.023L559.769 333.025C530.422 375.795 496.029 410.179 462.518 432.717C436.058 450.551 409.466 461.372 385.84 462.35C384.798 462.454 383.854 462.451 383.326 462.451C372.91 462.622 363.006 460.806 354.047 456.613L353.778 456.487L345.91 452.067L306.418 424.967L306.459 424.907C279.445 406.323 272.459 368.221 279.114 325.574C285.871 282.279 306.985 231.243 340.529 182.421C374.074 133.6 414.143 95.5883 452.136 73.7554ZM550.164 70.271C504.067 38.5985 413.162 90.8383 347.123 186.952L345.584 189.207C280.835 284.681 265.279 386.906 311.016 418.332C317.087 422.503 323.937 425.217 331.403 426.569C323.93 425.248 317.058 422.517 310.944 418.371L350.141 445.267L357.439 449.367C365.147 452.975 373.839 454.615 383.269 454.451C383.925 454.451 384.58 454.451 385.236 454.369C406.884 453.549 432.141 443.545 458.053 426.079C490.098 404.527 523.255 371.612 551.816 330.464L553.172 328.499C572.852 299.799 588.105 270.443 598.601 242.563C608.687 215.831 614.344 190.411 615.328 168.189C616.781 136.386 608.62 111.098 590.14 97.7231L589.252 97.0952L550.285 70.355L550.164 70.271Z" fill="white"/><path d="M111.552 211.026C157.761 179.516 248.482 232.077 314.183 328.424C379.883 424.771 395.684 528.42 349.475 559.93C346.139 562.205 342.57 564.041 338.796 565.455C342.569 564.052 346.141 562.229 349.486 559.961L310.207 586.775L302.909 590.875C295.201 594.401 286.509 596.041 277.079 595.877C276.423 595.877 275.767 595.877 275.111 595.795C253.463 594.893 228.289 584.807 202.377 567.259C169.905 545.283 136.367 511.498 107.585 469.35C87.9873 440.569 72.8174 411.213 62.4035 383.251C52.3995 356.437 46.8231 331.017 45.9211 308.795C44.6091 276.487 53.0555 250.903 72.2433 237.865L111.151 211.303C111.284 211.21 111.418 211.118 111.552 211.026ZM315.312 569.036C315.463 569.041 315.614 569.044 315.765 569.048C315.614 569.044 315.463 569.041 315.312 569.036ZM338.081 565.717C338.139 565.696 338.196 565.676 338.253 565.655C338.196 565.676 338.139 565.696 338.081 565.717ZM100.557 353.374C100.641 353.606 100.724 353.839 100.809 354.072C100.724 353.839 100.641 353.606 100.557 353.374ZM99.5656 350.593C99.7269 351.051 99.889 351.51 100.053 351.97C99.8894 351.51 99.7265 351.051 99.5656 350.593ZM85.2756 283.608C86.2878 303.666 91.0513 326.258 99.3879 350.085C91.081 326.283 86.3083 303.678 85.2756 283.608ZM85.1877 281.693C84.2212 257.453 88.8087 237.035 99.3185 222.856C88.7905 237.033 84.184 257.435 85.1877 281.693ZM99.9035 222.083C99.7954 222.223 99.6881 222.364 99.5812 222.506C99.688 222.364 99.7955 222.223 99.9035 222.083ZM100.504 221.315C100.457 221.374 100.411 221.432 100.364 221.491C100.411 221.432 100.457 221.374 100.504 221.315ZM101.181 220.484C101.158 220.511 101.136 220.539 101.113 220.566C101.136 220.539 101.158 220.511 101.181 220.484ZM85.1994 281.981C85.2108 282.263 85.2265 282.546 85.2394 282.829C85.2217 282.449 85.2027 282.071 85.1877 281.693C85.1916 281.789 85.1952 281.885 85.1994 281.981Z" fill="#699E34"/><path d="M104.79 201.112C133.891 181.268 173.867 189.549 211.574 211.395C250.113 233.723 290.462 272.34 324.096 321.663C357.73 370.986 378.945 422.651 385.658 466.682C392.225 509.762 385.335 550 356.235 569.844L356.233 569.845L356.25 569.871L356.22 569.89L356.221 569.891C356.21 569.899 356.198 569.905 356.187 569.913L316.972 596.685L316.54 596.981L316.083 597.237L308.353 601.58L307.901 601.787C298.383 606.14 287.93 608.044 277.034 607.875C276.541 607.876 275.439 607.884 274.186 607.763C249.568 606.621 222.383 595.299 195.648 577.194C161.731 554.239 127.164 519.301 97.6743 476.117L97.6704 476.111L97.6655 476.104C77.5668 446.587 61.9356 416.377 51.1596 387.445C40.8233 359.74 34.8951 333.053 33.9301 309.281C32.5493 275.275 41.2528 244.414 65.4985 227.939L104.384 201.391C104.524 201.294 104.66 201.201 104.79 201.112ZM314.182 328.423C248.481 232.076 157.761 179.516 111.551 211.026L111.15 211.302L72.2426 237.865C53.0549 250.903 44.6084 276.487 45.9204 308.794C46.8224 331.016 52.3988 356.437 62.4028 383.251C72.8167 411.212 87.9866 440.568 107.584 469.35C136.366 511.498 169.905 545.282 202.376 567.258C228.288 584.806 253.463 594.892 275.111 595.794C275.767 595.876 276.423 595.876 277.079 595.876C286.214 596.035 294.657 594.501 302.183 591.2L302.909 590.875L310.207 586.775L349.485 559.96C346.14 562.229 342.568 564.051 338.795 565.455C342.569 564.041 346.138 562.205 349.474 559.93C395.322 528.665 380.126 426.385 315.713 330.682L314.182 328.423ZM85.2749 283.608C86.3076 303.678 91.0803 326.283 99.3872 350.084C91.0506 326.257 86.2871 303.666 85.2749 283.608ZM85.2387 282.829C85.2258 282.546 85.2101 282.263 85.1987 281.981C85.1946 281.885 85.1909 281.789 85.187 281.693C85.202 282.071 85.221 282.449 85.2387 282.829ZM99.3178 222.856C88.8081 237.035 84.2205 257.453 85.187 281.693C84.1833 257.434 88.7899 237.033 99.3178 222.856Z" fill="white"/><path d="M349.474 560.933C395.683 529.422 379.882 425.772 314.181 329.425C248.48 233.078 157.759 180.518 111.55 212.028C65.3409 243.539 81.1419 347.189 146.843 443.536C212.544 539.883 303.265 592.444 349.474 560.933Z" fill="url(#paint0_linear_1126_4927)"/><path d="M349.483 560.961L310.205 587.775L302.907 591.875C295.199 595.401 286.507 597.041 277.077 596.877C276.421 596.877 275.765 596.877 275.109 596.795C253.461 595.893 228.287 585.807 202.375 568.259C169.903 546.283 136.365 512.499 107.583 470.351C87.9851 441.569 72.8151 412.213 62.4011 384.251C52.3971 357.437 46.8211 332.017 45.9191 309.795C44.6071 277.487 53.0531 251.903 72.2411 238.865L111.519 212.051C92.3311 225.171 83.8031 250.673 85.1971 282.981C86.0991 305.203 91.6751 330.623 101.679 357.437C112.093 385.399 127.263 414.755 146.861 443.537C175.643 485.685 209.099 519.469 241.653 541.445C268.303 559.485 294.297 569.653 316.355 570.063C328.819 570.227 340.053 567.357 349.483 560.961Z" fill="#699E34"/><path d="M199.424 289.543L192.782 429.189C192.618 431.977 195.734 433.617 198.03 432.141L238.292 404.671C240.178 403.359 242.72 404.343 243.376 406.475L269.288 493.149C270.354 496.757 275.602 496.101 275.848 492.411L284.868 336.775C285.032 334.151 282.244 332.429 279.948 333.659L232.716 359.161C230.912 360.145 228.616 359.243 227.96 357.275L205.902 288.641C204.754 285.115 199.588 285.853 199.424 289.543Z" fill="#3E601C"/><path d="M241.653 541.447L202.375 568.261C169.903 546.285 136.365 512.501 107.583 470.353C87.9854 441.571 72.8154 412.215 62.4014 384.253L101.679 357.439C112.093 385.401 127.263 414.757 146.861 443.539C175.643 485.687 209.099 519.471 241.653 541.447Z" fill="#537D28"/><path d="M316.356 570.065L275.11 596.797C254.61 595.895 229.026 586.383 202.376 568.261L241.654 541.447C268.304 559.569 294.298 569.655 316.356 570.065Z" fill="#3E601C"/><path d="M349.483 560.963L310.205 587.777L302.907 591.877C295.199 595.403 286.507 597.043 277.077 596.879C276.421 596.879 275.765 596.879 275.109 596.797L316.355 570.065C328.819 570.229 340.053 567.359 349.483 560.963Z" fill="#537D28"/><path d="M225.171 529.393C225.171 529.393 238.373 539.315 241.571 541.447L202.293 568.261C202.293 568.261 189.255 558.913 185.401 555.797L225.171 529.393Z" fill="#48721E"/><path d="M85.1971 282.983L45.9191 309.797C44.6071 277.489 53.0531 251.905 72.2411 238.867L111.519 212.053C92.3311 225.091 83.8851 250.675 85.1971 282.983Z" fill="#9EDE60"/><path d="M97.7949 339.887C97.7956 339.889 97.7963 339.894 97.7979 339.899C97.8009 339.911 97.8059 339.93 97.8125 339.955C97.8258 340.006 97.8469 340.083 97.875 340.187C97.9313 340.395 98.0176 340.709 98.1357 341.125C98.3721 341.956 98.736 343.194 99.2412 344.805C100.252 348.027 101.829 352.742 104.086 358.681C108.601 370.559 115.837 387.332 126.705 406.855C148.443 445.903 184.701 495.937 242.777 539.852L240.365 543.042C181.756 498.725 145.158 448.227 123.21 408.801C112.236 389.087 104.921 372.136 100.347 360.102C98.0595 354.084 96.4565 349.295 95.4238 346.002C94.9075 344.356 94.5339 343.083 94.2881 342.219C94.1652 341.786 94.0744 341.456 94.0137 341.231C93.9834 341.12 93.9608 341.034 93.9453 340.976C93.9376 340.946 93.9318 340.923 93.9277 340.907C93.9258 340.9 93.924 340.894 93.9229 340.89C93.9223 340.887 93.9212 340.885 93.9209 340.884C93.921 340.882 93.9524 340.873 95.8574 340.383C97.6763 339.915 97.7872 339.886 97.7939 339.885C97.7941 339.885 97.7947 339.886 97.7949 339.887Z" fill="black"/><path d="M514.056 304.76C580.096 208.646 596.261 105.054 550.164 73.3813C504.067 41.7083 413.162 93.948 347.123 190.062C281.084 286.176 264.918 389.768 311.016 421.441C357.113 453.114 448.017 400.874 514.056 304.76Z" fill="#795EFF"/><path d="M310.944 421.481L350.14 448.377L357.438 452.477C365.146 456.085 373.838 457.725 383.268 457.561C383.924 457.561 384.58 457.561 385.236 457.479C406.884 456.659 432.14 446.655 458.052 429.189C490.606 407.295 524.308 373.675 553.172 331.609C572.852 302.909 588.104 273.553 598.6 245.673C608.686 218.941 614.344 193.521 615.328 171.299C616.804 138.991 608.358 113.407 589.252 100.205L550.056 73.3086C569.244 86.5106 577.608 112.095 576.132 144.403C575.148 166.625 569.408 192.045 559.404 218.777C548.908 246.657 533.656 276.013 513.976 304.713C485.112 346.779 451.41 380.399 418.856 402.293C392.124 420.251 366.13 430.337 344.072 430.583C331.608 430.911 320.374 427.877 310.944 421.481Z" fill="#795EFF"/><path d="M418.856 402.373L458.052 429.269C490.606 407.375 524.308 373.755 553.172 331.689C572.852 302.989 588.104 273.633 598.6 245.753L559.404 218.857C548.908 246.737 533.656 276.093 513.976 304.793C485.112 346.859 451.492 380.479 418.856 402.373Z" fill="#5735FF"/><path d="M344.072 430.745L385.236 457.641C405.736 456.821 431.32 447.391 458.052 429.351L418.856 402.455C392.124 420.331 366.13 430.417 344.072 430.745Z" fill="#3015BC"/><path d="M310.944 421.48L350.14 448.376L357.438 452.476C365.146 456.084 373.838 457.724 383.268 457.56C383.924 457.56 384.58 457.56 385.236 457.478L344.072 430.582C331.608 430.91 320.374 427.876 310.944 421.48Z" fill="#4224DE"/><path d="M435.338 390.402C435.338 390.402 422.136 400.242 418.856 402.374L458.052 429.27C458.052 429.27 471.172 420.004 475.026 416.888L435.338 390.402Z" fill="#4224DE"/><path d="M576.132 141.172L615.328 168.068C616.804 135.76 608.358 110.176 589.252 96.9741L550.056 70.0781C569.162 83.2801 577.608 108.864 576.132 141.172Z" fill="#9984FF"/><path d="M565.309 201.885C567.244 202.39 567.244 202.392 567.243 202.394C567.243 202.395 567.242 202.396 567.241 202.398C567.24 202.403 567.238 202.409 567.236 202.417C567.232 202.433 567.227 202.455 567.219 202.484C567.203 202.543 567.18 202.628 567.149 202.74C567.088 202.964 566.996 203.294 566.871 203.726C566.622 204.589 566.243 205.859 565.721 207.503C564.676 210.79 563.056 215.572 560.747 221.579C556.129 233.592 548.752 250.509 537.706 270.176C515.614 309.509 478.83 359.863 420.057 403.975L417.656 400.775C475.897 357.065 512.338 307.173 534.219 268.217C545.159 248.739 552.455 232 557.014 220.144C559.293 214.216 560.887 209.509 561.909 206.292C562.42 204.683 562.788 203.447 563.027 202.617C563.147 202.202 563.235 201.888 563.292 201.681C563.32 201.577 563.341 201.5 563.354 201.449C563.361 201.424 563.366 201.405 563.369 201.394C563.371 201.388 563.372 201.384 563.373 201.382C563.373 201.381 563.373 201.38 563.373 201.379C563.373 201.379 563.374 201.379 565.309 201.885Z" fill="black"/><path d="M366.458 206.804L422.546 198.768L470.516 133.66L469.204 201.146L517.502 214.43L460.594 264.122L442.472 337.512L408.606 300.694L349.156 332.756L385.072 260.268L366.458 206.804Z" fill="white"/><path d="M492.197 64.1289C509.397 58.4814 523.355 57.8116 534.601 60.6553C545.873 63.5059 554.248 69.8444 560.319 77.8897C572.383 93.8746 575.369 116.585 574.517 132.512L570.522 132.298C571.351 116.825 568.384 95.2175 557.126 80.2998C551.537 72.8938 543.909 67.135 533.62 64.5332C523.304 61.9245 510.142 62.4475 493.445 67.9297L492.197 64.1289Z" fill="black"/><defs><linearGradient id="paint0_linear_1126_4927" x1="130.391" y1="241.578" x2="391.833" y2="547.657" gradientUnits="userSpaceOnUse"><stop stop-color="#AFF26D"/><stop offset="1" stop-color="#578A25"/></linearGradient></defs></svg>