<svg width="400" height="400" viewBox="0 0 400 400" fill="none" xmlns="http://www.w3.org/2000/svg"><path d="M131.308 243.867C131.815 243.557 132.416 243.437 133.003 243.53L268.46 264.977C269.682 265.17 270.579 266.229 270.569 267.466C270.559 268.703 269.646 269.747 268.421 269.921C267.525 270.048 265.596 270.685 263.117 271.955C260.7 273.194 257.951 274.938 255.418 277.112C250.283 281.521 246.463 287.3 247.184 293.989C247.999 301.553 251.334 312.389 254.554 321.506C256.15 326.027 257.695 330.062 258.841 332.966C259.413 334.417 259.886 335.585 260.215 336.389C260.379 336.79 260.508 337.1 260.595 337.31C260.638 337.414 260.67 337.493 260.692 337.546C260.703 337.572 260.712 337.593 260.718 337.605C260.72 337.612 260.722 337.616 260.724 337.619C260.724 337.62 260.724 337.621 260.725 337.622L260.726 337.623C261.258 338.888 260.67 340.347 259.409 340.89C258.148 341.432 256.686 340.856 256.133 339.6L256.128 339.589C256.123 339.579 256.116 339.561 256.105 339.538C256.085 339.492 256.052 339.421 256.009 339.326C255.922 339.137 255.791 338.855 255.617 338.493C255.269 337.769 254.753 336.73 254.086 335.482C252.749 332.981 250.823 329.676 248.455 326.421C246.076 323.15 243.321 320.027 240.35 317.807C237.374 315.583 234.385 314.412 231.444 314.628C228.872 314.817 225.907 316.95 222.72 321.472C219.617 325.873 216.704 331.976 214.079 338.87C208.839 352.634 204.939 369.038 202.96 379.942C202.716 381.284 201.443 382.183 200.097 381.963C198.751 381.742 197.829 380.483 198.026 379.134L198.027 379.133C198.028 379.131 198.028 379.127 198.028 379.123C198.03 379.114 198.031 379.1 198.034 379.081C198.04 379.043 198.048 378.986 198.059 378.909C198.08 378.755 198.112 378.524 198.151 378.221C198.231 377.615 198.344 376.721 198.475 375.582C198.736 373.302 199.068 370.04 199.351 366.129C199.916 358.295 200.276 347.909 199.479 337.605C198.676 327.245 196.721 317.236 192.825 309.984C190.892 306.386 188.533 303.565 185.694 301.686C182.885 299.825 179.478 298.799 175.26 298.969C156.985 299.706 136.984 307.737 119.263 317.666C101.584 327.572 86.4382 339.216 77.9395 346.876C76.9378 347.779 75.4003 347.725 74.4648 346.754C73.5294 345.783 73.5331 344.244 74.4727 343.277L76.2656 345.02C74.4727 343.277 74.4724 343.277 74.4727 343.276L74.4746 343.275C74.4763 343.274 74.4788 343.27 74.4824 343.267C74.4896 343.259 74.5008 343.248 74.5156 343.232C74.5457 343.201 74.592 343.153 74.6523 343.091C74.773 342.965 74.9529 342.778 75.1865 342.533C75.6543 342.042 76.3379 341.319 77.1982 340.395C78.9192 338.546 81.3441 335.897 84.1523 332.697C89.7766 326.289 96.9072 317.714 103.004 308.978C109.158 300.159 114.039 291.478 115.477 284.803C116.191 281.483 115.97 279.04 115.041 277.357C114.166 275.771 112.38 274.359 108.765 273.688C92.5959 270.69 72.7372 270.121 56.8301 270.315C48.8956 270.413 41.9804 270.699 37.0508 270.961C34.5864 271.092 32.6193 271.217 31.2705 271.309C30.5962 271.355 30.0765 271.392 29.7266 271.418C29.5518 271.431 29.4192 271.441 29.3311 271.448C29.2873 271.452 29.2541 271.454 29.2324 271.456C29.2216 271.457 29.2132 271.458 29.208 271.458C29.2054 271.458 29.2033 271.459 29.2021 271.459H29.2012C27.8425 271.569 26.6459 270.569 26.5117 269.213C26.3777 267.856 27.3552 266.642 28.709 266.483C42.2723 264.896 63.7219 261.846 83.9502 257.858C94.0655 255.865 103.842 253.643 112.159 251.263C120.533 248.866 127.225 246.363 131.308 243.867Z" fill="#D42525" stroke="white" stroke-width="5" stroke-linecap="round" stroke-linejoin="round"/><path d="M266.118 51.3447C266.93 51.055 268.045 50.8225 269.315 51.1865C270.521 51.532 271.449 52.2971 272.188 53.1172C272.93 53.9396 273.661 55.0217 274.435 56.3379C276.766 60.304 282.535 69.9245 285.159 74.29L370.088 206.076C370.548 206.789 370.684 207.664 370.463 208.483C370.242 209.303 369.684 209.99 368.928 210.375L363.785 212.993C367.555 217.494 371.367 222.059 374.145 225.397C374.801 226.186 375.008 227.255 374.695 228.231C374.382 229.208 373.592 229.958 372.6 230.218C371.502 230.506 370.342 230.812 369.127 231.133C369.859 232.638 370.574 234.258 371.225 235.745C372.569 238.822 373.625 241.264 374.339 242.341C374.891 243.173 374.992 244.225 374.61 245.147C374.228 246.07 373.413 246.742 372.435 246.94L263.393 269.025C262.856 269.808 262.076 270.262 261.328 270.457C260.557 270.658 259.839 270.587 259.419 270.527C259.029 270.472 258.638 270.38 258.291 270.292C258.22 270.29 258.149 270.289 258.077 270.282L250.171 269.536C247.71 269.473 244.87 269.187 241.749 268.743L111.221 256.449C110.803 256.41 110.413 256.283 110.064 256.093C109.518 255.865 109.036 255.474 108.696 254.946L17.4766 113.001C16.6312 111.685 16.938 109.941 18.1816 108.993L19.9004 107.684C19.9096 107.465 19.9412 107.245 19.999 107.03C20.2188 106.214 20.774 105.528 21.5264 105.142C22.4857 104.649 23.852 104.046 25.5928 103.381C25.5515 103.006 25.5801 102.624 25.6826 102.253C25.9061 101.445 26.458 100.767 27.2041 100.384C29.2521 99.3322 33.244 97.739 38.9248 96.0938C38.3041 94.9823 37.7618 94.0016 37.3115 93.1719C36.8819 92.3803 36.5268 91.7091 36.2617 91.1855C36.0468 90.761 35.762 90.189 35.623 89.7383V89.7373C35.4094 89.043 35.228 88.0344 35.5771 86.9531C35.9614 85.7633 36.8071 85.0209 37.6152 84.6035C38.3471 84.2255 39.1291 84.0651 39.7578 83.9785C40.4187 83.8875 41.1467 83.8493 41.8877 83.833C45.024 83.7642 48.9837 84.0212 54.9775 83.6543C61.2376 83.271 72.7272 83.9068 85.0254 84.9775C97.3944 86.0544 110.813 87.5932 121.051 89.0732C129.378 90.2773 138.533 93.5155 146.569 97.1797C153.447 100.316 159.669 103.841 164.02 106.838C165.976 105.114 168.993 102.594 172.454 99.9473C177.384 96.1777 183.427 91.984 188.766 89.4268C195.19 86.3495 203.558 82.6531 210.817 79.4844C218.145 76.2861 224.244 73.6664 226.299 72.6777C228.58 71.58 232.081 70.3102 235.454 69.0557C238.943 67.7582 242.383 66.4476 244.886 65.1973C247.302 63.99 251.338 61.1981 255.273 58.3887C257.18 57.0276 259.06 55.6658 260.57 54.5996C261.999 53.5907 263.385 52.6371 264.229 52.2178C264.657 52.0047 265.426 51.5917 266.118 51.3447Z" fill="#FDF8F0" stroke="white" stroke-width="6" stroke-linecap="round" stroke-linejoin="round"/><path d="M115.077 242.132L177.475 213.547L261.274 260.953L258.681 267.163L111.824 253.33V253.079L111.542 253.192L20.3223 111.247L25.9668 106.945L115.077 242.132Z" fill="#518FC0"/><path d="M261.275 260.951L258.681 267.161L111.824 253.328" stroke="#120101" stroke-width="2" stroke-linecap="round" stroke-linejoin="round"/><path d="M258.717 267.178L261.247 260.951L292.224 203.828L365.132 238.229L361.344 245.666L258.717 267.178Z" fill="#518FC0" stroke="#120101" stroke-width="2" stroke-linejoin="round"/><path d="M265.886 54.7721C268.241 53.6016 269.236 52.7343 272.171 57.7262C274.519 61.7199 280.325 71.4024 282.935 75.7447L282.362 78.1461L288.163 83.858L367.889 207.57L359.389 211.898C363.886 217.258 368.786 223.128 372.161 227.184C369.989 227.754 367.574 228.391 364.974 229.08C367.391 232.705 369.697 236.172 371.5 238.888C348.932 242.26 320.825 244.805 288.354 252.811C279.288 255.047 269.392 258.426 264.602 260.166L261 262.001C261 262.001 259.003 261.895 259.006 261.889C259.006 261.889 258.998 261.886 258.986 261.881L259.003 261.895C258.894 261.868 230.604 254.793 190.821 250.143C160.269 246.572 125.637 248.822 115.776 251.903L23.2188 107.678C24.5325 107.004 26.8673 106.022 30.1445 104.924L28.8965 102.92C31.0993 101.789 36.1734 99.7967 43.7461 97.8404C40.8612 92.7469 39.008 89.3576 38.8125 88.7232C37.8318 85.5362 43.4701 87.2527 55.4834 86.5172C67.4968 85.7817 100.594 88.9688 120.943 91.9107C136.817 94.2057 156.405 104.375 164.568 110.563C167.003 108.168 180.277 96.8419 190.384 92.0006C203.126 85.8969 223.679 77.2908 227.922 75.2496C232.164 73.2085 241.203 70.4199 246.549 67.7496C251.894 65.0792 263.53 55.9428 265.886 54.7721Z" fill="#FDF8F0"/><path d="M28.8945 102.922L118.564 246.824C128.424 243.743 166.175 240.21 196.497 245.387C233.94 251.78 259.004 261.89 259.004 261.89" stroke="#120101" stroke-width="2" stroke-linecap="round" stroke-linejoin="round"/><path d="M269.196 72.1318L310.601 136.505L222.216 178.13L199.341 143.552L197.923 139.519L197.843 139.293L197.688 139.136L194.753 136.183L182.845 117.046L269.196 72.1318Z" fill="#FDF8F0" stroke="#120101" stroke-width="2"/><path d="M182.739 116.875C194.185 108.2 206.098 101.681 219.906 95.0426C226.986 91.6388 234.553 88.2074 242.81 84.4373C250.887 80.749 259.618 76.7366 269.175 72.1177L276.864 84.4755L190.352 129.11L182.739 116.875Z" fill="#518FC0" stroke="#120101" stroke-width="2"/><path d="M196.75 107.734L236.481 170.166" stroke="#120101" stroke-width="2"/><path d="M231.826 90.0573L271.987 155.568" stroke="#120101" stroke-width="2"/><path d="M159.161 119.068C174.336 140.365 182.607 154.041 196.048 180.261C185.359 178.198 165.547 175.687 146.624 174.075C136.618 173.222 126.832 172.618 118.746 172.464C111.443 172.325 105.389 172.548 101.84 173.34L79.1417 137.628L66.5857 115.027L159.161 119.068Z" fill="#FDF8F0" stroke="#120101" stroke-width="2"/><path d="M65.0132 113.008C95.1347 110.827 125.071 111.259 158.984 118.919L164.749 129.297C122.684 123.989 102.062 123.014 72.1307 125.055L65.0132 113.008Z" fill="#518FC0" stroke="#120101" stroke-width="2"/><path d="M83.9722 111.672C97.4846 134.327 106.035 147.622 118.473 171.888" stroke="#120101" stroke-width="2"/><path d="M119.896 112.914C133.57 136.452 144.914 155.428 154.427 174.454" stroke="#120101" stroke-width="2"/><path d="M276.007 173.924C285.52 167.767 300.148 170.239 308.678 179.445C317.207 188.651 316.41 201.104 306.897 207.261C302.896 209.851 297.989 210.913 293.012 210.59L268.457 189.967C267.669 183.722 270.23 177.662 276.007 173.924Z" fill="#8CE096"/><path d="M268.494 189.957C275.416 186.633 284.968 188.681 290.56 194.922C294.949 199.821 295.677 205.939 292.994 210.569L268.494 189.957Z" fill="#518FC0"/><path d="M162.305 196.859L186.55 210.799" stroke="#120101" stroke-width="2" stroke-linecap="round"/><path d="M262 262L163 108" stroke="black" stroke-width="2"/><path d="M318.5 236C331.167 234.833 359.5 231.4 371.5 227L362.5 216" stroke="black" stroke-width="2"/></svg>