<svg width="884" height="800" viewBox="0 0 884 800" fill="none" xmlns="http://www.w3.org/2000/svg"><g clip-path="url(#clip0_1126_5042)"><path fill-rule="evenodd" clip-rule="evenodd" d="M715.795 325.963L641.754 197.722L663.836 184.973L737.876 313.214L715.795 325.963Z" fill="#39A6D2"/><path d="M714.33 331.427L636.29 196.258L665.3 179.509L743.34 314.678L714.33 331.427ZM663.836 184.973L641.754 197.722L715.794 325.963L737.876 313.214L663.836 184.973Z" fill="white"/><path fill-rule="evenodd" clip-rule="evenodd" d="M676.818 348.467L602.778 220.225L624.859 207.477L698.9 335.718L676.818 348.467Z" fill="#39A6D2"/><path d="M675.353 353.931L597.313 218.762L626.323 202.013L704.363 337.182L675.353 353.931ZM624.859 207.477L602.777 220.226L676.817 348.467L698.899 335.718L624.859 207.477Z" fill="white"/><path fill-rule="evenodd" clip-rule="evenodd" d="M505.244 447.522L431.203 319.28L453.285 306.531L527.325 434.773L505.244 447.522Z" fill="#39A6D2"/><path d="M503.779 452.986L425.739 317.816L454.749 301.067L532.789 436.237L503.779 452.986ZM453.285 306.531L431.203 319.281L505.243 447.522L527.325 434.773L453.285 306.531Z" fill="white"/><path fill-rule="evenodd" clip-rule="evenodd" d="M462.959 471.94L388.918 343.698L411 330.949L485.04 459.191L462.959 471.94Z" fill="#39A6D2"/><path d="M461.494 477.404L383.454 342.234L412.464 325.485L490.504 460.655L461.494 477.404ZM411 330.949L388.918 343.698L462.958 471.94L485.04 459.191L411 330.949Z" fill="white"/><path fill-rule="evenodd" clip-rule="evenodd" d="M420.673 496.35L346.633 368.108L368.715 355.359L442.755 483.601L420.673 496.35Z" fill="#39A6D2"/><path d="M419.209 501.814L341.169 366.645L370.179 349.896L448.219 485.065L419.209 501.814ZM368.715 355.36L346.633 368.109L420.673 496.35L442.755 483.601L368.715 355.36Z" fill="white"/><path fill-rule="evenodd" clip-rule="evenodd" d="M249.759 595.026L175.719 466.784L197.801 454.035L271.841 582.277L249.759 595.026Z" fill="#39A6D2"/><path d="M248.295 600.49L170.254 465.32L199.265 448.571L277.305 583.741L248.295 600.49ZM197.801 454.035L175.719 466.784L249.759 595.026L271.841 582.277L197.801 454.035Z" fill="white"/><path fill-rule="evenodd" clip-rule="evenodd" d="M210.123 617.912L136.082 489.671L158.164 476.922L232.204 605.163L210.123 617.912Z" fill="#39A6D2"/><path d="M208.658 623.376L130.618 488.207L159.628 471.458L237.668 606.627L208.658 623.376ZM158.164 476.922L136.082 489.671L210.122 617.912L232.204 605.163L158.164 476.922Z" fill="white"/><path fill-rule="evenodd" clip-rule="evenodd" d="M715.586 143.803C720.7 159.034 712.484 175.656 697.206 180.811C697.206 180.811 696.985 180.938 696.811 180.892C696.416 180.973 695.69 181.246 694.854 181.582C693.071 182.318 690.277 183.344 686.775 184.927C679.88 188.028 670.398 192.768 660.337 199.31C639.664 212.713 619.857 231.187 611.534 254.763C605.562 271.702 601.399 291.263 597.385 313.378C596.529 318.271 595.627 323.338 594.678 328.579C591.693 345.847 588.49 364.267 584.321 381.778C573.58 427.428 554.588 477.4 504.904 506.085C463.501 529.989 420.486 531.214 379.787 524.21C349.234 518.972 317.293 508.524 287.328 498.695C278.837 495.972 270.567 493.121 262.487 490.6C236.207 482.31 206.92 483.088 179.447 488.538C151.973 493.988 128.572 503.686 115.464 510.814C101.251 518.579 83.4794 513.295 75.7462 499.136C68.0765 485.087 73.4299 467.332 87.7058 459.676C105.735 449.853 134.834 438.039 168.292 431.48C201.686 424.812 241.634 422.865 280.358 435.116C290.13 438.273 299.554 441.337 308.741 444.245C337.836 453.843 364.132 462.418 390.069 466.801C422.755 472.419 450.427 470.374 475.821 455.712C503.534 439.713 517.576 410.489 527.459 368.708C531.159 352.933 533.99 336.928 536.881 320.007C537.813 314.483 538.856 308.895 539.836 303.197C543.833 280.799 548.617 257.213 556.361 235.438C570.906 194.338 603.09 166.958 628.605 150.467C641.694 142.031 653.888 135.87 662.898 131.842C667.458 129.795 671.134 128.259 673.817 127.297C675.159 126.816 676.216 126.352 677.052 126.016C677.447 125.935 677.778 125.743 677.999 125.616C678.11 125.552 678.22 125.488 678.33 125.425L678.394 125.535L678.504 125.471C678.504 125.471 678.504 125.471 687.887 153.196L678.504 125.471C693.893 120.252 710.472 128.571 715.586 143.803Z" fill="#EF6179"/><path fill-rule="evenodd" clip-rule="evenodd" d="M584.382 381.89C588.551 364.379 591.754 345.958 594.739 328.691C595.688 323.45 596.59 318.383 597.446 313.49C601.46 291.375 605.513 271.878 611.485 254.939C619.871 231.473 639.614 212.888 660.351 199.596C670.412 193.054 679.894 188.313 686.789 185.212C690.291 183.63 693.021 182.494 694.868 181.867C695.815 181.467 696.43 181.259 696.825 181.177C697.046 181.05 697.156 180.986 697.22 181.096C712.498 175.941 720.714 159.32 715.6 144.088C714.565 141.02 713.088 138.206 711.232 135.758C703.858 125.791 690.813 121.298 678.502 125.473L679.25 127.534C678.502 125.473 678.502 125.473 678.502 125.473L678.391 125.536C678.281 125.6 678.17 125.664 678.06 125.728C677.839 125.855 677.445 125.936 677.05 126.018C676.213 126.354 675.203 126.644 673.815 127.299C671.132 128.261 667.345 129.861 662.895 131.843C653.886 135.872 641.691 142.033 628.713 150.406C609.411 162.869 586.366 181.6 569.867 207.843C564.599 216.311 559.885 225.485 556.422 235.55C556.217 235.961 556.124 236.309 555.983 236.83C553.052 245.267 550.486 254.081 548.267 262.988C548.221 263.161 548.174 263.335 548.174 263.335C544.846 276.695 542.214 290.239 539.896 303.309C538.917 309.007 537.874 314.595 536.942 320.119C533.987 336.93 531.22 353.045 527.457 368.709C526.598 372.578 525.613 376.226 524.628 379.874C514.965 415.662 501.039 441.007 475.866 455.541C450.472 470.202 422.799 472.247 390.113 466.629C367.29 462.795 344.268 455.556 319.253 447.415C315.821 446.317 312.39 445.218 308.895 444.01C299.755 440.928 290.331 437.864 280.512 434.88C241.852 422.739 201.904 424.686 168.447 431.245C135.052 437.913 105.954 449.728 87.8605 459.44C86.7564 460.078 85.6523 460.715 84.7221 461.399C76.0662 467.57 71.7031 477.861 72.5847 488.057C72.9742 491.792 74.1064 495.537 76.028 499.121C83.7611 513.28 101.533 518.564 115.745 510.798C128.854 503.67 152.255 493.972 179.618 488.586C207.091 483.136 236.379 482.358 262.658 490.649C270.738 493.169 279.055 495.846 287.5 498.743C317.464 508.572 349.406 519.02 379.958 524.258C420.657 531.262 463.562 530.101 505.075 506.133C554.649 477.512 573.641 427.539 584.382 381.89ZM679.33 127.927L679.537 128.541C679.521 128.257 679.394 128.037 679.33 127.927ZM683.662 140.531C683.552 140.594 683.552 140.594 683.662 140.531L683.519 140.027C683.472 140.201 683.535 140.311 683.662 140.531Z" fill="#8CE096"/><path d="M714.421 133.343C716.416 135.976 718.012 138.954 719.165 142.164L719.39 142.809L719.392 142.816C725.207 160.136 715.869 179.026 698.498 184.887L695.394 185.934L695.389 185.927C693.746 186.531 691.422 187.509 688.435 188.858L688.429 188.861C682.09 191.712 673.529 195.973 664.371 201.77L662.532 202.95L662.52 202.956L662.51 202.964C642.121 216.033 623.22 234.002 615.256 256.269L614.713 257.834C609.15 274.084 605.268 292.792 601.381 314.205L601.381 314.204C600.527 319.088 599.627 324.145 598.68 329.373L597.55 335.897C594.878 351.24 591.952 367.363 588.275 382.806C577.472 428.719 558.142 480.115 507.075 509.598C464.472 534.195 420.522 535.298 379.279 528.2L379.279 528.199C348.386 522.903 316.159 512.354 286.252 502.544L286.227 502.536L286.202 502.527C277.804 499.646 269.523 496.981 261.466 494.467L261.454 494.464C236.024 486.441 207.464 487.14 180.396 492.51L180.391 492.51C153.448 497.814 130.429 507.367 117.656 514.312C101.496 523.137 81.303 517.124 72.5173 501.038L72.51 501.025L72.503 501.011C70.3401 496.978 69.0503 492.731 68.606 488.472L68.5991 488.402C67.6025 476.873 72.5297 465.179 82.4005 458.142L82.4018 458.142C83.5322 457.317 84.8172 456.579 85.8603 455.977L85.9136 455.946L85.9687 455.916C104.386 446.029 133.856 434.073 167.663 427.322L167.677 427.32C201.53 420.684 242.202 418.657 281.711 431.064C291.564 434.059 301.016 437.132 310.173 440.22L310.188 440.225L310.202 440.23C313.646 441.421 317.035 442.505 320.472 443.606L320.481 443.609L320.49 443.612C345.531 451.761 368.286 458.906 390.776 462.684L390.791 462.687C422.928 468.211 449.556 466.111 473.865 452.077C497.683 438.325 511.21 414.222 520.766 378.832C521.754 375.172 522.716 371.609 523.551 367.843L523.559 367.809L523.567 367.775C527.294 352.265 530.037 336.293 532.997 319.454L533.714 315.303C534.451 311.105 535.238 306.795 535.954 302.632L535.958 302.611C538.282 289.503 540.933 275.857 544.292 262.369L544.311 262.293L544.312 262.292L544.397 261.976C546.625 253.034 549.206 244.167 552.157 235.657C552.269 235.238 552.425 234.675 552.713 234.038C556.289 223.708 561.12 214.33 566.471 205.731L566.476 205.722L566.481 205.715C583.401 178.801 606.962 159.689 626.542 147.045L626.544 147.045C639.723 138.542 652.103 132.287 661.262 128.192L661.267 128.19C665.638 126.243 669.476 124.617 672.295 123.596C673.71 122.946 675.22 122.442 675.557 122.307L675.891 122.173L676.243 122.1C676.305 122.088 676.355 122.076 676.401 122.067L676.501 122.009L676.52 122.041C676.563 122.031 676.587 122.026 676.598 122.023C676.588 122.026 676.562 122.034 676.524 122.047L677.478 123.701C677.851 124.01 678.208 124.578 678.501 125.473L677.217 121.685C691.214 116.938 706.041 122.051 714.42 133.343L714.421 133.343ZM715.6 144.088C714.564 141.02 713.088 138.207 711.233 135.759C703.859 125.791 690.812 121.298 678.501 125.473L678.06 125.728C677.839 125.855 677.444 125.937 677.049 126.018C676.213 126.354 675.203 126.644 673.815 127.299C671.132 128.261 667.344 129.861 662.895 131.843C653.885 135.872 641.691 142.033 628.713 150.406C609.411 162.87 586.366 181.6 569.867 207.843C564.598 216.311 559.885 225.485 556.422 235.55C556.218 235.961 556.123 236.309 555.982 236.83C553.052 245.268 550.485 254.082 548.267 262.988C548.221 263.159 548.174 263.331 548.173 263.335C544.846 276.695 542.213 290.239 539.896 303.309C538.916 309.007 537.874 314.595 536.941 320.119C533.987 336.93 531.22 353.046 527.456 368.71C526.598 372.578 525.613 376.226 524.628 379.874C514.965 415.663 501.038 441.007 475.865 455.541C450.471 470.202 422.799 472.248 390.113 466.629C367.29 462.795 344.268 455.556 319.253 447.416C315.822 446.317 312.39 445.219 308.895 444.01C299.755 440.929 290.331 437.864 280.512 434.881C241.852 422.74 201.904 424.686 168.447 431.245C135.052 437.914 105.954 449.728 87.8603 459.441C86.7563 460.078 85.6521 460.716 84.7219 461.399C76.066 467.57 71.7024 477.861 72.5839 488.057C72.9735 491.792 74.1056 495.538 76.0271 499.121C83.7602 513.28 101.532 518.563 115.745 510.798C128.853 503.67 152.255 493.972 179.618 488.586C207.091 483.136 236.379 482.358 262.658 490.649C270.738 493.169 279.055 495.846 287.499 498.743C317.464 508.572 349.405 519.02 379.957 524.258C420.657 531.262 463.561 530.102 505.075 506.134C554.648 477.513 573.64 427.54 584.382 381.891C588.551 364.379 591.754 345.959 594.739 328.691C595.688 323.451 596.59 318.383 597.445 313.49C601.46 291.375 605.513 271.878 611.484 254.939C619.871 231.473 639.614 212.889 660.351 199.597C670.412 193.055 679.893 188.314 686.788 185.213C690.291 183.63 693.021 182.494 694.868 181.867C695.814 181.468 696.43 181.259 696.824 181.178C697.045 181.05 697.156 180.987 697.219 181.096C712.497 175.941 720.713 159.32 715.6 144.088ZM683.662 140.531C683.535 140.311 683.472 140.201 683.518 140.027L683.662 140.531ZM679.33 127.927C679.393 128.037 679.52 128.257 679.537 128.541L679.33 127.927Z" fill="white"/><path fill-rule="evenodd" clip-rule="evenodd" d="M381.025 480.969C363.637 477.37 346.133 471.785 328.96 466.009C324.422 464.523 319.994 462.973 315.456 461.487C302.821 457.197 290.36 452.953 278.107 449.322C219.226 431.991 166.731 443.822 127.215 459.011C107.236 466.733 97.36 471.555 90.2469 475.808C86.667 478.022 83.7026 480.026 80.36 482.396C79.8715 482.825 79.4299 483.08 78.8778 483.399C76.9071 484.83 74.7155 486.388 72.1927 488.138C71.2007 478.006 75.6742 467.651 84.3301 461.48C85.3707 460.733 86.3643 460.159 87.4684 459.522C105.498 449.699 134.597 437.884 168.055 431.326C201.449 424.657 241.397 422.71 280.12 434.961C290.003 438.055 299.317 441.183 308.503 444.091C311.998 445.299 315.429 446.398 318.861 447.496C343.876 455.637 366.945 462.702 389.721 466.71C422.407 472.328 450.08 470.283 475.474 455.622C500.647 441.088 514.509 415.633 524.236 379.955C526.32 373.62 528.039 366.908 529.567 359.867C532.906 344.741 535.485 329.32 538.065 313.9C538.934 308.266 539.976 302.678 540.956 296.98C542.961 285.41 545.094 274.06 547.765 263.133C547.812 262.959 547.859 262.785 547.859 262.785C549.983 254.226 552.235 245.887 554.978 238.144C555.119 237.623 555.323 237.212 555.464 236.691C558.85 227.257 563.641 217.452 569.412 207.814C586.259 181.663 609.413 162.869 628.605 150.469C641.694 142.032 653.888 135.872 662.898 131.843C667.458 129.797 671.134 128.261 673.817 127.299C675.159 126.817 676.216 126.354 677.052 126.017C677.447 125.936 677.778 125.745 678.063 125.727C678.173 125.664 678.284 125.6 678.394 125.536L678.504 125.472C678.504 125.472 678.504 125.472 679.253 127.533L678.504 125.472C690.815 121.298 703.861 125.791 711.219 135.474C702.12 136.034 692.868 137.857 683.665 140.53C663.808 146.423 643.821 156.935 625.943 170.337C599.159 190.493 577.873 216.86 568.546 242.776C562.668 259.368 558.662 278.691 555.133 299.353C554.137 304.767 553.315 310.227 552.272 315.816C549.646 331.41 547.036 347.288 543.604 362.761C534.353 404.617 519.332 445.404 483.171 468.189C450.81 488.632 415.754 488.341 381.025 480.969Z" fill="#65C170"/><path fill-rule="evenodd" clip-rule="evenodd" d="M799.657 289.421C789.022 277.377 770.52 276.181 758.416 286.835C758.416 286.835 758.196 286.963 758.149 287.136C757.881 287.437 757.282 287.93 756.573 288.486C755.044 289.662 752.758 291.568 749.636 293.811C743.503 298.231 734.657 304.072 723.961 309.514C702.017 320.717 676.115 328.633 651.536 324.053C633.88 320.755 614.858 314.58 593.699 306.999C589.034 305.293 584.195 303.541 579.182 301.742C562.735 295.694 545.181 289.257 527.931 284.112C482.963 270.48 430.126 261.831 380.443 290.516C339.039 314.42 316.472 351.06 302.188 389.809C291.4 419.06 284.588 451.882 278.118 482.747C276.231 491.462 274.565 500.05 272.708 508.308C266.748 535.212 251.43 560.186 232.974 581.254C214.518 602.322 194.418 617.739 181.691 625.527C167.859 633.952 163.549 651.985 171.945 665.762C180.341 679.539 198.394 683.78 212.225 675.355C229.747 664.652 254.528 645.359 276.937 619.663C299.409 594.077 321.069 560.455 329.821 520.793C331.973 510.752 334.031 501.058 336.106 491.648C342.342 461.652 348.064 434.592 357.237 409.938C368.714 378.822 384.322 355.88 409.716 341.219C437.428 325.219 469.758 327.67 510.883 340.001C526.394 344.684 541.67 350.236 557.77 356.192C563.02 358.147 568.381 360.037 573.805 362.038C595.201 369.776 618.019 377.425 640.749 381.607C683.726 389.496 723.529 375.314 750.568 361.463C764.419 354.346 775.851 346.866 783.734 341.141C787.786 338.215 790.955 335.799 793.13 333.957C794.217 333.036 795.148 332.352 795.857 331.796C796.125 331.495 796.456 331.303 796.677 331.176C796.787 331.112 796.898 331.048 796.945 330.875L797.055 330.811L797.165 330.747C797.165 330.747 797.165 330.747 777.846 308.759L797.102 330.637C809.141 319.873 810.291 301.466 799.657 289.421Z" fill="#FDF8F0"/><path fill-rule="evenodd" clip-rule="evenodd" d="M276.873 619.553C289.503 605.222 301.92 588.228 311.93 569.104C312.449 568.217 312.904 567.221 313.423 566.335C320.587 552.227 326.264 537.071 329.931 520.73C332.193 510.625 334.141 500.995 336.216 491.584C342.452 461.588 348.174 434.528 357.347 409.875C368.824 378.758 384.432 355.816 409.826 341.155C437.649 325.091 469.868 327.606 510.993 339.938C526.504 344.62 541.78 350.172 557.879 356.128C563.13 358.083 568.491 359.974 573.915 361.974C595.311 369.712 618.129 377.361 640.859 381.543C683.836 389.432 723.639 375.25 750.678 361.399C764.529 354.282 775.961 346.802 783.844 341.077C787.896 338.151 791.065 335.735 793.24 333.893C794.327 332.972 795.258 332.288 795.967 331.732C796.235 331.431 796.566 331.24 796.723 331.002C796.834 330.938 796.944 330.875 797.054 330.811L797.165 330.747L797.275 330.683C797.275 330.683 797.275 330.683 795.865 329.005L797.275 330.683C805.959 323.03 808.991 311.454 806.213 301.033C805.111 296.83 802.999 292.917 799.94 289.404C789.306 277.359 770.803 276.164 758.7 286.817C758.7 286.817 758.48 286.945 758.433 287.119C758.165 287.42 757.566 287.912 756.857 288.469C755.327 289.645 753.042 291.551 749.92 293.793C743.787 298.214 734.941 304.055 724.245 309.497C702.301 320.699 676.399 328.615 651.883 324.145C634.228 320.847 615.205 314.672 594.157 307.027C589.492 305.322 584.542 303.633 579.64 301.771C563.193 295.722 545.639 289.286 528.389 284.141C482.963 270.48 430.126 261.831 380.332 290.58C338.929 314.484 316.361 351.123 302.077 389.872C291.4 419.06 284.588 451.882 278.118 482.747C276.231 491.462 274.564 500.05 272.707 508.308C266.748 535.212 251.43 560.186 232.974 581.254C214.517 602.322 194.417 617.739 181.801 625.463C167.969 633.889 163.659 651.921 172.055 665.698C175.086 670.694 179.299 674.421 184.171 676.74C192.809 680.992 203.472 680.848 212.335 675.291C229.683 664.542 254.353 645.313 276.873 619.553ZM795.216 328.646C795.152 328.536 794.915 328.38 794.788 328.16L795.216 328.646ZM788.56 321.197C788.496 321.087 788.496 321.087 788.433 320.977L788.56 321.197Z" fill="#FDF8F0"/><path d="M802.957 286.777C806.386 290.715 808.807 295.166 810.077 300.002C813.228 311.82 809.795 324.981 799.921 333.684L799.806 333.553C799.64 333.761 799.486 333.923 799.371 334.035C799.336 334.069 799.301 334.101 799.267 334.132L799.276 334.147L799.211 334.184C799.107 334.279 799.019 334.356 798.973 334.395C798.938 334.424 798.911 334.447 798.892 334.463L798.718 334.658L798.436 334.88C797.613 335.525 796.838 336.088 795.826 336.945C793.533 338.887 790.269 341.372 786.195 344.314L784.649 345.426C776.713 351.086 765.688 358.184 752.507 364.957L752.502 364.959C725.124 378.984 684.369 393.597 640.137 385.477L640.135 385.477C617.061 381.232 593.98 373.484 572.555 365.736L572.543 365.732L572.531 365.728C567.247 363.778 561.673 361.809 556.484 359.877C540.388 353.921 525.217 348.41 509.838 343.767C468.971 331.514 438.154 329.419 411.826 344.619C387.897 358.435 372.86 379.979 361.632 409.831L361.1 411.259L361.096 411.269C352.612 434.069 347.101 459.012 341.298 486.802L340.133 492.398L340.128 492.422L340.122 492.446C338.343 500.516 336.58 509.119 334.665 517.853L333.834 521.604L333.834 521.605C330.206 537.774 324.653 552.796 317.669 566.795L316.936 568.253L316.875 568.356C316.677 568.693 316.482 569.07 316.229 569.558C316.011 569.98 315.741 570.499 315.446 571.011C305.266 590.448 292.663 607.686 279.874 622.198C257.087 648.261 232.121 667.735 214.46 678.68L213.986 678.972C203.991 685.01 192.077 685.089 182.405 680.329C176.847 677.671 172.061 673.418 168.636 667.774L168.636 667.772C159.102 652.119 163.994 631.626 179.72 622.047C192.01 614.521 211.792 599.363 229.965 578.619C248.149 557.861 263.035 533.477 268.802 507.443L268.805 507.43C270.667 499.149 272.283 490.797 274.204 481.926C280.659 451.129 287.526 418.008 298.32 388.498L298.324 388.489C312.799 349.221 335.841 311.648 378.332 287.115C429.621 257.504 483.859 266.573 529.533 280.307C546.922 285.494 564.591 291.974 581.021 298.017L581.041 298.024L581.06 298.031C585.956 299.891 590.731 301.515 595.531 303.27C616.537 310.899 635.302 316.979 652.619 320.213C675.876 324.448 700.822 316.964 722.426 305.934L722.431 305.931C732.898 300.606 741.568 294.883 747.582 290.548L747.587 290.544C750.632 288.357 752.706 286.616 754.389 285.32C754.729 285.054 755.01 284.828 755.225 284.646C755.265 284.612 755.3 284.579 755.331 284.552C755.59 284.216 755.832 283.997 755.946 283.897C756.052 283.804 756.152 283.724 756.24 283.658C770.005 271.715 790.899 273.119 802.939 286.756L802.949 286.766L802.957 286.777ZM806.214 301.033C805.112 296.83 802.999 292.917 799.941 289.404C789.306 277.359 770.803 276.163 758.7 286.817C758.693 286.822 758.479 286.948 758.433 287.118C758.165 287.419 757.567 287.913 756.857 288.469C755.328 289.645 753.043 291.551 749.921 293.793C743.788 298.214 734.941 304.054 724.245 309.496C702.301 320.699 676.399 328.615 651.884 324.145C634.228 320.848 615.206 314.672 594.157 307.028C589.492 305.322 584.542 303.633 579.64 301.771C563.193 295.722 545.639 289.286 528.389 284.141C482.963 270.48 430.126 261.831 380.332 290.579C338.929 314.484 316.361 351.123 302.077 389.872C291.4 419.06 284.588 451.882 278.118 482.747C276.231 491.462 274.565 500.05 272.708 508.308C266.748 535.212 251.43 560.186 232.974 581.253C214.517 602.321 194.417 617.739 181.801 625.463C167.969 633.889 163.659 651.921 172.055 665.698C175.086 670.694 179.3 674.42 184.172 676.74C192.809 680.992 203.473 680.848 212.336 675.291C229.684 664.542 254.354 645.313 276.873 619.553C289.503 605.222 301.92 588.227 311.93 569.104C312.449 568.217 312.905 567.222 313.424 566.335C320.588 552.227 326.264 537.071 329.931 520.73C332.193 510.625 334.141 500.995 336.216 491.585C342.452 461.588 348.175 434.528 357.348 409.875C368.825 378.758 384.432 355.816 409.826 341.155C437.649 325.092 469.868 327.607 510.993 339.938C526.504 344.621 541.781 350.172 557.88 356.129C563.13 358.083 568.491 359.974 573.915 361.974C595.311 369.712 618.13 377.361 640.859 381.543C683.836 389.432 723.639 375.251 750.678 361.399C764.529 354.282 775.961 346.801 783.844 341.077C787.896 338.151 791.066 335.735 793.241 333.893C794.328 332.972 795.258 332.289 795.967 331.732C796.235 331.431 796.566 331.239 796.723 331.001L797.276 330.683C805.959 323.03 808.992 311.454 806.214 301.033ZM798.488 332.058C798.462 332.078 798.435 332.098 798.408 332.116L798.726 332.328L798.488 332.058Z" fill="white"/><path fill-rule="evenodd" clip-rule="evenodd" d="M212.165 675.244C203.349 680.627 192.749 680.881 184.001 676.693C186.714 675.273 189.033 673.934 191.084 672.897C195.785 670.33 198.94 668.655 202.63 666.377C208.796 662.524 215.843 657.136 232.63 643.631C265.495 617.177 304.909 570.959 317.609 513.913C319.372 506.003 321.072 497.983 322.661 490.026C328.43 462.792 334.136 435.448 343.151 411.032C354.927 379.158 372.731 350.841 404.308 332.61C441.515 311.128 483.653 318.329 523.848 331.344C538.57 336.189 553.451 341.821 567.875 347.425C573.189 349.49 578.439 351.445 583.579 353.463C603.126 360.802 621.643 367.122 638.951 370.327C666.011 375.381 700.168 370.032 731.869 356.862C753.267 348.027 773.09 335.702 788.453 321.26C795.102 314.928 800.929 308.191 805.822 301.113C808.6 311.534 805.568 323.11 796.884 330.763L795.474 329.085C796.884 330.763 796.884 330.763 796.884 330.763L796.774 330.827L796.663 330.891C796.553 330.955 796.443 331.018 796.332 331.082C796.111 331.21 795.844 331.511 795.576 331.812C794.867 332.368 794.11 333.098 792.849 333.973C790.61 335.705 787.395 338.295 783.453 341.157C775.46 346.946 764.027 354.426 750.287 361.479C723.248 375.331 683.334 389.576 640.468 381.623C617.738 377.442 594.92 369.792 573.524 362.055C568.1 360.054 562.739 358.163 557.488 356.208C541.453 350.362 526.113 344.701 510.602 340.018C469.587 327.623 437.258 325.171 409.435 341.235C384.041 355.896 368.433 378.839 356.956 409.955C347.783 434.608 342.171 461.605 335.825 491.665C333.924 501.121 331.866 510.815 329.54 520.81C325.92 536.978 320.196 552.307 313.032 566.415C312.576 567.411 312.058 568.298 311.539 569.184C301.529 588.308 289.222 605.238 276.482 619.633C254.357 645.311 229.687 664.541 212.165 675.244Z" fill="#DFDFDF"/><path d="M700.05 485.337C684.302 494.429 664.193 489.082 655.135 473.394C646.078 457.706 651.502 437.618 667.251 428.526C682.999 419.433 703.108 424.78 712.166 440.468C721.223 456.156 715.799 476.244 700.05 485.337Z" fill="#222761"/><path d="M700.05 485.337C715.798 476.245 721.222 456.156 712.165 440.468C703.108 424.781 682.998 419.434 667.25 428.526L666.519 428.96C651.336 438.245 646.219 457.952 655.135 473.395C664.051 488.837 683.676 494.26 699.308 485.753L700.05 485.337ZM704.05 492.265C684.5 503.552 659.488 496.934 648.207 477.395C636.926 457.855 643.7 432.885 663.25 421.598C682.799 410.311 707.812 416.929 719.093 436.468C730.374 456.008 723.599 480.979 704.05 492.265Z" fill="white"/><path d="M623.463 463.575C615.588 468.121 605.534 465.448 601.005 457.604C596.476 449.76 599.188 439.715 607.063 435.169C614.937 430.623 624.992 433.296 629.52 441.14C634.049 448.984 631.337 459.029 623.463 463.575Z" fill="#EF6179"/><path d="M623.462 463.575C631.213 459.1 633.962 449.297 629.726 441.51L629.52 441.141C624.991 433.297 614.937 430.623 607.063 435.169C599.311 439.645 596.562 449.447 600.798 457.235L601.005 457.605C605.533 465.448 615.588 468.121 623.462 463.575ZM627.462 470.503C615.787 477.244 600.829 473.3 594.076 461.605C587.324 449.909 591.387 434.982 603.063 428.241C614.738 421.501 629.696 425.446 636.448 437.141C643.2 448.836 639.138 463.762 627.462 470.503Z" fill="white"/><path d="M284.146 341.934C276.272 346.481 266.217 343.807 261.689 335.963C257.16 328.119 259.872 318.075 267.746 313.529C275.621 308.982 285.675 311.656 290.204 319.5C294.733 327.344 292.021 337.388 284.146 341.934Z" fill="#EF6179"/><path d="M284.146 341.934C291.897 337.459 294.646 327.657 290.41 319.87L290.204 319.5C285.675 311.657 275.62 308.983 267.746 313.529C259.995 318.004 257.246 327.807 261.481 335.594L261.688 335.964C266.217 343.808 276.272 346.48 284.146 341.934ZM288.146 348.862C276.471 355.603 261.512 351.659 254.76 339.964C248.008 328.268 252.071 313.341 263.746 306.601C275.422 299.86 290.38 303.805 297.132 315.5C303.884 327.196 299.821 342.122 288.146 348.862Z" fill="white"/><path d="M698.3 445.664C696.077 446.947 693.238 446.193 691.96 443.978C690.681 441.763 691.447 438.928 693.67 437.644C695.893 436.361 698.732 437.116 700.01 439.33C701.289 441.545 700.523 444.38 698.3 445.664Z" fill="white"/><path d="M333.902 268.292C327.499 271.989 319.323 269.815 315.641 263.436C311.958 257.058 314.163 248.89 320.566 245.194C326.969 241.497 335.145 243.671 338.828 250.049C342.511 256.428 340.305 264.595 333.902 268.292Z" fill="#39A6D2"/><path d="M333.902 268.293C340.205 264.654 342.441 256.682 338.996 250.349L338.828 250.05C335.145 243.671 326.969 241.498 320.566 245.194L320.269 245.37C314.193 249.085 312.082 256.905 315.471 263.136L315.64 263.437C319.265 269.716 327.245 271.92 333.601 268.461L333.902 268.293ZM337.902 275.221C327.697 281.112 314.618 277.667 308.712 267.437C302.806 257.207 306.362 244.158 316.566 238.266C326.77 232.375 339.85 235.82 345.756 246.05C351.662 256.28 348.106 269.33 337.902 275.221Z" fill="white"/><path d="M203.719 384.334C189.647 392.458 171.679 387.68 163.586 373.662C155.492 359.645 160.339 341.695 174.411 333.57C188.483 325.446 206.452 330.223 214.545 344.241C222.638 358.259 217.791 376.209 203.719 384.334Z" fill="#1A7FA7"/><path d="M203.72 384.333C217.572 376.336 222.485 358.818 214.915 344.901L214.545 344.242C206.452 330.224 188.484 325.446 174.412 333.57C160.56 341.568 155.647 359.086 163.216 373.003L163.586 373.663C171.679 387.681 189.648 392.458 203.72 384.333ZM207.72 391.262C189.847 401.581 166.975 395.532 156.658 377.663C146.341 359.794 152.539 336.961 170.412 326.642C188.285 316.323 211.157 322.373 221.474 340.242C231.79 358.111 225.593 380.942 207.72 391.262Z" fill="white"/><path d="M204.558 350.011C202.335 351.295 199.496 350.54 198.218 348.326C196.939 346.111 197.705 343.275 199.928 341.992C202.151 340.708 204.99 341.463 206.268 343.678C207.547 345.892 206.781 348.728 204.558 350.011Z" fill="white"/></g><defs><clipPath id="clip0_1126_5042"><rect width="459.735" height="754.732" fill="white" transform="translate(654.062 12) rotate(60)"/></clipPath></defs></svg>