<svg width="624" height="624" viewBox="0 0 624 624" fill="none" xmlns="http://www.w3.org/2000/svg"><path d="M545.931 185.218C541.27 175.827 534.745 167.375 526.821 158.923C522.16 154.227 517.032 150.001 511.439 145.775C492.794 132.157 469.488 120.888 442.454 113.844C417.283 107.27 389.317 103.983 358.553 105.392C337.578 106.331 315.204 109.618 291.898 115.253C280.245 118.07 268.593 121.357 256.94 125.583C239.227 132.157 221.049 141.079 203.336 152.349C168.844 174.888 136.682 206.349 112.444 241.566C103.588 254.714 95.6637 268.331 89.1381 282.418C73.2901 318.575 66.2984 356.14 73.2901 391.827C76.5529 409.201 83.5447 425.636 93.7992 441.601C104.986 458.505 120.834 474.47 141.343 489.027C163.25 504.053 189.353 513.444 217.32 517.201C238.761 520.018 261.135 520.018 284.441 517.201C337.578 511.097 393.512 490.436 441.055 459.914C445.25 457.097 449.445 454.749 453.174 451.462C461.098 445.827 469.022 439.723 476.48 433.618C489.998 422.349 502.583 410.14 513.303 397.462C525.888 382.905 536.609 366.94 544.999 350.036C546.398 347.218 547.796 344.401 549.194 341.114C570.636 293.688 572.966 240.157 545.931 185.218ZM392.579 269.27C391.181 274.436 389.317 279.601 386.054 284.766C379.994 295.097 370.672 305.897 359.019 314.818C354.824 317.636 350.629 320.923 345.968 323.27C345.502 323.74 345.036 323.74 344.569 324.21C319.865 337.827 292.831 344.87 270.923 344.401C259.736 343.931 249.948 341.584 242.024 337.357C235.498 334.07 231.303 328.436 229.439 321.392C225.71 308.714 229.905 291.81 243.888 274.905C250.414 267.392 259.27 259.41 269.991 252.366C274.652 249.549 279.313 246.731 284.441 243.914C303.551 233.583 321.264 228.418 337.112 227.01C360.883 224.662 379.528 231.236 388.85 242.975C389.317 243.914 390.249 244.383 390.715 245.323C393.978 251.897 394.91 260.349 392.579 269.27Z" fill="#E8E6E6"/><path d="M358.186 97.4016C389.748 95.9563 418.519 99.3256 444.469 106.103C471.55 113.158 495.139 124.346 514.315 137.987L516.21 139.353L516.261 139.392C521.654 143.466 526.784 147.659 531.549 152.343L532.498 153.287L532.579 153.368L532.657 153.451C540.626 161.951 547.521 170.752 552.61 180.696L553.097 181.662L553.103 181.674L553.109 181.687C581.249 238.873 578.853 294.891 556.509 344.352C555.023 347.837 553.542 350.818 552.165 353.593C543.462 371.128 532.36 387.653 519.355 402.695L519.354 402.694C508.299 415.758 495.392 428.267 481.603 439.763L481.575 439.786L481.547 439.809C474.062 445.935 466.101 452.073 458.113 457.765C453.929 461.371 448.914 464.273 445.515 466.555L445.447 466.602L445.377 466.647C396.889 497.775 339.8 518.894 285.353 525.149L285.352 525.148C261.455 528.033 238.422 528.043 216.277 525.133L216.266 525.131L216.255 525.13C187.211 521.229 159.888 511.447 136.818 495.624L136.764 495.588L136.713 495.551C115.55 480.53 98.9524 463.884 87.1276 446.016L87.0973 445.971L87.068 445.924C76.3506 429.238 68.9101 411.849 65.4274 393.304L65.4284 393.303C58.0551 355.584 65.53 316.35 81.8102 279.207L81.8444 279.131L81.8786 279.056C88.6138 264.516 96.7607 250.529 105.808 237.097L105.853 237.031C130.668 200.976 163.575 168.774 198.96 145.652L199.042 145.599C217.227 134.029 235.911 124.855 254.156 118.083L254.184 118.073L254.212 118.063C266.219 113.708 278.171 110.342 290.018 107.478C313.76 101.738 336.642 98.3668 358.186 97.4016ZM442.454 113.845C417.284 107.271 389.316 103.984 358.552 105.393L356.582 105.488C336.178 106.539 314.475 109.795 291.898 115.253L289.714 115.787C278.789 118.485 267.864 121.621 256.939 125.583C239.227 132.157 221.048 141.079 203.336 152.349C168.843 174.888 136.681 206.349 112.443 241.567C103.587 254.714 95.6629 268.331 89.1374 282.418C73.2894 318.575 66.298 356.14 73.2897 391.827C76.5525 409.201 83.5441 425.636 93.7985 441.601C104.985 458.505 120.833 474.471 141.342 489.028C163.25 504.054 189.353 513.445 217.32 517.201C238.761 520.019 261.135 520.019 284.44 517.201C336.747 511.192 391.764 491.077 438.82 461.337L441.055 459.914C445.25 457.097 449.446 454.749 453.175 451.462C460.108 446.532 467.041 441.241 473.662 435.906L476.48 433.618C489.997 422.349 502.583 410.14 513.303 397.462C525.495 383.361 535.937 367.937 544.206 351.618L544.999 350.036C546.397 347.219 547.796 344.401 549.194 341.114C570.468 294.059 572.928 240.994 546.559 186.506L545.931 185.219C541.27 175.828 534.744 167.375 526.82 158.923C522.159 154.227 517.032 150.001 511.438 145.775C493.376 132.583 470.94 121.594 444.977 114.517L442.454 113.845ZM337.111 227.01C360.883 224.662 379.528 231.236 388.85 242.975C389.316 243.914 390.248 244.384 390.715 245.322C393.977 251.896 394.909 260.349 392.579 269.271C391.18 274.436 389.316 279.601 386.053 284.766C379.994 295.096 370.672 305.897 359.019 314.819C354.824 317.636 350.629 320.923 345.967 323.271L345.793 323.427C345.385 323.748 344.977 323.799 344.569 324.21C319.865 337.827 292.83 344.871 270.923 344.402C260.086 343.947 250.561 341.729 242.772 337.748L242.024 337.358C235.703 334.173 231.567 328.786 229.62 322.049L229.438 321.393C225.709 308.715 229.905 291.81 243.888 274.906C250.414 267.392 259.27 259.41 269.991 252.366C274.652 249.549 279.313 246.732 284.44 243.914C302.954 233.907 320.155 228.746 335.62 227.153L337.111 227.01ZM382.269 247.562C375.123 238.944 359.822 232.806 337.897 234.971L337.859 234.975L337.82 234.979C323.181 236.28 306.513 241.076 288.245 250.951C283.349 253.643 278.876 256.343 274.26 259.133C264.237 265.735 256.002 273.173 249.992 280.078C237.265 295.497 234.487 309.469 236.99 318.698L237.114 319.135L237.144 319.239L237.173 319.345C238.474 324.26 241.179 327.834 245.226 330.007L245.623 330.213L245.706 330.255L245.789 330.299C252.38 333.814 260.892 335.961 271.157 336.404C291.242 336.82 316.622 330.358 340.142 317.512C340.426 317.307 340.689 317.137 340.917 317.002L341.207 316.711L342.369 316.126C346.368 314.112 349.586 311.532 354.312 308.344C365.098 300.053 373.662 290.08 379.153 280.719L379.219 280.605L379.29 280.493C381.973 276.245 383.573 271.913 384.848 267.21C386.641 260.315 385.938 254.139 383.854 249.529C383.664 249.332 383.405 249.058 383.147 248.751C382.879 248.432 382.574 248.036 382.269 247.562ZM341.651 316.604C341.658 316.6 341.664 316.598 341.67 316.595C341.729 316.565 341.716 316.569 341.651 316.604Z" fill="white"/><path d="M549.194 341.113C547.796 343.931 546.398 346.748 544.999 350.035C536.609 366.94 525.889 382.905 513.303 397.461C501.65 409.2 489.065 421.409 476.48 433.618C469.022 439.722 461.098 445.826 453.174 451.461C448.979 454.279 445.25 457.096 441.055 459.913C393.512 490.435 337.578 510.627 284.441 517.2C261.601 520.018 238.761 520.018 217.32 517.2C189.353 513.444 163.25 504.522 141.343 489.026C120.834 474.94 104.986 458.505 93.7992 441.6C83.0786 425.635 76.5529 409.2 73.2901 391.827C66.2984 356.14 73.2901 318.574 89.1381 282.887C95.6637 268.8 103.122 255.183 112.444 242.035C136.216 206.818 168.378 175.357 203.336 152.818C220.583 141.548 238.761 132.157 256.94 126.053C268.593 121.827 297.026 115.253 249.016 140.609C142.741 196.018 102.189 269.74 112.444 327.496C141.343 489.027 381.859 424.696 468.556 321.392C547.796 227.479 475.548 125.583 526.355 158.922C534.745 167.374 541.27 176.296 545.465 185.218C572.966 240.157 570.636 293.687 549.194 341.113Z" fill="#F2F2F2"/><path d="M217.319 516.731C189.352 512.974 163.25 504.052 141.343 488.557C120.833 474.47 104.986 458.035 93.7988 441.131C92.8665 385.722 129.635 349.96 228.972 320.922C230.837 327.965 235.498 333.131 241.557 336.887C249.481 341.113 259.27 343.461 270.457 343.931C199.141 387.6 209.862 497.009 217.319 516.731Z" fill="#DB3E3E"/><path d="M122.284 359.794C128.948 382.17 166.149 427.355 262.416 421.76L262.648 425.753C165.013 431.427 125.77 385.517 118.45 360.937L122.284 359.794Z" fill="black"/><path d="M545 350.034C525.423 389.477 492.329 423.756 453.175 451.46C432.666 370.695 392.114 333.13 345.969 323.269C364.613 312.469 378.131 298.382 386.055 284.764C468.091 275.373 535.678 292.277 545 350.034Z" fill="#DB3E3E"/><path d="M510.162 219.73C504.5 267.26 479.739 305.562 451.699 334.577C423.661 363.591 392.246 383.426 373.038 394.045L371.103 390.544C390.116 380.033 421.161 360.423 448.823 331.798C476.485 303.174 500.665 265.641 506.19 219.258L510.162 219.73Z" fill="black"/><path d="M510.975 145.305C444.786 136.853 402.37 204.47 388.386 243.444C379.064 231.705 360.419 225.131 336.647 227.479C319.867 176.297 333.851 119.479 358.089 105.392C388.852 103.983 417.285 107.27 441.99 113.844C469.49 120.888 492.796 132.157 510.975 145.305Z" fill="#DB3E3E"/><path d="M283.973 244.382C279.312 246.73 274.651 249.547 269.524 252.834C258.337 259.878 249.947 267.391 243.421 275.373C209.395 242.034 143.672 239.686 111.977 242.973C135.748 207.756 167.91 176.295 202.869 153.756C262.066 166.434 282.575 217.617 283.973 244.382Z" fill="#DB3E3E"/><path d="M392.579 269.269C394.91 260.348 393.978 252.365 390.249 245.791C389.783 244.852 389.317 243.913 388.384 243.443C379.062 231.704 360.417 225.13 336.645 227.478C320.798 228.887 303.085 234.521 283.974 244.382C279.313 246.73 274.652 249.548 269.525 252.835C258.338 259.878 249.948 267.391 243.422 275.374C229.439 291.808 225.244 309.182 228.973 321.861C230.837 328.904 235.498 334.069 241.558 337.826C249.482 342.052 259.27 344.4 270.457 344.869C292.831 345.808 319.399 338.765 344.103 324.678C344.569 324.208 345.036 324.208 345.502 323.739C350.163 320.921 354.358 318.104 358.553 315.287C305.416 361.304 201.006 367.408 197.743 306.835C194.48 246.261 298.424 176.295 356.222 195.078C413.088 212.452 393.512 265.982 392.579 269.269Z" fill="#606060" style="mix-blend-mode:color-burn"/></svg>