<svg width="624" height="624" viewBox="0 0 624 624" fill="none" xmlns="http://www.w3.org/2000/svg"><path fill-rule="evenodd" clip-rule="evenodd" d="M560.889 286.764C560.791 287.081 560.676 287.393 560.543 287.7L529.326 372.231C504.373 439.802 445.13 485.241 378.146 495.417L373.695 509.893C371.243 517.871 335.295 513.9 293.405 501.022C251.515 488.144 219.545 471.235 221.998 463.256L225.438 452.068C198.958 429.59 179.169 400.356 168.019 367.804C118.493 338.695 88.4707 309.407 73.6813 282.003C58.1032 253.137 59.0006 224.671 75.1385 204.673C90.681 185.414 116.823 178.743 141.233 185.691C153.929 189.304 165.967 196.435 176.408 207.015L185.017 172.251C185.08 171.923 185.159 171.6 185.257 171.283C192.003 149.34 281.56 157.404 385.287 189.293C489.015 221.182 567.634 264.821 560.889 286.764ZM164.222 256.224C154.918 234.598 141.589 225.08 130.889 222.034C119.004 218.652 109.293 222.52 104.544 228.404C100.391 233.55 96.5598 244.833 106.935 264.057C114.773 278.581 130.403 296.541 157.982 316.345C156.962 297.744 158.656 278.697 163.356 259.72L164.222 256.224Z" fill="#EED0BF"/><path d="M203.453 152.465C215.393 150.471 231.238 150.478 249.621 152.133C286.523 155.455 335.407 165.589 387.638 181.647C439.869 197.704 486.004 216.783 518.399 234.764C534.537 243.722 547.649 252.617 556.407 260.974C560.774 265.142 564.392 269.488 566.665 273.957C568.958 278.465 570.185 283.747 568.536 289.114C568.38 289.622 568.199 290.12 567.996 290.61L536.831 375.002C511.455 443.718 452.039 490.451 384.336 502.502L381.342 512.243C380.137 516.164 377.143 518.369 374.748 519.529C372.345 520.694 369.613 521.294 367.002 521.621C361.725 522.284 354.977 522.061 347.461 521.231C332.297 519.555 312.329 515.209 291.055 508.669C269.781 502.129 250.82 494.506 237.333 487.373C230.649 483.838 224.941 480.232 220.947 476.719C218.971 474.981 217.047 472.95 215.713 470.637C214.384 468.332 213.147 464.826 214.352 460.905L216.265 454.681C191.425 432.429 172.619 404.331 161.437 373.204C112.723 344.182 82.1269 314.497 66.641 285.802C49.9788 254.927 50.2196 222.814 68.9134 199.65C86.7527 177.544 116.381 170.301 143.423 177.997C153.446 180.85 163.025 185.658 171.803 192.329L177.216 170.474C177.324 169.955 177.454 169.44 177.611 168.932C179.261 163.565 183.244 159.884 187.673 157.443C192.064 155.022 197.499 153.46 203.453 152.465ZM385.287 189.293C281.56 157.404 192.003 149.341 185.257 171.283C185.16 171.601 185.08 171.923 185.018 172.251L176.409 207.015C165.968 196.435 153.929 189.305 141.234 185.692C116.823 178.744 90.6816 185.414 75.139 204.673C59.0011 224.67 58.1039 253.137 73.682 282.003C88.4715 309.407 118.494 338.695 168.019 367.804C179.17 400.356 198.958 429.591 225.438 452.069L221.998 463.256C219.546 471.234 251.516 488.143 293.406 501.022C335.295 513.9 371.243 517.871 373.696 509.893L378.146 495.417C445.13 485.241 504.373 439.801 529.327 372.231L560.543 287.7C560.676 287.394 560.791 287.081 560.889 286.764C567.635 264.821 489.015 221.182 385.287 189.293ZM104.544 228.404C109.293 222.52 119.005 218.652 130.89 222.034C141.59 225.08 154.918 234.598 164.222 256.224L163.356 259.72C158.656 278.697 156.963 297.744 157.983 316.346C130.404 296.542 114.773 278.581 106.935 264.057C96.5604 244.833 100.391 233.551 104.544 228.404ZM128.7 229.729C119.516 227.115 113.263 230.339 110.77 233.428C109.112 235.483 104.741 243.147 113.975 260.257C119.836 271.117 130.871 284.71 149.785 300.048C150.199 286.052 152.097 271.903 155.59 257.797L155.792 256.978C147.402 238.989 136.402 231.921 128.7 229.729Z" fill="white"/><ellipse cx="371.962" cy="232.637" rx="181.376" ry="30.2294" transform="rotate(17.0891 371.962 232.637)" fill="#B6886D"/><ellipse cx="369.743" cy="239.86" rx="166.262" ry="22.672" transform="rotate(17.0891 369.743 239.86)" fill="#481919"/><path d="M214.917 217.905C254.834 242.008 306.236 266.821 361.56 278.746L360.717 282.656C304.815 270.607 252.991 245.568 212.849 221.329L214.917 217.905Z" fill="black"/><path opacity="0.5" d="M414.133 162.724C422.148 218.951 376.368 234.131 352.476 234.692C381.613 189.883 344.634 142.206 375.782 107.448C404.667 75.2148 447.58 76.6711 468.881 84.5374C444.989 85.0987 406.119 106.496 414.133 162.724Z" fill="#D9D9D9"/><path opacity="0.5" d="M441.403 186.78C442.965 212.561 416.69 237.163 403.357 246.242C417.34 247.905 446.64 246.898 451.97 229.561C457.3 212.224 447.146 193.817 441.403 186.78Z" fill="#D9D9D9"/><path d="M167.794 343.806C161.79 332.473 159.006 322.061 158.078 316.505C128.164 294.064 80.9272 251.086 109.089 224.365C74.5279 240.047 103.366 306.988 167.794 343.806Z" fill="#DBB7A2"/><path d="M328.959 488.621C292.082 483.874 244.503 461.797 225.207 451.732L221.684 463.191C221.328 464.349 221.484 465.585 222.224 466.544C246.664 498.223 358.363 521.958 372.653 511.73C373.15 511.374 373.417 510.847 373.596 510.263L378.66 493.791C377.459 494.046 365.837 493.368 328.959 488.621Z" fill="#DBB7A2"/><path d="M401.286 488.444C376.495 496.951 350.041 494.808 329.908 490.611C319.822 488.508 311.271 485.88 305.239 483.776C302.222 482.723 299.831 481.801 298.19 481.14C297.37 480.809 296.736 480.543 296.305 480.359C296.09 480.267 295.925 480.196 295.813 480.146C295.757 480.122 295.713 480.102 295.683 480.089C295.669 480.083 295.657 480.077 295.649 480.073C295.645 480.072 295.642 480.07 295.639 480.069C295.638 480.069 295.637 480.069 295.637 480.069C295.636 480.068 295.635 480.067 296.455 478.243C297.252 476.471 297.275 476.421 297.275 476.419C297.277 476.42 297.279 476.421 297.282 476.422C297.287 476.425 297.296 476.428 297.308 476.433C297.332 476.444 297.369 476.461 297.419 476.483C297.52 476.527 297.673 476.594 297.877 476.681C298.283 476.854 298.892 477.11 299.685 477.43C301.273 478.07 303.604 478.969 306.556 479.999C312.462 482.059 320.843 484.636 330.725 486.695C350.529 490.824 376.166 492.835 399.988 484.661L401.286 488.444Z" fill="black"/></svg>