<svg width="168" height="172" viewBox="0 0 168 172" fill="none" xmlns="http://www.w3.org/2000/svg">
<rect width="168" height="172" rx="24" fill="#303038"/>
<path d="M26.208 26.832H30.8314V31.5655H26.208V26.832ZM30.8314 26.832H35.4547V31.5655H30.8314V26.832ZM35.4547 26.832H40.0781V31.5655H35.4547V26.832ZM40.0781 26.832H44.7014V31.5655H40.0781V26.832ZM44.7014 26.832H49.3248V31.5655H44.7014V26.832ZM49.3248 26.832H53.9482V31.5655H49.3248V26.832ZM53.9482 26.832H58.5715V31.5655H53.9482V26.832ZM77.065 26.832H81.6883V31.5655H77.065V26.832ZM90.9351 26.832H95.5584V31.5655H90.9351V26.832ZM95.5584 26.832H100.182V31.5655H95.5584V26.832ZM100.182 26.832H104.805V31.5655H100.182V26.832ZM109.428 26.832H114.052V31.5655H109.428V26.832ZM114.052 26.832H118.675V31.5655H114.052V26.832ZM118.675 26.832H123.299V31.5655H118.675V26.832ZM123.299 26.832H127.922V31.5655H123.299V26.832ZM127.922 26.832H132.545V31.5655H127.922V26.832ZM132.545 26.832H137.169V31.5655H132.545V26.832ZM137.169 26.832H141.792V31.5655H137.169V26.832ZM26.208 31.5655H30.8314V36.2989H26.208V31.5655ZM53.9482 31.5655H58.5715V36.2989H53.9482V31.5655ZM67.8182 31.5655H72.4416V36.2989H67.8182V31.5655ZM86.3117 31.5655H90.9351V36.2989H86.3117V31.5655ZM90.9351 31.5655H95.5584V36.2989H90.9351V31.5655ZM100.182 31.5655H104.805V36.2989H100.182V31.5655ZM109.428 31.5655H114.052V36.2989H109.428V31.5655ZM137.169 31.5655H141.792V36.2989H137.169V31.5655ZM26.208 36.2989H30.8314V41.0324H26.208V36.2989ZM35.4547 36.2989H40.0781V41.0324H35.4547V36.2989ZM40.0781 36.2989H44.7014V41.0324H40.0781V36.2989ZM44.7014 36.2989H49.3248V41.0324H44.7014V36.2989ZM53.9482 36.2989H58.5715V41.0324H53.9482V36.2989ZM67.8182 36.2989H72.4416V41.0324H67.8182V36.2989ZM72.4416 36.2989H77.065V41.0324H72.4416V36.2989ZM81.6883 36.2989H86.3117V41.0324H81.6883V36.2989ZM90.9351 36.2989H95.5584V41.0324H90.9351V36.2989ZM95.5584 36.2989H100.182V41.0324H95.5584V36.2989ZM109.428 36.2989H114.052V41.0324H109.428V36.2989ZM118.675 36.2989H123.299V41.0324H118.675V36.2989ZM123.299 36.2989H127.922V41.0324H123.299V36.2989ZM127.922 36.2989H132.545V41.0324H127.922V36.2989ZM137.169 36.2989H141.792V41.0324H137.169V36.2989ZM26.208 41.0324H30.8314V45.7658H26.208V41.0324ZM35.4547 41.0324H40.0781V45.7658H35.4547V41.0324ZM40.0781 41.0324H44.7014V45.7658H40.0781V41.0324ZM44.7014 41.0324H49.3248V45.7658H44.7014V41.0324ZM53.9482 41.0324H58.5715V45.7658H53.9482V41.0324ZM63.1949 41.0324H67.8182V45.7658H63.1949V41.0324ZM67.8182 41.0324H72.4416V45.7658H67.8182V41.0324ZM81.6883 41.0324H86.3117V45.7658H81.6883V41.0324ZM90.9351 41.0324H95.5584V45.7658H90.9351V41.0324ZM95.5584 41.0324H100.182V45.7658H95.5584V41.0324ZM109.428 41.0324H114.052V45.7658H109.428V41.0324ZM118.675 41.0324H123.299V45.7658H118.675V41.0324ZM123.299 41.0324H127.922V45.7658H123.299V41.0324ZM127.922 41.0324H132.545V45.7658H127.922V41.0324ZM137.169 41.0324H141.792V45.7658H137.169V41.0324ZM26.208 45.7658H30.8314V50.4992H26.208V45.7658ZM35.4547 45.7658H40.0781V50.4992H35.4547V45.7658ZM40.0781 45.7658H44.7014V50.4992H40.0781V45.7658ZM44.7014 45.7658H49.3248V50.4992H44.7014V45.7658ZM53.9482 45.7658H58.5715V50.4992H53.9482V45.7658ZM72.4416 45.7658H77.065V50.4992H72.4416V45.7658ZM77.065 45.7658H81.6883V50.4992H77.065V45.7658ZM81.6883 45.7658H86.3117V50.4992H81.6883V45.7658ZM86.3117 45.7658H90.9351V50.4992H86.3117V45.7658ZM90.9351 45.7658H95.5584V50.4992H90.9351V45.7658ZM109.428 45.7658H114.052V50.4992H109.428V45.7658ZM118.675 45.7658H123.299V50.4992H118.675V45.7658ZM123.299 45.7658H127.922V50.4992H123.299V45.7658ZM127.922 45.7658H132.545V50.4992H127.922V45.7658ZM137.169 45.7658H141.792V50.4992H137.169V45.7658ZM26.208 50.4992H30.8314V55.2327H26.208V50.4992ZM53.9482 50.4992H58.5715V55.2327H53.9482V50.4992ZM63.1949 50.4992H67.8182V55.2327H63.1949V50.4992ZM77.065 50.4992H81.6883V55.2327H77.065V50.4992ZM100.182 50.4992H104.805V55.2327H100.182V50.4992ZM109.428 50.4992H114.052V55.2327H109.428V50.4992ZM137.169 50.4992H141.792V55.2327H137.169V50.4992ZM26.208 55.2327H30.8314V59.9661H26.208V55.2327ZM30.8314 55.2327H35.4547V59.9661H30.8314V55.2327ZM35.4547 55.2327H40.0781V59.9661H35.4547V55.2327ZM40.0781 55.2327H44.7014V59.9661H40.0781V55.2327ZM44.7014 55.2327H49.3248V59.9661H44.7014V55.2327ZM49.3248 55.2327H53.9482V59.9661H49.3248V55.2327ZM53.9482 55.2327H58.5715V59.9661H53.9482V55.2327ZM63.1949 55.2327H67.8182V59.9661H63.1949V55.2327ZM72.4416 55.2327H77.065V59.9661H72.4416V55.2327ZM81.6883 55.2327H86.3117V59.9661H81.6883V55.2327ZM90.9351 55.2327H95.5584V59.9661H90.9351V55.2327ZM100.182 55.2327H104.805V59.9661H100.182V55.2327ZM109.428 55.2327H114.052V59.9661H109.428V55.2327ZM114.052 55.2327H118.675V59.9661H114.052V55.2327ZM118.675 55.2327H123.299V59.9661H118.675V55.2327ZM123.299 55.2327H127.922V59.9661H123.299V55.2327ZM127.922 55.2327H132.545V59.9661H127.922V55.2327ZM132.545 55.2327H137.169V59.9661H132.545V55.2327ZM137.169 55.2327H141.792V59.9661H137.169V55.2327ZM63.1949 59.9661H67.8182V64.6996H63.1949V59.9661ZM67.8182 59.9661H72.4416V64.6996H67.8182V59.9661ZM72.4416 59.9661H77.065V64.6996H72.4416V59.9661ZM90.9351 59.9661H95.5584V64.6996H90.9351V59.9661ZM95.5584 59.9661H100.182V64.6996H95.5584V59.9661ZM100.182 59.9661H104.805V64.6996H100.182V59.9661ZM30.8314 64.6996H35.4547V69.433H30.8314V64.6996ZM35.4547 64.6996H40.0781V69.433H35.4547V64.6996ZM53.9482 64.6996H58.5715V69.433H53.9482V64.6996ZM86.3117 64.6996H90.9351V69.433H86.3117V64.6996ZM90.9351 64.6996H95.5584V69.433H90.9351V64.6996ZM100.182 64.6996H104.805V69.433H100.182V64.6996ZM109.428 64.6996H114.052V69.433H109.428V64.6996ZM114.052 64.6996H118.675V69.433H114.052V64.6996ZM123.299 64.6996H127.922V69.433H123.299V64.6996ZM30.8314 69.433H35.4547V74.1664H30.8314V69.433ZM35.4547 69.433H40.0781V74.1664H35.4547V69.433ZM44.7014 69.433H49.3248V74.1664H44.7014V69.433ZM58.5715 69.433H63.1949V74.1664H58.5715V69.433ZM72.4416 69.433H77.065V74.1664H72.4416V69.433ZM77.065 69.433H81.6883V74.1664H77.065V69.433ZM81.6883 69.433H86.3117V74.1664H81.6883V69.433ZM86.3117 69.433H90.9351V74.1664H86.3117V69.433ZM90.9351 69.433H95.5584V74.1664H90.9351V69.433ZM95.5584 69.433H100.182V74.1664H95.5584V69.433ZM100.182 69.433H104.805V74.1664H100.182V69.433ZM109.428 69.433H114.052V74.1664H109.428V69.433ZM114.052 69.433H118.675V74.1664H114.052V69.433ZM123.299 69.433H127.922V74.1664H123.299V69.433ZM132.545 69.433H137.169V74.1664H132.545V69.433ZM137.169 69.433H141.792V74.1664H137.169V69.433ZM53.9482 74.1664H58.5715V78.8999H53.9482V74.1664ZM77.065 74.1664H81.6883V78.8999H77.065V74.1664ZM95.5584 74.1664H100.182V78.8999H95.5584V74.1664ZM104.805 74.1664H109.428V78.8999H104.805V74.1664ZM114.052 74.1664H118.675V78.8999H114.052V74.1664ZM123.299 74.1664H127.922V78.8999H123.299V74.1664ZM127.922 74.1664H132.545V78.8999H127.922V74.1664ZM137.169 74.1664H141.792V78.8999H137.169V74.1664ZM26.208 78.8999H30.8314V83.6333H26.208V78.8999ZM30.8314 78.8999H35.4547V83.6333H30.8314V78.8999ZM44.7014 78.8999H49.3248V83.6333H44.7014V78.8999ZM58.5715 78.8999H63.1949V83.6333H58.5715V78.8999ZM67.8182 78.8999H72.4416V83.6333H67.8182V78.8999ZM72.4416 78.8999H77.065V83.6333H72.4416V78.8999ZM86.3117 78.8999H90.9351V83.6333H86.3117V78.8999ZM95.5584 78.8999H100.182V83.6333H95.5584V78.8999ZM104.805 78.8999H109.428V83.6333H104.805V78.8999ZM114.052 78.8999H118.675V83.6333H114.052V78.8999ZM123.299 78.8999H127.922V83.6333H123.299V78.8999ZM26.208 83.6333H30.8314V88.3668H26.208V83.6333ZM30.8314 83.6333H35.4547V88.3668H30.8314V83.6333ZM40.0781 83.6333H44.7014V88.3668H40.0781V83.6333ZM53.9482 83.6333H58.5715V88.3668H53.9482V83.6333ZM58.5715 83.6333H63.1949V88.3668H58.5715V83.6333ZM63.1949 83.6333H67.8182V88.3668H63.1949V83.6333ZM67.8182 83.6333H72.4416V88.3668H67.8182V83.6333ZM72.4416 83.6333H77.065V88.3668H72.4416V83.6333ZM86.3117 83.6333H90.9351V88.3668H86.3117V83.6333ZM95.5584 83.6333H100.182V88.3668H95.5584V83.6333ZM100.182 83.6333H104.805V88.3668H100.182V83.6333ZM109.428 83.6333H114.052V88.3668H109.428V83.6333ZM114.052 83.6333H118.675V88.3668H114.052V83.6333ZM137.169 83.6333H141.792V88.3668H137.169V83.6333ZM35.4547 88.3668H40.0781V93.1002H35.4547V88.3668ZM40.0781 88.3668H44.7014V93.1002H40.0781V88.3668ZM44.7014 88.3668H49.3248V93.1002H44.7014V88.3668ZM72.4416 88.3668H77.065V93.1002H72.4416V88.3668ZM77.065 88.3668H81.6883V93.1002H77.065V88.3668ZM81.6883 88.3668H86.3117V93.1002H81.6883V88.3668ZM95.5584 88.3668H100.182V93.1002H95.5584V88.3668ZM100.182 88.3668H104.805V93.1002H100.182V88.3668ZM109.428 88.3668H114.052V93.1002H109.428V88.3668ZM114.052 88.3668H118.675V93.1002H114.052V88.3668ZM132.545 88.3668H137.169V93.1002H132.545V88.3668ZM137.169 88.3668H141.792V93.1002H137.169V88.3668ZM26.208 93.1002H30.8314V97.8336H26.208V93.1002ZM30.8314 93.1002H35.4547V97.8336H30.8314V93.1002ZM40.0781 93.1002H44.7014V97.8336H40.0781V93.1002ZM49.3248 93.1002H53.9482V97.8336H49.3248V93.1002ZM53.9482 93.1002H58.5715V97.8336H53.9482V93.1002ZM63.1949 93.1002H67.8182V97.8336H63.1949V93.1002ZM67.8182 93.1002H72.4416V97.8336H67.8182V93.1002ZM72.4416 93.1002H77.065V97.8336H72.4416V93.1002ZM81.6883 93.1002H86.3117V97.8336H81.6883V93.1002ZM95.5584 93.1002H100.182V97.8336H95.5584V93.1002ZM100.182 93.1002H104.805V97.8336H100.182V93.1002ZM109.428 93.1002H114.052V97.8336H109.428V93.1002ZM123.299 93.1002H127.922V97.8336H123.299V93.1002ZM127.922 93.1002H132.545V97.8336H127.922V93.1002ZM137.169 93.1002H141.792V97.8336H137.169V93.1002ZM35.4547 97.8336H40.0781V102.567H35.4547V97.8336ZM40.0781 97.8336H44.7014V102.567H40.0781V97.8336ZM44.7014 97.8336H49.3248V102.567H44.7014V97.8336ZM58.5715 97.8336H63.1949V102.567H58.5715V97.8336ZM72.4416 97.8336H77.065V102.567H72.4416V97.8336ZM90.9351 97.8336H95.5584V102.567H90.9351V97.8336ZM95.5584 97.8336H100.182V102.567H95.5584V97.8336ZM100.182 97.8336H104.805V102.567H100.182V97.8336ZM104.805 97.8336H109.428V102.567H104.805V97.8336ZM109.428 97.8336H114.052V102.567H109.428V97.8336ZM114.052 97.8336H118.675V102.567H114.052V97.8336ZM118.675 97.8336H123.299V102.567H118.675V97.8336ZM123.299 97.8336H127.922V102.567H123.299V97.8336ZM26.208 102.567H30.8314V107.301H26.208V102.567ZM30.8314 102.567H35.4547V107.301H30.8314V102.567ZM35.4547 102.567H40.0781V107.301H35.4547V102.567ZM44.7014 102.567H49.3248V107.301H44.7014V102.567ZM53.9482 102.567H58.5715V107.301H53.9482V102.567ZM63.1949 102.567H67.8182V107.301H63.1949V102.567ZM77.065 102.567H81.6883V107.301H77.065V102.567ZM100.182 102.567H104.805V107.301H100.182V102.567ZM104.805 102.567H109.428V107.301H104.805V102.567ZM109.428 102.567H114.052V107.301H109.428V102.567ZM114.052 102.567H118.675V107.301H114.052V102.567ZM118.675 102.567H123.299V107.301H118.675V102.567ZM132.545 102.567H137.169V107.301H132.545V102.567ZM63.1949 107.301H67.8182V112.034H63.1949V107.301ZM67.8182 107.301H72.4416V112.034H67.8182V107.301ZM72.4416 107.301H77.065V112.034H72.4416V107.301ZM77.065 107.301H81.6883V112.034H77.065V107.301ZM86.3117 107.301H90.9351V112.034H86.3117V107.301ZM90.9351 107.301H95.5584V112.034H90.9351V107.301ZM100.182 107.301H104.805V112.034H100.182V107.301ZM118.675 107.301H123.299V112.034H118.675V107.301ZM137.169 107.301H141.792V112.034H137.169V107.301ZM26.208 112.034H30.8314V116.767H26.208V112.034ZM30.8314 112.034H35.4547V116.767H30.8314V112.034ZM35.4547 112.034H40.0781V116.767H35.4547V112.034ZM40.0781 112.034H44.7014V116.767H40.0781V112.034ZM44.7014 112.034H49.3248V116.767H44.7014V112.034ZM49.3248 112.034H53.9482V116.767H49.3248V112.034ZM53.9482 112.034H58.5715V116.767H53.9482V112.034ZM72.4416 112.034H77.065V116.767H72.4416V112.034ZM77.065 112.034H81.6883V116.767H77.065V112.034ZM90.9351 112.034H95.5584V116.767H90.9351V112.034ZM100.182 112.034H104.805V116.767H100.182V112.034ZM109.428 112.034H114.052V116.767H109.428V112.034ZM118.675 112.034H123.299V116.767H118.675V112.034ZM137.169 112.034H141.792V116.767H137.169V112.034ZM26.208 116.767H30.8314V121.501H26.208V116.767ZM53.9482 116.767H58.5715V121.501H53.9482V116.767ZM67.8182 116.767H72.4416V121.501H67.8182V116.767ZM72.4416 116.767H77.065V121.501H72.4416V116.767ZM81.6883 116.767H86.3117V121.501H81.6883V116.767ZM86.3117 116.767H90.9351V121.501H86.3117V116.767ZM100.182 116.767H104.805V121.501H100.182V116.767ZM118.675 116.767H123.299V121.501H118.675V116.767ZM132.545 116.767H137.169V121.501H132.545V116.767ZM26.208 121.501H30.8314V126.234H26.208V121.501ZM35.4547 121.501H40.0781V126.234H35.4547V121.501ZM40.0781 121.501H44.7014V126.234H40.0781V121.501ZM44.7014 121.501H49.3248V126.234H44.7014V121.501ZM53.9482 121.501H58.5715V126.234H53.9482V121.501ZM67.8182 121.501H72.4416V126.234H67.8182V121.501ZM72.4416 121.501H77.065V126.234H72.4416V121.501ZM90.9351 121.501H95.5584V126.234H90.9351V121.501ZM95.5584 121.501H100.182V126.234H95.5584V121.501ZM100.182 121.501H104.805V126.234H100.182V121.501ZM104.805 121.501H109.428V126.234H104.805V121.501ZM109.428 121.501H114.052V126.234H109.428V121.501ZM114.052 121.501H118.675V126.234H114.052V121.501ZM118.675 121.501H123.299V126.234H118.675V121.501ZM132.545 121.501H137.169V126.234H132.545V121.501ZM137.169 121.501H141.792V126.234H137.169V121.501ZM26.208 126.234H30.8314V130.968H26.208V126.234ZM35.4547 126.234H40.0781V130.968H35.4547V126.234ZM40.0781 126.234H44.7014V130.968H40.0781V126.234ZM44.7014 126.234H49.3248V130.968H44.7014V126.234ZM53.9482 126.234H58.5715V130.968H53.9482V126.234ZM67.8182 126.234H72.4416V130.968H67.8182V126.234ZM72.4416 126.234H77.065V130.968H72.4416V126.234ZM77.065 126.234H81.6883V130.968H77.065V126.234ZM81.6883 126.234H86.3117V130.968H81.6883V126.234ZM95.5584 126.234H100.182V130.968H95.5584V126.234ZM104.805 126.234H109.428V130.968H104.805V126.234ZM118.675 126.234H123.299V130.968H118.675V126.234ZM127.922 126.234H132.545V130.968H127.922V126.234ZM132.545 126.234H137.169V130.968H132.545V126.234ZM26.208 130.968H30.8314V135.701H26.208V130.968ZM35.4547 130.968H40.0781V135.701H35.4547V130.968ZM40.0781 130.968H44.7014V135.701H40.0781V130.968ZM44.7014 130.968H49.3248V135.701H44.7014V130.968ZM53.9482 130.968H58.5715V135.701H53.9482V130.968ZM63.1949 130.968H67.8182V135.701H63.1949V130.968ZM86.3117 130.968H90.9351V135.701H86.3117V130.968ZM90.9351 130.968H95.5584V135.701H90.9351V130.968ZM95.5584 130.968H100.182V135.701H95.5584V130.968ZM100.182 130.968H104.805V135.701H100.182V130.968ZM104.805 130.968H109.428V135.701H104.805V130.968ZM114.052 130.968H118.675V135.701H114.052V130.968ZM118.675 130.968H123.299V135.701H118.675V130.968ZM123.299 130.968H127.922V135.701H123.299V130.968ZM132.545 130.968H137.169V135.701H132.545V130.968ZM137.169 130.968H141.792V135.701H137.169V130.968ZM26.208 135.701H30.8314V140.435H26.208V135.701ZM53.9482 135.701H58.5715V140.435H53.9482V135.701ZM63.1949 135.701H67.8182V140.435H63.1949V135.701ZM67.8182 135.701H72.4416V140.435H67.8182V135.701ZM72.4416 135.701H77.065V140.435H72.4416V135.701ZM86.3117 135.701H90.9351V140.435H86.3117V135.701ZM100.182 135.701H104.805V140.435H100.182V135.701ZM104.805 135.701H109.428V140.435H104.805V135.701ZM109.428 135.701H114.052V140.435H109.428V135.701ZM114.052 135.701H118.675V140.435H114.052V135.701ZM118.675 135.701H123.299V140.435H118.675V135.701ZM26.208 140.435H30.8314V145.168H26.208V140.435ZM30.8314 140.435H35.4547V145.168H30.8314V140.435ZM35.4547 140.435H40.0781V145.168H35.4547V140.435ZM40.0781 140.435H44.7014V145.168H40.0781V140.435ZM44.7014 140.435H49.3248V145.168H44.7014V140.435ZM49.3248 140.435H53.9482V145.168H49.3248V140.435ZM53.9482 140.435H58.5715V145.168H53.9482V140.435ZM72.4416 140.435H77.065V145.168H72.4416V140.435ZM81.6883 140.435H86.3117V145.168H81.6883V140.435ZM100.182 140.435H104.805V145.168H100.182V140.435ZM109.428 140.435H114.052V145.168H109.428V140.435ZM123.299 140.435H127.922V145.168H123.299V140.435ZM137.169 140.435H141.792V145.168H137.169V140.435Z" fill="white"/>
</svg>
