<svg width="32" height="32" viewBox="0 0 32 32" fill="none" xmlns="http://www.w3.org/2000/svg">
<path d="M25.3066 5.31046C25.6971 4.91995 26.3301 4.91995 26.7206 5.31046C27.111 5.70099 27.1111 6.33406 26.7206 6.72452L17.4286 16.0155L26.7206 25.3075C27.1109 25.6981 27.111 26.3311 26.7206 26.7216C26.3545 27.0876 25.7755 27.1102 25.3827 26.79L25.3066 26.7216L16.0155 17.4296L6.72452 26.7216L6.64835 26.79C6.25565 27.1103 5.67662 27.0875 5.31046 26.7216C4.91997 26.3311 4.91996 25.6981 5.31046 25.3075L14.6015 16.0155L5.31046 6.72452C4.91995 6.334 4.91995 5.70098 5.31046 5.31046C5.70099 4.91998 6.33402 4.91995 6.72452 5.31046L16.0155 14.6015L25.3066 5.31046Z" fill="white"/>
</svg>
